  0
SECTION
  2
HEADER
  9
$ACADVER
  1
AC1009
  9
$INSBASE
 10
0.0000
 20
0.0000
 30
0.0000
  9
$EXTMIN
 10
-129.0000
 20
-177.0000
 30
0.0000
  9
$EXTMAX
 10
223.0000
 20
192.0000
 30
0.0000
  9
$INSUNITS
 70
4
  9
$MEASUREMENT
 70
1
  0
ENDSEC
  0
SECTION
  2
TABLES
  0
TABLE
  2
LTYPE
 70
1
  0
LTYPE
  2
CONTINUOUS
 70
0
  3
Solid line
 72
65
 73
0
 40
0.0000
  0
ENDTAB
  0
TABLE
  2
LAYER
 70
10
  0
LAYER
  2
0
 70
0
 62
7
  6
CONTINUOUS
  0
LAYER
  2
STITCH
 70
0
 62
7
  6
CONTINUOUS
  0
LAYER
  2
BASE
 70
0
 62
4
  6
CONTINUOUS
  0
LAYER
  2
CUT_JAG
 70
0
 62
1
  6
CONTINUOUS
  0
LAYER
  2
PATCH
 70
0
 62
5
  6
CONTINUOUS
  0
LAYER
  2
GUIDE
 70
0
 62
150
  6
CONTINUOUS
  0
LAYER
  2
ORIENT
 70
0
 62
150
  6
CONTINUOUS
  0
LAYER
  2
CENTRE
 70
0
 62
8
  6
CONTINUOUS
  0
LAYER
  2
CHECK
 70
0
 62
30
  6
CONTINUOUS
  0
LAYER
  2
NOTES
 70
0
 62
3
  6
CONTINUOUS
  0
ENDTAB
  0
TABLE
  2
STYLE
 70
1
  0
STYLE
  2
STANDARD
 70
0
 40
0.0000
 41
1.0000
 50
0.0000
 71
0
 42
2.5000
  3
txt
  4

  0
ENDTAB
  0
ENDSEC
  0
SECTION
  2
BLOCKS
  0
ENDSEC
  0
SECTION
  2
ENTITIES
  0
POLYLINE
  8
STITCH
 66
1
 10
0.0000
 20
0.0000
 30
0.0000
 70
1
  0
VERTEX
  8
STITCH
 10
25.7398
 20
-3.1419
 30
0.0000
  0
VERTEX
  8
STITCH
 10
59.4596
 20
-38.6466
 30
0.0000
  0
VERTEX
  8
STITCH
 10
61.4691
 20
-40.8309
 30
0.0000
  0
VERTEX
  8
STITCH
 10
64.3883
 20
-44.1974
 30
0.0000
  0
VERTEX
  8
STITCH
 10
66.2784
 20
-46.4951
 30
0.0000
  0
VERTEX
  8
STITCH
 10
68.1293
 20
-48.8299
 30
0.0000
  0
VERTEX
  8
STITCH
 10
69.9461
 20
-51.1971
 30
0.0000
  0
VERTEX
  8
STITCH
 10
72.6179
 20
-54.7987
 30
0.0000
  0
VERTEX
  8
STITCH
 10
76.1065
 20
-59.6708
 30
0.0000
  0
VERTEX
  8
STITCH
 10
85.5710
 20
-73.1921
 30
0.0000
  0
VERTEX
  8
STITCH
 10
88.1969
 20
-76.8372
 30
0.0000
  0
VERTEX
  8
STITCH
 10
90.8733
 20
-80.4344
 30
0.0000
  0
VERTEX
  8
STITCH
 10
93.6170
 20
-83.9677
 30
0.0000
  0
VERTEX
  8
STITCH
 10
96.4444
 20
-87.4214
 30
0.0000
  0
VERTEX
  8
STITCH
 10
99.3724
 20
-90.7797
 30
0.0000
  0
VERTEX
  8
STITCH
 10
101.8015
 20
-93.4223
 30
0.0000
  0
VERTEX
  8
STITCH
 10
102.1834
 20
-93.9129
 30
0.0000
  0
VERTEX
  8
STITCH
 10
102.5323
 20
-94.4273
 30
0.0000
  0
VERTEX
  8
STITCH
 10
102.8469
 20
-94.9635
 30
0.0000
  0
VERTEX
  8
STITCH
 10
103.1257
 20
-95.5192
 30
0.0000
  0
VERTEX
  8
STITCH
 10
103.3676
 20
-96.0918
 30
0.0000
  0
VERTEX
  8
STITCH
 10
103.5715
 20
-96.6791
 30
0.0000
  0
VERTEX
  8
STITCH
 10
103.7366
 20
-97.2785
 30
0.0000
  0
VERTEX
  8
STITCH
 10
103.8621
 20
-97.8873
 30
0.0000
  0
VERTEX
  8
STITCH
 10
103.9475
 20
-98.5031
 30
0.0000
  0
VERTEX
  8
STITCH
 10
103.9925
 20
-99.1231
 30
0.0000
  0
VERTEX
  8
STITCH
 10
103.9968
 20
-99.7448
 30
0.0000
  0
VERTEX
  8
STITCH
 10
103.9605
 20
-100.3654
 30
0.0000
  0
VERTEX
  8
STITCH
 10
103.8837
 20
-100.9823
 30
0.0000
  0
VERTEX
  8
STITCH
 10
103.7666
 20
-101.5928
 30
0.0000
  0
VERTEX
  8
STITCH
 10
103.6099
 20
-102.1944
 30
0.0000
  0
VERTEX
  8
STITCH
 10
103.4142
 20
-102.7844
 30
0.0000
  0
VERTEX
  8
STITCH
 10
103.1803
 20
-103.3604
 30
0.0000
  0
VERTEX
  8
STITCH
 10
102.9092
 20
-103.9199
 30
0.0000
  0
VERTEX
  8
STITCH
 10
102.6021
 20
-104.4604
 30
0.0000
  0
VERTEX
  8
STITCH
 10
102.2604
 20
-104.9797
 30
0.0000
  0
VERTEX
  8
STITCH
 10
101.8854
 20
-105.4755
 30
0.0000
  0
VERTEX
  8
STITCH
 10
101.4787
 20
-105.9457
 30
0.0000
  0
VERTEX
  8
STITCH
 10
101.0422
 20
-106.3884
 30
0.0000
  0
VERTEX
  8
STITCH
 10
100.5777
 20
-106.8015
 30
0.0000
  0
VERTEX
  8
STITCH
 10
100.0871
 20
-107.1834
 30
0.0000
  0
VERTEX
  8
STITCH
 10
99.5727
 20
-107.5323
 30
0.0000
  0
VERTEX
  8
STITCH
 10
99.0365
 20
-107.8469
 30
0.0000
  0
VERTEX
  8
STITCH
 10
98.4808
 20
-108.1257
 30
0.0000
  0
VERTEX
  8
STITCH
 10
97.9082
 20
-108.3676
 30
0.0000
  0
VERTEX
  8
STITCH
 10
97.3209
 20
-108.5715
 30
0.0000
  0
VERTEX
  8
STITCH
 10
96.7215
 20
-108.7366
 30
0.0000
  0
VERTEX
  8
STITCH
 10
96.1127
 20
-108.8621
 30
0.0000
  0
VERTEX
  8
STITCH
 10
95.4969
 20
-108.9475
 30
0.0000
  0
VERTEX
  8
STITCH
 10
94.8769
 20
-108.9925
 30
0.0000
  0
VERTEX
  8
STITCH
 10
94.2552
 20
-108.9968
 30
0.0000
  0
VERTEX
  8
STITCH
 10
93.6346
 20
-108.9605
 30
0.0000
  0
VERTEX
  8
STITCH
 10
93.0177
 20
-108.8837
 30
0.0000
  0
VERTEX
  8
STITCH
 10
92.4072
 20
-108.7666
 30
0.0000
  0
VERTEX
  8
STITCH
 10
91.8056
 20
-108.6099
 30
0.0000
  0
VERTEX
  8
STITCH
 10
91.2156
 20
-108.4142
 30
0.0000
  0
VERTEX
  8
STITCH
 10
90.6396
 20
-108.1803
 30
0.0000
  0
VERTEX
  8
STITCH
 10
90.0801
 20
-107.9092
 30
0.0000
  0
VERTEX
  8
STITCH
 10
89.5396
 20
-107.6021
 30
0.0000
  0
VERTEX
  8
STITCH
 10
89.0203
 20
-107.2604
 30
0.0000
  0
VERTEX
  8
STITCH
 10
88.5245
 20
-106.8854
 30
0.0000
  0
VERTEX
  8
STITCH
 10
88.0543
 20
-106.4787
 30
0.0000
  0
VERTEX
  8
STITCH
 10
85.5759
 20
-103.9523
 30
0.0000
  0
VERTEX
  8
STITCH
 10
82.4292
 20
-100.9057
 30
0.0000
  0
VERTEX
  8
STITCH
 10
79.1851
 20
-97.9518
 30
0.0000
  0
VERTEX
  8
STITCH
 10
75.8591
 20
-95.0756
 30
0.0000
  0
VERTEX
  8
STITCH
 10
72.4673
 20
-92.2619
 30
0.0000
  0
VERTEX
  8
STITCH
 10
69.0253
 20
-89.4959
 30
0.0000
  0
VERTEX
  8
STITCH
 10
56.2311
 20
-79.5186
 30
0.0000
  0
VERTEX
  8
STITCH
 10
50.4736
 20
-74.9283
 30
0.0000
  0
VERTEX
  8
STITCH
 10
45.9639
 20
-71.1646
 30
0.0000
  0
VERTEX
  8
STITCH
 10
43.7541
 20
-69.2399
 30
0.0000
  0
VERTEX
  8
STITCH
 10
41.5806
 20
-67.2809
 30
0.0000
  0
VERTEX
  8
STITCH
 10
38.3984
 20
-64.2681
 30
0.0000
  0
VERTEX
  8
STITCH
 10
35.3241
 20
-61.1529
 30
0.0000
  0
VERTEX
  8
STITCH
 10
2.1753
 20
-26.2502
 30
0.0000
  0
VERTEX
  8
STITCH
 10
1.7146
 20
-25.8544
 30
0.0000
  0
VERTEX
  8
STITCH
 10
1.1837
 20
-25.5595
 30
0.0000
  0
VERTEX
  8
STITCH
 10
0.6042
 20
-25.3776
 30
0.0000
  0
VERTEX
  8
STITCH
 10
0.0000
 20
-25.3161
 30
0.0000
  0
VERTEX
  8
STITCH
 10
-0.6042
 20
-25.3776
 30
0.0000
  0
VERTEX
  8
STITCH
 10
-1.1837
 20
-25.5595
 30
0.0000
  0
VERTEX
  8
STITCH
 10
-1.7146
 20
-25.8544
 30
0.0000
  0
VERTEX
  8
STITCH
 10
-2.1753
 20
-26.2502
 30
0.0000
  0
VERTEX
  8
STITCH
 10
-35.3241
 20
-61.1529
 30
0.0000
  0
VERTEX
  8
STITCH
 10
-38.3984
 20
-64.2681
 30
0.0000
  0
VERTEX
  8
STITCH
 10
-41.5806
 20
-67.2809
 30
0.0000
  0
VERTEX
  8
STITCH
 10
-43.7541
 20
-69.2399
 30
0.0000
  0
VERTEX
  8
STITCH
 10
-45.9639
 20
-71.1646
 30
0.0000
  0
VERTEX
  8
STITCH
 10
-50.4736
 20
-74.9283
 30
0.0000
  0
VERTEX
  8
STITCH
 10
-56.2311
 20
-79.5186
 30
0.0000
  0
VERTEX
  8
STITCH
 10
-69.0253
 20
-89.4959
 30
0.0000
  0
VERTEX
  8
STITCH
 10
-72.4673
 20
-92.2619
 30
0.0000
  0
VERTEX
  8
STITCH
 10
-75.8591
 20
-95.0756
 30
0.0000
  0
VERTEX
  8
STITCH
 10
-79.1851
 20
-97.9518
 30
0.0000
  0
VERTEX
  8
STITCH
 10
-82.4292
 20
-100.9057
 30
0.0000
  0
VERTEX
  8
STITCH
 10
-85.5759
 20
-103.9523
 30
0.0000
  0
VERTEX
  8
STITCH
 10
-88.0543
 20
-106.4787
 30
0.0000
  0
VERTEX
  8
STITCH
 10
-88.5245
 20
-106.8854
 30
0.0000
  0
VERTEX
  8
STITCH
 10
-89.0203
 20
-107.2604
 30
0.0000
  0
VERTEX
  8
STITCH
 10
-89.5396
 20
-107.6021
 30
0.0000
  0
VERTEX
  8
STITCH
 10
-90.0801
 20
-107.9092
 30
0.0000
  0
VERTEX
  8
STITCH
 10
-90.6396
 20
-108.1803
 30
0.0000
  0
VERTEX
  8
STITCH
 10
-91.2156
 20
-108.4142
 30
0.0000
  0
VERTEX
  8
STITCH
 10
-91.8056
 20
-108.6099
 30
0.0000
  0
VERTEX
  8
STITCH
 10
-92.4072
 20
-108.7666
 30
0.0000
  0
VERTEX
  8
STITCH
 10
-93.0177
 20
-108.8837
 30
0.0000
  0
VERTEX
  8
STITCH
 10
-93.6346
 20
-108.9605
 30
0.0000
  0
VERTEX
  8
STITCH
 10
-94.2552
 20
-108.9968
 30
0.0000
  0
VERTEX
  8
STITCH
 10
-94.8769
 20
-108.9925
 30
0.0000
  0
VERTEX
  8
STITCH
 10
-95.4969
 20
-108.9475
 30
0.0000
  0
VERTEX
  8
STITCH
 10
-96.1127
 20
-108.8621
 30
0.0000
  0
VERTEX
  8
STITCH
 10
-96.7215
 20
-108.7366
 30
0.0000
  0
VERTEX
  8
STITCH
 10
-97.3209
 20
-108.5715
 30
0.0000
  0
VERTEX
  8
STITCH
 10
-97.9082
 20
-108.3676
 30
0.0000
  0
VERTEX
  8
STITCH
 10
-98.4808
 20
-108.1257
 30
0.0000
  0
VERTEX
  8
STITCH
 10
-99.0365
 20
-107.8469
 30
0.0000
  0
VERTEX
  8
STITCH
 10
-99.5727
 20
-107.5323
 30
0.0000
  0
VERTEX
  8
STITCH
 10
-100.0871
 20
-107.1834
 30
0.0000
  0
VERTEX
  8
STITCH
 10
-100.5777
 20
-106.8015
 30
0.0000
  0
VERTEX
  8
STITCH
 10
-101.0422
 20
-106.3884
 30
0.0000
  0
VERTEX
  8
STITCH
 10
-101.4787
 20
-105.9457
 30
0.0000
  0
VERTEX
  8
STITCH
 10
-101.8854
 20
-105.4755
 30
0.0000
  0
VERTEX
  8
STITCH
 10
-102.2604
 20
-104.9797
 30
0.0000
  0
VERTEX
  8
STITCH
 10
-102.6021
 20
-104.4604
 30
0.0000
  0
VERTEX
  8
STITCH
 10
-102.9092
 20
-103.9199
 30
0.0000
  0
VERTEX
  8
STITCH
 10
-103.1803
 20
-103.3604
 30
0.0000
  0
VERTEX
  8
STITCH
 10
-103.4142
 20
-102.7844
 30
0.0000
  0
VERTEX
  8
STITCH
 10
-103.6099
 20
-102.1944
 30
0.0000
  0
VERTEX
  8
STITCH
 10
-103.7666
 20
-101.5928
 30
0.0000
  0
VERTEX
  8
STITCH
 10
-103.8837
 20
-100.9823
 30
0.0000
  0
VERTEX
  8
STITCH
 10
-103.9605
 20
-100.3654
 30
0.0000
  0
VERTEX
  8
STITCH
 10
-103.9968
 20
-99.7448
 30
0.0000
  0
VERTEX
  8
STITCH
 10
-103.9925
 20
-99.1231
 30
0.0000
  0
VERTEX
  8
STITCH
 10
-103.9475
 20
-98.5031
 30
0.0000
  0
VERTEX
  8
STITCH
 10
-103.8621
 20
-97.8873
 30
0.0000
  0
VERTEX
  8
STITCH
 10
-103.7366
 20
-97.2785
 30
0.0000
  0
VERTEX
  8
STITCH
 10
-103.5715
 20
-96.6791
 30
0.0000
  0
VERTEX
  8
STITCH
 10
-103.3676
 20
-96.0918
 30
0.0000
  0
VERTEX
  8
STITCH
 10
-103.1257
 20
-95.5192
 30
0.0000
  0
VERTEX
  8
STITCH
 10
-102.8469
 20
-94.9635
 30
0.0000
  0
VERTEX
  8
STITCH
 10
-102.5323
 20
-94.4273
 30
0.0000
  0
VERTEX
  8
STITCH
 10
-102.1834
 20
-93.9129
 30
0.0000
  0
VERTEX
  8
STITCH
 10
-101.8015
 20
-93.4223
 30
0.0000
  0
VERTEX
  8
STITCH
 10
-99.3724
 20
-90.7797
 30
0.0000
  0
VERTEX
  8
STITCH
 10
-96.4444
 20
-87.4214
 30
0.0000
  0
VERTEX
  8
STITCH
 10
-93.6170
 20
-83.9677
 30
0.0000
  0
VERTEX
  8
STITCH
 10
-90.8733
 20
-80.4344
 30
0.0000
  0
VERTEX
  8
STITCH
 10
-88.1969
 20
-76.8372
 30
0.0000
  0
VERTEX
  8
STITCH
 10
-85.5710
 20
-73.1921
 30
0.0000
  0
VERTEX
  8
STITCH
 10
-76.1065
 20
-59.6708
 30
0.0000
  0
VERTEX
  8
STITCH
 10
-72.6179
 20
-54.7987
 30
0.0000
  0
VERTEX
  8
STITCH
 10
-69.9461
 20
-51.1971
 30
0.0000
  0
VERTEX
  8
STITCH
 10
-68.1293
 20
-48.8299
 30
0.0000
  0
VERTEX
  8
STITCH
 10
-66.2784
 20
-46.4951
 30
0.0000
  0
VERTEX
  8
STITCH
 10
-64.3883
 20
-44.1974
 30
0.0000
  0
VERTEX
  8
STITCH
 10
-61.4691
 20
-40.8309
 30
0.0000
  0
VERTEX
  8
STITCH
 10
-59.4596
 20
-38.6466
 30
0.0000
  0
VERTEX
  8
STITCH
 10
-24.7179
 20
-2.0660
 30
0.0000
  0
VERTEX
  8
STITCH
 10
-24.3670
 20
-1.6182
 30
0.0000
  0
VERTEX
  8
STITCH
 10
-24.1070
 20
-1.1122
 30
0.0000
  0
VERTEX
  8
STITCH
 10
-23.9471
 20
-0.5663
 30
0.0000
  0
VERTEX
  8
STITCH
 10
-23.8932
 20
-0.0000
 30
0.0000
  0
VERTEX
  8
STITCH
 10
-23.9471
 20
0.5663
 30
0.0000
  0
VERTEX
  8
STITCH
 10
-24.1070
 20
1.1122
 30
0.0000
  0
VERTEX
  8
STITCH
 10
-24.3670
 20
1.6182
 30
0.0000
  0
VERTEX
  8
STITCH
 10
-24.7179
 20
2.0660
 30
0.0000
  0
VERTEX
  8
STITCH
 10
-59.4596
 20
38.6466
 30
0.0000
  0
VERTEX
  8
STITCH
 10
-61.4691
 20
40.8309
 30
0.0000
  0
VERTEX
  8
STITCH
 10
-64.3883
 20
44.1974
 30
0.0000
  0
VERTEX
  8
STITCH
 10
-66.2784
 20
46.4951
 30
0.0000
  0
VERTEX
  8
STITCH
 10
-68.1293
 20
48.8299
 30
0.0000
  0
VERTEX
  8
STITCH
 10
-69.9461
 20
51.1971
 30
0.0000
  0
VERTEX
  8
STITCH
 10
-72.6179
 20
54.7987
 30
0.0000
  0
VERTEX
  8
STITCH
 10
-76.1065
 20
59.6708
 30
0.0000
  0
VERTEX
  8
STITCH
 10
-85.5710
 20
73.1921
 30
0.0000
  0
VERTEX
  8
STITCH
 10
-88.1969
 20
76.8372
 30
0.0000
  0
VERTEX
  8
STITCH
 10
-90.8733
 20
80.4344
 30
0.0000
  0
VERTEX
  8
STITCH
 10
-93.6170
 20
83.9677
 30
0.0000
  0
VERTEX
  8
STITCH
 10
-96.4444
 20
87.4214
 30
0.0000
  0
VERTEX
  8
STITCH
 10
-99.3724
 20
90.7797
 30
0.0000
  0
VERTEX
  8
STITCH
 10
-101.8015
 20
93.4223
 30
0.0000
  0
VERTEX
  8
STITCH
 10
-102.1834
 20
93.9129
 30
0.0000
  0
VERTEX
  8
STITCH
 10
-102.5323
 20
94.4273
 30
0.0000
  0
VERTEX
  8
STITCH
 10
-102.8469
 20
94.9635
 30
0.0000
  0
VERTEX
  8
STITCH
 10
-103.1257
 20
95.5192
 30
0.0000
  0
VERTEX
  8
STITCH
 10
-103.3676
 20
96.0918
 30
0.0000
  0
VERTEX
  8
STITCH
 10
-103.5715
 20
96.6791
 30
0.0000
  0
VERTEX
  8
STITCH
 10
-103.7366
 20
97.2785
 30
0.0000
  0
VERTEX
  8
STITCH
 10
-103.8621
 20
97.8873
 30
0.0000
  0
VERTEX
  8
STITCH
 10
-103.9475
 20
98.5031
 30
0.0000
  0
VERTEX
  8
STITCH
 10
-103.9925
 20
99.1231
 30
0.0000
  0
VERTEX
  8
STITCH
 10
-103.9968
 20
99.7448
 30
0.0000
  0
VERTEX
  8
STITCH
 10
-103.9605
 20
100.3654
 30
0.0000
  0
VERTEX
  8
STITCH
 10
-103.8837
 20
100.9823
 30
0.0000
  0
VERTEX
  8
STITCH
 10
-103.7666
 20
101.5928
 30
0.0000
  0
VERTEX
  8
STITCH
 10
-103.6099
 20
102.1944
 30
0.0000
  0
VERTEX
  8
STITCH
 10
-103.4142
 20
102.7844
 30
0.0000
  0
VERTEX
  8
STITCH
 10
-103.1803
 20
103.3604
 30
0.0000
  0
VERTEX
  8
STITCH
 10
-102.9092
 20
103.9199
 30
0.0000
  0
VERTEX
  8
STITCH
 10
-102.6021
 20
104.4604
 30
0.0000
  0
VERTEX
  8
STITCH
 10
-102.2604
 20
104.9797
 30
0.0000
  0
VERTEX
  8
STITCH
 10
-101.8854
 20
105.4755
 30
0.0000
  0
VERTEX
  8
STITCH
 10
-101.4787
 20
105.9457
 30
0.0000
  0
VERTEX
  8
STITCH
 10
-101.0422
 20
106.3884
 30
0.0000
  0
VERTEX
  8
STITCH
 10
-100.5777
 20
106.8015
 30
0.0000
  0
VERTEX
  8
STITCH
 10
-100.0871
 20
107.1834
 30
0.0000
  0
VERTEX
  8
STITCH
 10
-99.5727
 20
107.5323
 30
0.0000
  0
VERTEX
  8
STITCH
 10
-99.0365
 20
107.8469
 30
0.0000
  0
VERTEX
  8
STITCH
 10
-98.4808
 20
108.1257
 30
0.0000
  0
VERTEX
  8
STITCH
 10
-97.9082
 20
108.3676
 30
0.0000
  0
VERTEX
  8
STITCH
 10
-97.3209
 20
108.5715
 30
0.0000
  0
VERTEX
  8
STITCH
 10
-96.7215
 20
108.7366
 30
0.0000
  0
VERTEX
  8
STITCH
 10
-96.1127
 20
108.8621
 30
0.0000
  0
VERTEX
  8
STITCH
 10
-95.4969
 20
108.9475
 30
0.0000
  0
VERTEX
  8
STITCH
 10
-94.8769
 20
108.9925
 30
0.0000
  0
VERTEX
  8
STITCH
 10
-94.2552
 20
108.9968
 30
0.0000
  0
VERTEX
  8
STITCH
 10
-93.6346
 20
108.9605
 30
0.0000
  0
VERTEX
  8
STITCH
 10
-93.0177
 20
108.8837
 30
0.0000
  0
VERTEX
  8
STITCH
 10
-92.4072
 20
108.7666
 30
0.0000
  0
VERTEX
  8
STITCH
 10
-91.8056
 20
108.6099
 30
0.0000
  0
VERTEX
  8
STITCH
 10
-91.2156
 20
108.4142
 30
0.0000
  0
VERTEX
  8
STITCH
 10
-90.6396
 20
108.1803
 30
0.0000
  0
VERTEX
  8
STITCH
 10
-90.0801
 20
107.9092
 30
0.0000
  0
VERTEX
  8
STITCH
 10
-89.5396
 20
107.6021
 30
0.0000
  0
VERTEX
  8
STITCH
 10
-89.0203
 20
107.2604
 30
0.0000
  0
VERTEX
  8
STITCH
 10
-88.5245
 20
106.8854
 30
0.0000
  0
VERTEX
  8
STITCH
 10
-88.0543
 20
106.4787
 30
0.0000
  0
VERTEX
  8
STITCH
 10
-85.5759
 20
103.9523
 30
0.0000
  0
VERTEX
  8
STITCH
 10
-82.4292
 20
100.9057
 30
0.0000
  0
VERTEX
  8
STITCH
 10
-79.1851
 20
97.9518
 30
0.0000
  0
VERTEX
  8
STITCH
 10
-75.8591
 20
95.0756
 30
0.0000
  0
VERTEX
  8
STITCH
 10
-72.4673
 20
92.2619
 30
0.0000
  0
VERTEX
  8
STITCH
 10
-69.0253
 20
89.4959
 30
0.0000
  0
VERTEX
  8
STITCH
 10
-56.2311
 20
79.5186
 30
0.0000
  0
VERTEX
  8
STITCH
 10
-50.4736
 20
74.9283
 30
0.0000
  0
VERTEX
  8
STITCH
 10
-45.9639
 20
71.1646
 30
0.0000
  0
VERTEX
  8
STITCH
 10
-43.7541
 20
69.2399
 30
0.0000
  0
VERTEX
  8
STITCH
 10
-41.5806
 20
67.2809
 30
0.0000
  0
VERTEX
  8
STITCH
 10
-38.3984
 20
64.2681
 30
0.0000
  0
VERTEX
  8
STITCH
 10
-35.3241
 20
61.1529
 30
0.0000
  0
VERTEX
  8
STITCH
 10
-2.1753
 20
26.2502
 30
0.0000
  0
VERTEX
  8
STITCH
 10
-1.7146
 20
25.8544
 30
0.0000
  0
VERTEX
  8
STITCH
 10
-1.1837
 20
25.5595
 30
0.0000
  0
VERTEX
  8
STITCH
 10
-0.6042
 20
25.3776
 30
0.0000
  0
VERTEX
  8
STITCH
 10
-0.0000
 20
25.3161
 30
0.0000
  0
VERTEX
  8
STITCH
 10
0.6042
 20
25.3776
 30
0.0000
  0
VERTEX
  8
STITCH
 10
1.1837
 20
25.5595
 30
0.0000
  0
VERTEX
  8
STITCH
 10
1.7146
 20
25.8544
 30
0.0000
  0
VERTEX
  8
STITCH
 10
2.1753
 20
26.2502
 30
0.0000
  0
VERTEX
  8
STITCH
 10
35.3241
 20
61.1529
 30
0.0000
  0
VERTEX
  8
STITCH
 10
38.3984
 20
64.2681
 30
0.0000
  0
VERTEX
  8
STITCH
 10
41.5806
 20
67.2809
 30
0.0000
  0
VERTEX
  8
STITCH
 10
43.7541
 20
69.2399
 30
0.0000
  0
VERTEX
  8
STITCH
 10
45.9639
 20
71.1646
 30
0.0000
  0
VERTEX
  8
STITCH
 10
50.4736
 20
74.9283
 30
0.0000
  0
VERTEX
  8
STITCH
 10
56.2311
 20
79.5186
 30
0.0000
  0
VERTEX
  8
STITCH
 10
69.0253
 20
89.4959
 30
0.0000
  0
VERTEX
  8
STITCH
 10
72.4673
 20
92.2619
 30
0.0000
  0
VERTEX
  8
STITCH
 10
75.8591
 20
95.0756
 30
0.0000
  0
VERTEX
  8
STITCH
 10
79.1851
 20
97.9518
 30
0.0000
  0
VERTEX
  8
STITCH
 10
82.4292
 20
100.9057
 30
0.0000
  0
VERTEX
  8
STITCH
 10
85.5759
 20
103.9523
 30
0.0000
  0
VERTEX
  8
STITCH
 10
88.0543
 20
106.4787
 30
0.0000
  0
VERTEX
  8
STITCH
 10
88.5245
 20
106.8854
 30
0.0000
  0
VERTEX
  8
STITCH
 10
89.0203
 20
107.2604
 30
0.0000
  0
VERTEX
  8
STITCH
 10
89.5396
 20
107.6021
 30
0.0000
  0
VERTEX
  8
STITCH
 10
90.0801
 20
107.9092
 30
0.0000
  0
VERTEX
  8
STITCH
 10
90.6396
 20
108.1803
 30
0.0000
  0
VERTEX
  8
STITCH
 10
91.2156
 20
108.4142
 30
0.0000
  0
VERTEX
  8
STITCH
 10
91.8056
 20
108.6099
 30
0.0000
  0
VERTEX
  8
STITCH
 10
92.4072
 20
108.7666
 30
0.0000
  0
VERTEX
  8
STITCH
 10
93.0177
 20
108.8837
 30
0.0000
  0
VERTEX
  8
STITCH
 10
93.6346
 20
108.9605
 30
0.0000
  0
VERTEX
  8
STITCH
 10
94.2552
 20
108.9968
 30
0.0000
  0
VERTEX
  8
STITCH
 10
94.8769
 20
108.9925
 30
0.0000
  0
VERTEX
  8
STITCH
 10
95.4969
 20
108.9475
 30
0.0000
  0
VERTEX
  8
STITCH
 10
96.1127
 20
108.8621
 30
0.0000
  0
VERTEX
  8
STITCH
 10
96.7215
 20
108.7366
 30
0.0000
  0
VERTEX
  8
STITCH
 10
97.3209
 20
108.5715
 30
0.0000
  0
VERTEX
  8
STITCH
 10
97.9082
 20
108.3676
 30
0.0000
  0
VERTEX
  8
STITCH
 10
98.4808
 20
108.1257
 30
0.0000
  0
VERTEX
  8
STITCH
 10
99.0365
 20
107.8469
 30
0.0000
  0
VERTEX
  8
STITCH
 10
99.5727
 20
107.5323
 30
0.0000
  0
VERTEX
  8
STITCH
 10
100.0871
 20
107.1834
 30
0.0000
  0
VERTEX
  8
STITCH
 10
100.5777
 20
106.8015
 30
0.0000
  0
VERTEX
  8
STITCH
 10
101.0422
 20
106.3884
 30
0.0000
  0
VERTEX
  8
STITCH
 10
101.4787
 20
105.9457
 30
0.0000
  0
VERTEX
  8
STITCH
 10
101.8854
 20
105.4755
 30
0.0000
  0
VERTEX
  8
STITCH
 10
102.2604
 20
104.9797
 30
0.0000
  0
VERTEX
  8
STITCH
 10
102.6021
 20
104.4604
 30
0.0000
  0
VERTEX
  8
STITCH
 10
102.9092
 20
103.9199
 30
0.0000
  0
VERTEX
  8
STITCH
 10
103.1803
 20
103.3604
 30
0.0000
  0
VERTEX
  8
STITCH
 10
103.4142
 20
102.7844
 30
0.0000
  0
VERTEX
  8
STITCH
 10
103.6099
 20
102.1944
 30
0.0000
  0
VERTEX
  8
STITCH
 10
103.7666
 20
101.5928
 30
0.0000
  0
VERTEX
  8
STITCH
 10
103.8837
 20
100.9823
 30
0.0000
  0
VERTEX
  8
STITCH
 10
103.9605
 20
100.3654
 30
0.0000
  0
VERTEX
  8
STITCH
 10
103.9968
 20
99.7448
 30
0.0000
  0
VERTEX
  8
STITCH
 10
103.9925
 20
99.1231
 30
0.0000
  0
VERTEX
  8
STITCH
 10
103.9475
 20
98.5031
 30
0.0000
  0
VERTEX
  8
STITCH
 10
103.8621
 20
97.8873
 30
0.0000
  0
VERTEX
  8
STITCH
 10
103.7366
 20
97.2785
 30
0.0000
  0
VERTEX
  8
STITCH
 10
103.5715
 20
96.6791
 30
0.0000
  0
VERTEX
  8
STITCH
 10
103.3676
 20
96.0918
 30
0.0000
  0
VERTEX
  8
STITCH
 10
103.1257
 20
95.5192
 30
0.0000
  0
VERTEX
  8
STITCH
 10
102.8469
 20
94.9635
 30
0.0000
  0
VERTEX
  8
STITCH
 10
102.5323
 20
94.4273
 30
0.0000
  0
VERTEX
  8
STITCH
 10
102.1834
 20
93.9129
 30
0.0000
  0
VERTEX
  8
STITCH
 10
101.8015
 20
93.4223
 30
0.0000
  0
VERTEX
  8
STITCH
 10
99.3724
 20
90.7797
 30
0.0000
  0
VERTEX
  8
STITCH
 10
96.4444
 20
87.4214
 30
0.0000
  0
VERTEX
  8
STITCH
 10
93.6170
 20
83.9677
 30
0.0000
  0
VERTEX
  8
STITCH
 10
90.8733
 20
80.4344
 30
0.0000
  0
VERTEX
  8
STITCH
 10
88.1969
 20
76.8372
 30
0.0000
  0
VERTEX
  8
STITCH
 10
85.5710
 20
73.1921
 30
0.0000
  0
VERTEX
  8
STITCH
 10
76.1065
 20
59.6708
 30
0.0000
  0
VERTEX
  8
STITCH
 10
72.6179
 20
54.7987
 30
0.0000
  0
VERTEX
  8
STITCH
 10
69.9461
 20
51.1971
 30
0.0000
  0
VERTEX
  8
STITCH
 10
68.1293
 20
48.8299
 30
0.0000
  0
VERTEX
  8
STITCH
 10
66.2784
 20
46.4951
 30
0.0000
  0
VERTEX
  8
STITCH
 10
64.3883
 20
44.1974
 30
0.0000
  0
VERTEX
  8
STITCH
 10
61.4691
 20
40.8309
 30
0.0000
  0
VERTEX
  8
STITCH
 10
59.4596
 20
38.6466
 30
0.0000
  0
VERTEX
  8
STITCH
 10
24.5916
 20
1.9242
 30
0.0000
  0
VERTEX
  8
STITCH
 10
24.3670
 20
1.6182
 30
0.0000
  0
VERTEX
  8
STITCH
 10
24.1829
 20
1.2863
 30
0.0000
  0
VERTEX
  8
STITCH
 10
24.0422
 20
0.9338
 30
0.0000
  0
VERTEX
  8
STITCH
 10
23.9471
 20
0.5663
 30
0.0000
  0
VERTEX
  8
STITCH
 10
23.8992
 20
0.1898
 30
0.0000
  0
VERTEX
  8
STITCH
 10
23.8992
 20
-0.1898
 30
0.0000
  0
VERTEX
  8
STITCH
 10
23.9889
 20
-0.7515
 30
0.0000
  0
VERTEX
  8
STITCH
 10
24.1829
 20
-1.2863
 30
0.0000
  0
VERTEX
  8
STITCH
 10
24.4745
 20
-1.7748
 30
0.0000
  0
SEQEND
  8
STITCH
  0
POLYLINE
  8
BASE
 66
1
 10
0.0000
 20
0.0000
 30
0.0000
 70
1
  0
VERTEX
  8
BASE
 10
21.5228
 20
-4.4898
 30
0.0000
  0
VERTEX
  8
BASE
 10
57.5707
 20
-42.4870
 30
0.0000
  0
VERTEX
  8
BASE
 10
59.5538
 20
-44.6962
 30
0.0000
  0
VERTEX
  8
BASE
 10
61.4880
 20
-46.9520
 30
0.0000
  0
VERTEX
  8
BASE
 10
63.3780
 20
-49.2497
 30
0.0000
  0
VERTEX
  8
BASE
 10
66.1413
 20
-52.7643
 30
0.0000
  0
VERTEX
  8
BASE
 10
68.8332
 20
-56.3468
 30
0.0000
  0
VERTEX
  8
BASE
 10
71.4703
 20
-59.9814
 30
0.0000
  0
VERTEX
  8
BASE
 10
82.6706
 20
-75.9467
 30
0.0000
  0
VERTEX
  8
BASE
 10
85.2965
 20
-79.5919
 30
0.0000
  0
VERTEX
  8
BASE
 10
87.9729
 20
-83.1890
 30
0.0000
  0
VERTEX
  8
BASE
 10
90.7166
 20
-86.7223
 30
0.0000
  0
VERTEX
  8
BASE
 10
93.5441
 20
-90.1761
 30
0.0000
  0
VERTEX
  8
BASE
 10
96.4720
 20
-93.5343
 30
0.0000
  0
VERTEX
  8
BASE
 10
98.7272
 20
-95.9813
 30
0.0000
  0
VERTEX
  8
BASE
 10
99.1503
 20
-96.5632
 30
0.0000
  0
VERTEX
  8
BASE
 10
99.4938
 20
-97.1953
 30
0.0000
  0
VERTEX
  8
BASE
 10
99.6339
 20
-97.5269
 30
0.0000
  0
VERTEX
  8
BASE
 10
99.8475
 20
-98.2138
 30
0.0000
  0
VERTEX
  8
BASE
 10
99.9696
 20
-98.9228
 30
0.0000
  0
VERTEX
  8
BASE
 10
99.9957
 20
-99.2818
 30
0.0000
  0
VERTEX
  8
BASE
 10
99.9771
 20
-100.0010
 30
0.0000
  0
VERTEX
  8
BASE
 10
99.9326
 20
-100.3581
 30
0.0000
  0
VERTEX
  8
BASE
 10
99.8649
 20
-100.7116
 30
0.0000
  0
VERTEX
  8
BASE
 10
99.6608
 20
-101.4015
 30
0.0000
  0
VERTEX
  8
BASE
 10
99.3685
 20
-102.0589
 30
0.0000
  0
VERTEX
  8
BASE
 10
98.9928
 20
-102.6724
 30
0.0000
  0
VERTEX
  8
BASE
 10
98.7757
 20
-102.9595
 30
0.0000
  0
VERTEX
  8
BASE
 10
98.2876
 20
-103.4880
 30
0.0000
  0
VERTEX
  8
BASE
 10
98.0187
 20
-103.7272
 30
0.0000
  0
VERTEX
  8
BASE
 10
97.4368
 20
-104.1503
 30
0.0000
  0
VERTEX
  8
BASE
 10
96.8047
 20
-104.4938
 30
0.0000
  0
VERTEX
  8
BASE
 10
96.4731
 20
-104.6339
 30
0.0000
  0
VERTEX
  8
BASE
 10
95.7862
 20
-104.8475
 30
0.0000
  0
VERTEX
  8
BASE
 10
95.0772
 20
-104.9696
 30
0.0000
  0
VERTEX
  8
BASE
 10
94.7182
 20
-104.9957
 30
0.0000
  0
VERTEX
  8
BASE
 10
93.9990
 20
-104.9771
 30
0.0000
  0
VERTEX
  8
BASE
 10
93.6419
 20
-104.9326
 30
0.0000
  0
VERTEX
  8
BASE
 10
92.9401
 20
-104.7742
 30
0.0000
  0
VERTEX
  8
BASE
 10
92.2650
 20
-104.5254
 30
0.0000
  0
VERTEX
  8
BASE
 10
91.9411
 20
-104.3685
 30
0.0000
  0
VERTEX
  8
BASE
 10
91.3276
 20
-103.9928
 30
0.0000
  0
VERTEX
  8
BASE
 10
90.7683
 20
-103.5403
 30
0.0000
  0
VERTEX
  8
BASE
 10
87.4392
 20
-100.1709
 30
0.0000
  0
VERTEX
  8
BASE
 10
84.2583
 20
-97.1569
 30
0.0000
  0
VERTEX
  8
BASE
 10
80.9851
 20
-94.2306
 30
0.0000
  0
VERTEX
  8
BASE
 10
77.6354
 20
-91.3768
 30
0.0000
  0
VERTEX
  8
BASE
 10
74.2251
 20
-88.5807
 30
0.0000
  0
VERTEX
  8
BASE
 10
70.7699
 20
-85.8272
 30
0.0000
  0
VERTEX
  8
BASE
 10
56.8165
 20
-74.9392
 30
0.0000
  0
VERTEX
  8
BASE
 10
53.3739
 20
-72.1737
 30
0.0000
  0
VERTEX
  8
BASE
 10
49.9813
 20
-69.3607
 30
0.0000
  0
VERTEX
  8
BASE
 10
46.6545
 20
-66.4853
 30
0.0000
  0
VERTEX
  8
BASE
 10
44.4809
 20
-64.5263
 30
0.0000
  0
VERTEX
  8
BASE
 10
41.2987
 20
-61.5135
 30
0.0000
  0
VERTEX
  8
BASE
 10
39.2363
 20
-59.4490
 30
0.0000
  0
VERTEX
  8
BASE
 10
4.7384
 20
-23.1637
 30
0.0000
  0
VERTEX
  8
BASE
 10
4.0007
 20
-22.5721
 30
0.0000
  0
VERTEX
  8
BASE
 10
3.6036
 20
-22.3150
 30
0.0000
  0
VERTEX
  8
BASE
 10
2.7619
 20
-21.8840
 30
0.0000
  0
VERTEX
  8
BASE
 10
2.3211
 20
-21.7121
 30
0.0000
  0
VERTEX
  8
BASE
 10
1.8697
 20
-21.5704
 30
0.0000
  0
VERTEX
  8
BASE
 10
0.9435
 20
-21.3800
 30
0.0000
  0
VERTEX
  8
BASE
 10
-0.0000
 20
-21.3161
 30
0.0000
  0
VERTEX
  8
BASE
 10
-0.9435
 20
-21.3800
 30
0.0000
  0
VERTEX
  8
BASE
 10
-1.8697
 20
-21.5704
 30
0.0000
  0
VERTEX
  8
BASE
 10
-2.3211
 20
-21.7121
 30
0.0000
  0
VERTEX
  8
BASE
 10
-2.7619
 20
-21.8840
 30
0.0000
  0
VERTEX
  8
BASE
 10
-3.6036
 20
-22.3150
 30
0.0000
  0
VERTEX
  8
BASE
 10
-4.3796
 20
-22.8554
 30
0.0000
  0
VERTEX
  8
BASE
 10
-4.7384
 20
-23.1637
 30
0.0000
  0
VERTEX
  8
BASE
 10
-39.2363
 20
-59.4490
 30
0.0000
  0
VERTEX
  8
BASE
 10
-42.3483
 20
-62.5284
 30
0.0000
  0
VERTEX
  8
BASE
 10
-45.5629
 20
-65.5104
 30
0.0000
  0
VERTEX
  8
BASE
 10
-47.7552
 20
-67.4517
 30
0.0000
  0
VERTEX
  8
BASE
 10
-49.9813
 20
-69.3607
 30
0.0000
  0
VERTEX
  8
BASE
 10
-54.5167
 20
-73.1001
 30
0.0000
  0
VERTEX
  8
BASE
 10
-59.1314
 20
-76.7640
 30
0.0000
  0
VERTEX
  8
BASE
 10
-71.9257
 20
-86.7412
 30
0.0000
  0
VERTEX
  8
BASE
 10
-75.3676
 20
-89.5073
 30
0.0000
  0
VERTEX
  8
BASE
 10
-78.7595
 20
-92.3209
 30
0.0000
  0
VERTEX
  8
BASE
 10
-82.0854
 20
-95.1972
 30
0.0000
  0
VERTEX
  8
BASE
 10
-85.3296
 20
-98.1511
 30
0.0000
  0
VERTEX
  8
BASE
 10
-87.4392
 20
-100.1709
 30
0.0000
  0
VERTEX
  8
BASE
 10
-90.5120
 20
-103.2876
 30
0.0000
  0
VERTEX
  8
BASE
 10
-91.0405
 20
-103.7757
 30
0.0000
  0
VERTEX
  8
BASE
 10
-91.3276
 20
-103.9928
 30
0.0000
  0
VERTEX
  8
BASE
 10
-91.9411
 20
-104.3685
 30
0.0000
  0
VERTEX
  8
BASE
 10
-92.5985
 20
-104.6608
 30
0.0000
  0
VERTEX
  8
BASE
 10
-93.2884
 20
-104.8649
 30
0.0000
  0
VERTEX
  8
BASE
 10
-93.6419
 20
-104.9326
 30
0.0000
  0
VERTEX
  8
BASE
 10
-93.9990
 20
-104.9771
 30
0.0000
  0
VERTEX
  8
BASE
 10
-94.7182
 20
-104.9957
 30
0.0000
  0
VERTEX
  8
BASE
 10
-95.0772
 20
-104.9696
 30
0.0000
  0
VERTEX
  8
BASE
 10
-95.7862
 20
-104.8475
 30
0.0000
  0
VERTEX
  8
BASE
 10
-96.4731
 20
-104.6339
 30
0.0000
  0
VERTEX
  8
BASE
 10
-96.8047
 20
-104.4938
 30
0.0000
  0
VERTEX
  8
BASE
 10
-97.1264
 20
-104.3324
 30
0.0000
  0
VERTEX
  8
BASE
 10
-97.7347
 20
-103.9483
 30
0.0000
  0
VERTEX
  8
BASE
 10
-98.2876
 20
-103.4880
 30
0.0000
  0
VERTEX
  8
BASE
 10
-98.7757
 20
-102.9595
 30
0.0000
  0
VERTEX
  8
BASE
 10
-98.9928
 20
-102.6724
 30
0.0000
  0
VERTEX
  8
BASE
 10
-99.3685
 20
-102.0589
 30
0.0000
  0
VERTEX
  8
BASE
 10
-99.6608
 20
-101.4015
 30
0.0000
  0
VERTEX
  8
BASE
 10
-99.8649
 20
-100.7116
 30
0.0000
  0
VERTEX
  8
BASE
 10
-99.9326
 20
-100.3581
 30
0.0000
  0
VERTEX
  8
BASE
 10
-99.9771
 20
-100.0010
 30
0.0000
  0
VERTEX
  8
BASE
 10
-99.9957
 20
-99.2818
 30
0.0000
  0
VERTEX
  8
BASE
 10
-99.9696
 20
-98.9228
 30
0.0000
  0
VERTEX
  8
BASE
 10
-99.8475
 20
-98.2138
 30
0.0000
  0
VERTEX
  8
BASE
 10
-99.6339
 20
-97.5269
 30
0.0000
  0
VERTEX
  8
BASE
 10
-99.4938
 20
-97.1953
 30
0.0000
  0
VERTEX
  8
BASE
 10
-99.1503
 20
-96.5632
 30
0.0000
  0
VERTEX
  8
BASE
 10
-98.7272
 20
-95.9813
 30
0.0000
  0
VERTEX
  8
BASE
 10
-95.4838
 20
-92.4265
 30
0.0000
  0
VERTEX
  8
BASE
 10
-92.5912
 20
-89.0346
 30
0.0000
  0
VERTEX
  8
BASE
 10
-89.7935
 20
-85.5526
 30
0.0000
  0
VERTEX
  8
BASE
 10
-87.0741
 20
-81.9963
 30
0.0000
  0
VERTEX
  8
BASE
 10
-84.4164
 20
-78.3814
 30
0.0000
  0
VERTEX
  8
BASE
 10
-81.8037
 20
-74.7237
 30
0.0000
  0
VERTEX
  8
BASE
 10
-74.0693
 20
-63.6521
 30
0.0000
  0
VERTEX
  8
BASE
 10
-71.4703
 20
-59.9814
 30
0.0000
  0
VERTEX
  8
BASE
 10
-68.8332
 20
-56.3468
 30
0.0000
  0
VERTEX
  8
BASE
 10
-67.0457
 20
-53.9518
 30
0.0000
  0
VERTEX
  8
BASE
 10
-64.3081
 20
-50.4127
 30
0.0000
  0
VERTEX
  8
BASE
 10
-62.4382
 20
-48.0959
 30
0.0000
  0
VERTEX
  8
BASE
 10
-59.5538
 20
-44.6962
 30
0.0000
  0
VERTEX
  8
BASE
 10
-57.5707
 20
-42.4870
 30
0.0000
  0
VERTEX
  8
BASE
 10
-21.5228
 20
-4.4898
 30
0.0000
  0
VERTEX
  8
BASE
 10
-21.2495
 20
-4.1411
 30
0.0000
  0
VERTEX
  8
BASE
 10
-20.7718
 20
-3.3954
 30
0.0000
  0
VERTEX
  8
BASE
 10
-20.3921
 20
-2.5952
 30
0.0000
  0
VERTEX
  8
BASE
 10
-20.1164
 20
-1.7536
 30
0.0000
  0
VERTEX
  8
BASE
 10
-20.0190
 20
-1.3214
 30
0.0000
  0
VERTEX
  8
BASE
 10
-19.9072
 20
-0.4428
 30
0.0000
  0
VERTEX
  8
BASE
 10
-19.8932
 20
-0.0000
 30
0.0000
  0
VERTEX
  8
BASE
 10
-19.9072
 20
0.4428
 30
0.0000
  0
VERTEX
  8
BASE
 10
-20.0190
 20
1.3214
 30
0.0000
  0
VERTEX
  8
BASE
 10
-20.1164
 20
1.7536
 30
0.0000
  0
VERTEX
  8
BASE
 10
-20.3921
 20
2.5952
 30
0.0000
  0
VERTEX
  8
BASE
 10
-20.7718
 20
3.3954
 30
0.0000
  0
VERTEX
  8
BASE
 10
-20.9988
 20
3.7758
 30
0.0000
  0
VERTEX
  8
BASE
 10
-21.5228
 20
4.4898
 30
0.0000
  0
VERTEX
  8
BASE
 10
-57.5707
 20
42.4870
 30
0.0000
  0
VERTEX
  8
BASE
 10
-59.5538
 20
44.6962
 30
0.0000
  0
VERTEX
  8
BASE
 10
-61.4880
 20
46.9520
 30
0.0000
  0
VERTEX
  8
BASE
 10
-63.3780
 20
49.2497
 30
0.0000
  0
VERTEX
  8
BASE
 10
-66.1413
 20
52.7643
 30
0.0000
  0
VERTEX
  8
BASE
 10
-68.8332
 20
56.3468
 30
0.0000
  0
VERTEX
  8
BASE
 10
-71.4703
 20
59.9814
 30
0.0000
  0
VERTEX
  8
BASE
 10
-82.6706
 20
75.9467
 30
0.0000
  0
VERTEX
  8
BASE
 10
-85.2965
 20
79.5919
 30
0.0000
  0
VERTEX
  8
BASE
 10
-87.9729
 20
83.1890
 30
0.0000
  0
VERTEX
  8
BASE
 10
-90.7166
 20
86.7223
 30
0.0000
  0
VERTEX
  8
BASE
 10
-93.5441
 20
90.1761
 30
0.0000
  0
VERTEX
  8
BASE
 10
-96.4720
 20
93.5343
 30
0.0000
  0
VERTEX
  8
BASE
 10
-98.7272
 20
95.9813
 30
0.0000
  0
VERTEX
  8
BASE
 10
-99.1503
 20
96.5632
 30
0.0000
  0
VERTEX
  8
BASE
 10
-99.4938
 20
97.1953
 30
0.0000
  0
VERTEX
  8
BASE
 10
-99.6339
 20
97.5269
 30
0.0000
  0
VERTEX
  8
BASE
 10
-99.8475
 20
98.2138
 30
0.0000
  0
VERTEX
  8
BASE
 10
-99.9696
 20
98.9228
 30
0.0000
  0
VERTEX
  8
BASE
 10
-99.9982
 20
99.6417
 30
0.0000
  0
VERTEX
  8
BASE
 10
-99.9771
 20
100.0010
 30
0.0000
  0
VERTEX
  8
BASE
 10
-99.9326
 20
100.3581
 30
0.0000
  0
VERTEX
  8
BASE
 10
-99.7742
 20
101.0599
 30
0.0000
  0
VERTEX
  8
BASE
 10
-99.5254
 20
101.7350
 30
0.0000
  0
VERTEX
  8
BASE
 10
-99.3685
 20
102.0589
 30
0.0000
  0
VERTEX
  8
BASE
 10
-98.9928
 20
102.6724
 30
0.0000
  0
VERTEX
  8
BASE
 10
-98.5403
 20
103.2317
 30
0.0000
  0
VERTEX
  8
BASE
 10
-98.2876
 20
103.4880
 30
0.0000
  0
VERTEX
  8
BASE
 10
-97.7347
 20
103.9483
 30
0.0000
  0
VERTEX
  8
BASE
 10
-97.1264
 20
104.3324
 30
0.0000
  0
VERTEX
  8
BASE
 10
-96.8047
 20
104.4938
 30
0.0000
  0
VERTEX
  8
BASE
 10
-96.4731
 20
104.6339
 30
0.0000
  0
VERTEX
  8
BASE
 10
-95.7862
 20
104.8475
 30
0.0000
  0
VERTEX
  8
BASE
 10
-95.0772
 20
104.9696
 30
0.0000
  0
VERTEX
  8
BASE
 10
-94.3583
 20
104.9982
 30
0.0000
  0
VERTEX
  8
BASE
 10
-93.9990
 20
104.9771
 30
0.0000
  0
VERTEX
  8
BASE
 10
-93.6419
 20
104.9326
 30
0.0000
  0
VERTEX
  8
BASE
 10
-92.9401
 20
104.7742
 30
0.0000
  0
VERTEX
  8
BASE
 10
-92.5985
 20
104.6608
 30
0.0000
  0
VERTEX
  8
BASE
 10
-91.9411
 20
104.3685
 30
0.0000
  0
VERTEX
  8
BASE
 10
-91.3276
 20
103.9928
 30
0.0000
  0
VERTEX
  8
BASE
 10
-91.0405
 20
103.7757
 30
0.0000
  0
VERTEX
  8
BASE
 10
-90.5120
 20
103.2876
 30
0.0000
  0
VERTEX
  8
BASE
 10
-87.4392
 20
100.1709
 30
0.0000
  0
VERTEX
  8
BASE
 10
-85.3296
 20
98.1511
 30
0.0000
  0
VERTEX
  8
BASE
 10
-82.0854
 20
95.1972
 30
0.0000
  0
VERTEX
  8
BASE
 10
-78.7595
 20
92.3209
 30
0.0000
  0
VERTEX
  8
BASE
 10
-75.3676
 20
89.5073
 30
0.0000
  0
VERTEX
  8
BASE
 10
-71.9257
 20
86.7412
 30
0.0000
  0
VERTEX
  8
BASE
 10
-59.1314
 20
76.7640
 30
0.0000
  0
VERTEX
  8
BASE
 10
-54.5167
 20
73.1001
 30
0.0000
  0
VERTEX
  8
BASE
 10
-49.9813
 20
69.3607
 30
0.0000
  0
VERTEX
  8
BASE
 10
-47.7552
 20
67.4517
 30
0.0000
  0
VERTEX
  8
BASE
 10
-45.5629
 20
65.5104
 30
0.0000
  0
VERTEX
  8
BASE
 10
-42.3483
 20
62.5284
 30
0.0000
  0
VERTEX
  8
BASE
 10
-39.2363
 20
59.4490
 30
0.0000
  0
VERTEX
  8
BASE
 10
-4.7384
 20
23.1637
 30
0.0000
  0
VERTEX
  8
BASE
 10
-4.0007
 20
22.5721
 30
0.0000
  0
VERTEX
  8
BASE
 10
-3.6036
 20
22.3150
 30
0.0000
  0
VERTEX
  8
BASE
 10
-3.1900
 20
22.0853
 30
0.0000
  0
VERTEX
  8
BASE
 10
-2.3211
 20
21.7121
 30
0.0000
  0
VERTEX
  8
BASE
 10
-1.4098
 20
21.4596
 30
0.0000
  0
VERTEX
  8
BASE
 10
-0.4728
 20
21.3321
 30
0.0000
  0
VERTEX
  8
BASE
 10
0.0000
 20
21.3161
 30
0.0000
  0
VERTEX
  8
BASE
 10
0.9435
 20
21.3800
 30
0.0000
  0
VERTEX
  8
BASE
 10
1.4098
 20
21.4596
 30
0.0000
  0
VERTEX
  8
BASE
 10
2.3211
 20
21.7121
 30
0.0000
  0
VERTEX
  8
BASE
 10
3.1900
 20
22.0853
 30
0.0000
  0
VERTEX
  8
BASE
 10
3.6036
 20
22.3150
 30
0.0000
  0
VERTEX
  8
BASE
 10
4.0007
 20
22.5721
 30
0.0000
  0
VERTEX
  8
BASE
 10
4.7384
 20
23.1637
 30
0.0000
  0
VERTEX
  8
BASE
 10
39.2363
 20
59.4490
 30
0.0000
  0
VERTEX
  8
BASE
 10
42.3483
 20
62.5284
 30
0.0000
  0
VERTEX
  8
BASE
 10
45.5629
 20
65.5104
 30
0.0000
  0
VERTEX
  8
BASE
 10
47.7552
 20
67.4517
 30
0.0000
  0
VERTEX
  8
BASE
 10
49.9813
 20
69.3607
 30
0.0000
  0
VERTEX
  8
BASE
 10
54.5167
 20
73.1001
 30
0.0000
  0
VERTEX
  8
BASE
 10
59.1314
 20
76.7640
 30
0.0000
  0
VERTEX
  8
BASE
 10
71.9257
 20
86.7412
 30
0.0000
  0
VERTEX
  8
BASE
 10
75.3676
 20
89.5073
 30
0.0000
  0
VERTEX
  8
BASE
 10
78.7595
 20
92.3209
 30
0.0000
  0
VERTEX
  8
BASE
 10
82.0854
 20
95.1972
 30
0.0000
  0
VERTEX
  8
BASE
 10
85.3296
 20
98.1511
 30
0.0000
  0
VERTEX
  8
BASE
 10
87.4392
 20
100.1709
 30
0.0000
  0
VERTEX
  8
BASE
 10
90.5120
 20
103.2876
 30
0.0000
  0
VERTEX
  8
BASE
 10
91.0405
 20
103.7757
 30
0.0000
  0
VERTEX
  8
BASE
 10
91.6282
 20
104.1907
 30
0.0000
  0
VERTEX
  8
BASE
 10
92.2650
 20
104.5254
 30
0.0000
  0
VERTEX
  8
BASE
 10
92.5985
 20
104.6608
 30
0.0000
  0
VERTEX
  8
BASE
 10
93.2884
 20
104.8649
 30
0.0000
  0
VERTEX
  8
BASE
 10
93.6419
 20
104.9326
 30
0.0000
  0
VERTEX
  8
BASE
 10
93.9990
 20
104.9771
 30
0.0000
  0
VERTEX
  8
BASE
 10
94.7182
 20
104.9957
 30
0.0000
  0
VERTEX
  8
BASE
 10
95.0772
 20
104.9696
 30
0.0000
  0
VERTEX
  8
BASE
 10
95.7862
 20
104.8475
 30
0.0000
  0
VERTEX
  8
BASE
 10
96.4731
 20
104.6339
 30
0.0000
  0
VERTEX
  8
BASE
 10
96.8047
 20
104.4938
 30
0.0000
  0
VERTEX
  8
BASE
 10
97.1264
 20
104.3324
 30
0.0000
  0
VERTEX
  8
BASE
 10
97.7347
 20
103.9483
 30
0.0000
  0
VERTEX
  8
BASE
 10
98.2876
 20
103.4880
 30
0.0000
  0
VERTEX
  8
BASE
 10
98.5403
 20
103.2317
 30
0.0000
  0
VERTEX
  8
BASE
 10
98.9928
 20
102.6724
 30
0.0000
  0
VERTEX
  8
BASE
 10
99.3685
 20
102.0589
 30
0.0000
  0
VERTEX
  8
BASE
 10
99.6608
 20
101.4015
 30
0.0000
  0
VERTEX
  8
BASE
 10
99.7742
 20
101.0599
 30
0.0000
  0
VERTEX
  8
BASE
 10
99.9326
 20
100.3581
 30
0.0000
  0
VERTEX
  8
BASE
 10
99.9771
 20
100.0010
 30
0.0000
  0
VERTEX
  8
BASE
 10
99.9957
 20
99.2818
 30
0.0000
  0
VERTEX
  8
BASE
 10
99.9696
 20
98.9228
 30
0.0000
  0
VERTEX
  8
BASE
 10
99.8475
 20
98.2138
 30
0.0000
  0
VERTEX
  8
BASE
 10
99.6339
 20
97.5269
 30
0.0000
  0
VERTEX
  8
BASE
 10
99.4938
 20
97.1953
 30
0.0000
  0
VERTEX
  8
BASE
 10
99.1503
 20
96.5632
 30
0.0000
  0
VERTEX
  8
BASE
 10
98.7272
 20
95.9813
 30
0.0000
  0
VERTEX
  8
BASE
 10
96.4720
 20
93.5343
 30
0.0000
  0
VERTEX
  8
BASE
 10
93.5441
 20
90.1761
 30
0.0000
  0
VERTEX
  8
BASE
 10
90.7166
 20
86.7223
 30
0.0000
  0
VERTEX
  8
BASE
 10
87.9729
 20
83.1890
 30
0.0000
  0
VERTEX
  8
BASE
 10
85.2965
 20
79.5919
 30
0.0000
  0
VERTEX
  8
BASE
 10
82.6706
 20
75.9467
 30
0.0000
  0
VERTEX
  8
BASE
 10
74.0693
 20
63.6521
 30
0.0000
  0
VERTEX
  8
BASE
 10
70.5963
 20
58.7650
 30
0.0000
  0
VERTEX
  8
BASE
 10
67.9428
 20
55.1461
 30
0.0000
  0
VERTEX
  8
BASE
 10
65.2290
 20
51.5845
 30
0.0000
  0
VERTEX
  8
BASE
 10
63.3780
 20
49.2497
 30
0.0000
  0
VERTEX
  8
BASE
 10
61.4880
 20
46.9520
 30
0.0000
  0
VERTEX
  8
BASE
 10
59.5538
 20
44.6962
 30
0.0000
  0
VERTEX
  8
BASE
 10
57.5707
 20
42.4870
 30
0.0000
  0
VERTEX
  8
BASE
 10
21.8176
 20
4.8206
 30
0.0000
  0
VERTEX
  8
BASE
 10
21.2495
 20
4.1411
 30
0.0000
  0
VERTEX
  8
BASE
 10
20.7718
 20
3.3954
 30
0.0000
  0
VERTEX
  8
BASE
 10
20.5693
 20
3.0013
 30
0.0000
  0
VERTEX
  8
BASE
 10
20.3921
 20
2.5952
 30
0.0000
  0
VERTEX
  8
BASE
 10
20.1164
 20
1.7536
 30
0.0000
  0
VERTEX
  8
BASE
 10
20.0190
 20
1.3214
 30
0.0000
  0
VERTEX
  8
BASE
 10
19.9072
 20
0.4428
 30
0.0000
  0
VERTEX
  8
BASE
 10
19.9072
 20
-0.4428
 30
0.0000
  0
VERTEX
  8
BASE
 10
19.9492
 20
-0.8839
 30
0.0000
  0
VERTEX
  8
BASE
 10
20.0190
 20
-1.3214
 30
0.0000
  0
VERTEX
  8
BASE
 10
20.2409
 20
-2.1788
 30
0.0000
  0
VERTEX
  8
BASE
 10
20.3921
 20
-2.5952
 30
0.0000
  0
VERTEX
  8
BASE
 10
20.7718
 20
-3.3954
 30
0.0000
  0
VERTEX
  8
BASE
 10
20.9988
 20
-3.7758
 30
0.0000
  0
SEQEND
  8
BASE
  0
POLYLINE
  8
CUT_JAG
 66
1
 10
0.0000
 20
0.0000
 30
0.0000
 70
1
  0
VERTEX
  8
CUT_JAG
 10
22.8394
 20
-5.8965
 30
0.0000
  0
VERTEX
  8
CUT_JAG
 10
30.8096
 20
-14.2884
 30
0.0000
  0
VERTEX
  8
CUT_JAG
 10
30.7749
 20
-14.7307
 30
0.0000
  0
VERTEX
  8
CUT_JAG
 10
30.9114
 20
-17.0567
 30
0.0000
  0
VERTEX
  8
CUT_JAG
 10
31.3194
 20
-19.1248
 30
0.0000
  0
VERTEX
  8
CUT_JAG
 10
31.4901
 20
-19.3720
 30
0.0000
  0
VERTEX
  8
CUT_JAG
 10
33.4532
 20
-18.7354
 30
0.0000
  0
VERTEX
  8
CUT_JAG
 10
34.4867
 20
-18.5723
 30
0.0000
  0
VERTEX
  8
CUT_JAG
 10
34.8291
 20
-18.6564
 30
0.0000
  0
VERTEX
  8
CUT_JAG
 10
34.9901
 20
-22.1869
 30
0.0000
  0
VERTEX
  8
CUT_JAG
 10
34.5134
 20
-26.7324
 30
0.0000
  0
VERTEX
  8
CUT_JAG
 10
39.3206
 20
-27.0781
 30
0.0000
  0
VERTEX
  8
CUT_JAG
 10
43.4091
 20
-28.1064
 30
0.0000
  0
VERTEX
  8
CUT_JAG
 10
42.7039
 20
-32.4596
 30
0.0000
  0
VERTEX
  8
CUT_JAG
 10
42.5794
 20
-36.2613
 30
0.0000
  0
VERTEX
  8
CUT_JAG
 10
42.7184
 20
-36.5385
 30
0.0000
  0
VERTEX
  8
CUT_JAG
 10
48.3120
 20
-37.3651
 30
0.0000
  0
VERTEX
  8
CUT_JAG
 10
53.6552
 20
-38.4295
 30
0.0000
  0
VERTEX
  8
CUT_JAG
 10
52.8544
 20
-42.4643
 30
0.0000
  0
VERTEX
  8
CUT_JAG
 10
52.4797
 20
-45.2371
 30
0.0000
  0
VERTEX
  8
CUT_JAG
 10
52.5248
 20
-45.5653
 30
0.0000
  0
VERTEX
  8
CUT_JAG
 10
55.8330
 20
-45.2687
 30
0.0000
  0
VERTEX
  8
CUT_JAG
 10
59.0300
 20
-44.7640
 30
0.0000
  0
VERTEX
  8
CUT_JAG
 10
59.4815
 20
-44.7597
 30
0.0000
  0
VERTEX
  8
CUT_JAG
 10
58.1072
 20
-48.6500
 30
0.0000
  0
VERTEX
  8
CUT_JAG
 10
56.4311
 20
-52.6994
 30
0.0000
  0
VERTEX
  8
CUT_JAG
 10
56.5985
 20
-52.8997
 30
0.0000
  0
VERTEX
  8
CUT_JAG
 10
62.4558
 20
-54.1059
 30
0.0000
  0
VERTEX
  8
CUT_JAG
 10
67.6336
 20
-55.3769
 30
0.0000
  0
VERTEX
  8
CUT_JAG
 10
67.8962
 20
-55.5529
 30
0.0000
  0
VERTEX
  8
CUT_JAG
 10
67.9953
 20
-59.1722
 30
0.0000
  0
VERTEX
  8
CUT_JAG
 10
67.7703
 20
-62.9864
 30
0.0000
  0
VERTEX
  8
CUT_JAG
 10
67.9127
 20
-63.2530
 30
0.0000
  0
VERTEX
  8
CUT_JAG
 10
72.2146
 20
-64.9544
 30
0.0000
  0
VERTEX
  8
CUT_JAG
 10
76.1160
 20
-67.1032
 30
0.0000
  0
VERTEX
  8
CUT_JAG
 10
75.4327
 20
-69.1022
 30
0.0000
  0
VERTEX
  8
CUT_JAG
 10
75.2343
 20
-70.4595
 30
0.0000
  0
VERTEX
  8
CUT_JAG
 10
75.4403
 20
-70.6210
 30
0.0000
  0
VERTEX
  8
CUT_JAG
 10
77.8053
 20
-71.4145
 30
0.0000
  0
VERTEX
  8
CUT_JAG
 10
80.0305
 20
-72.6084
 30
0.0000
  0
VERTEX
  8
CUT_JAG
 10
80.1867
 20
-72.8043
 30
0.0000
  0
VERTEX
  8
CUT_JAG
 10
80.4067
 20
-74.6072
 30
0.0000
  0
VERTEX
  8
CUT_JAG
 10
80.4957
 20
-77.1209
 30
0.0000
  0
VERTEX
  8
CUT_JAG
 10
80.9369
 20
-77.1801
 30
0.0000
  0
VERTEX
  8
CUT_JAG
 10
83.5413
 20
-77.1661
 30
0.0000
  0
VERTEX
  8
CUT_JAG
 10
87.9729
 20
-83.1890
 30
0.0000
  0
VERTEX
  8
CUT_JAG
 10
91.6489
 20
-87.8832
 30
0.0000
  0
VERTEX
  8
CUT_JAG
 10
94.5081
 20
-91.3069
 30
0.0000
  0
VERTEX
  8
CUT_JAG
 10
98.7272
 20
-95.9813
 30
0.0000
  0
VERTEX
  8
CUT_JAG
 10
99.1503
 20
-96.5632
 30
0.0000
  0
VERTEX
  8
CUT_JAG
 10
99.4938
 20
-97.1953
 30
0.0000
  0
VERTEX
  8
CUT_JAG
 10
99.8475
 20
-98.2138
 30
0.0000
  0
VERTEX
  8
CUT_JAG
 10
99.9957
 20
-99.2818
 30
0.0000
  0
VERTEX
  8
CUT_JAG
 10
99.9326
 20
-100.3581
 30
0.0000
  0
VERTEX
  8
CUT_JAG
 10
99.6608
 20
-101.4015
 30
0.0000
  0
VERTEX
  8
CUT_JAG
 10
99.3685
 20
-102.0589
 30
0.0000
  0
VERTEX
  8
CUT_JAG
 10
98.7757
 20
-102.9595
 30
0.0000
  0
VERTEX
  8
CUT_JAG
 10
98.0187
 20
-103.7272
 30
0.0000
  0
VERTEX
  8
CUT_JAG
 10
97.4368
 20
-104.1503
 30
0.0000
  0
VERTEX
  8
CUT_JAG
 10
96.4731
 20
-104.6339
 30
0.0000
  0
VERTEX
  8
CUT_JAG
 10
95.7862
 20
-104.8475
 30
0.0000
  0
VERTEX
  8
CUT_JAG
 10
94.7182
 20
-104.9957
 30
0.0000
  0
VERTEX
  8
CUT_JAG
 10
93.9990
 20
-104.9771
 30
0.0000
  0
VERTEX
  8
CUT_JAG
 10
92.9401
 20
-104.7742
 30
0.0000
  0
VERTEX
  8
CUT_JAG
 10
92.2650
 20
-104.5254
 30
0.0000
  0
VERTEX
  8
CUT_JAG
 10
91.3276
 20
-103.9928
 30
0.0000
  0
VERTEX
  8
CUT_JAG
 10
90.7683
 20
-103.5403
 30
0.0000
  0
VERTEX
  8
CUT_JAG
 10
86.3901
 20
-99.1556
 30
0.0000
  0
VERTEX
  8
CUT_JAG
 10
82.0854
 20
-95.1972
 30
0.0000
  0
VERTEX
  8
CUT_JAG
 10
76.5046
 20
-90.4391
 30
0.0000
  0
VERTEX
  8
CUT_JAG
 10
70.3063
 20
-85.4628
 30
0.0000
  0
VERTEX
  8
CUT_JAG
 10
70.0980
 20
-85.2508
 30
0.0000
  0
VERTEX
  8
CUT_JAG
 10
69.1686
 20
-83.0863
 30
0.0000
  0
VERTEX
  8
CUT_JAG
 10
68.1413
 20
-81.0378
 30
0.0000
  0
VERTEX
  8
CUT_JAG
 10
67.9000
 20
-80.8675
 30
0.0000
  0
VERTEX
  8
CUT_JAG
 10
66.5696
 20
-81.1355
 30
0.0000
  0
VERTEX
  8
CUT_JAG
 10
65.1043
 20
-81.0987
 30
0.0000
  0
VERTEX
  8
CUT_JAG
 10
64.4121
 20
-79.1018
 30
0.0000
  0
VERTEX
  8
CUT_JAG
 10
64.0909
 20
-76.6306
 30
0.0000
  0
VERTEX
  8
CUT_JAG
 10
63.9602
 20
-76.3179
 30
0.0000
  0
VERTEX
  8
CUT_JAG
 10
59.6647
 20
-75.1310
 30
0.0000
  0
VERTEX
  8
CUT_JAG
 10
55.7874
 20
-73.8678
 30
0.0000
  0
VERTEX
  8
CUT_JAG
 10
55.6278
 20
-73.5971
 30
0.0000
  0
VERTEX
  8
CUT_JAG
 10
56.3500
 20
-70.8278
 30
0.0000
  0
VERTEX
  8
CUT_JAG
 10
56.6435
 20
-68.6077
 30
0.0000
  0
VERTEX
  8
CUT_JAG
 10
56.3632
 20
-68.5057
 30
0.0000
  0
VERTEX
  8
CUT_JAG
 10
52.7406
 20
-68.7924
 30
0.0000
  0
VERTEX
  8
CUT_JAG
 10
49.8201
 20
-68.6449
 30
0.0000
  0
VERTEX
  8
CUT_JAG
 10
49.5893
 20
-68.4634
 30
0.0000
  0
VERTEX
  8
CUT_JAG
 10
50.2409
 20
-66.3683
 30
0.0000
  0
VERTEX
  8
CUT_JAG
 10
50.5423
 20
-65.1226
 30
0.0000
  0
VERTEX
  8
CUT_JAG
 10
50.5880
 20
-64.6213
 30
0.0000
  0
VERTEX
  8
CUT_JAG
 10
48.5691
 20
-64.7486
 30
0.0000
  0
VERTEX
  8
CUT_JAG
 10
45.6246
 20
-65.4419
 30
0.0000
  0
VERTEX
  8
CUT_JAG
 10
44.4000
 20
-60.7855
 30
0.0000
  0
VERTEX
  8
CUT_JAG
 10
44.0123
 20
-55.9640
 30
0.0000
  0
VERTEX
  8
CUT_JAG
 10
43.7950
 20
-55.7685
 30
0.0000
  0
VERTEX
  8
CUT_JAG
 10
36.7577
 20
-56.5726
 30
0.0000
  0
VERTEX
  8
CUT_JAG
 10
36.5530
 20
-56.3647
 30
0.0000
  0
VERTEX
  8
CUT_JAG
 10
36.1310
 20
-53.5468
 30
0.0000
  0
VERTEX
  8
CUT_JAG
 10
35.4044
 20
-51.0182
 30
0.0000
  0
VERTEX
  8
CUT_JAG
 10
35.1224
 20
-50.8836
 30
0.0000
  0
VERTEX
  8
CUT_JAG
 10
32.2023
 20
-50.0360
 30
0.0000
  0
VERTEX
  8
CUT_JAG
 10
29.4613
 20
-49.0182
 30
0.0000
  0
VERTEX
  8
CUT_JAG
 10
29.7057
 20
-44.3603
 30
0.0000
  0
VERTEX
  8
CUT_JAG
 10
30.3909
 20
-39.2838
 30
0.0000
  0
VERTEX
  8
CUT_JAG
 10
19.6911
 20
-38.5828
 30
0.0000
  0
VERTEX
  8
CUT_JAG
 10
19.5022
 20
-38.3599
 30
0.0000
  0
VERTEX
  8
CUT_JAG
 10
21.3758
 20
-30.9478
 30
0.0000
  0
VERTEX
  8
CUT_JAG
 10
15.7316
 20
-30.2733
 30
0.0000
  0
VERTEX
  8
CUT_JAG
 10
10.7681
 20
-28.9523
 30
0.0000
  0
VERTEX
  8
CUT_JAG
 10
10.2991
 20
-28.9954
 30
0.0000
  0
VERTEX
  8
CUT_JAG
 10
5.0756
 20
-23.4955
 30
0.0000
  0
VERTEX
  8
CUT_JAG
 10
4.0007
 20
-22.5721
 30
0.0000
  0
VERTEX
  8
CUT_JAG
 10
2.7619
 20
-21.8840
 30
0.0000
  0
VERTEX
  8
CUT_JAG
 10
1.8697
 20
-21.5704
 30
0.0000
  0
VERTEX
  8
CUT_JAG
 10
0.9435
 20
-21.3800
 30
0.0000
  0
VERTEX
  8
CUT_JAG
 10
-0.0000
 20
-21.3161
 30
0.0000
  0
VERTEX
  8
CUT_JAG
 10
-0.9435
 20
-21.3800
 30
0.0000
  0
VERTEX
  8
CUT_JAG
 10
-2.3211
 20
-21.7121
 30
0.0000
  0
VERTEX
  8
CUT_JAG
 10
-3.6036
 20
-22.3150
 30
0.0000
  0
VERTEX
  8
CUT_JAG
 10
-4.3796
 20
-22.8554
 30
0.0000
  0
VERTEX
  8
CUT_JAG
 10
-5.0756
 20
-23.4955
 30
0.0000
  0
VERTEX
  8
CUT_JAG
 10
-12.7099
 20
-31.5337
 30
0.0000
  0
VERTEX
  8
CUT_JAG
 10
-13.0524
 20
-31.6108
 30
0.0000
  0
VERTEX
  8
CUT_JAG
 10
-17.3766
 20
-31.9296
 30
0.0000
  0
VERTEX
  8
CUT_JAG
 10
-21.6023
 20
-32.7443
 30
0.0000
  0
VERTEX
  8
CUT_JAG
 10
-21.6280
 20
-33.1223
 30
0.0000
  0
VERTEX
  8
CUT_JAG
 10
-21.4675
 20
-36.0910
 30
0.0000
  0
VERTEX
  8
CUT_JAG
 10
-20.8984
 20
-39.8503
 30
0.0000
  0
VERTEX
  8
CUT_JAG
 10
-31.9886
 20
-40.5828
 30
0.0000
  0
VERTEX
  8
CUT_JAG
 10
-30.1446
 20
-45.1505
 30
0.0000
  0
VERTEX
  8
CUT_JAG
 10
-29.2624
 20
-48.0000
 30
0.0000
  0
VERTEX
  8
CUT_JAG
 10
-29.2171
 20
-48.4454
 30
0.0000
  0
VERTEX
  8
CUT_JAG
 10
-34.1823
 20
-49.7648
 30
0.0000
  0
VERTEX
  8
CUT_JAG
 10
-38.8426
 20
-51.3738
 30
0.0000
  0
VERTEX
  8
CUT_JAG
 10
-39.0363
 20
-51.5922
 30
0.0000
  0
VERTEX
  8
CUT_JAG
 10
-38.7639
 20
-54.6672
 30
0.0000
  0
VERTEX
  8
CUT_JAG
 10
-38.3611
 20
-57.8661
 30
0.0000
  0
VERTEX
  8
CUT_JAG
 10
-38.5409
 20
-58.0956
 30
0.0000
  0
VERTEX
  8
CUT_JAG
 10
-41.9004
 20
-57.6389
 30
0.0000
  0
VERTEX
  8
CUT_JAG
 10
-44.8463
 20
-57.0971
 30
0.0000
  0
VERTEX
  8
CUT_JAG
 10
-45.0900
 20
-57.2657
 30
0.0000
  0
VERTEX
  8
CUT_JAG
 10
-43.0573
 20
-62.6292
 30
0.0000
  0
VERTEX
  8
CUT_JAG
 10
-43.0616
 20
-63.0498
 30
0.0000
  0
VERTEX
  8
CUT_JAG
 10
-47.6078
 20
-63.2415
 30
0.0000
  0
VERTEX
  8
CUT_JAG
 10
-52.1311
 20
-62.8352
 30
0.0000
  0
VERTEX
  8
CUT_JAG
 10
-52.4759
 20
-62.8845
 30
0.0000
  0
VERTEX
  8
CUT_JAG
 10
-52.4138
 20
-66.9197
 30
0.0000
  0
VERTEX
  8
CUT_JAG
 10
-52.6790
 20
-71.1661
 30
0.0000
  0
VERTEX
  8
CUT_JAG
 10
-52.9578
 20
-71.2897
 30
0.0000
  0
VERTEX
  8
CUT_JAG
 10
-55.5879
 20
-71.3114
 30
0.0000
  0
VERTEX
  8
CUT_JAG
 10
-58.6888
 20
-70.6968
 30
0.0000
  0
VERTEX
  8
CUT_JAG
 10
-58.9872
 20
-70.7950
 30
0.0000
  0
VERTEX
  8
CUT_JAG
 10
-60.2880
 20
-74.8150
 30
0.0000
  0
VERTEX
  8
CUT_JAG
 10
-61.6133
 20
-78.3777
 30
0.0000
  0
VERTEX
  8
CUT_JAG
 10
-61.8321
 20
-78.5767
 30
0.0000
  0
VERTEX
  8
CUT_JAG
 10
-63.6581
 20
-78.1489
 30
0.0000
  0
VERTEX
  8
CUT_JAG
 10
-65.2126
 20
-77.5878
 30
0.0000
  0
VERTEX
  8
CUT_JAG
 10
-65.6093
 20
-77.5579
 30
0.0000
  0
VERTEX
  8
CUT_JAG
 10
-66.3614
 20
-80.4408
 30
0.0000
  0
VERTEX
  8
CUT_JAG
 10
-67.3511
 20
-83.0172
 30
0.0000
  0
VERTEX
  8
CUT_JAG
 10
-67.5184
 20
-83.2826
 30
0.0000
  0
VERTEX
  8
CUT_JAG
 10
-75.3676
 20
-89.5073
 30
0.0000
  0
VERTEX
  8
CUT_JAG
 10
-80.9851
 20
-94.2306
 30
0.0000
  0
VERTEX
  8
CUT_JAG
 10
-85.3296
 20
-98.1511
 30
0.0000
  0
VERTEX
  8
CUT_JAG
 10
-88.4762
 20
-101.1977
 30
0.0000
  0
VERTEX
  8
CUT_JAG
 10
-90.7683
 20
-103.5403
 30
0.0000
  0
VERTEX
  8
CUT_JAG
 10
-91.3276
 20
-103.9928
 30
0.0000
  0
VERTEX
  8
CUT_JAG
 10
-92.2650
 20
-104.5254
 30
0.0000
  0
VERTEX
  8
CUT_JAG
 10
-92.9401
 20
-104.7742
 30
0.0000
  0
VERTEX
  8
CUT_JAG
 10
-93.9990
 20
-104.9771
 30
0.0000
  0
VERTEX
  8
CUT_JAG
 10
-95.0772
 20
-104.9696
 30
0.0000
  0
VERTEX
  8
CUT_JAG
 10
-95.7862
 20
-104.8475
 30
0.0000
  0
VERTEX
  8
CUT_JAG
 10
-96.8047
 20
-104.4938
 30
0.0000
  0
VERTEX
  8
CUT_JAG
 10
-97.7347
 20
-103.9483
 30
0.0000
  0
VERTEX
  8
CUT_JAG
 10
-98.2876
 20
-103.4880
 30
0.0000
  0
VERTEX
  8
CUT_JAG
 10
-98.9928
 20
-102.6724
 30
0.0000
  0
VERTEX
  8
CUT_JAG
 10
-99.5254
 20
-101.7350
 30
0.0000
  0
VERTEX
  8
CUT_JAG
 10
-99.7742
 20
-101.0599
 30
0.0000
  0
VERTEX
  8
CUT_JAG
 10
-99.9771
 20
-100.0010
 30
0.0000
  0
VERTEX
  8
CUT_JAG
 10
-99.9696
 20
-98.9228
 30
0.0000
  0
VERTEX
  8
CUT_JAG
 10
-99.8475
 20
-98.2138
 30
0.0000
  0
VERTEX
  8
CUT_JAG
 10
-99.4938
 20
-97.1953
 30
0.0000
  0
VERTEX
  8
CUT_JAG
 10
-98.9483
 20
-96.2653
 30
0.0000
  0
VERTEX
  8
CUT_JAG
 10
-94.5081
 20
-91.3069
 30
0.0000
  0
VERTEX
  8
CUT_JAG
 10
-90.7166
 20
-86.7223
 30
0.0000
  0
VERTEX
  8
CUT_JAG
 10
-86.1822
 20
-80.7970
 30
0.0000
  0
VERTEX
  8
CUT_JAG
 10
-81.6309
 20
-74.4785
 30
0.0000
  0
VERTEX
  8
CUT_JAG
 10
-81.2583
 20
-74.3741
 30
0.0000
  0
VERTEX
  8
CUT_JAG
 10
-77.6330
 20
-73.9808
 30
0.0000
  0
VERTEX
  8
CUT_JAG
 10
-77.4361
 20
-70.7571
 30
0.0000
  0
VERTEX
  8
CUT_JAG
 10
-76.8292
 20
-68.1306
 30
0.0000
  0
VERTEX
  8
CUT_JAG
 10
-76.6833
 20
-67.9274
 30
0.0000
  0
VERTEX
  8
CUT_JAG
 10
-72.1888
 20
-66.7976
 30
0.0000
  0
VERTEX
  8
CUT_JAG
 10
-72.0812
 20
-66.5710
 30
0.0000
  0
VERTEX
  8
CUT_JAG
 10
-71.8101
 20
-63.7746
 30
0.0000
  0
VERTEX
  8
CUT_JAG
 10
-71.8069
 20
-60.8456
 30
0.0000
  0
VERTEX
  8
CUT_JAG
 10
-71.3708
 20
-60.7884
 30
0.0000
  0
VERTEX
  8
CUT_JAG
 10
-68.7989
 20
-60.7943
 30
0.0000
  0
VERTEX
  8
CUT_JAG
 10
-66.4301
 20
-60.6773
 30
0.0000
  0
VERTEX
  8
CUT_JAG
 10
-66.2693
 20
-60.4241
 30
0.0000
  0
VERTEX
  8
CUT_JAG
 10
-66.3380
 20
-57.4527
 30
0.0000
  0
VERTEX
  8
CUT_JAG
 10
-66.6062
 20
-53.9113
 30
0.0000
  0
VERTEX
  8
CUT_JAG
 10
-66.3466
 20
-53.7337
 30
0.0000
  0
VERTEX
  8
CUT_JAG
 10
-63.4532
 20
-52.6009
 30
0.0000
  0
VERTEX
  8
CUT_JAG
 10
-60.7201
 20
-51.3949
 30
0.0000
  0
VERTEX
  8
CUT_JAG
 10
-60.6442
 20
-51.0928
 30
0.0000
  0
VERTEX
  8
CUT_JAG
 10
-60.4603
 20
-48.9657
 30
0.0000
  0
VERTEX
  8
CUT_JAG
 10
-60.4700
 20
-46.2564
 30
0.0000
  0
VERTEX
  8
CUT_JAG
 10
-60.4165
 20
-45.9131
 30
0.0000
  0
VERTEX
  8
CUT_JAG
 10
-53.2549
 20
-44.8851
 30
0.0000
  0
VERTEX
  8
CUT_JAG
 10
-53.1465
 20
-44.6101
 30
0.0000
  0
VERTEX
  8
CUT_JAG
 10
-53.3508
 20
-42.4013
 30
0.0000
  0
VERTEX
  8
CUT_JAG
 10
-54.1180
 20
-39.6270
 30
0.0000
  0
VERTEX
  8
CUT_JAG
 10
-53.9430
 20
-39.3840
 30
0.0000
  0
VERTEX
  8
CUT_JAG
 10
-50.0629
 20
-38.1578
 30
0.0000
  0
VERTEX
  8
CUT_JAG
 10
-45.2746
 20
-37.3850
 30
0.0000
  0
VERTEX
  8
CUT_JAG
 10
-44.0787
 20
-28.6982
 30
0.0000
  0
VERTEX
  8
CUT_JAG
 10
-41.6336
 20
-29.3833
 30
0.0000
  0
VERTEX
  8
CUT_JAG
 10
-39.4239
 20
-29.8449
 30
0.0000
  0
VERTEX
  8
CUT_JAG
 10
-39.2344
 20
-27.1599
 30
0.0000
  0
VERTEX
  8
CUT_JAG
 10
-39.6495
 20
-23.9008
 30
0.0000
  0
VERTEX
  8
CUT_JAG
 10
-36.2333
 20
-24.2804
 30
0.0000
  0
VERTEX
  8
CUT_JAG
 10
-33.1133
 20
-24.7880
 30
0.0000
  0
VERTEX
  8
CUT_JAG
 10
-32.9666
 20
-24.5181
 30
0.0000
  0
VERTEX
  8
CUT_JAG
 10
-32.3553
 20
-19.7781
 30
0.0000
  0
VERTEX
  8
CUT_JAG
 10
-31.1439
 20
-15.1988
 30
0.0000
  0
VERTEX
  8
CUT_JAG
 10
-30.8531
 20
-15.0657
 30
0.0000
  0
VERTEX
  8
CUT_JAG
 10
-29.9648
 20
-15.0908
 30
0.0000
  0
VERTEX
  8
CUT_JAG
 10
-29.4394
 20
-15.1805
 30
0.0000
  0
VERTEX
  8
CUT_JAG
 10
-28.1877
 20
-15.5508
 30
0.0000
  0
VERTEX
  8
CUT_JAG
 10
-27.7460
 20
-15.5610
 30
0.0000
  0
VERTEX
  8
CUT_JAG
 10
-27.4088
 20
-13.4257
 30
0.0000
  0
VERTEX
  8
CUT_JAG
 10
-27.3354
 20
-10.6304
 30
0.0000
  0
VERTEX
  8
CUT_JAG
 10
-21.8176
 20
-4.8206
 30
0.0000
  0
VERTEX
  8
CUT_JAG
 10
-21.2495
 20
-4.1411
 30
0.0000
  0
VERTEX
  8
CUT_JAG
 10
-20.7718
 20
-3.3954
 30
0.0000
  0
VERTEX
  8
CUT_JAG
 10
-20.2409
 20
-2.1788
 30
0.0000
  0
VERTEX
  8
CUT_JAG
 10
-19.9492
 20
-0.8839
 30
0.0000
  0
VERTEX
  8
CUT_JAG
 10
-19.8932
 20
-0.0000
 30
0.0000
  0
VERTEX
  8
CUT_JAG
 10
-19.9492
 20
0.8839
 30
0.0000
  0
VERTEX
  8
CUT_JAG
 10
-20.2409
 20
2.1788
 30
0.0000
  0
VERTEX
  8
CUT_JAG
 10
-20.7718
 20
3.3954
 30
0.0000
  0
VERTEX
  8
CUT_JAG
 10
-21.2495
 20
4.1411
 30
0.0000
  0
VERTEX
  8
CUT_JAG
 10
-21.8176
 20
4.8206
 30
0.0000
  0
VERTEX
  8
CUT_JAG
 10
-29.9922
 20
13.4277
 30
0.0000
  0
VERTEX
  8
CUT_JAG
 10
-29.7843
 20
14.0344
 30
0.0000
  0
VERTEX
  8
CUT_JAG
 10
-29.9301
 20
20.0351
 30
0.0000
  0
VERTEX
  8
CUT_JAG
 10
-33.5839
 20
20.2483
 30
0.0000
  0
VERTEX
  8
CUT_JAG
 10
-36.4645
 20
20.7867
 30
0.0000
  0
VERTEX
  8
CUT_JAG
 10
-36.7838
 20
20.8926
 30
0.0000
  0
VERTEX
  8
CUT_JAG
 10
-35.9016
 20
24.1862
 30
0.0000
  0
VERTEX
  8
CUT_JAG
 10
-34.9198
 20
27.1650
 30
0.0000
  0
VERTEX
  8
CUT_JAG
 10
-35.0763
 20
27.4257
 30
0.0000
  0
VERTEX
  8
CUT_JAG
 10
-38.9953
 20
27.7963
 30
0.0000
  0
VERTEX
  8
CUT_JAG
 10
-43.2177
 20
27.8788
 30
0.0000
  0
VERTEX
  8
CUT_JAG
 10
-43.5504
 20
27.9721
 30
0.0000
  0
VERTEX
  8
CUT_JAG
 10
-42.6232
 20
31.7176
 30
0.0000
  0
VERTEX
  8
CUT_JAG
 10
-42.3568
 20
34.4263
 30
0.0000
  0
VERTEX
  8
CUT_JAG
 10
-42.5006
 20
34.6990
 30
0.0000
  0
VERTEX
  8
CUT_JAG
 10
-47.3516
 20
36.2309
 30
0.0000
  0
VERTEX
  8
CUT_JAG
 10
-52.3329
 20
37.6390
 30
0.0000
  0
VERTEX
  8
CUT_JAG
 10
-52.5088
 20
37.8812
 30
0.0000
  0
VERTEX
  8
CUT_JAG
 10
-52.4225
 20
40.0095
 30
0.0000
  0
VERTEX
  8
CUT_JAG
 10
-52.1884
 20
41.8690
 30
0.0000
  0
VERTEX
  8
CUT_JAG
 10
-52.2275
 20
42.2411
 30
0.0000
  0
VERTEX
  8
CUT_JAG
 10
-55.6123
 20
42.6890
 30
0.0000
  0
VERTEX
  8
CUT_JAG
 10
-57.4380
 20
43.0086
 30
0.0000
  0
VERTEX
  8
CUT_JAG
 10
-57.6848
 20
43.1854
 30
0.0000
  0
VERTEX
  8
CUT_JAG
 10
-57.6070
 20
46.7769
 30
0.0000
  0
VERTEX
  8
CUT_JAG
 10
-56.8775
 20
50.8219
 30
0.0000
  0
VERTEX
  8
CUT_JAG
 10
-60.2028
 20
50.6846
 30
0.0000
  0
VERTEX
  8
CUT_JAG
 10
-63.8537
 20
50.3947
 30
0.0000
  0
VERTEX
  8
CUT_JAG
 10
-64.0891
 20
50.5863
 30
0.0000
  0
VERTEX
  8
CUT_JAG
 10
-63.0562
 20
56.2399
 30
0.0000
  0
VERTEX
  8
CUT_JAG
 10
-63.3225
 20
56.4123
 30
0.0000
  0
VERTEX
  8
CUT_JAG
 10
-66.1124
 20
56.5122
 30
0.0000
  0
VERTEX
  8
CUT_JAG
 10
-68.8578
 20
56.6998
 30
0.0000
  0
VERTEX
  8
CUT_JAG
 10
-69.0821
 20
56.9063
 30
0.0000
  0
VERTEX
  8
CUT_JAG
 10
-68.9962
 20
59.9202
 30
0.0000
  0
VERTEX
  8
CUT_JAG
 10
-68.5598
 20
63.1598
 30
0.0000
  0
VERTEX
  8
CUT_JAG
 10
-68.5865
 20
63.5088
 30
0.0000
  0
VERTEX
  8
CUT_JAG
 10
-73.9073
 20
63.7659
 30
0.0000
  0
VERTEX
  8
CUT_JAG
 10
-74.1801
 20
63.8798
 30
0.0000
  0
VERTEX
  8
CUT_JAG
 10
-75.4465
 20
68.4830
 30
0.0000
  0
VERTEX
  8
CUT_JAG
 10
-77.0548
 20
73.1611
 30
0.0000
  0
VERTEX
  8
CUT_JAG
 10
-82.2880
 20
75.4829
 30
0.0000
  0
VERTEX
  8
CUT_JAG
 10
-82.4972
 20
75.7021
 30
0.0000
  0
VERTEX
  8
CUT_JAG
 10
-87.0741
 20
81.9963
 30
0.0000
  0
VERTEX
  8
CUT_JAG
 10
-90.7166
 20
86.7223
 30
0.0000
  0
VERTEX
  8
CUT_JAG
 10
-94.5081
 20
91.3069
 30
0.0000
  0
VERTEX
  8
CUT_JAG
 10
-98.7272
 20
95.9813
 30
0.0000
  0
VERTEX
  8
CUT_JAG
 10
-99.1503
 20
96.5632
 30
0.0000
  0
VERTEX
  8
CUT_JAG
 10
-99.4938
 20
97.1953
 30
0.0000
  0
VERTEX
  8
CUT_JAG
 10
-99.8475
 20
98.2138
 30
0.0000
  0
VERTEX
  8
CUT_JAG
 10
-99.9696
 20
98.9228
 30
0.0000
  0
VERTEX
  8
CUT_JAG
 10
-99.9771
 20
100.0010
 30
0.0000
  0
VERTEX
  8
CUT_JAG
 10
-99.7742
 20
101.0599
 30
0.0000
  0
VERTEX
  8
CUT_JAG
 10
-99.5254
 20
101.7350
 30
0.0000
  0
VERTEX
  8
CUT_JAG
 10
-98.9928
 20
102.6724
 30
0.0000
  0
VERTEX
  8
CUT_JAG
 10
-98.5403
 20
103.2317
 30
0.0000
  0
VERTEX
  8
CUT_JAG
 10
-97.7347
 20
103.9483
 30
0.0000
  0
VERTEX
  8
CUT_JAG
 10
-96.8047
 20
104.4938
 30
0.0000
  0
VERTEX
  8
CUT_JAG
 10
-95.7862
 20
104.8475
 30
0.0000
  0
VERTEX
  8
CUT_JAG
 10
-95.0772
 20
104.9696
 30
0.0000
  0
VERTEX
  8
CUT_JAG
 10
-93.9990
 20
104.9771
 30
0.0000
  0
VERTEX
  8
CUT_JAG
 10
-92.9401
 20
104.7742
 30
0.0000
  0
VERTEX
  8
CUT_JAG
 10
-91.9411
 20
104.3685
 30
0.0000
  0
VERTEX
  8
CUT_JAG
 10
-91.0405
 20
103.7757
 30
0.0000
  0
VERTEX
  8
CUT_JAG
 10
-86.3901
 20
99.1556
 30
0.0000
  0
VERTEX
  8
CUT_JAG
 10
-82.0854
 20
95.1972
 30
0.0000
  0
VERTEX
  8
CUT_JAG
 10
-76.5046
 20
90.4391
 30
0.0000
  0
VERTEX
  8
CUT_JAG
 10
-70.0930
 20
85.2572
 30
0.0000
  0
VERTEX
  8
CUT_JAG
 10
-67.6858
 20
81.6242
 30
0.0000
  0
VERTEX
  8
CUT_JAG
 10
-65.6000
 20
78.0508
 30
0.0000
  0
VERTEX
  8
CUT_JAG
 10
-65.3488
 20
77.8938
 30
0.0000
  0
VERTEX
  8
CUT_JAG
 10
-62.3266
 20
76.9821
 30
0.0000
  0
VERTEX
  8
CUT_JAG
 10
-58.6342
 20
75.9652
 30
0.0000
  0
VERTEX
  8
CUT_JAG
 10
-58.5214
 20
75.6316
 30
0.0000
  0
VERTEX
  8
CUT_JAG
 10
-58.1044
 20
73.3162
 30
0.0000
  0
VERTEX
  8
CUT_JAG
 10
-58.0725
 20
70.5528
 30
0.0000
  0
VERTEX
  8
CUT_JAG
 10
-57.8858
 20
70.3151
 30
0.0000
  0
VERTEX
  8
CUT_JAG
 10
-53.7752
 20
69.8281
 30
0.0000
  0
VERTEX
  8
CUT_JAG
 10
-49.6525
 20
68.8419
 30
0.0000
  0
VERTEX
  8
CUT_JAG
 10
-46.8235
 20
64.5384
 30
0.0000
  0
VERTEX
  8
CUT_JAG
 10
-44.7698
 20
59.9972
 30
0.0000
  0
VERTEX
  8
CUT_JAG
 10
-44.4924
 20
59.8911
 30
0.0000
  0
VERTEX
  8
CUT_JAG
 10
-43.4048
 20
59.7557
 30
0.0000
  0
VERTEX
  8
CUT_JAG
 10
-39.7144
 20
59.3870
 30
0.0000
  0
VERTEX
  8
CUT_JAG
 10
-39.4973
 20
59.1945
 30
0.0000
  0
VERTEX
  8
CUT_JAG
 10
-40.2798
 20
54.8368
 30
0.0000
  0
VERTEX
  8
CUT_JAG
 10
-41.3035
 20
50.6459
 30
0.0000
  0
VERTEX
  8
CUT_JAG
 10
-41.1195
 20
50.4183
 30
0.0000
  0
VERTEX
  8
CUT_JAG
 10
-36.9375
 20
50.7690
 30
0.0000
  0
VERTEX
  8
CUT_JAG
 10
-32.1369
 20
51.3051
 30
0.0000
  0
VERTEX
  8
CUT_JAG
 10
-31.9834
 20
51.0485
 30
0.0000
  0
VERTEX
  8
CUT_JAG
 10
-31.2900
 20
47.2813
 30
0.0000
  0
VERTEX
  8
CUT_JAG
 10
-31.3149
 20
42.4296
 30
0.0000
  0
VERTEX
  8
CUT_JAG
 10
-31.0202
 20
42.3072
 30
0.0000
  0
VERTEX
  8
CUT_JAG
 10
-26.9318
 20
42.1667
 30
0.0000
  0
VERTEX
  8
CUT_JAG
 10
-23.0199
 20
41.8588
 30
0.0000
  0
VERTEX
  8
CUT_JAG
 10
-22.8436
 20
41.6238
 30
0.0000
  0
VERTEX
  8
CUT_JAG
 10
-22.5430
 20
37.0813
 30
0.0000
  0
VERTEX
  8
CUT_JAG
 10
-21.7899
 20
32.9685
 30
0.0000
  0
VERTEX
  8
CUT_JAG
 10
-21.5873
 20
32.7585
 30
0.0000
  0
VERTEX
  8
CUT_JAG
 10
-18.5510
 20
33.2283
 30
0.0000
  0
VERTEX
  8
CUT_JAG
 10
-15.4079
 20
33.7993
 30
0.0000
  0
VERTEX
  8
CUT_JAG
 10
-15.0740
 20
33.7142
 30
0.0000
  0
VERTEX
  8
CUT_JAG
 10
-14.6260
 20
31.3233
 30
0.0000
  0
VERTEX
  8
CUT_JAG
 10
-14.6771
 20
28.4584
 30
0.0000
  0
VERTEX
  8
CUT_JAG
 10
-12.2690
 20
28.3315
 30
0.0000
  0
VERTEX
  8
CUT_JAG
 10
-9.9860
 20
28.0857
 30
0.0000
  0
VERTEX
  8
CUT_JAG
 10
-9.4955
 20
28.1492
 30
0.0000
  0
VERTEX
  8
CUT_JAG
 10
-5.0756
 20
23.4955
 30
0.0000
  0
VERTEX
  8
CUT_JAG
 10
-4.0007
 20
22.5721
 30
0.0000
  0
VERTEX
  8
CUT_JAG
 10
-3.1900
 20
22.0853
 30
0.0000
  0
VERTEX
  8
CUT_JAG
 10
-2.3211
 20
21.7121
 30
0.0000
  0
VERTEX
  8
CUT_JAG
 10
-1.4098
 20
21.4596
 30
0.0000
  0
VERTEX
  8
CUT_JAG
 10
0.0000
 20
21.3161
 30
0.0000
  0
VERTEX
  8
CUT_JAG
 10
0.9435
 20
21.3800
 30
0.0000
  0
VERTEX
  8
CUT_JAG
 10
2.3211
 20
21.7121
 30
0.0000
  0
VERTEX
  8
CUT_JAG
 10
3.1900
 20
22.0853
 30
0.0000
  0
VERTEX
  8
CUT_JAG
 10
4.3796
 20
22.8554
 30
0.0000
  0
VERTEX
  8
CUT_JAG
 10
5.0756
 20
23.4955
 30
0.0000
  0
VERTEX
  8
CUT_JAG
 10
13.3126
 20
32.1683
 30
0.0000
  0
VERTEX
  8
CUT_JAG
 10
18.8275
 20
31.3563
 30
0.0000
  0
VERTEX
  8
CUT_JAG
 10
18.5729
 20
34.0121
 30
0.0000
  0
VERTEX
  8
CUT_JAG
 10
17.9162
 20
36.6475
 30
0.0000
  0
VERTEX
  8
CUT_JAG
 10
18.2679
 20
36.7158
 30
0.0000
  0
VERTEX
  8
CUT_JAG
 10
21.0802
 20
35.6542
 30
0.0000
  0
VERTEX
  8
CUT_JAG
 10
24.4082
 20
34.5051
 30
0.0000
  0
VERTEX
  8
CUT_JAG
 10
24.4327
 20
34.8841
 30
0.0000
  0
VERTEX
  8
CUT_JAG
 10
23.9227
 20
43.0130
 30
0.0000
  0
VERTEX
  8
CUT_JAG
 10
24.1443
 20
43.2049
 30
0.0000
  0
VERTEX
  8
CUT_JAG
 10
33.1030
 20
44.3525
 30
0.0000
  0
VERTEX
  8
CUT_JAG
 10
33.3309
 20
44.5383
 30
0.0000
  0
VERTEX
  8
CUT_JAG
 10
33.2645
 20
49.0271
 30
0.0000
  0
VERTEX
  8
CUT_JAG
 10
33.5956
 20
53.1383
 30
0.0000
  0
VERTEX
  8
CUT_JAG
 10
33.7018
 20
53.4399
 30
0.0000
  0
VERTEX
  8
CUT_JAG
 10
37.1600
 20
54.5812
 30
0.0000
  0
VERTEX
  8
CUT_JAG
 10
40.4253
 20
55.5033
 30
0.0000
  0
VERTEX
  8
CUT_JAG
 10
40.6221
 20
55.7186
 30
0.0000
  0
VERTEX
  8
CUT_JAG
 10
41.4887
 20
58.8654
 30
0.0000
  0
VERTEX
  8
CUT_JAG
 10
42.2401
 20
62.2202
 30
0.0000
  0
VERTEX
  8
CUT_JAG
 10
42.4847
 20
62.3858
 30
0.0000
  0
VERTEX
  8
CUT_JAG
 10
45.4270
 20
61.7864
 30
0.0000
  0
VERTEX
  8
CUT_JAG
 10
48.6236
 20
61.2758
 30
0.0000
  0
VERTEX
  8
CUT_JAG
 10
48.5692
 20
61.7703
 30
0.0000
  0
VERTEX
  8
CUT_JAG
 10
47.7271
 20
64.4055
 30
0.0000
  0
VERTEX
  8
CUT_JAG
 10
47.5538
 20
66.3491
 30
0.0000
  0
VERTEX
  8
CUT_JAG
 10
47.5710
 20
66.7734
 30
0.0000
  0
VERTEX
  8
CUT_JAG
 10
52.3883
 20
66.0802
 30
0.0000
  0
VERTEX
  8
CUT_JAG
 10
52.5126
 20
66.3662
 30
0.0000
  0
VERTEX
  8
CUT_JAG
 10
52.2360
 20
68.5015
 30
0.0000
  0
VERTEX
  8
CUT_JAG
 10
52.0996
 20
70.9471
 30
0.0000
  0
VERTEX
  8
CUT_JAG
 10
52.3699
 20
71.0804
 30
0.0000
  0
VERTEX
  8
CUT_JAG
 10
54.7542
 20
70.9382
 30
0.0000
  0
VERTEX
  8
CUT_JAG
 10
57.9071
 20
70.2887
 30
0.0000
  0
VERTEX
  8
CUT_JAG
 10
58.1107
 20
70.5053
 30
0.0000
  0
VERTEX
  8
CUT_JAG
 10
60.2954
 20
74.3285
 30
0.0000
  0
VERTEX
  8
CUT_JAG
 10
62.3397
 20
78.8853
 30
0.0000
  0
VERTEX
  8
CUT_JAG
 10
62.5187
 20
79.1358
 30
0.0000
  0
VERTEX
  8
CUT_JAG
 10
64.9298
 20
79.8786
 30
0.0000
  0
VERTEX
  8
CUT_JAG
 10
66.9776
 20
80.6095
 30
0.0000
  0
VERTEX
  8
CUT_JAG
 10
67.2215
 20
80.7777
 30
0.0000
  0
VERTEX
  8
CUT_JAG
 10
69.5423
 20
83.5678
 30
0.0000
  0
VERTEX
  8
CUT_JAG
 10
71.7064
 20
86.5434
 30
0.0000
  0
VERTEX
  8
CUT_JAG
 10
77.6354
 20
91.3768
 30
0.0000
  0
VERTEX
  8
CUT_JAG
 10
82.0854
 20
95.1972
 30
0.0000
  0
VERTEX
  8
CUT_JAG
 10
86.3901
 20
99.1556
 30
0.0000
  0
VERTEX
  8
CUT_JAG
 10
90.7683
 20
103.5403
 30
0.0000
  0
VERTEX
  8
CUT_JAG
 10
91.3276
 20
103.9928
 30
0.0000
  0
VERTEX
  8
CUT_JAG
 10
92.2650
 20
104.5254
 30
0.0000
  0
VERTEX
  8
CUT_JAG
 10
92.9401
 20
104.7742
 30
0.0000
  0
VERTEX
  8
CUT_JAG
 10
93.9990
 20
104.9771
 30
0.0000
  0
VERTEX
  8
CUT_JAG
 10
95.0772
 20
104.9696
 30
0.0000
  0
VERTEX
  8
CUT_JAG
 10
95.7862
 20
104.8475
 30
0.0000
  0
VERTEX
  8
CUT_JAG
 10
96.8047
 20
104.4938
 30
0.0000
  0
VERTEX
  8
CUT_JAG
 10
97.7347
 20
103.9483
 30
0.0000
  0
VERTEX
  8
CUT_JAG
 10
98.2876
 20
103.4880
 30
0.0000
  0
VERTEX
  8
CUT_JAG
 10
98.9928
 20
102.6724
 30
0.0000
  0
VERTEX
  8
CUT_JAG
 10
99.3685
 20
102.0589
 30
0.0000
  0
VERTEX
  8
CUT_JAG
 10
99.6608
 20
101.4015
 30
0.0000
  0
VERTEX
  8
CUT_JAG
 10
99.9326
 20
100.3581
 30
0.0000
  0
VERTEX
  8
CUT_JAG
 10
99.9957
 20
99.2818
 30
0.0000
  0
VERTEX
  8
CUT_JAG
 10
99.8475
 20
98.2138
 30
0.0000
  0
VERTEX
  8
CUT_JAG
 10
99.4938
 20
97.1953
 30
0.0000
  0
VERTEX
  8
CUT_JAG
 10
99.1503
 20
96.5632
 30
0.0000
  0
VERTEX
  8
CUT_JAG
 10
98.7272
 20
95.9813
 30
0.0000
  0
VERTEX
  8
CUT_JAG
 10
94.5081
 20
91.3069
 30
0.0000
  0
VERTEX
  8
CUT_JAG
 10
90.7166
 20
86.7223
 30
0.0000
  0
VERTEX
  8
CUT_JAG
 10
86.1822
 20
80.7970
 30
0.0000
  0
VERTEX
  8
CUT_JAG
 10
80.9368
 20
73.4998
 30
0.0000
  0
VERTEX
  8
CUT_JAG
 10
78.5416
 20
73.0378
 30
0.0000
  0
VERTEX
  8
CUT_JAG
 10
76.6924
 20
72.4948
 30
0.0000
  0
VERTEX
  8
CUT_JAG
 10
76.5848
 20
72.2649
 30
0.0000
  0
VERTEX
  8
CUT_JAG
 10
77.3539
 20
68.6799
 30
0.0000
  0
VERTEX
  8
CUT_JAG
 10
77.2298
 20
68.4614
 30
0.0000
  0
VERTEX
  8
CUT_JAG
 10
75.1810
 20
68.3635
 30
0.0000
  0
VERTEX
  8
CUT_JAG
 10
72.0513
 20
68.7176
 30
0.0000
  0
VERTEX
  8
CUT_JAG
 10
71.8095
 20
68.5842
 30
0.0000
  0
VERTEX
  8
CUT_JAG
 10
72.6313
 20
65.8804
 30
0.0000
  0
VERTEX
  8
CUT_JAG
 10
73.5423
 20
63.2893
 30
0.0000
  0
VERTEX
  8
CUT_JAG
 10
73.2957
 20
63.0960
 30
0.0000
  0
VERTEX
  8
CUT_JAG
 10
70.3488
 20
62.9783
 30
0.0000
  0
VERTEX
  8
CUT_JAG
 10
68.2980
 20
62.6103
 30
0.0000
  0
VERTEX
  8
CUT_JAG
 10
68.0069
 20
62.4599
 30
0.0000
  0
VERTEX
  8
CUT_JAG
 10
67.5896
 20
58.0002
 30
0.0000
  0
VERTEX
  8
CUT_JAG
 10
66.8183
 20
53.7497
 30
0.0000
  0
VERTEX
  8
CUT_JAG
 10
63.3934
 20
53.3810
 30
0.0000
  0
VERTEX
  8
CUT_JAG
 10
60.0205
 20
53.4601
 30
0.0000
  0
VERTEX
  8
CUT_JAG
 10
58.5997
 20
48.2323
 30
0.0000
  0
VERTEX
  8
CUT_JAG
 10
57.4547
 20
42.5937
 30
0.0000
  0
VERTEX
  8
CUT_JAG
 10
57.2474
 20
42.3826
 30
0.0000
  0
VERTEX
  8
CUT_JAG
 10
53.4576
 20
43.9357
 30
0.0000
  0
VERTEX
  8
CUT_JAG
 10
50.6838
 20
44.9333
 30
0.0000
  0
VERTEX
  8
CUT_JAG
 10
51.7985
 20
40.6022
 30
0.0000
  0
VERTEX
  8
CUT_JAG
 10
52.1736
 20
37.3810
 30
0.0000
  0
VERTEX
  8
CUT_JAG
 10
52.0177
 20
37.1198
 30
0.0000
  0
VERTEX
  8
CUT_JAG
 10
49.2910
 20
36.0261
 30
0.0000
  0
VERTEX
  8
CUT_JAG
 10
45.9411
 20
35.5242
 30
0.0000
  0
VERTEX
  8
CUT_JAG
 10
45.7299
 20
35.3154
 30
0.0000
  0
VERTEX
  8
CUT_JAG
 10
45.3803
 20
32.7826
 30
0.0000
  0
VERTEX
  8
CUT_JAG
 10
45.3478
 20
29.9485
 30
0.0000
  0
VERTEX
  8
CUT_JAG
 10
38.1636
 20
32.6789
 30
0.0000
  0
VERTEX
  8
CUT_JAG
 10
38.0333
 20
32.3934
 30
0.0000
  0
VERTEX
  8
CUT_JAG
 10
39.9928
 20
24.3933
 30
0.0000
  0
VERTEX
  8
CUT_JAG
 10
39.8566
 20
24.1134
 30
0.0000
  0
VERTEX
  8
CUT_JAG
 10
35.8538
 20
24.2316
 30
0.0000
  0
VERTEX
  8
CUT_JAG
 10
35.6173
 20
24.0469
 30
0.0000
  0
VERTEX
  8
CUT_JAG
 10
34.9212
 20
21.4338
 30
0.0000
  0
VERTEX
  8
CUT_JAG
 10
34.4000
 20
18.6547
 30
0.0000
  0
VERTEX
  8
CUT_JAG
 10
34.0953
 20
18.5348
 30
0.0000
  0
VERTEX
  8
CUT_JAG
 10
31.8660
 20
18.6057
 30
0.0000
  0
VERTEX
  8
CUT_JAG
 10
29.0385
 20
19.2447
 30
0.0000
  0
VERTEX
  8
CUT_JAG
 10
28.7398
 20
19.1192
 30
0.0000
  0
VERTEX
  8
CUT_JAG
 10
28.0403
 20
15.6907
 30
0.0000
  0
VERTEX
  8
CUT_JAG
 10
27.7442
 20
11.0607
 30
0.0000
  0
VERTEX
  8
CUT_JAG
 10
21.5228
 20
4.4898
 30
0.0000
  0
VERTEX
  8
CUT_JAG
 10
20.7718
 20
3.3954
 30
0.0000
  0
VERTEX
  8
CUT_JAG
 10
20.3921
 20
2.5952
 30
0.0000
  0
VERTEX
  8
CUT_JAG
 10
20.1164
 20
1.7536
 30
0.0000
  0
VERTEX
  8
CUT_JAG
 10
19.9072
 20
0.4428
 30
0.0000
  0
VERTEX
  8
CUT_JAG
 10
19.9072
 20
-0.4428
 30
0.0000
  0
VERTEX
  8
CUT_JAG
 10
20.0190
 20
-1.3214
 30
0.0000
  0
VERTEX
  8
CUT_JAG
 10
20.2409
 20
-2.1788
 30
0.0000
  0
VERTEX
  8
CUT_JAG
 10
20.7718
 20
-3.3954
 30
0.0000
  0
VERTEX
  8
CUT_JAG
 10
21.2495
 20
-4.1411
 30
0.0000
  0
SEQEND
  8
CUT_JAG
  0
POLYLINE
  8
PATCH
 66
1
 10
0.0000
 20
0.0000
 30
0.0000
 70
1
  0
VERTEX
  8
PATCH
 10
39.4494
 20
-3.0558
 30
0.0000
  0
VERTEX
  8
PATCH
 10
66.7110
 20
-31.7606
 30
0.0000
  0
VERTEX
  8
PATCH
 10
69.4702
 20
-34.7879
 30
0.0000
  0
VERTEX
  8
PATCH
 10
72.1351
 20
-37.9049
 30
0.0000
  0
VERTEX
  8
PATCH
 10
73.8656
 20
-40.0267
 30
0.0000
  0
VERTEX
  8
PATCH
 10
75.5637
 20
-42.1791
 30
0.0000
  0
VERTEX
  8
PATCH
 10
77.2334
 20
-44.3587
 30
0.0000
  0
VERTEX
  8
PATCH
 10
79.6927
 20
-47.6709
 30
0.0000
  0
VERTEX
  8
PATCH
 10
83.7033
 20
-53.2750
 30
0.0000
  0
VERTEX
  8
PATCH
 10
93.2046
 20
-66.8428
 30
0.0000
  0
VERTEX
  8
PATCH
 10
95.6246
 20
-70.1924
 30
0.0000
  0
VERTEX
  8
PATCH
 10
98.0882
 20
-73.5004
 30
0.0000
  0
VERTEX
  8
PATCH
 10
100.6086
 20
-76.7546
 30
0.0000
  0
VERTEX
  8
PATCH
 10
103.1986
 20
-79.9427
 30
0.0000
  0
VERTEX
  8
PATCH
 10
105.8711
 20
-83.0524
 30
0.0000
  0
VERTEX
  8
PATCH
 10
109.4873
 20
-87.0248
 30
0.0000
  0
VERTEX
  8
PATCH
 10
110.2711
 20
-88.0317
 30
0.0000
  0
VERTEX
  8
PATCH
 10
110.9874
 20
-89.0877
 30
0.0000
  0
VERTEX
  8
PATCH
 10
111.6331
 20
-90.1883
 30
0.0000
  0
VERTEX
  8
PATCH
 10
112.2054
 20
-91.3288
 30
0.0000
  0
VERTEX
  8
PATCH
 10
112.7019
 20
-92.5043
 30
0.0000
  0
VERTEX
  8
PATCH
 10
113.1205
 20
-93.7098
 30
0.0000
  0
VERTEX
  8
PATCH
 10
113.4593
 20
-94.9400
 30
0.0000
  0
VERTEX
  8
PATCH
 10
113.7170
 20
-96.1898
 30
0.0000
  0
VERTEX
  8
PATCH
 10
113.8923
 20
-97.4537
 30
0.0000
  0
VERTEX
  8
PATCH
 10
113.9846
 20
-98.7264
 30
0.0000
  0
VERTEX
  8
PATCH
 10
113.9935
 20
-100.0024
 30
0.0000
  0
VERTEX
  8
PATCH
 10
113.9189
 20
-101.2763
 30
0.0000
  0
VERTEX
  8
PATCH
 10
113.7612
 20
-102.5425
 30
0.0000
  0
VERTEX
  8
PATCH
 10
113.5209
 20
-103.7958
 30
0.0000
  0
VERTEX
  8
PATCH
 10
113.1993
 20
-105.0306
 30
0.0000
  0
VERTEX
  8
PATCH
 10
112.7975
 20
-106.2417
 30
0.0000
  0
VERTEX
  8
PATCH
 10
112.3174
 20
-107.4240
 30
0.0000
  0
VERTEX
  8
PATCH
 10
111.7610
 20
-108.5724
 30
0.0000
  0
VERTEX
  8
PATCH
 10
111.1307
 20
-109.6819
 30
0.0000
  0
VERTEX
  8
PATCH
 10
110.4292
 20
-110.7478
 30
0.0000
  0
VERTEX
  8
PATCH
 10
109.6594
 20
-111.7655
 30
0.0000
  0
VERTEX
  8
PATCH
 10
108.8247
 20
-112.7307
 30
0.0000
  0
VERTEX
  8
PATCH
 10
107.9287
 20
-113.6393
 30
0.0000
  0
VERTEX
  8
PATCH
 10
106.9752
 20
-114.4873
 30
0.0000
  0
VERTEX
  8
PATCH
 10
105.9683
 20
-115.2711
 30
0.0000
  0
VERTEX
  8
PATCH
 10
104.9123
 20
-115.9874
 30
0.0000
  0
VERTEX
  8
PATCH
 10
103.8117
 20
-116.6331
 30
0.0000
  0
VERTEX
  8
PATCH
 10
102.6712
 20
-117.2054
 30
0.0000
  0
VERTEX
  8
PATCH
 10
101.4957
 20
-117.7019
 30
0.0000
  0
VERTEX
  8
PATCH
 10
100.2902
 20
-118.1205
 30
0.0000
  0
VERTEX
  8
PATCH
 10
99.0600
 20
-118.4593
 30
0.0000
  0
VERTEX
  8
PATCH
 10
97.8102
 20
-118.7170
 30
0.0000
  0
VERTEX
  8
PATCH
 10
96.5463
 20
-118.8923
 30
0.0000
  0
VERTEX
  8
PATCH
 10
95.2736
 20
-118.9846
 30
0.0000
  0
VERTEX
  8
PATCH
 10
93.9976
 20
-118.9935
 30
0.0000
  0
VERTEX
  8
PATCH
 10
92.7237
 20
-118.9189
 30
0.0000
  0
VERTEX
  8
PATCH
 10
91.4575
 20
-118.7612
 30
0.0000
  0
VERTEX
  8
PATCH
 10
90.2042
 20
-118.5209
 30
0.0000
  0
VERTEX
  8
PATCH
 10
88.9694
 20
-118.1993
 30
0.0000
  0
VERTEX
  8
PATCH
 10
87.7583
 20
-117.7975
 30
0.0000
  0
VERTEX
  8
PATCH
 10
86.5760
 20
-117.3174
 30
0.0000
  0
VERTEX
  8
PATCH
 10
85.4276
 20
-116.7610
 30
0.0000
  0
VERTEX
  8
PATCH
 10
84.3181
 20
-116.1307
 30
0.0000
  0
VERTEX
  8
PATCH
 10
83.2522
 20
-115.4292
 30
0.0000
  0
VERTEX
  8
PATCH
 10
82.2345
 20
-114.6594
 30
0.0000
  0
VERTEX
  8
PATCH
 10
81.2693
 20
-113.8247
 30
0.0000
  0
VERTEX
  8
PATCH
 10
77.5698
 20
-110.0889
 30
0.0000
  0
VERTEX
  8
PATCH
 10
75.6582
 20
-108.2441
 30
0.0000
  0
VERTEX
  8
PATCH
 10
72.7228
 20
-105.5415
 30
0.0000
  0
VERTEX
  8
PATCH
 10
68.7009
 20
-102.0405
 30
0.0000
  0
VERTEX
  8
PATCH
 10
65.6189
 20
-99.4772
 30
0.0000
  0
VERTEX
  8
PATCH
 10
61.4446
 20
-96.1210
 30
0.0000
  0
VERTEX
  8
PATCH
 10
48.7448
 20
-86.2205
 30
0.0000
  0
VERTEX
  8
PATCH
 10
44.5465
 20
-82.8872
 30
0.0000
  0
VERTEX
  8
PATCH
 10
41.4385
 20
-80.3484
 30
0.0000
  0
VERTEX
  8
PATCH
 10
39.3926
 20
-78.6311
 30
0.0000
  0
VERTEX
  8
PATCH
 10
35.3791
 20
-75.1223
 30
0.0000
  0
VERTEX
  8
PATCH
 10
33.4186
 20
-73.3239
 30
0.0000
  0
VERTEX
  8
PATCH
 10
31.4936
 20
-71.4918
 30
0.0000
  0
VERTEX
  8
PATCH
 10
28.6804
 20
-68.6731
 30
0.0000
  0
VERTEX
  8
PATCH
 10
2.1753
 20
-40.7712
 30
0.0000
  0
VERTEX
  8
PATCH
 10
1.7146
 20
-40.3755
 30
0.0000
  0
VERTEX
  8
PATCH
 10
1.1837
 20
-40.0806
 30
0.0000
  0
VERTEX
  8
PATCH
 10
0.6042
 20
-39.8987
 30
0.0000
  0
VERTEX
  8
PATCH
 10
0.0000
 20
-39.8372
 30
0.0000
  0
VERTEX
  8
PATCH
 10
-0.6042
 20
-39.8987
 30
0.0000
  0
VERTEX
  8
PATCH
 10
-1.1837
 20
-40.0806
 30
0.0000
  0
VERTEX
  8
PATCH
 10
-1.7146
 20
-40.3755
 30
0.0000
  0
VERTEX
  8
PATCH
 10
-2.1753
 20
-40.7712
 30
0.0000
  0
VERTEX
  8
PATCH
 10
-28.6804
 20
-68.6731
 30
0.0000
  0
VERTEX
  8
PATCH
 10
-31.4936
 20
-71.4918
 30
0.0000
  0
VERTEX
  8
PATCH
 10
-33.4186
 20
-73.3239
 30
0.0000
  0
VERTEX
  8
PATCH
 10
-35.3791
 20
-75.1223
 30
0.0000
  0
VERTEX
  8
PATCH
 10
-39.3926
 20
-78.6311
 30
0.0000
  0
VERTEX
  8
PATCH
 10
-41.4385
 20
-80.3484
 30
0.0000
  0
VERTEX
  8
PATCH
 10
-44.5465
 20
-82.8872
 30
0.0000
  0
VERTEX
  8
PATCH
 10
-48.7448
 20
-86.2205
 30
0.0000
  0
VERTEX
  8
PATCH
 10
-61.4446
 20
-96.1210
 30
0.0000
  0
VERTEX
  8
PATCH
 10
-65.6189
 20
-99.4772
 30
0.0000
  0
VERTEX
  8
PATCH
 10
-68.7009
 20
-102.0405
 30
0.0000
  0
VERTEX
  8
PATCH
 10
-72.7228
 20
-105.5415
 30
0.0000
  0
VERTEX
  8
PATCH
 10
-75.6582
 20
-108.2441
 30
0.0000
  0
VERTEX
  8
PATCH
 10
-77.5698
 20
-110.0889
 30
0.0000
  0
VERTEX
  8
PATCH
 10
-81.2693
 20
-113.8247
 30
0.0000
  0
VERTEX
  8
PATCH
 10
-82.2345
 20
-114.6594
 30
0.0000
  0
VERTEX
  8
PATCH
 10
-83.2522
 20
-115.4292
 30
0.0000
  0
VERTEX
  8
PATCH
 10
-84.3181
 20
-116.1307
 30
0.0000
  0
VERTEX
  8
PATCH
 10
-85.4276
 20
-116.7610
 30
0.0000
  0
VERTEX
  8
PATCH
 10
-86.5760
 20
-117.3174
 30
0.0000
  0
VERTEX
  8
PATCH
 10
-87.7583
 20
-117.7975
 30
0.0000
  0
VERTEX
  8
PATCH
 10
-88.9694
 20
-118.1993
 30
0.0000
  0
VERTEX
  8
PATCH
 10
-90.2042
 20
-118.5209
 30
0.0000
  0
VERTEX
  8
PATCH
 10
-91.4575
 20
-118.7612
 30
0.0000
  0
VERTEX
  8
PATCH
 10
-92.7237
 20
-118.9189
 30
0.0000
  0
VERTEX
  8
PATCH
 10
-93.9976
 20
-118.9935
 30
0.0000
  0
VERTEX
  8
PATCH
 10
-95.2736
 20
-118.9846
 30
0.0000
  0
VERTEX
  8
PATCH
 10
-96.5463
 20
-118.8923
 30
0.0000
  0
VERTEX
  8
PATCH
 10
-97.8102
 20
-118.7170
 30
0.0000
  0
VERTEX
  8
PATCH
 10
-99.0600
 20
-118.4593
 30
0.0000
  0
VERTEX
  8
PATCH
 10
-100.2902
 20
-118.1205
 30
0.0000
  0
VERTEX
  8
PATCH
 10
-101.4957
 20
-117.7019
 30
0.0000
  0
VERTEX
  8
PATCH
 10
-102.6712
 20
-117.2054
 30
0.0000
  0
VERTEX
  8
PATCH
 10
-103.8117
 20
-116.6331
 30
0.0000
  0
VERTEX
  8
PATCH
 10
-104.9123
 20
-115.9874
 30
0.0000
  0
VERTEX
  8
PATCH
 10
-105.9683
 20
-115.2711
 30
0.0000
  0
VERTEX
  8
PATCH
 10
-106.9752
 20
-114.4873
 30
0.0000
  0
VERTEX
  8
PATCH
 10
-107.9287
 20
-113.6393
 30
0.0000
  0
VERTEX
  8
PATCH
 10
-108.8247
 20
-112.7307
 30
0.0000
  0
VERTEX
  8
PATCH
 10
-109.6594
 20
-111.7655
 30
0.0000
  0
VERTEX
  8
PATCH
 10
-110.4292
 20
-110.7478
 30
0.0000
  0
VERTEX
  8
PATCH
 10
-111.1307
 20
-109.6819
 30
0.0000
  0
VERTEX
  8
PATCH
 10
-111.7610
 20
-108.5724
 30
0.0000
  0
VERTEX
  8
PATCH
 10
-112.3174
 20
-107.4240
 30
0.0000
  0
VERTEX
  8
PATCH
 10
-112.7975
 20
-106.2417
 30
0.0000
  0
VERTEX
  8
PATCH
 10
-113.1993
 20
-105.0306
 30
0.0000
  0
VERTEX
  8
PATCH
 10
-113.5209
 20
-103.7958
 30
0.0000
  0
VERTEX
  8
PATCH
 10
-113.7612
 20
-102.5425
 30
0.0000
  0
VERTEX
  8
PATCH
 10
-113.9189
 20
-101.2763
 30
0.0000
  0
VERTEX
  8
PATCH
 10
-113.9935
 20
-100.0024
 30
0.0000
  0
VERTEX
  8
PATCH
 10
-113.9846
 20
-98.7264
 30
0.0000
  0
VERTEX
  8
PATCH
 10
-113.8923
 20
-97.4537
 30
0.0000
  0
VERTEX
  8
PATCH
 10
-113.7170
 20
-96.1898
 30
0.0000
  0
VERTEX
  8
PATCH
 10
-113.4593
 20
-94.9400
 30
0.0000
  0
VERTEX
  8
PATCH
 10
-113.1205
 20
-93.7098
 30
0.0000
  0
VERTEX
  8
PATCH
 10
-112.7019
 20
-92.5043
 30
0.0000
  0
VERTEX
  8
PATCH
 10
-112.2054
 20
-91.3288
 30
0.0000
  0
VERTEX
  8
PATCH
 10
-111.6331
 20
-90.1883
 30
0.0000
  0
VERTEX
  8
PATCH
 10
-110.9874
 20
-89.0877
 30
0.0000
  0
VERTEX
  8
PATCH
 10
-110.2711
 20
-88.0317
 30
0.0000
  0
VERTEX
  8
PATCH
 10
-109.4873
 20
-87.0248
 30
0.0000
  0
VERTEX
  8
PATCH
 10
-105.8711
 20
-83.0524
 30
0.0000
  0
VERTEX
  8
PATCH
 10
-103.1986
 20
-79.9427
 30
0.0000
  0
VERTEX
  8
PATCH
 10
-100.6086
 20
-76.7546
 30
0.0000
  0
VERTEX
  8
PATCH
 10
-98.0882
 20
-73.5004
 30
0.0000
  0
VERTEX
  8
PATCH
 10
-95.6246
 20
-70.1924
 30
0.0000
  0
VERTEX
  8
PATCH
 10
-93.2046
 20
-66.8428
 30
0.0000
  0
VERTEX
  8
PATCH
 10
-83.7033
 20
-53.2750
 30
0.0000
  0
VERTEX
  8
PATCH
 10
-79.6927
 20
-47.6709
 30
0.0000
  0
VERTEX
  8
PATCH
 10
-77.2334
 20
-44.3587
 30
0.0000
  0
VERTEX
  8
PATCH
 10
-75.5637
 20
-42.1791
 30
0.0000
  0
VERTEX
  8
PATCH
 10
-73.8656
 20
-40.0267
 30
0.0000
  0
VERTEX
  8
PATCH
 10
-72.1351
 20
-37.9049
 30
0.0000
  0
VERTEX
  8
PATCH
 10
-69.4702
 20
-34.7879
 30
0.0000
  0
VERTEX
  8
PATCH
 10
-66.7110
 20
-31.7606
 30
0.0000
  0
VERTEX
  8
PATCH
 10
-38.5093
 20
-2.0660
 30
0.0000
  0
VERTEX
  8
PATCH
 10
-38.1584
 20
-1.6182
 30
0.0000
  0
VERTEX
  8
PATCH
 10
-37.8984
 20
-1.1122
 30
0.0000
  0
VERTEX
  8
PATCH
 10
-37.7385
 20
-0.5663
 30
0.0000
  0
VERTEX
  8
PATCH
 10
-37.6846
 20
-0.0000
 30
0.0000
  0
VERTEX
  8
PATCH
 10
-37.7385
 20
0.5663
 30
0.0000
  0
VERTEX
  8
PATCH
 10
-37.8984
 20
1.1122
 30
0.0000
  0
VERTEX
  8
PATCH
 10
-38.1584
 20
1.6182
 30
0.0000
  0
VERTEX
  8
PATCH
 10
-38.5093
 20
2.0660
 30
0.0000
  0
VERTEX
  8
PATCH
 10
-66.7110
 20
31.7606
 30
0.0000
  0
VERTEX
  8
PATCH
 10
-69.4702
 20
34.7879
 30
0.0000
  0
VERTEX
  8
PATCH
 10
-72.1351
 20
37.9049
 30
0.0000
  0
VERTEX
  8
PATCH
 10
-73.8656
 20
40.0267
 30
0.0000
  0
VERTEX
  8
PATCH
 10
-75.5637
 20
42.1791
 30
0.0000
  0
VERTEX
  8
PATCH
 10
-77.2334
 20
44.3587
 30
0.0000
  0
VERTEX
  8
PATCH
 10
-79.6927
 20
47.6709
 30
0.0000
  0
VERTEX
  8
PATCH
 10
-83.7033
 20
53.2750
 30
0.0000
  0
VERTEX
  8
PATCH
 10
-93.2046
 20
66.8428
 30
0.0000
  0
VERTEX
  8
PATCH
 10
-95.6246
 20
70.1924
 30
0.0000
  0
VERTEX
  8
PATCH
 10
-98.0882
 20
73.5004
 30
0.0000
  0
VERTEX
  8
PATCH
 10
-100.6086
 20
76.7546
 30
0.0000
  0
VERTEX
  8
PATCH
 10
-103.1986
 20
79.9427
 30
0.0000
  0
VERTEX
  8
PATCH
 10
-105.8711
 20
83.0524
 30
0.0000
  0
VERTEX
  8
PATCH
 10
-109.4873
 20
87.0248
 30
0.0000
  0
VERTEX
  8
PATCH
 10
-110.2711
 20
88.0317
 30
0.0000
  0
VERTEX
  8
PATCH
 10
-110.9874
 20
89.0877
 30
0.0000
  0
VERTEX
  8
PATCH
 10
-111.6331
 20
90.1883
 30
0.0000
  0
VERTEX
  8
PATCH
 10
-112.2054
 20
91.3288
 30
0.0000
  0
VERTEX
  8
PATCH
 10
-112.7019
 20
92.5043
 30
0.0000
  0
VERTEX
  8
PATCH
 10
-113.1205
 20
93.7098
 30
0.0000
  0
VERTEX
  8
PATCH
 10
-113.4593
 20
94.9400
 30
0.0000
  0
VERTEX
  8
PATCH
 10
-113.7170
 20
96.1898
 30
0.0000
  0
VERTEX
  8
PATCH
 10
-113.8923
 20
97.4537
 30
0.0000
  0
VERTEX
  8
PATCH
 10
-113.9846
 20
98.7264
 30
0.0000
  0
VERTEX
  8
PATCH
 10
-113.9935
 20
100.0024
 30
0.0000
  0
VERTEX
  8
PATCH
 10
-113.9189
 20
101.2763
 30
0.0000
  0
VERTEX
  8
PATCH
 10
-113.7612
 20
102.5425
 30
0.0000
  0
VERTEX
  8
PATCH
 10
-113.5209
 20
103.7958
 30
0.0000
  0
VERTEX
  8
PATCH
 10
-113.1993
 20
105.0306
 30
0.0000
  0
VERTEX
  8
PATCH
 10
-112.7975
 20
106.2417
 30
0.0000
  0
VERTEX
  8
PATCH
 10
-112.3174
 20
107.4240
 30
0.0000
  0
VERTEX
  8
PATCH
 10
-111.7610
 20
108.5724
 30
0.0000
  0
VERTEX
  8
PATCH
 10
-111.1307
 20
109.6819
 30
0.0000
  0
VERTEX
  8
PATCH
 10
-110.4292
 20
110.7478
 30
0.0000
  0
VERTEX
  8
PATCH
 10
-109.6594
 20
111.7655
 30
0.0000
  0
VERTEX
  8
PATCH
 10
-108.8247
 20
112.7307
 30
0.0000
  0
VERTEX
  8
PATCH
 10
-107.9287
 20
113.6393
 30
0.0000
  0
VERTEX
  8
PATCH
 10
-106.9752
 20
114.4873
 30
0.0000
  0
VERTEX
  8
PATCH
 10
-105.9683
 20
115.2711
 30
0.0000
  0
VERTEX
  8
PATCH
 10
-104.9123
 20
115.9874
 30
0.0000
  0
VERTEX
  8
PATCH
 10
-103.8117
 20
116.6331
 30
0.0000
  0
VERTEX
  8
PATCH
 10
-102.6712
 20
117.2054
 30
0.0000
  0
VERTEX
  8
PATCH
 10
-101.4957
 20
117.7019
 30
0.0000
  0
VERTEX
  8
PATCH
 10
-100.2902
 20
118.1205
 30
0.0000
  0
VERTEX
  8
PATCH
 10
-99.0600
 20
118.4593
 30
0.0000
  0
VERTEX
  8
PATCH
 10
-97.8102
 20
118.7170
 30
0.0000
  0
VERTEX
  8
PATCH
 10
-96.5463
 20
118.8923
 30
0.0000
  0
VERTEX
  8
PATCH
 10
-95.2736
 20
118.9846
 30
0.0000
  0
VERTEX
  8
PATCH
 10
-93.9976
 20
118.9935
 30
0.0000
  0
VERTEX
  8
PATCH
 10
-92.7237
 20
118.9189
 30
0.0000
  0
VERTEX
  8
PATCH
 10
-91.4575
 20
118.7612
 30
0.0000
  0
VERTEX
  8
PATCH
 10
-90.2042
 20
118.5209
 30
0.0000
  0
VERTEX
  8
PATCH
 10
-88.9694
 20
118.1993
 30
0.0000
  0
VERTEX
  8
PATCH
 10
-87.7583
 20
117.7975
 30
0.0000
  0
VERTEX
  8
PATCH
 10
-86.5760
 20
117.3174
 30
0.0000
  0
VERTEX
  8
PATCH
 10
-85.4276
 20
116.7610
 30
0.0000
  0
VERTEX
  8
PATCH
 10
-84.3181
 20
116.1307
 30
0.0000
  0
VERTEX
  8
PATCH
 10
-83.2522
 20
115.4292
 30
0.0000
  0
VERTEX
  8
PATCH
 10
-82.2345
 20
114.6594
 30
0.0000
  0
VERTEX
  8
PATCH
 10
-81.2693
 20
113.8247
 30
0.0000
  0
VERTEX
  8
PATCH
 10
-77.5698
 20
110.0889
 30
0.0000
  0
VERTEX
  8
PATCH
 10
-74.6883
 20
107.3351
 30
0.0000
  0
VERTEX
  8
PATCH
 10
-71.7280
 20
104.6561
 30
0.0000
  0
VERTEX
  8
PATCH
 10
-67.6791
 20
101.1808
 30
0.0000
  0
VERTEX
  8
PATCH
 10
-64.5814
 20
98.6323
 30
0.0000
  0
VERTEX
  8
PATCH
 10
-61.4446
 20
96.1210
 30
0.0000
  0
VERTEX
  8
PATCH
 10
-48.7448
 20
86.2205
 30
0.0000
  0
VERTEX
  8
PATCH
 10
-44.5465
 20
82.8872
 30
0.0000
  0
VERTEX
  8
PATCH
 10
-41.4385
 20
80.3484
 30
0.0000
  0
VERTEX
  8
PATCH
 10
-39.3926
 20
78.6311
 30
0.0000
  0
VERTEX
  8
PATCH
 10
-35.3791
 20
75.1223
 30
0.0000
  0
VERTEX
  8
PATCH
 10
-33.4186
 20
73.3239
 30
0.0000
  0
VERTEX
  8
PATCH
 10
-31.4936
 20
71.4918
 30
0.0000
  0
VERTEX
  8
PATCH
 10
-28.6804
 20
68.6731
 30
0.0000
  0
VERTEX
  8
PATCH
 10
-2.1753
 20
40.7712
 30
0.0000
  0
VERTEX
  8
PATCH
 10
-1.7146
 20
40.3755
 30
0.0000
  0
VERTEX
  8
PATCH
 10
-1.1837
 20
40.0806
 30
0.0000
  0
VERTEX
  8
PATCH
 10
-0.6042
 20
39.8987
 30
0.0000
  0
VERTEX
  8
PATCH
 10
-0.0000
 20
39.8372
 30
0.0000
  0
VERTEX
  8
PATCH
 10
0.6042
 20
39.8987
 30
0.0000
  0
VERTEX
  8
PATCH
 10
1.1837
 20
40.0806
 30
0.0000
  0
VERTEX
  8
PATCH
 10
1.7146
 20
40.3755
 30
0.0000
  0
VERTEX
  8
PATCH
 10
2.1753
 20
40.7712
 30
0.0000
  0
VERTEX
  8
PATCH
 10
28.6804
 20
68.6731
 30
0.0000
  0
VERTEX
  8
PATCH
 10
31.4936
 20
71.4918
 30
0.0000
  0
VERTEX
  8
PATCH
 10
33.4186
 20
73.3239
 30
0.0000
  0
VERTEX
  8
PATCH
 10
35.3791
 20
75.1223
 30
0.0000
  0
VERTEX
  8
PATCH
 10
39.3926
 20
78.6311
 30
0.0000
  0
VERTEX
  8
PATCH
 10
41.4385
 20
80.3484
 30
0.0000
  0
VERTEX
  8
PATCH
 10
44.5465
 20
82.8872
 30
0.0000
  0
VERTEX
  8
PATCH
 10
48.7448
 20
86.2205
 30
0.0000
  0
VERTEX
  8
PATCH
 10
61.4446
 20
96.1210
 30
0.0000
  0
VERTEX
  8
PATCH
 10
65.6189
 20
99.4772
 30
0.0000
  0
VERTEX
  8
PATCH
 10
68.7009
 20
102.0405
 30
0.0000
  0
VERTEX
  8
PATCH
 10
72.7228
 20
105.5415
 30
0.0000
  0
VERTEX
  8
PATCH
 10
75.6582
 20
108.2441
 30
0.0000
  0
VERTEX
  8
PATCH
 10
77.5698
 20
110.0889
 30
0.0000
  0
VERTEX
  8
PATCH
 10
81.2693
 20
113.8247
 30
0.0000
  0
VERTEX
  8
PATCH
 10
82.2345
 20
114.6594
 30
0.0000
  0
VERTEX
  8
PATCH
 10
83.2522
 20
115.4292
 30
0.0000
  0
VERTEX
  8
PATCH
 10
84.3181
 20
116.1307
 30
0.0000
  0
VERTEX
  8
PATCH
 10
85.4276
 20
116.7610
 30
0.0000
  0
VERTEX
  8
PATCH
 10
86.5760
 20
117.3174
 30
0.0000
  0
VERTEX
  8
PATCH
 10
87.7583
 20
117.7975
 30
0.0000
  0
VERTEX
  8
PATCH
 10
88.9694
 20
118.1993
 30
0.0000
  0
VERTEX
  8
PATCH
 10
90.2042
 20
118.5209
 30
0.0000
  0
VERTEX
  8
PATCH
 10
91.4575
 20
118.7612
 30
0.0000
  0
VERTEX
  8
PATCH
 10
92.7237
 20
118.9189
 30
0.0000
  0
VERTEX
  8
PATCH
 10
93.9976
 20
118.9935
 30
0.0000
  0
VERTEX
  8
PATCH
 10
95.2736
 20
118.9846
 30
0.0000
  0
VERTEX
  8
PATCH
 10
96.5463
 20
118.8923
 30
0.0000
  0
VERTEX
  8
PATCH
 10
97.8102
 20
118.7170
 30
0.0000
  0
VERTEX
  8
PATCH
 10
99.0600
 20
118.4593
 30
0.0000
  0
VERTEX
  8
PATCH
 10
100.2902
 20
118.1205
 30
0.0000
  0
VERTEX
  8
PATCH
 10
101.4957
 20
117.7019
 30
0.0000
  0
VERTEX
  8
PATCH
 10
102.6712
 20
117.2054
 30
0.0000
  0
VERTEX
  8
PATCH
 10
103.8117
 20
116.6331
 30
0.0000
  0
VERTEX
  8
PATCH
 10
104.9123
 20
115.9874
 30
0.0000
  0
VERTEX
  8
PATCH
 10
105.9683
 20
115.2711
 30
0.0000
  0
VERTEX
  8
PATCH
 10
106.9752
 20
114.4873
 30
0.0000
  0
VERTEX
  8
PATCH
 10
107.9287
 20
113.6393
 30
0.0000
  0
VERTEX
  8
PATCH
 10
108.8247
 20
112.7307
 30
0.0000
  0
VERTEX
  8
PATCH
 10
109.6594
 20
111.7655
 30
0.0000
  0
VERTEX
  8
PATCH
 10
110.4292
 20
110.7478
 30
0.0000
  0
VERTEX
  8
PATCH
 10
111.1307
 20
109.6819
 30
0.0000
  0
VERTEX
  8
PATCH
 10
111.7610
 20
108.5724
 30
0.0000
  0
VERTEX
  8
PATCH
 10
112.3174
 20
107.4240
 30
0.0000
  0
VERTEX
  8
PATCH
 10
112.7975
 20
106.2417
 30
0.0000
  0
VERTEX
  8
PATCH
 10
113.1993
 20
105.0306
 30
0.0000
  0
VERTEX
  8
PATCH
 10
113.5209
 20
103.7958
 30
0.0000
  0
VERTEX
  8
PATCH
 10
113.7612
 20
102.5425
 30
0.0000
  0
VERTEX
  8
PATCH
 10
113.9189
 20
101.2763
 30
0.0000
  0
VERTEX
  8
PATCH
 10
113.9935
 20
100.0024
 30
0.0000
  0
VERTEX
  8
PATCH
 10
113.9846
 20
98.7264
 30
0.0000
  0
VERTEX
  8
PATCH
 10
113.8923
 20
97.4537
 30
0.0000
  0
VERTEX
  8
PATCH
 10
113.7170
 20
96.1898
 30
0.0000
  0
VERTEX
  8
PATCH
 10
113.4593
 20
94.9400
 30
0.0000
  0
VERTEX
  8
PATCH
 10
113.1205
 20
93.7098
 30
0.0000
  0
VERTEX
  8
PATCH
 10
112.7019
 20
92.5043
 30
0.0000
  0
VERTEX
  8
PATCH
 10
112.2054
 20
91.3288
 30
0.0000
  0
VERTEX
  8
PATCH
 10
111.6331
 20
90.1883
 30
0.0000
  0
VERTEX
  8
PATCH
 10
110.9874
 20
89.0877
 30
0.0000
  0
VERTEX
  8
PATCH
 10
110.2711
 20
88.0317
 30
0.0000
  0
VERTEX
  8
PATCH
 10
109.4873
 20
87.0248
 30
0.0000
  0
VERTEX
  8
PATCH
 10
105.8711
 20
83.0524
 30
0.0000
  0
VERTEX
  8
PATCH
 10
104.0796
 20
80.9886
 30
0.0000
  0
VERTEX
  8
PATCH
 10
101.4635
 20
77.8253
 30
0.0000
  0
VERTEX
  8
PATCH
 10
98.0882
 20
73.5004
 30
0.0000
  0
VERTEX
  8
PATCH
 10
95.6246
 20
70.1924
 30
0.0000
  0
VERTEX
  8
PATCH
 10
93.2046
 20
66.8428
 30
0.0000
  0
VERTEX
  8
PATCH
 10
83.7033
 20
53.2750
 30
0.0000
  0
VERTEX
  8
PATCH
 10
79.6927
 20
47.6709
 30
0.0000
  0
VERTEX
  8
PATCH
 10
77.2334
 20
44.3587
 30
0.0000
  0
VERTEX
  8
PATCH
 10
75.5637
 20
42.1791
 30
0.0000
  0
VERTEX
  8
PATCH
 10
73.8656
 20
40.0267
 30
0.0000
  0
VERTEX
  8
PATCH
 10
72.1351
 20
37.9049
 30
0.0000
  0
VERTEX
  8
PATCH
 10
69.4702
 20
34.7879
 30
0.0000
  0
VERTEX
  8
PATCH
 10
66.7110
 20
31.7606
 30
0.0000
  0
VERTEX
  8
PATCH
 10
38.5093
 20
2.0660
 30
0.0000
  0
VERTEX
  8
PATCH
 10
38.2659
 20
1.7748
 30
0.0000
  0
VERTEX
  8
PATCH
 10
37.9743
 20
1.2863
 30
0.0000
  0
VERTEX
  8
PATCH
 10
37.8336
 20
0.9338
 30
0.0000
  0
VERTEX
  8
PATCH
 10
37.7385
 20
0.5663
 30
0.0000
  0
VERTEX
  8
PATCH
 10
37.6846
 20
-0.0000
 30
0.0000
  0
VERTEX
  8
PATCH
 10
37.7086
 20
-0.3788
 30
0.0000
  0
VERTEX
  8
PATCH
 10
37.7802
 20
-0.7515
 30
0.0000
  0
VERTEX
  8
PATCH
 10
37.9743
 20
-1.2863
 30
0.0000
  0
VERTEX
  8
PATCH
 10
38.2659
 20
-1.7748
 30
0.0000
  0
SEQEND
  8
PATCH
  0
POLYLINE
  8
GUIDE
 66
1
 10
0.0000
 20
0.0000
 30
0.0000
 70
1
  0
VERTEX
  8
GUIDE
 10
-115.4935
 20
120.4935
 30
0.0000
  0
VERTEX
  8
GUIDE
 10
0.0000
 20
120.4935
 30
0.0000
  0
VERTEX
  8
GUIDE
 10
0.0000
 20
114.4935
 30
0.0000
  0
VERTEX
  8
GUIDE
 10
6.0000
 20
120.4935
 30
0.0000
  0
VERTEX
  8
GUIDE
 10
115.4935
 20
120.4935
 30
0.0000
  0
VERTEX
  8
GUIDE
 10
115.4935
 20
-120.4935
 30
0.0000
  0
VERTEX
  8
GUIDE
 10
-115.4935
 20
-120.4935
 30
0.0000
  0
SEQEND
  8
GUIDE
  0
POLYLINE
  8
ORIENT
 66
1
 10
0.0000
 20
0.0000
 30
0.0000
 70
1
  0
VERTEX
  8
ORIENT
 10
0.0000
 20
91.9903
 30
0.0000
  0
VERTEX
  8
ORIENT
 10
3.0612
 20
85.8678
 30
0.0000
  0
VERTEX
  8
ORIENT
 10
0.8571
 20
85.8678
 30
0.0000
  0
VERTEX
  8
ORIENT
 10
0.8571
 20
47.1841
 30
0.0000
  0
VERTEX
  8
ORIENT
 10
-0.8571
 20
47.1841
 30
0.0000
  0
VERTEX
  8
ORIENT
 10
-0.8571
 20
85.8678
 30
0.0000
  0
VERTEX
  8
ORIENT
 10
-3.0612
 20
85.8678
 30
0.0000
  0
SEQEND
  8
ORIENT
  0
POLYLINE
  8
CHECK
 66
1
 10
0.0000
 20
0.0000
 30
0.0000
 70
1
  0
VERTEX
  8
CHECK
 10
-124.0000
 20
137.0000
 30
0.0000
  0
VERTEX
  8
CHECK
 10
-74.0000
 20
137.0000
 30
0.0000
  0
VERTEX
  8
CHECK
 10
-74.0000
 20
187.0000
 30
0.0000
  0
VERTEX
  8
CHECK
 10
-124.0000
 20
187.0000
 30
0.0000
  0
SEQEND
  8
CHECK
  0
LINE
  8
CENTRE
 10
0.0000
 20
-129.0000
 30
0.0000
 11
0.0000
 21
129.0000
 31
0.0000
  0
LINE
  8
CENTRE
 10
-124.0000
 20
0.0000
 30
0.0000
 11
124.0000
 21
0.0000
 31
0.0000
  0
LINE
  8
CHECK
 10
-124.0000
 20
137.0000
 30
0.0000
 11
-74.0000
 21
187.0000
 31
0.0000
  0
TEXT
  8
CHECK
 10
-121.0000
 20
166.0000
 30
0.0000
 40
3.0000
  1
CHECK 50 X 50 MM
  0
TEXT
  8
CHECK
 10
-121.0000
 20
160.0000
 30
0.0000
 40
3.0000
  1
MEASURE AFTER IMPORT
  0
TEXT
  8
ORIENT
 10
4.8980
 20
86.3576
 30
0.0000
 40
2.7300
  1
FACE UP / NECK
  0
TEXT
  8
NOTES
 10
-124.0000
 20
-137.0000
 30
0.0000
 40
3.0000
  1
CS-XTEE-01 X TEMPLATE 200 MM, PROPOSAL, NOT FINAL. v0.1 2026-09-29
  0
TEXT
  8
NOTES
 10
-124.0000
 20
-142.0000
 30
0.0000
 40
3.0000
  1
FACE VIEW (OUTSIDE). DO NOT MIRROR OR ROTATE. CUT GUIDE, STITCH STENCIL AND EMBROIDERY PROGRAM MUST USE THE SAME ORIENTATION.
  0
TEXT
  8
NOTES
 10
-124.0000
 20
-147.0000
 30
0.0000
 40
3.0000
  1
UNITS MM. CHECK SQUARE = 50 X 50 MM (LAYER CHECK). ORIGIN = X CENTRE ON CF. +Y = TOWARDS NECK.
  0
TEXT
  8
NOTES
 10
-124.0000
 20
-152.0000
 30
0.0000
 40
3.0000
  1
GUIDE = MIN. SHEET FOR CUT GUIDE, STITCH STENCIL AND PLACEMENT TEMPLATE, WITH ASYMMETRIC REGISTRATION NOTCH AT CF TOP (STRAIGHT SIDE ON CF, SLOPE TO +X).
  0
TEXT
  8
NOTES
 10
-124.0000
 20
-157.0000
 30
0.0000
 40
3.0000
  1
ORIENT = ENGRAVE ARROW + FACE UP / NECK ON ALL TOOLING. CUT GUIDE ALSO CARRIES THE STITCH LINE, TO LAY IT ON THE SEWN STITCH.
  0
TEXT
  8
NOTES
 10
-124.0000
 20
-162.0000
 30
0.0000
 40
3.0000
  1
CUT_JAG TEETH 3-8 MM DEEP (LESS WHERE THE ARM NARROWS), 5-15 MM APART, STAGGERED; BOTH SIDES TOGETHER <= 40% OF ARM WIDTH; VISIBLE BROWN >= 12 MM; NO TEETH IN THE LAST 18 MM BEFORE EACH TIP.
  0
TEXT
  8
NOTES
 10
-124.0000
 20
-167.0000
 30
0.0000
 40
3.0000
  1
STITCH = MACHINE PATH. CUT_JAG = CUT CREAM ONLY (EDGE B, BOTH PROTOS). PATCH = UNDER-PATCH CUT (STITCH + 10).
  0
TEXT
  8
NOTES
 10
-124.0000
 20
-172.0000
 30
0.0000
 40
3.0000
  1
BASE = STITCH OFFSET 4 MM INWARD, R >= 7. EDGE A: CUT FREEHAND 0-3 MM INSIDE BASE. B VALLEYS SIT ON BASE.
  0
ENDSEC
  0
EOF
