  0
SECTION
  2
HEADER
  9
$ACADVER
  1
AC1015
  9
$ACADMAINTVER
 70
6
  9
$DWGCODEPAGE
  3
ANSI_1252
  9
$INSBASE
 10
0.0
 20
0.0
 30
0.0
  9
$EXTMIN
 10
1e+20
 20
1e+20
 30
1e+20
  9
$EXTMAX
 10
-1e+20
 20
-1e+20
 30
-1e+20
  9
$LIMMIN
 10
0.0
 20
0.0
  9
$LIMMAX
 10
420.0
 20
297.0
  9
$ORTHOMODE
 70
0
  9
$REGENMODE
 70
1
  9
$FILLMODE
 70
1
  9
$QTEXTMODE
 70
0
  9
$MIRRTEXT
 70
1
  9
$LTSCALE
 40
1.0
  9
$ATTMODE
 70
1
  9
$TEXTSIZE
 40
2.5
  9
$TRACEWID
 40
1.0
  9
$TEXTSTYLE
  7
Standard
  9
$CLAYER
  8
0
  9
$CELTYPE
  6
ByLayer
  9
$CECOLOR
 62
256
  9
$CELTSCALE
 40
1.0
  9
$DISPSILH
 70
0
  9
$DIMSCALE
 40
1.0
  9
$DIMASZ
 40
2.5
  9
$DIMEXO
 40
0.625
  9
$DIMDLI
 40
3.75
  9
$DIMRND
 40
0.0
  9
$DIMDLE
 40
0.0
  9
$DIMEXE
 40
1.25
  9
$DIMTP
 40
0.0
  9
$DIMTM
 40
0.0
  9
$DIMTXT
 40
2.5
  9
$DIMCEN
 40
2.5
  9
$DIMTSZ
 40
0.0
  9
$DIMTOL
 70
0
  9
$DIMLIM
 70
0
  9
$DIMTIH
 70
0
  9
$DIMTOH
 70
0
  9
$DIMSE1
 70
0
  9
$DIMSE2
 70
0
  9
$DIMTAD
 70
1
  9
$DIMZIN
 70
8
  9
$DIMBLK
  1

  9
$DIMASO
 70
1
  9
$DIMSHO
 70
1
  9
$DIMPOST
  1

  9
$DIMAPOST
  1

  9
$DIMALT
 70
0
  9
$DIMALTD
 70
3
  9
$DIMALTF
 40
0.03937007874
  9
$DIMLFAC
 40
1.0
  9
$DIMTOFL
 70
1
  9
$DIMTVP
 40
0.0
  9
$DIMTIX
 70
0
  9
$DIMSOXD
 70
0
  9
$DIMSAH
 70
0
  9
$DIMBLK1
  1

  9
$DIMBLK2
  1

  9
$DIMSTYLE
  2
ISO-25
  9
$DIMCLRD
 70
0
  9
$DIMCLRE
 70
0
  9
$DIMCLRT
 70
0
  9
$DIMTFAC
 40
1.0
  9
$DIMGAP
 40
0.625
  9
$DIMJUST
 70
0
  9
$DIMSD1
 70
0
  9
$DIMSD2
 70
0
  9
$DIMTOLJ
 70
0
  9
$DIMTZIN
 70
8
  9
$DIMALTZ
 70
0
  9
$DIMALTTZ
 70
0
  9
$DIMUPT
 70
0
  9
$DIMDEC
 70
2
  9
$DIMTDEC
 70
2
  9
$DIMALTU
 70
2
  9
$DIMALTTD
 70
3
  9
$DIMTXSTY
  7
Standard
  9
$DIMAUNIT
 70
0
  9
$DIMADEC
 70
0
  9
$DIMALTRND
 40
0.0
  9
$DIMAZIN
 70
0
  9
$DIMDSEP
 70
44
  9
$DIMATFIT
 70
3
  9
$DIMFRAC
 70
0
  9
$DIMLDRBLK
  1

  9
$DIMLUNIT
 70
2
  9
$DIMLWD
 70
-2
  9
$DIMLWE
 70
-2
  9
$DIMTMOVE
 70
0
  9
$LUNITS
 70
2
  9
$LUPREC
 70
4
  9
$SKETCHINC
 40
1.0
  9
$FILLETRAD
 40
10.0
  9
$AUNITS
 70
0
  9
$AUPREC
 70
2
  9
$MENU
  1
.
  9
$ELEVATION
 40
0.0
  9
$PELEVATION
 40
0.0
  9
$THICKNESS
 40
0.0
  9
$LIMCHECK
 70
0
  9
$CHAMFERA
 40
0.0
  9
$CHAMFERB
 40
0.0
  9
$CHAMFERC
 40
0.0
  9
$CHAMFERD
 40
0.0
  9
$SKPOLY
 70
0
  9
$TDCREATE
 40
2461313.11318287
  9
$TDUCREATE
 40
2458532.153996898
  9
$TDUPDATE
 40
2461313.11318287
  9
$TDUUPDATE
 40
2458532.1544311
  9
$TDINDWG
 40
0.0
  9
$TDUSRTIMER
 40
0.0
  9
$USRTIMER
 70
1
  9
$ANGBASE
 50
0.0
  9
$ANGDIR
 70
0
  9
$PDMODE
 70
0
  9
$PDSIZE
 40
0.0
  9
$PLINEWID
 40
0.0
  9
$SPLFRAME
 70
0
  9
$SPLINETYPE
 70
6
  9
$SPLINESEGS
 70
8
  9
$HANDSEED
  5
54
  9
$SURFTAB1
 70
6
  9
$SURFTAB2
 70
6
  9
$SURFTYPE
 70
6
  9
$SURFU
 70
6
  9
$SURFV
 70
6
  9
$UCSBASE
  2

  9
$UCSNAME
  2

  9
$UCSORG
 10
0.0
 20
0.0
 30
0.0
  9
$UCSXDIR
 10
1.0
 20
0.0
 30
0.0
  9
$UCSYDIR
 10
0.0
 20
1.0
 30
0.0
  9
$UCSORTHOREF
  2

  9
$UCSORTHOVIEW
 70
0
  9
$UCSORGTOP
 10
0.0
 20
0.0
 30
0.0
  9
$UCSORGBOTTOM
 10
0.0
 20
0.0
 30
0.0
  9
$UCSORGLEFT
 10
0.0
 20
0.0
 30
0.0
  9
$UCSORGRIGHT
 10
0.0
 20
0.0
 30
0.0
  9
$UCSORGFRONT
 10
0.0
 20
0.0
 30
0.0
  9
$UCSORGBACK
 10
0.0
 20
0.0
 30
0.0
  9
$PUCSBASE
  2

  9
$PUCSNAME
  2

  9
$PUCSORG
 10
0.0
 20
0.0
 30
0.0
  9
$PUCSXDIR
 10
1.0
 20
0.0
 30
0.0
  9
$PUCSYDIR
 10
0.0
 20
1.0
 30
0.0
  9
$PUCSORTHOREF
  2

  9
$PUCSORTHOVIEW
 70
0
  9
$PUCSORGTOP
 10
0.0
 20
0.0
 30
0.0
  9
$PUCSORGBOTTOM
 10
0.0
 20
0.0
 30
0.0
  9
$PUCSORGLEFT
 10
0.0
 20
0.0
 30
0.0
  9
$PUCSORGRIGHT
 10
0.0
 20
0.0
 30
0.0
  9
$PUCSORGFRONT
 10
0.0
 20
0.0
 30
0.0
  9
$PUCSORGBACK
 10
0.0
 20
0.0
 30
0.0
  9
$USERI1
 70
0
  9
$USERI2
 70
0
  9
$USERI3
 70
0
  9
$USERI4
 70
0
  9
$USERI5
 70
0
  9
$USERR1
 40
0.0
  9
$USERR2
 40
0.0
  9
$USERR3
 40
0.0
  9
$USERR4
 40
0.0
  9
$USERR5
 40
0.0
  9
$WORLDVIEW
 70
1
  9
$SHADEDGE
 70
3
  9
$SHADEDIF
 70
70
  9
$TILEMODE
 70
1
  9
$MAXACTVP
 70
64
  9
$PINSBASE
 10
0.0
 20
0.0
 30
0.0
  9
$PLIMCHECK
 70
0
  9
$PEXTMIN
 10
1e+20
 20
1e+20
 30
1e+20
  9
$PEXTMAX
 10
-1e+20
 20
-1e+20
 30
-1e+20
  9
$PLIMMIN
 10
0.0
 20
0.0
  9
$PLIMMAX
 10
420.0
 20
297.0
  9
$UNITMODE
 70
0
  9
$VISRETAIN
 70
1
  9
$PLINEGEN
 70
0
  9
$PSLTSCALE
 70
1
  9
$TREEDEPTH
 70
3020
  9
$CMLSTYLE
  2
Standard
  9
$CMLJUST
 70
0
  9
$CMLSCALE
 40
20.0
  9
$PROXYGRAPHICS
 70
1
  9
$MEASUREMENT
 70
1
  9
$CELWEIGHT
370
-1
  9
$ENDCAPS
280
0
  9
$JOINSTYLE
280
0
  9
$LWDISPLAY
290
0
  9
$INSUNITS
 70
4
  9
$HYPERLINKBASE
  1

  9
$STYLESHEET
  1

  9
$XEDIT
290
1
  9
$CEPSNTYPE
380
0
  9
$PSTYLEMODE
290
1
  9
$FINGERPRINTGUID
  2
{0426A9D4-6123-4473-B7CF-77AA3306F68A}
  9
$VERSIONGUID
  2
{47BEF6D2-B9F0-4379-B528-1314817B7988}
  9
$EXTNAMES
290
1
  9
$PSVPSCALE
 40
0.0
  9
$OLESTARTUP
290
0
  0
ENDSEC
  0
SECTION
  2
CLASSES
  0
CLASS
  1
ACDBDICTIONARYWDFLT
  2
AcDbDictionaryWithDefault
  3
ObjectDBX Classes
 90
0
280
0
281
0
  0
CLASS
  1
SUN
  2
AcDbSun
  3
SCENEOE
 90
1153
280
0
281
0
  0
CLASS
  1
VISUALSTYLE
  2
AcDbVisualStyle
  3
ObjectDBX Classes
 90
4095
280
0
281
0
  0
CLASS
  1
MATERIAL
  2
AcDbMaterial
  3
ObjectDBX Classes
 90
1153
280
0
281
0
  0
CLASS
  1
SCALE
  2
AcDbScale
  3
ObjectDBX Classes
 90
1153
280
0
281
0
  0
CLASS
  1
TABLESTYLE
  2
AcDbTableStyle
  3
ObjectDBX Classes
 90
4095
280
0
281
0
  0
CLASS
  1
MLEADERSTYLE
  2
AcDbMLeaderStyle
  3
ACDB_MLEADERSTYLE_CLASS
 90
4095
280
0
281
0
  0
CLASS
  1
DICTIONARYVAR
  2
AcDbDictionaryVar
  3
ObjectDBX Classes
 90
0
280
0
281
0
  0
CLASS
  1
CELLSTYLEMAP
  2
AcDbCellStyleMap
  3
ObjectDBX Classes
 90
1152
280
0
281
0
  0
CLASS
  1
MENTALRAYRENDERSETTINGS
  2
AcDbMentalRayRenderSettings
  3
SCENEOE
 90
1024
280
0
281
0
  0
CLASS
  1
ACDBDETAILVIEWSTYLE
  2
AcDbDetailViewStyle
  3
ObjectDBX Classes
 90
1025
280
0
281
0
  0
CLASS
  1
ACDBSECTIONVIEWSTYLE
  2
AcDbSectionViewStyle
  3
ObjectDBX Classes
 90
1025
280
0
281
0
  0
CLASS
  1
RASTERVARIABLES
  2
AcDbRasterVariables
  3
ISM
 90
0
280
0
281
0
  0
CLASS
  1
ACDBPLACEHOLDER
  2
AcDbPlaceHolder
  3
ObjectDBX Classes
 90
0
280
0
281
0
  0
CLASS
  1
LAYOUT
  2
AcDbLayout
  3
ObjectDBX Classes
 90
0
280
0
281
0
  0
ENDSEC
  0
SECTION
  2
TABLES
  0
TABLE
  2
VPORT
  5
8
330
0
100
AcDbSymbolTable
 70
1
  0
VPORT
  5
23
330
8
100
AcDbSymbolTableRecord
100
AcDbViewportTableRecord
  2
*Active
 70
0
 10
0.0
 20
0.0
 11
1.0
 21
1.0
 12
0.0
 22
0.0
 13
0.0
 23
0.0
 14
0.5
 24
0.5
 15
0.5
 25
0.5
 16
0.0
 26
0.0
 36
1.0
 17
0.0
 27
0.0
 37
0.0
 40
1000.0
 41
1.34
 42
50.0
 43
0.0
 44
0.0
 50
0.0
 51
0.0
 71
0
 72
1000
 73
1
 74
3
 75
0
 76
0
 77
0
 78
0
281
0
 65
0
146
0.0
  0
ENDTAB
  0
TABLE
  2
LTYPE
  5
2
330
0
100
AcDbSymbolTable
 70
3
  0
LTYPE
  5
24
330
2
100
AcDbSymbolTableRecord
100
AcDbLinetypeTableRecord
  2
ByBlock
 70
0
  3

 72
65
 73
0
 40
0.0
  0
LTYPE
  5
25
330
2
100
AcDbSymbolTableRecord
100
AcDbLinetypeTableRecord
  2
ByLayer
 70
0
  3

 72
65
 73
0
 40
0.0
  0
LTYPE
  5
26
330
2
100
AcDbSymbolTableRecord
100
AcDbLinetypeTableRecord
  2
Continuous
 70
0
  3

 72
65
 73
0
 40
0.0
  0
ENDTAB
  0
TABLE
  2
LAYER
  5
1
330
0
100
AcDbSymbolTable
 70
12
  0
LAYER
  5
27
330
1
100
AcDbSymbolTableRecord
100
AcDbLayerTableRecord
  2
0
 70
0
 62
7
  6
Continuous
370
-3
390
13
  0
LAYER
  5
28
330
1
100
AcDbSymbolTableRecord
100
AcDbLayerTableRecord
  2
Defpoints
 70
0
 62
7
  6
Continuous
290
0
370
-3
390
13
  0
LAYER
  5
2F
330
1
100
AcDbSymbolTableRecord
100
AcDbLayerTableRecord
  2
STITCH
 70
0
 62
7
  6
Continuous
370
-3
390
13
  0
LAYER
  5
30
330
1
100
AcDbSymbolTableRecord
100
AcDbLayerTableRecord
  2
BASE
 70
0
 62
4
  6
Continuous
370
-3
390
13
  0
LAYER
  5
31
330
1
100
AcDbSymbolTableRecord
100
AcDbLayerTableRecord
  2
CUT_JAG
 70
0
 62
1
  6
Continuous
370
-3
390
13
  0
LAYER
  5
32
330
1
100
AcDbSymbolTableRecord
100
AcDbLayerTableRecord
  2
PATCH
 70
0
 62
5
  6
Continuous
370
-3
390
13
  0
LAYER
  5
33
330
1
100
AcDbSymbolTableRecord
100
AcDbLayerTableRecord
  2
STITCH_FOLLOW
 70
0
 62
6
  6
Continuous
370
-3
390
13
  0
LAYER
  5
34
330
1
100
AcDbSymbolTableRecord
100
AcDbLayerTableRecord
  2
GUIDE
 70
0
 62
150
  6
Continuous
370
-3
390
13
  0
LAYER
  5
35
330
1
100
AcDbSymbolTableRecord
100
AcDbLayerTableRecord
  2
ORIENT
 70
0
 62
150
  6
Continuous
370
-3
390
13
  0
LAYER
  5
36
330
1
100
AcDbSymbolTableRecord
100
AcDbLayerTableRecord
  2
CENTRE
 70
0
 62
8
  6
Continuous
370
-3
390
13
  0
LAYER
  5
37
330
1
100
AcDbSymbolTableRecord
100
AcDbLayerTableRecord
  2
CHECK
 70
0
 62
30
  6
Continuous
370
-3
390
13
  0
LAYER
  5
38
330
1
100
AcDbSymbolTableRecord
100
AcDbLayerTableRecord
  2
NOTES
 70
0
 62
3
  6
Continuous
370
-3
390
13
  0
ENDTAB
  0
TABLE
  2
STYLE
  5
5
330
0
100
AcDbSymbolTable
 70
1
  0
STYLE
  5
29
330
5
100
AcDbSymbolTableRecord
100
AcDbTextStyleTableRecord
  2
Standard
 70
0
 40
0.0
 41
1.0
 50
0.0
 71
0
 42
2.5
  3
txt
  4

  0
ENDTAB
  0
TABLE
  2
VIEW
  5
7
330
0
100
AcDbSymbolTable
 70
0
  0
ENDTAB
  0
TABLE
  2
UCS
  5
6
330
0
100
AcDbSymbolTable
 70
0
  0
ENDTAB
  0
TABLE
  2
APPID
  5
3
330
0
100
AcDbSymbolTable
 70
3
  0
APPID
  5
2A
330
3
100
AcDbSymbolTableRecord
100
AcDbRegAppTableRecord
  2
ACAD
 70
0
  0
APPID
  5
51
330
3
100
AcDbSymbolTableRecord
100
AcDbRegAppTableRecord
  2
HATCHBACKGROUNDCOLOR
 70
0
  0
APPID
  5
52
330
3
100
AcDbSymbolTableRecord
100
AcDbRegAppTableRecord
  2
EZDXF
 70
0
  0
ENDTAB
  0
TABLE
  2
DIMSTYLE
  5
4
330
0
100
AcDbSymbolTable
 70
1
100
AcDbDimStyleTable
  0
DIMSTYLE
105
2B
330
4
100
AcDbSymbolTableRecord
100
AcDbDimStyleTableRecord
  2
Standard
 70
0
  3

  4

 40
1.0
 41
2.5
 42
0.625
 43
3.75
 44
1.25
 45
0.0
 46
0.0
 47
0.0
 48
0.0
140
2.5
141
2.5
142
0.0
143
0.03937007874
144
1.0
145
0.0
146
1.0
147
0.625
148
0.0
 71
0
 72
0
 73
0
 74
0
 75
0
 76
0
 77
1
 78
8
 79
3
170
0
171
3
172
1
173
0
174
0
175
0
176
0
177
0
178
0
179
2
271
2
272
2
273
2
274
3
275
0
276
0
277
2
278
44
279
0
280
0
281
0
282
0
283
0
284
8
285
0
286
0
288
0
289
3
371
-2
372
-2
  0
ENDTAB
  0
TABLE
  2
BLOCK_RECORD
  5
9
330
0
100
AcDbSymbolTable
 70
2
  0
BLOCK_RECORD
  5
17
330
9
100
AcDbSymbolTableRecord
100
AcDbBlockTableRecord
  2
*Model_Space
340
1A
  0
BLOCK_RECORD
  5
1B
330
9
100
AcDbSymbolTableRecord
100
AcDbBlockTableRecord
  2
*Paper_Space
340
1E
  0
ENDTAB
  0
ENDSEC
  0
SECTION
  2
BLOCKS
  0
BLOCK
  5
18
330
17
100
AcDbEntity
  8
0
100
AcDbBlockBegin
  2
*Model_Space
 70
0
 10
0.0
 20
0.0
 30
0.0
  3
*Model_Space
  1

  0
ENDBLK
  5
19
330
17
100
AcDbEntity
  8
0
100
AcDbBlockEnd
  0
BLOCK
  5
1C
330
1B
100
AcDbEntity
  8
0
100
AcDbBlockBegin
  2
*Paper_Space
 70
0
 10
0.0
 20
0.0
 30
0.0
  3
*Paper_Space
  1

  0
ENDBLK
  5
1D
330
1B
100
AcDbEntity
  8
0
100
AcDbBlockEnd
  0
ENDSEC
  0
SECTION
  2
ENTITIES
  0
LWPOLYLINE
  5
39
330
17
100
AcDbEntity
  8
STITCH
100
AcDbPolyline
 90
256
 70
1
 10
20.27450840605686
 20
-1.9235532073606847
 10
44.86189034158754
 20
-27.837240229294995
 10
46.32426048766965
 20
-29.418277268673748
 10
48.460687091634156
 20
-31.844056598061954
 10
51.21780816303871
 20
-35.16522688635404
 10
54.549794960873626
 20
-39.42528659959313
 10
57.79685545642998
 20
-43.7659543285542
 10
64.86426906293825
 20
-53.38767233376153
 10
66.82168972548321
 20
-55.983355607547956
 10
68.81039147789637
 20
-58.549348355357786
 10
70.84014082944432
 20
-61.076380670090494
 10
72.92070428939368
 20
-63.555182644645605
 10
75.06184836701105
 20
-65.97648437192262
 10
76.52775661833283
 20
-67.55416320971798
 10
77.28062973939738
 20
-68.45921266749431
 10
77.90892926704892
 20
-69.4547889634132
 10
78.17291588488433
 20
-69.98125406287379
 10
78.4019048221718
 20
-70.52385751102555
 10
78.75112145633923
 20
-71.64812625107994
 10
78.95060397611944
 20
-72.80835863372786
 10
78.99302633791245
 20
-73.39577226871272
 10
78.96232574786632
 20
-74.57262822048148
 10
78.77827727944805
 20
-75.73540877532216
 10
78.62963036725287
 20
-76.3052846660572
 10
78.44403005298015
 20
-76.86421843555777
 10
77.96530313117836
 20
-77.93974295493652
 10
77.35028766440286
 20
-78.9435798107401
 10
76.99487376276612
 20
-79.41319177169252
 10
76.60950673780467
 20
-79.85855307604956
 10
75.75563531842118
 20
-80.66900730461694
 10
75.29078733250567
 20
-81.03062973939737
 10
74.29521103658679
 20
-81.6589292670489
 10
73.22614248897443
 20
-82.15190482217179
 10
72.66972420339847
 20
-82.34491551312682
 10
71.5250227483632
 20
-82.61985375397896
 10
70.35422773128727
 20
-82.74302633791244
 10
69.17737177951851
 20
-82.7123257478663
 10
68.59296894059432
 20
-82.63933426066697
 10
68.01459122467783
 20
-82.52827727944803
 10
66.88578156444223
 20
-82.19403005298014
 10
65.81025704506347
 20
-81.71530313117835
 10
64.80642018925988
 20
-81.10028766440283
 10
64.33680822830746
 20
-80.7448737627661
 10
63.47224338166718
 20
-79.94583679028199
 10
62.00321153294831
 20
-78.43005848847994
 10
59.74409342512592
 20
-76.20913576027979
 10
57.42646547618165
 20
-74.04374779653429
 10
55.05952406675792
 20
-71.92516582917607
 10
52.65246557749717
 20
-69.84466109013773
 10
50.2144863890418
 20
-67.7935048113519
 10
40.337290256123026
 20
-59.70778893738573
 10
37.06937738851544
 20
-56.989309512247985
 10
33.05534846636972
 20
-53.52395122926019
 10
29.927382380400072
 20
-50.6726409605339
 10
27.644279910441192
 20
-48.47448305063276
 10
25.425286007926168
 20
-46.21547633095442
 10
2.1759188727776095
 20
-21.720854402396863
 10
1.71518132076788
 20
-21.324801774799184
 10
1.1840952684894064
 20
-21.029701146649717
 10
0.6044433151572449
 20
-20.84765612843402
 10
-4.824367949029909e-16
 20
-20.786133332490863
 10
-0.6044433151572446
 20
-20.84765612843402
 10
-1.1840952684894062
 20
-21.029701146649717
 10
-1.7151813207678799
 20
-21.324801774799184
 10
-2.17591887277761
 20
-21.720854402396863
 10
-25.425286007926168
 20
-46.21547633095443
 10
-27.644279910441192
 20
-48.47448305063277
 10
-29.92738238040007
 20
-50.67264096053391
 10
-33.05534846636973
 20
-53.5239512292602
 10
-37.06937738851545
 20
-56.989309512248
 10
-40.337290256123026
 20
-59.707788937385736
 10
-50.2144863890418
 20
-67.79350481135191
 10
-52.65246557749715
 20
-69.84466109013773
 10
-55.05952406675791
 20
-71.92516582917607
 10
-57.42646547618165
 20
-74.04374779653429
 10
-59.74409342512593
 20
-76.2091357602798
 10
-62.00321153294831
 20
-78.43005848847997
 10
-63.47224338166718
 20
-79.945836790282
 10
-64.33680822830746
 20
-80.74487376276612
 10
-64.80642018925988
 20
-81.10028766440286
 10
-65.81025704506347
 20
-81.71530313117836
 10
-66.88578156444221
 20
-82.19403005298015
 10
-67.44471533394278
 20
-82.37963036725287
 10
-68.01459122467783
 20
-82.52827727944805
 10
-69.17737177951851
 20
-82.71232574786632
 10
-70.35422773128727
 20
-82.74302633791245
 10
-70.94164136627212
 20
-82.70060397611944
 10
-72.10187374892004
 20
-82.50112145633923
 10
-73.22614248897443
 20
-82.1519048221718
 10
-74.29521103658679
 20
-81.65892926704892
 10
-75.29078733250567
 20
-81.03062973939738
 10
-75.75563531842118
 20
-80.66900730461695
 10
-76.60950673780467
 20
-79.85855307604957
 10
-76.99487376276612
 20
-79.41319177169254
 10
-77.35028766440284
 20
-78.94357981074012
 10
-77.96530313117836
 20
-77.93974295493653
 10
-78.44403005298015
 20
-76.86421843555779
 10
-78.62963036725287
 20
-76.30528466605723
 10
-78.77827727944805
 20
-75.73540877532217
 10
-78.96232574786632
 20
-74.57262822048149
 10
-78.99302633791245
 20
-73.39577226871273
 10
-78.95060397611944
 20
-72.80835863372788
 10
-78.75112145633923
 20
-71.64812625107996
 10
-78.4019048221718
 20
-70.52385751102557
 10
-78.17291588488433
 20
-69.9812540628738
 10
-77.90892926704892
 20
-69.45478896341321
 10
-77.28062973939738
 20
-68.45921266749433
 10
-76.52775661833283
 20
-67.554163209718
 10
-75.06184836701105
 20
-65.97648437192264
 10
-72.92070428939368
 20
-63.55518264464563
 10
-70.84014082944432
 20
-61.07638067009051
 10
-68.81039147789636
 20
-58.549348355357786
 10
-66.82168972548321
 20
-55.98335560754797
 10
-64.86426906293825
 20
-53.38767233376154
 10
-57.796855456429995
 20
-43.76595432855422
 10
-54.549794960873626
 20
-39.425286599593136
 10
-51.89316996218056
 20
-36.00873020838844
 10
-49.15904188584173
 20
-32.66573606037294
 10
-47.043658115113544
 20
-30.21998387231976
 10
-44.86189034158755
 20
-27.83724022929501
 10
-20.40075005297644
 20
-2.065278930094006
 10
-20.050137200264963
 20
-1.6176023739155307
 10
-19.790295241345152
 20
-1.1118100965693722
 10
-19.63055953766043
 20
-0.5660737349380011
 10
-19.57666892575405
 20
-3.8866878507662826e-15
 10
-19.63055953766043
 20
0.5660737349379943
 10
-19.790295241345152
 20
1.1118100965693651
 10
-20.050137200264963
 20
1.6176023739155234
 10
-20.40075005297644
 20
2.0652789300939975
 10
-44.86189034158756
 20
27.837240229295
 10
-47.04365811511356
 20
30.219983872319748
 10
-49.159041885841745
 20
32.665736060372936
 10
-51.89316996218057
 20
36.00873020838843
 10
-54.54979496087363
 20
39.42528659959312
 10
-57.796855456430016
 20
43.765954328554216
 10
-64.86426906293828
 20
53.38767233376152
 10
-66.82168972548322
 20
55.98335560754795
 10
-68.81039147789639
 20
58.54934835535777
 10
-70.84014082944435
 20
61.07638067009051
 10
-72.92070428939371
 20
63.55518264464562
 10
-75.06184836701107
 20
65.97648437192261
 10
-76.52775661833283
 20
67.55416320971798
 10
-77.28062973939738
 20
68.45921266749431
 10
-77.6110753998911
 20
68.94671661702407
 10
-78.17291588488436
 20
69.98125406287379
 10
-78.59491551312685
 20
71.08027579660151
 10
-78.86985375397899
 20
72.22497725163679
 10
-78.99302633791247
 20
73.39577226871272
 10
-78.99693918029202
 20
73.984702761225
 10
-78.889334260667
 20
75.15703105940567
 10
-78.77827727944806
 20
75.73540877532216
 10
-78.44403005298017
 20
76.86421843555777
 10
-77.96530313117837
 20
77.93974295493652
 10
-77.35028766440286
 20
78.9435798107401
 10
-76.99487376276613
 20
79.41319177169252
 10
-76.60950673780468
 20
79.85855307604956
 10
-75.7556353184212
 20
80.66900730461694
 10
-75.29078733250569
 20
81.03062973939737
 10
-74.2952110365868
 20
81.6589292670489
 10
-73.76874593712621
 20
81.92291588488433
 10
-72.66972420339849
 20
82.34491551312682
 10
-71.52502274836323
 20
82.61985375397894
 10
-70.94164136627214
 20
82.70060397611942
 10
-70.35422773128728
 20
82.74302633791244
 10
-69.17737177951852
 20
82.7123257478663
 10
-68.01459122467784
 20
82.52827727944803
 10
-67.4447153339428
 20
82.37963036725284
 10
-66.88578156444224
 20
82.19403005298014
 10
-65.81025704506348
 20
81.71530313117835
 10
-64.80642018925991
 20
81.10028766440284
 10
-64.33680822830748
 20
80.7448737627661
 10
-63.47224338166719
 20
79.94583679028199
 10
-62.00321153294835
 20
78.43005848847994
 10
-59.744093425125946
 20
76.20913576027978
 10
-57.426465476181676
 20
74.04374779653428
 10
-55.059524066757945
 20
71.92516582917605
 10
-52.65246557749719
 20
69.84466109013773
 10
-50.214486389041824
 20
67.7935048113519
 10
-40.337290256123055
 20
59.707788937385736
 10
-37.06937738851546
 20
56.989309512247985
 10
-33.05534846636975
 20
53.52395122926019
 10
-29.92738238040009
 20
50.672640960533904
 10
-27.644279910441213
 20
48.47448305063277
 10
-25.42528600792619
 20
46.21547633095443
 10
-2.17591887277762
 20
21.72085440239687
 10
-1.7151813207678905
 20
21.32480177479919
 10
-1.184095268489417
 20
21.029701146649725
 10
-0.6044433151572546
 20
20.847656128434032
 10
-1.1143299625039199e-14
 20
20.786133332490873
 10
0.6044433151572342
 20
20.847656128434032
 10
1.1840952684893957
 20
21.029701146649728
 10
1.7151813207678692
 20
21.324801774799194
 10
2.1759188727775967
 20
21.720854402396874
 10
25.42528600792614
 20
46.215476330954445
 10
27.64427991044117
 20
48.474483050632784
 10
29.927382380400047
 20
50.672640960533926
 10
33.0553484663697
 20
53.52395122926022
 10
37.06937738851542
 20
56.98930951224801
 10
40.337290256123
 20
59.707788937385764
 10
50.21448638904177
 20
67.79350481135192
 10
52.652465577497125
 20
69.84466109013778
 10
55.05952406675787
 20
71.9251658291761
 10
57.426465476181605
 20
74.04374779653433
 10
59.74409342512588
 20
76.20913576027982
 10
62.003211532948285
 20
78.43005848848001
 10
63.47224338166711
 20
79.94583679028204
 10
64.33680822830739
 20
80.74487376276616
 10
65.29827185629472
 20
81.42422650582395
 10
66.34018335638618
 20
81.97227110566955
 10
66.88578156444215
 20
82.1940300529802
 10
67.44471533394271
 20
82.3796303672529
 10
68.59296894059425
 20
82.63933426066701
 10
69.17737177951844
 20
82.71232574786636
 10
70.3542277312872
 20
82.7430263379125
 10
71.52502274836314
 20
82.61985375397902
 10
72.10187374891997
 20
82.50112145633928
 10
73.22614248897436
 20
82.15190482217186
 10
73.76874593712614
 20
81.92291588488439
 10
74.80328338297586
 20
81.36107539989113
 10
75.75563531842111
 20
80.669007304617
 10
76.19583679028194
 20
80.27775661833287
 10
76.99487376276606
 20
79.4131917716926
 10
77.67422650582385
 20
78.45172814370527
 10
77.9653031311783
 20
77.93974295493658
 10
78.4440300529801
 20
76.86421843555783
 10
78.77827727944799
 20
75.73540877532223
 10
78.88933426066691
 20
75.15703105940574
 10
78.96232574786626
 20
74.57262822048153
 10
78.9930263379124
 20
73.39577226871279
 10
78.95060397611938
 20
72.80835863372792
 10
78.75112145633918
 20
71.64812625108
 10
78.40190482217176
 20
70.52385751102562
 10
78.17291588488429
 20
69.98125406287384
 10
77.61107539989104
 20
68.94671661702412
 10
76.9190073046169
 20
67.99436468157887
 10
74.34079962378861
 20
65.1763449290156
 10
72.2209342530902
 20
62.73484646296804
 10
70.84014082944428
 20
61.076380670090536
 10
68.81039147789633
 20
58.54934835535782
 10
66.82168972548318
 20
55.983355607548006
 10
64.86426906293822
 20
53.38767233376158
 10
57.79685545642997
 20
43.76595432855425
 10
54.5497949608736
 20
39.425286599593164
 10
51.21780816303869
 20
35.165226886354084
 10
48.46068709163414
 20
31.84405659806199
 10
46.32426048766963
 20
29.418277268673783
 10
44.86189034158753
 20
27.83724022929503
 10
20.27450840605686
 20
1.9235532073606978
 10
20.050137200264956
 20
1.6176023739155323
 10
19.86617600272918
 20
1.28577918564276
 10
19.672250768151645
 20
0.7512357591259362
 10
19.58267278140425
 20
0.18970262944561056
 10
19.58267278140425
 20
-0.1897026294455983
 10
19.630559537660424
 20
-0.566073734937991
 10
19.790295241345145
 20
-1.1118100965693611
 10
20.050137200264956
 20
-1.6176023739155192
  0
LWPOLYLINE
  5
3A
330
17
100
AcDbEntity
  8
BASE
100
AcDbPolyline
 90
281
 70
1
 10
17.204961046460618
 20
-4.488290817174941
 10
41.96066517788407
 20
-30.590945469420337
 10
43.42303532396617
 20
-32.17198250879909
 10
45.55946192793068
 20
-34.59776183818729
 10
48.31658299933524
 20
-37.91893212647938
 10
51.64856979717015
 20
-42.17899183971846
 10
54.895630292726516
 20
-46.51965956867955
 10
61.96304389923477
 20
-56.14137757388686
 10
63.92046456177973
 20
-58.73706084767329
 10
65.90916631419289
 20
-61.30305359548311
 10
67.93891566574084
 20
-63.83008591021584
 10
70.01947912569021
 20
-66.30888788477095
 10
72.16062320330758
 20
-68.73018961204798
 10
73.62653145462934
 20
-70.30786844984331
 10
74.04479429966521
 20
-70.8106737041635
 10
74.39384959280495
 20
-71.36377164634065
 10
74.54050882493574
 20
-71.65625225715209
 10
74.77495306284824
 20
-72.26681988700084
 10
74.86173414241068
 20
-72.58229236171107
 10
74.9725577645108
 20
-73.22686590762657
 10
74.9961257432847
 20
-73.55320681595151
 10
74.97906985992573
 20
-74.20701567804525
 10
74.87682071080447
 20
-74.85300487517897
 10
74.79423909291826
 20
-75.169602592254
 10
74.6911278072112
 20
-75.48012135308764
 10
74.42516840621019
 20
-76.07763497496472
 10
74.26345916990218
 20
-76.36207119094733
 10
73.88604097931452
 20
-76.89621765094029
 10
73.44213155015667
 20
-77.37653145462933
 10
73.19757517690066
 20
-77.59389294700941
 10
72.93932629583648
 20
-77.7947942996652
 10
72.38622835365933
 20
-78.14384959280494
 10
72.0937477428479
 20
-78.29050882493573
 10
71.48318011299915
 20
-78.52495306284823
 10
70.84723486020178
 20
-78.6776965299883
 10
70.19679318404847
 20
-78.74612574328468
 10
69.86960957709722
 20
-78.74829954460665
 10
69.21831607810795
 20
-78.68851903370387
 10
68.58039740774599
 20
-78.54423909291825
 10
68.26987864691235
 20
-78.44112780721119
 10
67.67236502503526
 20
-78.17516840621019
 10
67.11467788292217
 20
-77.83349314689046
 10
66.8537823490597
 20
-77.6360409793145
 10
66.37346854537066
 20
-77.19213155015666
 10
64.9044366966518
 20
-75.67635324835462
 10
62.6453185888294
 20
-73.45543052015445
 10
60.32769063988513
 20
-71.29004255640895
 10
57.9607492304614
 20
-69.17146058905074
 10
55.55369074120065
 20
-67.0909558500124
 10
53.11571155274528
 20
-65.03979957122657
 10
43.2385154198265
 20
-56.954083697260394
 10
39.16036255327813
 20
-53.54958881912936
 10
35.16662220086383
 20
-50.06497358859989
 10
32.061017891107596
 20
-47.19243858312866
 10
29.798263123558623
 20
-44.97496759975371
 10
28.326511171629647
 20
-43.46177109082908
 10
4.739912663784602
 20
-18.635091890248887
 10
4.002089748458386
 20
-18.043026364543614
 10
3.6048709152967673
 20
-17.785724539412897
 10
3.1911736263772768
 20
-17.55585156628526
 10
2.3219746749934496
 20
-17.182465139078282
 10
1.4103677353669042
 20
-16.929686523024902
 10
0.4730021778779512
 20
-16.802132406107575
 10
1.3168047994016988e-15
 20
-16.78613333249087
 10
-0.9438421852802609
 20
-16.850056492570094
 10
-1.8704462633893277
 20
-17.04065849555219
 10
-2.321974674993447
 20
-17.182465139078282
 10
-2.7628889598086133
 20
-17.35445823219486
 10
-3.6048709152967655
 20
-17.785724539412897
 10
-4.002089748458383
 20
-18.043026364543614
 10
-4.739912663784601
 20
-18.635091890248887
 10
-28.326511171629644
 20
-43.46177109082909
 10
-29.79826312355863
 20
-44.974967599753725
 10
-32.061017891107596
 20
-47.19243858312866
 10
-35.166622200863834
 20
-50.0649735885999
 10
-39.160362553278134
 20
-53.549588819129376
 10
-43.2385154198265
 20
-56.9540836972604
 10
-53.11571155274528
 20
-65.03979957122657
 10
-55.55369074120063
 20
-67.0909558500124
 10
-57.96074923046139
 20
-69.17146058905074
 10
-60.32769063988513
 20
-71.29004255640895
 10
-62.64531858882941
 20
-73.45543052015447
 10
-64.9044366966518
 20
-75.67635324835464
 10
-66.37346854537066
 20
-77.19213155015667
 10
-66.8537823490597
 20
-77.63604097931452
 10
-67.38792880905265
 20
-78.01345916990218
 10
-67.96676853132568
 20
-78.31792839203861
 10
-68.26987864691235
 20
-78.4411278072112
 10
-68.89699512482102
 20
-78.62682071080447
 10
-69.21831607810795
 20
-78.68851903370387
 10
-69.54298432195473
 20
-78.72906985992573
 10
-70.19679318404847
 20
-78.7461257432847
 10
-70.52313409237341
 20
-78.7225577645108
 10
-71.16770763828892
 20
-78.61173414241068
 10
-71.48318011299915
 20
-78.52495306284824
 10
-72.09374774284788
 20
-78.29050882493574
 10
-72.38622835365933
 20
-78.14384959280495
 10
-72.93932629583648
 20
-77.79479429966521
 10
-73.44213155015667
 20
-77.37653145462934
 10
-73.88604097931452
 20
-76.8962176509403
 10
-74.08349314689048
 20
-76.63532211707785
 10
-74.26345916990218
 20
-76.36207119094735
 10
-74.56792839203861
 20
-75.78323146867432
 10
-74.79423909291826
 20
-75.16960259225401
 10
-74.87682071080447
 20
-74.85300487517898
 10
-74.97906985992573
 20
-74.20701567804527
 10
-74.9961257432847
 20
-73.55320681595153
 10
-74.92769652998831
 20
-72.90276513979822
 10
-74.86173414241068
 20
-72.58229236171108
 10
-74.77495306284824
 20
-72.26681988700085
 10
-74.54050882493574
 20
-71.65625225715212
 10
-74.39384959280495
 20
-71.36377164634067
 10
-74.04479429966521
 20
-70.81067370416352
 10
-73.62653145462934
 20
-70.30786844984333
 10
-72.16062320330758
 20
-68.73018961204798
 10
-70.01947912569021
 20
-66.30888788477097
 10
-67.93891566574085
 20
-63.83008591021584
 10
-65.90916631419289
 20
-61.30305359548312
 10
-63.92046456177973
 20
-58.737060847673305
 10
-61.963043899234776
 20
-56.14137757388688
 10
-54.895630292726516
 20
-46.51965956867956
 10
-51.64856979717015
 20
-42.17899183971847
 10
-48.31658299933524
 20
-37.91893212647939
 10
-45.55946192793068
 20
-34.5977618381873
 10
-43.423035323966175
 20
-32.1719825087991
 10
-41.96066517788407
 20
-30.590945469420344
 10
-17.204961046460628
 20
-4.488290817174952
 10
-16.681428232946182
 20
-3.7744055391362314
 10
-16.4545547392044
 20
-3.3940709902486663
 10
-16.25218543869604
 20
-3.0001514331664287
 10
-15.924098085064115
 20
-2.1779121216435784
 10
-15.702413686868942
 20
-1.3208387148553302
 10
-15.63264883982739
 20
-0.8835072417626899
 10
-15.57666892575405
 20
-2.5556299073204076e-15
 10
-15.63264883982739
 20
0.8835072417626846
 10
-15.799693224681796
 20
1.7528834379604998
 10
-15.924098085064117
 20
2.1779121216435735
 10
-16.25218543869604
 20
3.0001514331664234
 10
-16.4545547392044
 20
3.3940709902486605
 10
-16.931897842783197
 20
4.139632764008912
 10
-17.204961046460628
 20
4.488290817174946
 10
-41.96066517788408
 20
30.590945469420333
 10
-43.42303532396619
 20
32.17198250879909
 10
-45.5594619279307
 20
34.597761838187296
 10
-48.31658299933526
 20
37.918932126479376
 10
-51.64856979717016
 20
42.178991839718456
 10
-54.89563029272652
 20
46.51965956867954
 10
-61.96304389923479
 20
56.14137757388686
 10
-63.92046456177975
 20
58.737060847673284
 10
-65.9091663141929
 20
61.30305359548311
 10
-67.93891566574086
 20
63.83008591021583
 10
-70.01947912569024
 20
66.30888788477094
 10
-72.1606232033076
 20
68.73018961204795
 10
-73.62653145462936
 20
70.30786844984331
 10
-74.04479429966523
 20
70.8106737041635
 10
-74.39384959280497
 20
71.36377164634065
 10
-74.54050882493576
 20
71.65625225715209
 10
-74.77495306284825
 20
72.26681988700084
 10
-74.8617341424107
 20
72.58229236171107
 10
-74.97255776451081
 20
73.22686590762657
 10
-74.99612574328471
 20
73.55320681595151
 10
-74.97906985992574
 20
74.20701567804525
 10
-74.9385190337039
 20
74.53168392189204
 10
-74.79423909291827
 20
75.169602592254
 10
-74.56792839203862
 20
75.7832314686743
 10
-74.42516840621022
 20
76.07763497496472
 10
-74.08349314689049
 20
76.63532211707782
 10
-73.67194818766927
 20
77.1436405978053
 10
-73.19757517690067
 20
77.59389294700941
 10
-72.9393262958365
 20
77.7947942996652
 10
-72.38622835365935
 20
78.14384959280494
 10
-72.0937477428479
 20
78.29050882493573
 10
-71.48318011299916
 20
78.52495306284823
 10
-71.16770763828893
 20
78.61173414241067
 10
-70.8472348602018
 20
78.6776965299883
 10
-70.19679318404849
 20
78.74612574328468
 10
-69.54298432195475
 20
78.72906985992572
 10
-69.21831607810796
 20
78.68851903370386
 10
-68.89699512482103
 20
78.62682071080445
 10
-68.26987864691236
 20
78.44112780721119
 10
-67.67236502503528
 20
78.17516840621019
 10
-67.11467788292218
 20
77.83349314689046
 10
-66.85378234905971
 20
77.6360409793145
 10
-66.37346854537067
 20
77.19213155015666
 10
-64.90443669665183
 20
75.67635324835462
 10
-62.645318588829426
 20
73.45543052015444
 10
-60.327690639885155
 20
71.29004255640895
 10
-57.960749230461424
 20
69.17146058905072
 10
-55.55369074120067
 20
67.09095585001239
 10
-53.1157115527453
 20
65.03979957122655
 10
-43.238515419826534
 20
56.9540836972604
 10
-39.16036255327815
 20
53.54958881912936
 10
-35.16662220086385
 20
50.06497358859989
 10
-32.06101789110761
 20
47.192438583128656
 10
-29.798263123558637
 20
44.97496759975371
 10
-28.32651117162967
 20
43.461771090829096
 10
-4.739912663784611
 20
18.635091890248887
 10
-4.0020897484583955
 20
18.043026364543618
 10
-3.6048709152967757
 20
17.785724539412897
 10
-3.1911736263772843
 20
17.55585156628526
 10
-2.321974674993457
 20
17.182465139078282
 10
-1.8704462633893346
 20
17.04065849555219
 10
-0.9438421852802709
 20
16.850056492570094
 10
-5.572928805321915e-15
 20
16.78613333249087
 10
0.9438421852802568
 20
16.850056492570094
 10
1.870446263389322
 20
17.04065849555219
 10
2.3219746749934425
 20
17.182465139078282
 10
2.7628889598086075
 20
17.35445823219486
 10
3.604870915296761
 20
17.7857245394129
 10
4.0020897484583795
 20
18.043026364543618
 10
4.7399126637845965
 20
18.63509189024889
 10
28.32651117162962
 20
43.4617710908291
 10
29.7982631235586
 20
44.97496759975374
 10
32.06101789110757
 20
47.19243858312868
 10
35.1666222008638
 20
50.06497358859991
 10
39.160362553278105
 20
53.5495888191294
 10
43.23851541982647
 20
56.95408369726043
 10
53.115711552745246
 20
65.0397995712266
 10
55.55369074120059
 20
67.09095585001243
 10
57.96074923046136
 20
69.17146058905078
 10
60.327690639885084
 20
71.29004255640899
 10
62.645318588829355
 20
73.4554305201545
 10
64.90443669665174
 20
75.67635324835466
 10
66.3734685453706
 20
77.19213155015672
 10
66.85378234905964
 20
77.63604097931456
 10
67.3879288090526
 20
78.01345916990222
 10
67.96676853132563
 20
78.31792839203865
 10
68.26987864691229
 20
78.44112780721125
 10
68.89699512482096
 20
78.62682071080451
 10
69.21831607810789
 20
78.68851903370391
 10
69.54298432195466
 20
78.72906985992577
 10
70.19679318404842
 20
78.74612574328474
 10
70.84723486020172
 20
78.67769652998835
 10
71.16770763828885
 20
78.61173414241073
 10
71.4831801129991
 20
78.52495306284828
 10
72.09374774284782
 20
78.29050882493578
 10
72.38622835365928
 20
78.143849592805
 10
72.93932629583642
 20
77.79479429966526
 10
73.4421315501566
 20
77.37653145462939
 10
73.6719481876692
 20
77.14364059780536
 10
74.08349314689042
 20
76.63532211707789
 10
74.26345916990212
 20
76.36207119094739
 10
74.56792839203855
 20
75.78323146867436
 10
74.7942390929182
 20
75.16960259225407
 10
74.87682071080441
 20
74.85300487517902
 10
74.97906985992567
 20
74.20701567804531
 10
74.99612574328464
 20
73.55320681595157
 10
74.92769652998825
 20
72.90276513979826
 10
74.86173414241063
 20
72.58229236171113
 10
74.6677249012065
 20
71.95769861723647
 10
74.54050882493569
 20
71.65625225715216
 10
74.3938495928049
 20
71.36377164634071
 10
74.04479429966516
 20
70.81067370416356
 10
73.62653145462929
 20
70.30786844984338
 10
72.16062320330754
 20
68.73018961204802
 10
70.01947912569017
 20
66.308887884771
 10
67.93891566574081
 20
63.83008591021587
 10
65.90916631419284
 20
61.303053595483156
 10
63.92046456177969
 20
58.73706084767332
 10
61.96304389923474
 20
56.14137757388691
 10
54.89563029272649
 20
46.519659568679586
 10
51.64856979717012
 20
42.1789918397185
 10
48.31658299933521
 20
37.91893212647941
 10
45.559461927930656
 20
34.597761838187324
 10
43.42303532396615
 20
32.171982508799104
 10
41.96066517788404
 20
30.590945469420355
 10
17.499524889272948
 20
4.818984170219341
 10
16.931897842783187
 20
4.139632764008921
 10
16.68142823294617
 20
3.7744055391362332
 10
16.252185438696028
 20
3.000151433166432
 10
16.075130328799943
 20
2.594223558661864
 10
15.924098085064102
 20
2.17791212164358
 10
15.702413686868931
 20
1.320838714855333
 10
15.632648839827379
 20
0.8835072417626919
 10
15.576668925754038
 20
6.190557178968994e-15
 10
15.632648839827379
 20
-0.8835072417626795
 10
15.702413686868933
 20
-1.3208387148553205
 10
15.799693224681786
 20
-1.752883437960497
 10
16.075130328799943
 20
-2.594223558661851
 10
16.45455473920439
 20
-3.3940709902486548
 10
16.931897842783187
 20
-4.1396327640089075
  0
LWPOLYLINE
  5
3B
330
17
100
AcDbEntity
  8
CUT_JAG
100
AcDbPolyline
 90
348
 70
1
 10
17.204961046460618
 20
-4.488290817174941
 10
26.579871319959505
 20
-14.38577773112123
 10
27.439902864958437
 20
-18.765313021154498
 10
28.808950238693594
 20
-22.661714643234713
 10
29.005308144705495
 20
-22.8464722102063
 10
32.494670880773484
 20
-23.988108770140382
 10
36.391524765255404
 20
-25.11410524324079
 10
36.65116263661609
 20
-25.238800470220358
 10
38.61310548172849
 20
-30.056978538992905
 10
39.98845310236308
 20
-34.95090561400496
 10
40.17284551207399
 20
-35.11766152338172
 10
43.58139802047093
 20
-35.23938575624594
 10
46.560152224735226
 20
-35.869804592114264
 10
46.43484352820396
 20
-36.32617005740391
 10
45.26186625694861
 20
-38.68572014094809
 10
44.29235303843263
 20
-40.83722466705137
 10
47.25717306991965
 20
-40.47851978972339
 10
49.986620099883396
 20
-40.3868374984395
 10
50.1382023313576
 20
-40.610790832009904
 10
50.82199579301404
 20
-46.178885530336196
 10
54.74525447769128
 20
-46.96716176460863
 10
54.86205693124846
 20
-47.218047074309865
 10
54.77702857356347
 20
-49.6325324385666
 10
54.961963538393725
 20
-51.512804725349895
 10
55.20623835514799
 20
-51.67013575167
 10
57.01439500783881
 20
-51.35720113142924
 10
58.40948314170026
 20
-51.34634445710906
 10
63.26499762769996
 20
-57.87467426388507
 10
67.2571688332675
 20
-62.99264295880118
 10
70.72598034173454
 20
-67.12283515008433
 10
74.04479429966521
 20
-70.8106737041635
 10
74.54050882493574
 20
-71.65625225715209
 10
74.86173414241068
 20
-72.58229236171107
 10
74.9961257432847
 20
-73.55320681595151
 10
74.97906985992573
 20
-74.20701567804525
 10
74.79423909291826
 20
-75.169602592254
 10
74.42516840621019
 20
-76.07763497496472
 10
73.88604097931452
 20
-76.89621765094029
 10
73.19757517690066
 20
-77.59389294700941
 10
72.38622835365933
 20
-78.14384959280494
 10
71.48318011299915
 20
-78.52495306284823
 10
70.84723486020178
 20
-78.6776965299883
 10
69.86960957709722
 20
-78.74829954460665
 10
69.21831607810795
 20
-78.68851903370387
 10
68.26987864691235
 20
-78.44112780721119
 10
67.67236502503526
 20
-78.17516840621019
 10
66.8537823490597
 20
-77.6360409793145
 10
62.6453185888294
 20
-73.45543052015445
 10
58.754641295838475
 20
-69.87299272474856
 10
53.93123923765681
 20
-65.72079620363745
 10
46.74801743109372
 20
-59.80464999373403
 10
44.45396265246703
 20
-56.31162701793654
 10
42.484113121917815
 20
-52.48176029456404
 10
42.24043334984299
 20
-52.35902663661267
 10
39.80384582092124
 20
-51.97936540443533
 10
37.281640795277106
 20
-51.66923879130492
 10
37.01047183696797
 20
-51.57699006542366
 10
36.3472354278974
 20
-48.7513506977777
 10
35.458861035350104
 20
-46.25876884398376
 10
35.2439115727654
 20
-46.10170165373126
 10
32.29446649130193
 20
-45.435594109852644
 10
29.524573416713448
 20
-44.50399688941473
 10
29.40572605287587
 20
-44.25082758210317
 10
29.192702030749516
 20
-40.457038622835086
 10
29.380869507228077
 20
-35.913268560383294
 10
29.214368496797047
 20
-35.707539215761415
 10
19.470226897657987
 20
-34.0432899284246
 10
19.47396173638577
 20
-31.129631380910457
 10
19.55952873819512
 20
-28.138301627759656
 10
14.772443028781632
 20
-26.49798476574578
 10
10.804938420568808
 20
-24.443524619826565
 10
10.344550833657884
 20
-24.516738466439946
 10
5.077144036481086
 20
-18.967149162271532
 10
4.002089748458386
 20
-18.043026364543614
 10
3.1911736263772768
 20
-17.55585156628526
 10
1.8704462633893273
 20
-17.04065849555219
 10
0.9438421852802636
 20
-16.850056492570094
 10
1.3168047994016988e-15
 20
-16.78613333249087
 10
-0.9438421852802609
 20
-16.850056492570094
 10
-2.321974674993447
 20
-17.182465139078282
 10
-3.6048709152967655
 20
-17.785724539412897
 10
-4.38101437347536
 20
-18.32658087286542
 10
-5.0771440364810845
 20
-18.967149162271532
 10
-13.250706307962336
 20
-27.578580841153567
 10
-13.745720219793393
 20
-27.472501330209205
 10
-16.714283104736356
 20
-27.201231734632042
 10
-19.785030474127105
 20
-26.832973475850224
 10
-19.78325531053295
 20
-27.198422578868776
 10
-18.808451297474075
 20
-30.306245498059095
 10
-18.621727824229712
 20
-32.66605976928989
 10
-18.8816444450623
 20
-32.7831234498017
 10
-21.55653050067443
 20
-33.15436216539995
 10
-24.66453307000871
 20
-33.11450724085516
 10
-26.49880514853671
 20
-37.92125886975728
 10
-28.186841034685017
 20
-43.230562289446
 10
-32.18432556351984
 20
-44.80251859403507
 10
-36.2598086232505
 20
-46.134709501508055
 10
-36.38128489005757
 20
-46.393494323323914
 10
-37.36344395682915
 20
-49.975814190419094
 10
-38.805238191397315
 20
-52.73997380511653
 10
-38.969046945382395
 20
-52.95665637122865
 10
-42.21646147985147
 20
-53.61587295285917
 10
-44.933872070904854
 20
-54.48021422037395
 10
-47.244841449424726
 20
-57.93111562355438
 10
-49.21472573537722
 20
-61.83091033992139
 10
-54.74401250270542
 20
-66.40440720066401
 10
-58.75464129583847
 20
-69.87299272474856
 10
-62.64531858882941
 20
-73.45543052015447
 10
-66.60635940219468
 20
-77.42194818766926
 10
-67.11467788292217
 20
-77.83349314689048
 10
-67.96676853132568
 20
-78.31792839203861
 10
-68.58039740774599
 20
-78.54423909291826
 10
-69.54298432195473
 20
-78.72906985992573
 10
-70.19679318404847
 20
-78.7461257432847
 10
-71.16770763828892
 20
-78.61173414241068
 10
-72.09374774284788
 20
-78.29050882493574
 10
-72.93932629583648
 20
-77.79479429966521
 10
-73.44213155015667
 20
-77.37653145462934
 10
-74.08349314689048
 20
-76.63532211707785
 10
-74.56792839203861
 20
-75.78323146867432
 10
-74.79423909291826
 20
-75.16960259225401
 10
-74.97906985992573
 20
-74.20701567804527
 10
-74.9961257432847
 20
-73.55320681595153
 10
-74.86173414241068
 20
-72.58229236171108
 10
-74.54050882493574
 20
-71.65625225715212
 10
-74.04479429966521
 20
-70.81067370416352
 10
-70.01947912569021
 20
-66.30888788477097
 10
-66.58070629027333
 20
-62.150184410592736
 10
-63.26499762769996
 20
-57.874674263885076
 10
-58.4233215732926
 20
-51.33622821993629
 10
-58.17680804565117
 20
-51.18024226569936
 10
-54.61778201840138
 20
-49.749076381542096
 10
-54.38051126448668
 20
-49.58792703852986
 10
-52.67348836213124
 20
-45.80549911397329
 10
-51.26612553783133
 20
-41.78992373445029
 10
-51.08771907899003
 20
-41.58557997869244
 10
-47.990944785949594
 20
-40.24294680054188
 10
-44.529773443162
 20
-39.28853740335354
 10
-44.8156862865372
 20
-36.29131968749808
 10
-44.569431653266484
 20
-33.674442697971166
 10
-44.19068000240151
 20
-33.64901161453801
 10
-40.25167673918217
 20
-34.709958623551685
 10
-38.32221567153063
 20
-35.096855086129814
 10
-38.01551166789649
 20
-35.01504570373306
 10
-39.12675721635206
 20
-32.537288479168254
 10
-40.258767211744896
 20
-29.608388042095637
 10
-39.927177678469064
 20
-29.55198591795078
 10
-37.46822211988759
 20
-30.40138514724888
 10
-35.33420730171577
 20
-30.942366046666674
 10
-35.2025808811798
 20
-30.69616842568405
 10
-35.96112904070491
 20
-27.749403475491416
 10
-36.14019169275525
 20
-24.981527495308864
 10
-32.95631867723849
 20
-24.66332810847837
 10
-30.203934154446983
 20
-24.306711494450905
 10
-26.473564056124268
 20
-14.486679540863161
 10
-23.716571735936995
 20
-14.505567602126487
 10
-21.860860709862035
 20
-14.411264577045676
 10
-21.53727841540709
 20
-14.347262361816593
 10
-22.330806186777473
 20
-12.480689942143371
 10
-22.64931356358956
 20
-11.43611551032196
 10
-23.05892066316268
 20
-10.676204717710297
 10
-17.499524889272962
 20
-4.818984170219339
 10
-16.931897842783197
 20
-4.139632764008917
 10
-16.25218543869604
 20
-3.0001514331664287
 10
-15.924098085064115
 20
-2.1779121216435784
 10
-15.702413686868942
 20
-1.3208387148553302
 10
-15.57666892575405
 20
-2.5556299073204076e-15
 10
-15.63264883982739
 20
0.8835072417626846
 10
-15.924098085064117
 20
2.1779121216435735
 10
-16.25218543869604
 20
3.0001514331664234
 10
-16.931897842783197
 20
4.139632764008912
 10
-17.499524889272962
 20
4.818984170219333
 10
-26.579871319959516
 20
14.385777731121234
 10
-26.448442547280496
 20
14.881654857528314
 10
-26.43995579873844
 20
17.858759457906295
 10
-26.53427045854331
 20
21.109421012870072
 10
-26.61832113150274
 20
21.400775275620322
 10
-31.12763619438024
 20
21.945452664141843
 10
-34.5444258730585
 20
23.155972126005146
 10
-34.686120893381364
 20
23.392613109901973
 10
-34.44240732781158
 20
26.22185266901824
 10
-34.55806038109351
 20
29.081129660885296
 10
-41.68959322443539
 20
30.84619015414087
 10
-41.85421958196835
 20
31.05888898785065
 10
-42.2909722538099
 20
34.27325409325679
 10
-42.964516110288805
 20
37.15704083718863
 10
-43.11640279401284
 20
37.381755405409436
 10
-46.773414996185046
 20
38.823623602261996
 10
-50.026610378113865
 20
40.69752075948733
 10
-50.217627244538384
 20
40.89058354997788
 10
-51.49941467145262
 20
45.33423598653018
 10
-53.178916536864506
 20
49.461258946271386
 10
-58.34500904645585
 20
51.3934766219532
 10
-58.58349245659738
 20
51.55533279151129
 10
-63.26499762769998
 20
57.874674263885055
 10
-66.58070629027334
 20
62.15018441059272
 10
-70.01947912569024
 20
66.30888788477094
 10
-74.04479429966523
 20
70.8106737041635
 10
-74.54050882493576
 20
71.65625225715209
 10
-74.8617341424107
 20
72.58229236171107
 10
-74.99612574328471
 20
73.55320681595151
 10
-74.97906985992574
 20
74.20701567804525
 10
-74.79423909291827
 20
75.169602592254
 10
-74.56792839203862
 20
75.7832314686743
 10
-74.08349314689049
 20
76.63532211707782
 10
-73.67194818766927
 20
77.1436405978053
 10
-73.19757517690067
 20
77.59389294700941
 10
-72.38622835365935
 20
78.14384959280494
 10
-71.48318011299916
 20
78.52495306284823
 10
-70.52313409237341
 20
78.72255776451078
 10
-69.54298432195475
 20
78.72906985992572
 10
-68.580397407746
 20
78.54423909291825
 10
-67.67236502503528
 20
78.17516840621019
 10
-67.11467788292218
 20
77.83349314689046
 10
-66.6063594021947
 20
77.42194818766924
 10
-64.15846609865311
 20
74.92933633006038
 10
-61.878822890385386
 20
72.72789505313037
 10
-57.960749230461424
 20
69.17146058905072
 10
-53.1157115527453
 20
65.03979957122655
 10
-45.29604434085324
 20
58.638816910662484
 10
-43.66157279283979
 20
53.52851013484961
 10
-43.48364280582681
 20
53.3337752825464
 10
-39.92952515881425
 20
52.24068570905885
 10
-36.55017762452399
 20
50.8980723076295
 10
-36.16592494637663
 20
49.343206329909506
 10
-35.40496146189862
 20
45.54099232868057
 10
-35.22074043926871
 20
45.37129882146601
 10
-31.49275091660906
 20
43.65084854280194
 10
-27.527734320380375
 20
42.03734695810076
 10
-27.306289655609334
 20
41.883767522683065
 10
-26.258118704767114
 20
38.513471221755964
 10
-25.69364653766979
 20
34.684070990494725
 10
-25.549262990830957
 20
34.45734879907353
 10
-21.113012506273865
 20
33.21156419539332
 10
-17.169925872338126
 20
31.497691869089476
 10
-17.145940900732946
 20
27.519051044086908
 10
-16.61481986795115
 20
24.38552390285911
 10
-16.46717570728415
 20
24.1618965313427
 10
-13.168980002086846
 20
24.382273754333742
 10
-10.426913448438754
 20
24.438563781224232
 10
-10.162916116513877
 20
24.325373318020354
 10
-5.077144036481096
 20
18.967149162271536
 10
-4.0020897484583955
 20
18.043026364543618
 10
-3.1911736263772843
 20
17.55585156628526
 10
-2.321974674993457
 20
17.182465139078282
 10
-0.9438421852802709
 20
16.850056492570094
 10
-5.572928805321915e-15
 20
16.78613333249087
 10
0.9438421852802568
 20
16.850056492570094
 10
2.3219746749934425
 20
17.182465139078282
 10
3.604870915296761
 20
17.7857245394129
 10
4.381014373475357
 20
18.326580872865424
 10
5.077144036481083
 20
18.96714916227154
 10
13.977245176538432
 20
28.344041434831972
 10
17.075752712908166
 20
27.94943454298534
 10
19.763950671156042
 20
27.94427403037302
 10
19.878787842246076
 20
28.199040239454007
 10
19.99861059006336
 20
31.722952193529515
 10
20.37787716645503
 20
34.6368481761306
 10
20.595983135991798
 20
34.7935965426181
 10
22.496648337748134
 20
34.80839634407157
 10
24.54281563384717
 20
34.68509246275905
 10
24.736380348920367
 20
34.865134223313746
 10
24.406927212799943
 20
36.6328923129753
 10
24.205167196027144
 20
38.27945015376452
 10
24.22447905552898
 20
38.62488445520044
 10
29.109597027787707
 20
40.172153745700165
 10
33.7280721627277
 20
41.78485778902197
 10
33.86187966808599
 20
42.02441507439021
 10
33.8831572997982
 20
45.65161026114427
 10
34.43755679676499
 20
48.90289603960518
 10
37.14061279558533
 20
48.64900937242548
 10
39.08237912765079
 20
48.81226055007104
 10
39.13118708333167
 20
49.950887617748734
 10
39.07212686308295
 20
53.244433598418745
 10
39.22943127439315
 20
53.4683727273429
 10
44.62864034207589
 20
55.26450523499426
 10
44.82397398035409
 20
55.44189098716114
 10
45.67526694164384
 20
58.594788142441
 10
45.82965807631246
 20
58.82617163763411
 10
49.56935629368189
 20
59.71116138197144
 10
50.10704166119756
 20
61.57899693603581
 10
50.65600804573773
 20
63.00926298462588
 10
55.55369074120059
 20
67.09095585001243
 10
59.54373530120984
 20
70.57907895129927
 10
62.645318588829355
 20
73.4554305201545
 10
66.85378234905964
 20
77.63604097931456
 10
67.3879288090526
 20
78.01345916990222
 10
68.26987864691229
 20
78.44112780721125
 10
69.21831607810789
 20
78.68851903370391
 10
70.19679318404842
 20
78.74612574328474
 10
71.16770763828885
 20
78.61173414241073
 10
72.09374774284782
 20
78.29050882493578
 10
72.93932629583642
 20
77.79479429966526
 10
73.4421315501566
 20
77.37653145462939
 10
74.08349314689042
 20
76.63532211707789
 10
74.56792839203855
 20
75.78323146867436
 10
74.7942390929182
 20
75.16960259225407
 10
74.97906985992567
 20
74.20701567804531
 10
74.99612574328464
 20
73.55320681595157
 10
74.86173414241063
 20
72.58229236171113
 10
74.54050882493569
 20
71.65625225715216
 10
74.22837522216166
 20
71.08150923168009
 10
73.84389294700937
 20
70.55242482309939
 10
70.7259803417345
 20
67.1228351500844
 10
67.93891566574081
 20
63.83008591021587
 10
65.24218718246073
 20
60.45159384336497
 10
62.45024446058874
 20
56.7923434404658
 10
60.009007095002346
 20
55.225821195905176
 10
58.0168129006543
 20
53.65321936553456
 10
57.83544404420447
 20
53.448416710504695
 10
57.25067583991065
 20
51.18457449563718
 10
56.51324784579129
 20
49.03449125509638
 10
54.46827940487805
 20
48.180234194437766
 10
52.21532051220523
 20
47.82588302197062
 10
52.27079697289264
 20
47.447632107543384
 10
52.8722329254981
 20
45.9956386251077
 10
53.23427421899912
 20
44.71447048647818
 10
53.11401594638528
 20
44.46595961918486
 10
51.1611240110674
 20
44.24080761864621
 10
48.48158206704703
 20
44.26224546576859
 10
48.932609558957004
 20
38.80964394313189
 10
48.698000365917245
 20
38.651725733157555
 10
43.77416828260526
 20
37.17651777831286
 10
43.55270260136094
 20
37.01093919769212
 10
42.613384997388245
 20
33.62213114305359
 10
41.50201099170214
 20
30.28397278049291
 10
41.26442417005956
 20
30.13832213603115
 10
37.26640182887025
 20
29.850681044214753
 10
33.93673277396798
 20
29.29973316615708
 10
33.68246443482443
 20
29.169941434022263
 10
33.06121082263579
 20
25.30603180735523
 10
32.56710260737601
 20
20.950310631264383
 10
28.651499056520045
 20
19.47097927899375
 10
24.49863941985607
 20
18.58797131643905
 10
24.36329814330702
 20
18.34529966048572
 10
23.38363557586862
 20
14.821574804903229
 10
22.609404854824344
 20
10.731732617353567
 10
22.688294278236683
 20
10.285723347877566
 10
17.204961046460614
 20
4.488290817174953
 10
16.68142823294617
 20
3.7744055391362332
 10
16.252185438696028
 20
3.000151433166432
 10
15.799693224681784
 20
1.7528834379605096
 10
15.632648839827379
 20
0.8835072417626919
 10
15.576668925754038
 20
6.190557178968994e-15
 10
15.632648839827379
 20
-0.8835072417626795
 10
15.924098085064106
 20
-2.1779121216435704
 10
16.252185438696028
 20
-3.0001514331664163
 10
16.681428232946175
 20
-3.7744055391362203
  0
LWPOLYLINE
  5
3C
330
17
100
AcDbEntity
  8
PATCH
100
AcDbPolyline
 90
314
 70
1
 10
34.06178713934177
 20
-1.923553207360679
 10
52.65235133408087
 20
-21.526330848821836
 10
54.581858235681636
 20
-23.65777488994683
 10
56.45983376339794
 20
-25.838130065606258
 10
59.49396715270835
 20
-29.563008682419472
 10
62.435926038523135
 20
-33.375374963567545
 10
65.31756554692916
 20
-37.24499353513749
 10
71.60183031829972
 20
-45.81068253223321
 10
75.0928483501259
 20
-50.42285473646662
 10
77.48067036645955
 20
-53.44023462867009
 10
79.93590184086878
 20
-56.39363266236122
 10
81.8313742823725
 20
-58.55738059781561
 10
84.60679319863578
 20
-61.59921432777749
 10
85.3702183387278
 20
-62.580560075821346
 10
86.06782584421452
 20
-63.60973508038415
 10
86.69662845265884
 20
-64.68233225609454
 10
87.25393353475583
 20
-65.79375857717801
 10
87.73735462458492
 20
-66.9392547454984
 10
88.14482163882333
 20
-68.11391557060321
 10
88.4745897411606
 20
-69.31271097450212
 10
88.7252468139556
 20
-70.53050753123321
 10
88.89571950514105
 20
-71.76209044898106
 10
88.98527782448184
 20
-73.00218590061577
 10
88.99353826950534
 20
-74.24548360703056
 10
88.92046546771778
 20
-75.48665957657202
 10
88.76637232807472
 20
-76.72039890318977
 10
88.53191870105698
 20
-77.94141852568012
 10
88.21810855308938
 20
-79.14448985056524
 10
87.82628566740254
 20
-80.32446114173308
 10
87.35812788974673
 20
-81.47627958096238
 10
86.81563994359875
 20
-82.595012904866
 10
86.20114484562826
 20
-83.67587052559988
 10
85.5172739581838
 20
-84.71422404489579
 10
84.76695572139514
 20
-85.70562707357314
 10
83.9534031131432
 20
-86.64583427166019
 10
83.08009989059533
 20
-87.5308195275915
 10
82.1507856722225
 20
-88.35679319863577
 10
81.16943992417863
 20
-89.12021833872778
 10
80.14026491961583
 20
-89.81782584421452
 10
79.06766774390545
 20
-90.44662845265883
 10
77.95624142282198
 20
-91.00393353475582
 10
76.81074525450158
 20
-91.48735462458491
 10
75.63608442939677
 20
-91.89482163882332
 10
74.43728902549786
 20
-92.22458974116057
 10
73.21949246876676
 20
-92.47524681395558
 10
71.98790955101893
 20
-92.64571950514103
 10
70.74781409938421
 20
-92.73527782448184
 10
69.50451639296944
 20
-92.74353826950534
 10
68.26334042342798
 20
-92.67046546771776
 10
67.02960109681023
 20
-92.51637232807471
 10
65.80858147431987
 20
-92.28191870105697
 10
64.60551014943475
 20
-91.96810855308937
 10
63.42553885826691
 20
-91.57628566740254
 10
62.273720419037595
 20
-91.10812788974673
 10
61.15498709513399
 20
-90.56563994359874
 10
60.07412947440011
 20
-89.95114484562825
 10
59.03577595510421
 20
-89.26727395818378
 10
58.04437292642686
 20
-88.51695572139514
 10
57.104165728339794
 20
-87.70340311314318
 10
54.28430179841871
 20
-84.84614509010311
 10
52.29902949441028
 20
-82.91002153166252
 10
49.58426580269963
 20
-80.39281330746769
 10
46.80548816685814
 20
-77.93636408109198
 10
41.832550320763914
 20
-73.74205778355841
 10
33.900657668217654
 20
-67.26231787921164
 10
30.3178937100038
 20
-64.29549104371777
 10
26.789241390282644
 20
-61.27730400897663
 10
24.02446096281386
 20
-58.80756929668783
 10
21.327193781569115
 20
-56.27375421510165
 10
18.712053978810072
 20
-53.66198772342735
 10
2.0313911416219783
 20
-36.10442709409805
 10
1.7151813207678859
 20
-35.85068472593865
 10
1.1840952684894113
 20
-35.55558409778918
 10
0.6044433151572497
 20
-35.37353907957348
 10
3.736410698672604e-15
 20
-35.31201628363033
 10
-0.604443315157241
 20
-35.37353907957348
 10
-1.1840952684894037
 20
-35.55558409778918
 10
-1.5449446779843263
 20
-35.74041251516834
 10
-2.0313911416219708
 20
-36.10442709409805
 10
-18.71205397881007
 20
-53.66198772342736
 10
-21.327193781569118
 20
-56.27375421510166
 10
-24.024460962813855
 20
-58.807569296687845
 10
-26.789241390282633
 20
-61.277304008976635
 10
-30.3178937100038
 20
-64.29549104371779
 10
-33.900657668217654
 20
-67.26231787921165
 10
-41.8325503207639
 20
-73.74205778355841
 10
-46.80548816685814
 20
-77.936364081092
 10
-49.58426580269963
 20
-80.3928133074677
 10
-52.29902949441027
 20
-82.91002153166252
 10
-54.28430179841871
 20
-84.84614509010311
 10
-57.104165728339794
 20
-87.7034031131432
 10
-58.044372926426846
 20
-88.51695572139514
 10
-59.03577595510421
 20
-89.2672739581838
 10
-60.07412947440011
 20
-89.95114484562826
 10
-61.15498709513399
 20
-90.56563994359875
 10
-62.273720419037595
 20
-91.10812788974673
 10
-63.425538858266904
 20
-91.57628566740254
 10
-64.60551014943475
 20
-91.96810855308938
 10
-65.80858147431987
 20
-92.28191870105698
 10
-67.02960109681023
 20
-92.51637232807474
 10
-68.26334042342796
 20
-92.67046546771778
 10
-69.50451639296942
 20
-92.74353826950534
 10
-70.74781409938421
 20
-92.73527782448184
 10
-71.98790955101893
 20
-92.64571950514105
 10
-73.21949246876676
 20
-92.4752468139556
 10
-74.43728902549786
 20
-92.2245897411606
 10
-75.63608442939677
 20
-91.89482163882333
 10
-76.81074525450158
 20
-91.48735462458492
 10
-77.95624142282198
 20
-91.00393353475583
 10
-79.06766774390545
 20
-90.44662845265884
 10
-80.14026491961584
 20
-89.81782584421452
 10
-81.16943992417863
 20
-89.1202183387278
 10
-82.1507856722225
 20
-88.35679319863578
 10
-83.08009989059533
 20
-87.53081952759152
 10
-83.9534031131432
 20
-86.6458342716602
 10
-84.76695572139515
 20
-85.70562707357314
 10
-85.5172739581838
 20
-84.7142240448958
 10
-86.20114484562826
 20
-83.67587052559989
 10
-86.81563994359875
 20
-82.59501290486601
 10
-87.35812788974673
 20
-81.4762795809624
 10
-87.82628566740254
 20
-80.3244611417331
 10
-88.21810855308938
 20
-79.14448985056525
 10
-88.53191870105698
 20
-77.94141852568013
 10
-88.76637232807474
 20
-76.72039890318977
 10
-88.92046546771778
 20
-75.48665957657204
 10
-88.99353826950534
 20
-74.24548360703058
 10
-88.98527782448184
 20
-73.00218590061579
 10
-88.89571950514105
 20
-71.76209044898107
 10
-88.7252468139556
 20
-70.53050753123324
 10
-88.4745897411606
 20
-69.31271097450214
 10
-88.14482163882333
 20
-68.11391557060324
 10
-87.73735462458492
 20
-66.93925474549842
 10
-87.25393353475583
 20
-65.79375857717802
 10
-86.69662845265884
 20
-64.68233225609455
 10
-86.06782584421452
 20
-63.60973508038416
 10
-85.3702183387278
 20
-62.58056007582137
 10
-84.60679319863578
 20
-61.5992143277775
 10
-81.83137428237251
 20
-58.55738059781562
 10
-79.93590184086878
 20
-56.393632662361235
 10
-77.48067036645958
 20
-53.44023462867012
 10
-75.0928483501259
 20
-50.42285473646663
 10
-71.60183031829973
 20
-45.81068253223323
 10
-65.31756554692916
 20
-37.24499353513751
 10
-62.435926038523135
 20
-33.375374963567566
 10
-60.088713526116194
 20
-30.31945045746754
 10
-57.68658678761115
 20
-27.315647928680953
 10
-55.21323599845154
 20
-24.379447888651242
 10
-52.65235133408089
 20
-21.526330848821857
 10
-34.06178713934178
 20
-1.9235532073606965
 10
-33.83741593354988
 20
-1.6176023739155307
 10
-33.57757397463006
 20
-1.1118100965693722
 10
-33.417838270945346
 20
-0.5660737349380011
 10
-33.36394765903896
 20
-3.8866878507662826e-15
 10
-33.417838270945346
 20
0.5660737349379943
 10
-33.57757397463007
 20
1.1118100965693651
 10
-33.83741593354988
 20
1.6176023739155234
 10
-34.188028786261356
 20
2.0652789300939975
 10
-52.65235133408089
 20
21.52633084882184
 10
-54.58185823568166
 20
23.657774889946833
 10
-57.075563447591854
 20
26.57465547787428
 10
-59.493967152708365
 20
29.563008682419472
 10
-62.43592603852315
 20
33.37537496356755
 10
-65.31756554692916
 20
37.24499353513748
 10
-71.60183031829973
 20
45.8106825322332
 10
-73.9191190685635
 20
48.8950092532488
 10
-75.68437616104518
 20
51.18235141828345
 10
-78.08752149584555
 20
54.18518714380666
 10
-79.93590184086878
 20
56.393632662361185
 10
-81.83137428237252
 20
58.5573805978156
 10
-84.60679319863578
 20
61.59921432777749
 10
-85.37021833872781
 20
62.58056007582134
 10
-86.06782584421454
 20
63.60973508038414
 10
-86.69662845265886
 20
64.68233225609454
 10
-87.25393353475584
 20
65.79375857717801
 10
-87.73735462458494
 20
66.9392547454984
 10
-88.14482163882334
 20
68.11391557060321
 10
-88.4745897411606
 20
69.31271097450212
 10
-88.72524681395561
 20
70.53050753123321
 10
-88.89571950514106
 20
71.76209044898104
 10
-88.98527782448187
 20
73.00218590061577
 10
-88.99353826950536
 20
74.24548360703055
 10
-88.92046546771779
 20
75.48665957657201
 10
-88.76637232807474
 20
76.72039890318976
 10
-88.531918701057
 20
77.94141852568012
 10
-88.2181085530894
 20
79.14448985056524
 10
-87.82628566740257
 20
80.32446114173308
 10
-87.35812788974675
 20
81.47627958096238
 10
-86.81563994359877
 20
82.595012904866
 10
-86.20114484562828
 20
83.67587052559988
 10
-85.51727395818381
 20
84.71422404489579
 10
-84.76695572139516
 20
85.70562707357313
 10
-83.95340311314321
 20
86.64583427166019
 10
-83.08009989059536
 20
87.5308195275915
 10
-82.15078567222251
 20
88.35679319863576
 10
-81.16943992417865
 20
89.12021833872778
 10
-80.14026491961586
 20
89.81782584421451
 10
-79.06766774390546
 20
90.44662845265883
 10
-77.95624142282199
 20
91.00393353475582
 10
-76.8107452545016
 20
91.48735462458491
 10
-75.6360844293968
 20
91.89482163882332
 10
-74.43728902549789
 20
92.22458974116057
 10
-73.21949246876679
 20
92.47524681395558
 10
-71.98790955101894
 20
92.64571950514103
 10
-70.74781409938423
 20
92.73527782448184
 10
-69.50451639296945
 20
92.74353826950534
 10
-68.26334042342799
 20
92.67046546771776
 10
-67.02960109681023
 20
92.51637232807471
 10
-65.80858147431988
 20
92.28191870105697
 10
-64.60551014943476
 20
91.96810855308937
 10
-63.425538858266926
 20
91.57628566740254
 10
-62.273720419037616
 20
91.10812788974673
 10
-61.154987095134004
 20
90.56563994359874
 10
-60.074129474400124
 20
89.95114484562825
 10
-59.03577595510422
 20
89.26727395818378
 10
-58.044372926426874
 20
88.51695572139514
 10
-57.10416572833981
 20
87.70340311314318
 10
-54.284301798418724
 20
84.84614509010311
 10
-52.29902949441029
 20
82.91002153166252
 10
-49.58426580269966
 20
80.39281330746768
 10
-46.80548816685817
 20
77.93636408109197
 10
-41.83255032076393
 20
73.7420577835584
 10
-33.900657668217676
 20
67.26231787921164
 10
-30.317893710003837
 20
64.29549104371779
 10
-26.789241390282662
 20
61.27730400897663
 10
-24.024460962813876
 20
58.80756929668784
 10
-21.327193781569147
 20
56.27375421510166
 10
-18.712053978810097
 20
53.66198772342736
 10
-2.0313911416219907
 20
36.10442709409806
 10
-1.544944677984346
 20
35.740412515168344
 10
-1.184095268489423
 20
35.555584097789186
 10
-0.6044433151572608
 20
35.37353907957349
 10
-1.46960133038397e-14
 20
35.312016283630335
 10
0.6044433151572299
 20
35.37353907957349
 10
0.9951320035686071
 20
35.4818727721678
 10
1.5449446779843157
 20
35.74041251516835
 10
2.031391141621959
 20
36.10442709409806
 10
18.71205397881004
 20
53.66198772342736
 10
21.32719378156909
 20
56.27375421510167
 10
24.02446096281382
 20
58.80756929668785
 10
26.789241390282598
 20
61.27730400897665
 10
30.317893710003762
 20
64.29549104371779
 10
33.90065766821762
 20
67.26231787921166
 10
41.83255032076387
 20
73.74205778355844
 10
46.80548816685808
 20
77.936364081092
 10
49.5842658026996
 20
80.39281330746772
 10
52.299029494410206
 20
82.91002153166255
 10
54.284301798418646
 20
84.84614509010314
 10
57.10416572833973
 20
87.70340311314322
 10
58.04437292642678
 20
88.51695572139518
 10
59.03577595510414
 20
89.26727395818384
 10
60.07412947440004
 20
89.9511448456283
 10
61.154987095133926
 20
90.56563994359878
 10
62.27372041903754
 20
91.10812788974678
 10
63.42553885826683
 20
91.57628566740259
 10
64.60551014943469
 20
91.96810855308942
 10
65.8085814743198
 20
92.28191870105701
 10
67.02960109681015
 20
92.51637232807477
 10
68.26334042342789
 20
92.6704654677178
 10
69.50451639296936
 20
92.74353826950538
 10
70.74781409938416
 20
92.7352778244819
 10
71.98790955101887
 20
92.64571950514109
 10
73.2194924687667
 20
92.47524681395564
 10
74.43728902549779
 20
92.22458974116064
 10
75.6360844293967
 20
91.89482163882337
 10
76.8107452545015
 20
91.48735462458498
 10
77.9562414228219
 20
91.00393353475587
 10
79.06766774390539
 20
90.44662845265889
 10
80.14026491961576
 20
89.81782584421458
 10
81.16943992417858
 20
89.12021833872784
 10
82.15078567222243
 20
88.35679319863584
 10
83.08009989059528
 20
87.53081952759158
 10
83.95340311314312
 20
86.64583427166025
 10
84.76695572139508
 20
85.7056270735732
 10
85.51727395818374
 20
84.71422404489584
 10
86.20114484562819
 20
83.67587052559995
 10
86.81563994359868
 20
82.59501290486607
 10
87.35812788974667
 20
81.47627958096247
 10
87.82628566740249
 20
80.32446114173315
 10
88.21810855308932
 20
79.14448985056532
 10
88.53191870105692
 20
77.94141852568019
 10
88.76637232807467
 20
76.72039890318983
 10
88.92046546771772
 20
75.48665957657208
 10
88.99353826950528
 20
74.24548360703062
 10
88.98527782448178
 20
73.00218590061584
 10
88.89571950514099
 20
71.76209044898113
 10
88.72524681395554
 20
70.53050753123328
 10
88.47458974116054
 20
69.31271097450218
 10
88.14482163882327
 20
68.1139155706033
 10
87.73735462458488
 20
66.93925474549849
 10
87.25393353475577
 20
65.79375857717808
 10
86.69662845265879
 20
64.6823322560946
 10
86.06782584421447
 20
63.609735080384205
 10
85.37021833872775
 20
62.580560075821424
 10
84.60679319863574
 20
61.59921432777756
 10
81.83137428237247
 20
58.55738059781566
 10
79.93590184086874
 20
56.39363266236127
 10
77.48067036645953
 20
53.440234628670154
 10
75.09284835012588
 20
50.42285473646667
 10
71.6018303182997
 20
45.81068253223327
 10
65.31756554692913
 20
37.24499353513754
 10
62.435926038523114
 20
33.37537496356759
 10
59.493967152708336
 20
29.563008682419518
 10
56.459833763397924
 20
25.838130065606286
 10
54.58185823568162
 20
23.657774889946868
 10
52.65235133408086
 20
21.526330848821875
 10
34.18802878626134
 20
2.065278930094012
 10
33.94476005205144
 20
1.774128327432404
 10
33.74018443623196
 20
1.4546018529637244
 10
33.57757397463005
 20
1.1118100965693798
 10
33.41783827094533
 20
0.5660737349380095
 10
33.36394765903895
 20
1.2359617234852365e-14
 10
33.41783827094533
 20
-0.5660737349379849
 10
33.57757397463005
 20
-1.1118100965693551
 10
33.83741593354986
 20
-1.6176023739155134
  0
LWPOLYLINE
  5
3D
330
17
100
AcDbEntity
  8
STITCH_FOLLOW
100
AcDbPolyline
 90
644
 70
1
 10
-56.91551013413632
 20
-45.47260605818987
 10
-57.318416797934425
 20
-46.12453295189282
 10
-57.87335423735784
 20
-46.653103564765196
 10
-58.367851318688174
 20
-46.947458402917114
 10
-60.099571350473454
 20
-47.6743541596959
 10
-60.966358175983025
 20
-48.250580893517764
 10
-61.49745337293873
 20
-48.77928311609431
 10
-65.81403326988199
 20
-54.61115378641179
 10
-69.05632836785647
 20
-58.83408988692455
 10
-71.03875904771894
 20
-61.301923617482174
 10
-73.04315265648145
 20
-63.69005148411783
 10
-77.03120150395269
 20
-68.13509692553042
 10
-77.51187129127327
 20
-68.79654455675443
 10
-78.09416186837274
 20
-69.81941801084685
 10
-78.46290799263086
 20
-70.69318475645993
 10
-78.70545332367573
 20
-71.47403568697179
 10
-78.89665065878526
 20
-72.402952049699
 10
-78.98219908982442
 20
-73.21611739527167
 10
-78.9885000294217
 20
-74.16448564023446
 10
-78.91376398222633
 20
-74.97871591266612
 10
-78.73492638473634
 20
-75.91009078006259
 10
-78.50277792368787
 20
-76.69409556660798
 10
-78.14567441768881
 20
-77.57268484260533
 10
-77.7650348779548
 20
-78.29633527899338
 10
-77.24338875091628
 20
-79.08837527043332
 10
-76.72888589654363
 20
-79.72386187622133
 10
-76.06274371658519
 20
-80.39891493041394
 10
-75.43414960373065
 20
-80.92181631172664
 10
-74.6491108412519
 20
-81.45394051837296
 10
-73.93058198915315
 20
-81.84416186837274
 10
-72.840455187463
 20
-82.28795909177886
 10
-71.70172740999192
 20
-82.58566946795524
 10
-71.1202034489332
 20
-82.67804991909614
 10
-70.17427783434702
 20
-82.74636361878119
 10
-68.99852577632855
 20
-82.69214630299662
 10
-67.83990921993741
 20
-82.48492638473634
 10
-66.50609968463482
 20
-82.04201976065937
 10
-65.65274722247061
 20
-81.6282183527202
 10
-65.14679489134195
 20
-81.32702654727895
 10
-64.19931431026143
 20
-80.62873365189672
 10
-59.88843780989367
 20
-76.35379004518367
 10
-56.85903822010948
 20
-73.54436931321744
 10
-52.954921687219475
 20
-70.13178479781584
 10
-46.725026176522945
 20
-64.96204849225524
 10
-46.28778505725479
 20
-64.55469272048877
 10
-45.94380808474238
 20
-64.13027327619365
 10
-45.460785295091114
 20
-63.31799256721411
 10
-43.76642731066024
 20
-59.93253165742678
 10
-42.87354337986822
 20
-58.59213404314197
 10
-42.459918960851205
 20
-58.15147946641693
 10
-41.9663668139757
 20
-57.802670214374416
 10
-41.412917567546806
 20
-57.55986257935612
 10
-40.909673362770505
 20
-57.420572310677905
 10
-37.91156044918109
 20
-56.812666798228825
 10
-37.416328337782
 20
-56.641240340741845
 10
-36.726031297733456
 20
-56.26663747497897
 10
-36.1222775488356
 20
-55.76432410542847
 10
-35.43620453194814
 20
-54.89193371519933
 10
-33.82406417883326
 20
-51.83978372114127
 10
-33.18740326816118
 20
-50.2416701373776
 10
-32.87391133625826
 20
-49.76275229049515
 10
-32.47516520283432
 20
-49.35209304427001
 10
-32.00568097699603
 20
-49.02464219739409
 10
-31.661744965448634
 20
-48.85859382962855
 10
-28.87221089763381
 20
-47.823332423225196
 10
-26.413646528615025
 20
-46.81433035864139
 10
-25.75996844386235
 20
-46.40828187399951
 10
-25.372755168436413
 20
-46.07107862763544
 10
-24.88073350839955
 20
-45.47939873409463
 10
-24.41422362111803
 20
-44.581949786324415
 10
-22.71638772343455
 20
-39.22868312715141
 10
-22.33481676501265
 20
-38.39394286859818
 10
-21.82726424475737
 20
-37.785787509673106
 10
-21.178231648546454
 20
-37.331673878009745
 10
-20.625546075657237
 20
-37.111695057983574
 10
-18.024312027090684
 20
-36.688335926190014
 10
-17.49507579324486
 20
-36.53320754678421
 10
-16.747957368223755
 20
-36.19826567005247
 10
-16.103172657483867
 20
-35.77159903312806
 10
-15.552559769910868
 20
-35.22881252785468
 10
-15.248138300953054
 20
-34.81230951608563
 10
-14.898137731534046
 20
-34.122895747964726
 10
-14.527468220427139
 20
-33.078845256204154
 10
-14.219003940416023
 20
-32.59196884332246
 10
-13.823125278220605
 20
-32.17306678044655
 10
-13.354444504695547
 20
-31.83760115479874
 10
-13.009996107555986
 20
-31.66656710351417
 10
-11.591094863222644
 20
-31.216359419316777
 10
-11.140908482438864
 20
-30.975122651093574
 10
-10.725146478651801
 20
-30.678466432562878
 10
-10.316479619217672
 20
-30.297516617396223
 10
-1.9619771410901719
 20
-21.52224331543355
 10
-1.4865103365389398
 20
-21.18592508385137
 10
-1.1372082246128268
 20
-21.0156362415094
 10
-0.5793994402684428
 20
-20.84822060534311
 10
0.00024536623277907266
 20
-20.79173579835146
 10
0.5798814021879265
 20
-20.848310536061202
 10
1.1376642054254031
 20
-21.015812713770227
 10
1.6525728859565267
 20
-21.287929758143452
 10
1.9623545123202015
 20
-21.5225477437918
 10
7.409962139800608
 20
-27.23529284443896
 10
8.028999604849023
 20
-27.776446313153517
 10
8.468369775840182
 20
-28.04766148704664
 10
8.939026757503887
 20
-28.259995712544693
 10
9.965803248680631
 20
-28.546557021652255
 10
10.351245899938124
 20
-28.71306051709283
 10
12.875817391878327
 20
-30.020338523772022
 10
13.859556992263117
 20
-30.460378983912296
 10
14.48747810171232
 20
-30.905139112196732
 10
14.981608511317607
 20
-31.49499640824961
 10
15.244455269541815
 20
-32.00955523292808
 10
15.362622454451285
 20
-32.37653525871717
 10
15.449405387376892
 20
-32.94778645120283
 10
15.505905051412768
 20
-34.56369771550197
 10
15.610228276490083
 20
-35.0859224667859
 10
15.783027506594673
 20
-35.5896510169192
 10
16.02123729997109
 20
-36.065947269774206
 10
16.320631837750017
 20
-36.506361775543795
 10
16.67589988956946
 20
-36.903081623170024
 10
17.08073903429143
 20
-37.24906904063614
 10
17.76502395849605
 20
-37.659773704379
 10
18.517245785592674
 20
-37.92639422338174
 10
23.138439348415552
 20
-38.774345035127595
 10
23.668114654155204
 20
-38.996909134529965
 10
24.290144866169076
 20
-39.44245097002302
 10
24.553527392375074
 20
-39.72099508356314
 10
24.876790767355157
 20
-40.19595981725362
 10
25.103582678042553
 20
-40.72383872107527
 10
25.196918637271143
 20
-41.09565262212442
 10
25.411673210312685
 20
-44.47376040530382
 10
25.48004055255673
 20
-45.01075379454111
 10
25.603978621430837
 20
-45.48986388636035
 10
26.025322358440125
 20
-46.43845519423798
 10
26.310873125645013
 20
-46.88286580995519
 10
26.652516805150935
 20
-47.285754916617435
 10
27.044290243204475
 20
-47.64009036396789
 10
27.71077511925392
 20
-48.06728506721618
 10
28.24256232408918
 20
-48.29331161591458
 10
31.015040025516107
 20
-49.23241918606245
 10
31.528279210289003
 20
-49.49337328476258
 10
31.982213833490338
 20
-49.84756936079083
 10
32.36012338968282
 20
-50.281960739334586
 10
32.64808772722754
 20
-50.78054678277862
 10
32.784707313329555
 20
-51.13960930443002
 10
33.19889387466569
 20
-52.78465676286459
 10
33.51592967104034
 20
-53.519864344776316
 10
33.80615818098278
 20
-53.96842465764714
 10
34.15359940251563
 20
-54.37428613628972
 10
34.7682124393729
 20
-54.88740668704591
 10
35.472737246185176
 20
-55.267783712205656
 10
36.2478609420899
 20
-55.53163116826908
 10
38.41479441071995
 20
-55.848899256587465
 10
38.79013427149236
 20
-55.94596218711186
 10
39.321907842900934
 20
-56.18006847568064
 10
39.79858066680261
 20
-56.512291148822726
 10
40.31791131929233
 20
-57.085868098136295
 10
41.1412878692255
 20
-58.55451085623718
 10
43.382643233053294
 20
-61.96717751087071
 10
43.88752471389352
 20
-62.598477951966956
 10
44.45023078025918
 20
-63.10923656228988
 10
51.36603872846191
 20
-68.78998190825293
 10
56.08962727657005
 20
-72.85597357055956
 10
59.870074668738376
 20
-76.33621179432136
 10
63.761843317617405
 20
-80.23462275933763
 10
64.4790188144841
 20
-80.85518809561391
 10
65.1467948913424
 20
-81.3270265472792
 10
65.97125635342124
 20
-81.79575389600164
 10
67.27324262095242
 20
-82.3249475404042
 10
68.1909268047647
 20
-82.56431706368426
 10
68.77128408733432
 20
-82.66376398222638
 10
70.17427783434702
 20
-82.74636361878117
 10
71.1202034489332
 20
-82.67804991909613
 10
71.92603260999046
 20
-82.53950109563264
 10
72.49676970235362
 20
-82.39471353939987
 10
73.39278279671045
 20
-82.08390400827965
 10
74.64911084125198
 20
-81.45394051837289
 10
75.43414960373065
 20
-80.92181631172663
 10
76.06274371658519
 20
-80.39891493041392
 10
76.72888589654363
 20
-79.72386187622132
 10
77.24338875091632
 20
-79.08837527043323
 10
77.57702654727908
 20
-78.60320510865785
 10
78.0457538960017
 20
-77.77874364657863
 10
78.57494754040421
 20
-76.47675737904757
 10
78.81431706368427
 20
-75.55907319523524
 10
78.94214630299662
 20
-74.75147422367144
 10
78.99788510507776
 20
-73.80472440675216
 10
78.96570339797817
 20
-72.98770497551354
 10
78.8966506587852
 20
-72.40295204969861
 10
78.70545332367573
 20
-71.47403568697177
 10
78.46290799263082
 20
-70.69318475645976
 10
78.09416186837268
 20
-69.81941801084669
 10
77.3833793932023
 20
-68.60698144462707
 10
76.80105051369569
 20
-67.8584260986529
 10
75.10865404197436
 20
-66.02642552923648
 10
73.04315265648145
 20
-63.69005148411783
 10
69.713380214805
 20
-59.66284976464468
 10
66.4507619246084
 20
-55.45577041661498
 10
61.51375701758094
 20
-48.82330478028709
 10
60.94524180376507
 20
-48.25475081915611
 10
59.68947570364274
 20
-47.45441177409716
 10
59.146344522160014
 20
-46.90910894411716
 10
58.84018799139952
 20
-46.418936747922714
 10
58.24946942068217
 20
-45.0417717055128
 10
57.79683094303286
 20
-44.38365052551578
 10
57.4260896996538
 20
-44.00072084002732
 10
57.00770977014306
 20
-43.67050508002612
 10
56.549125803964415
 20
-43.398871209651645
 10
55.560727664576945
 20
-42.934576356257054
 10
55.090321788389005
 20
-42.563318193948184
 10
54.82189641296124
 20
-42.266922476181456
 10
54.49893036453338
 20
-41.76213812321873
 10
54.34231265903814
 20
-41.394206746452085
 10
54.23601980840162
 20
-41.008714290510916
 10
53.99576739011231
 20
-39.55902444834209
 10
53.82449934659172
 20
-39.062167241909684
 10
53.589544978149874
 20
-38.59206483703887
 10
53.14093091375619
 20
-37.929816267901224
 10
52.78582725589588
 20
-37.53182973390379
 10
52.380909989424744
 20
-37.18464981457854
 10
51.48814144907513
 20
-36.596339538016494
 10
50.93260238304734
 20
-36.00932643804815
 10
50.63026946387652
 20
-35.48301402686969
 10
50.171036518998264
 20
-34.15255490268646
 10
49.919178875052594
 20
-33.70084819678193
 10
49.43759944332031
 20
-33.0935248175504
 10
48.84789404999493
 20
-32.59052582638653
 10
48.17222208076338
 20
-32.2107524386624
 10
47.388953866491455
 20
-31.95630945266173
 10
44.468930260200786
 20
-31.313505762067198
 10
43.785954995908455
 20
-30.976461504313672
 10
43.20986235902338
 20
-30.478293543635154
 10
42.97383825462636
 20
-30.17846855550177
 10
42.69575932861401
 20
-29.678743724147953
 10
42.203783791458854
 20
-28.245115524003534
 10
40.24220309281282
 20
-23.480663015374738
 10
39.976113343706324
 20
-23.01814253537475
 10
39.650804711100406
 20
-22.595172982627584
 10
39.0647438604951
 20
-22.051129762021134
 10
38.61878533563936
 20
-21.758128152626956
 10
37.70844552290093
 20
-21.33835556491655
 10
33.17721146161027
 20
-19.996092438710704
 10
32.49817720093972
 20
-19.615006214141264
 10
31.940091564788077
 20
-19.072001001972723
 10
31.623898696264654
 20
-18.580149367781342
 10
31.345903331155043
 20
-17.85336717358232
 10
30.441473369998935
 20
-13.348253747584282
 10
30.182453588856816
 20
-12.650892315564978
 10
29.939763004812168
 20
-12.217932193417717
 10
29.449027952096834
 20
-11.598286002381561
 10
20.341172026851154
 20
-1.9953838261216517
 10
19.991652209672107
 20
-1.5144177123392122
 10
19.743847134814835
 20
-0.9739686859890466
 10
19.640135444318364
 20
-0.5910343777489702
 10
19.581332858327325
 20
0.0006029783135286744
 10
19.64036110526275
 20
0.5922178625681338
 10
19.744218848896793
 20
0.975112584731011
 10
19.897692923770627
 20
1.3409547740894325
 10
20.21483739125823
 20
1.8438582359485314
 10
25.555056149083605
 20
7.495708567064076
 10
25.928840272989483
 20
7.943610017493688
 10
26.21171933177079
 20
8.395720943487975
 10
26.43191166755023
 20
8.881457689642106
 10
26.585499746748873
 20
9.392178311145242
 10
26.669751019864172
 20
9.918796364651621
 10
26.704858062823444
 20
10.836932335248344
 10
27.178523236038824
 20
13.365761626827572
 10
27.477168984505834
 20
14.103624963124208
 10
27.823255753404524
 20
14.591030365442986
 10
28.42144062297045
 20
15.116203144583928
 10
28.949543711808165
 20
15.396287427213878
 10
30.406232895038087
 20
15.838986496650785
 10
33.68739766203957
 20
17.084026738584555
 10
34.37922298607289
 20
17.38615862862035
 10
35.04418003555638
 20
17.811672840814634
 10
35.435292630948254
 20
18.164552968882276
 10
35.776620655154034
 20
18.565786849494298
 10
36.06223951141432
 20
19.00841007076458
 10
36.28719157413095
 20
19.48473980586284
 10
36.44757224078874
 20
19.986508167581267
 10
36.54772477377264
 20
20.5539622409121
 10
36.86200232062748
 20
23.358288568954524
 10
36.986576328662004
 20
23.94009298455859
 10
37.13254155493583
 20
24.309311145453496
 10
37.4394818649756
 20
24.819019598951044
 10
37.99318859072767
 20
25.38572915779577
 10
38.49563641769571
 20
25.704415904726464
 10
39.24429730195969
 20
25.963756882210006
 10
41.81241105112915
 20
26.177826036899962
 10
42.61180173235266
 20
26.373963933403928
 10
43.11501172763299
 20
26.59415161744543
 10
43.548892503906615
 20
26.846982136790718
 10
44.03673195598534
 20
27.19185872092558
 10
44.43448051761157
 20
27.566142358306262
 10
44.777510339279125
 20
27.991139653513656
 10
45.17576468625736
 20
28.70615355260507
 10
46.49517375266634
 20
32.61402037480584
 10
46.66158128560082
 20
32.97446009199043
 10
46.99656521396666
 20
33.46614779648243
 10
47.42199172002972
 20
33.88206043027828
 10
48.10056400990656
 20
34.29097684482894
 10
50.0539660896266
 20
34.890082002115626
 10
50.72228249016221
 20
35.20340897209514
 10
51.37692124567632
 20
35.64538206781736
 10
51.94592467010557
 20
36.1814991833583
 10
52.39972994147811
 20
36.8180895023725
 10
52.62949798408643
 20
37.28641421339779
 10
52.796340586150876
 20
37.78066610716987
 10
53.01679920411139
 20
38.914535356923295
 10
53.24418764701676
 20
39.46172959620087
 10
53.45378561344326
 20
39.797003120670055
 10
53.99542322054472
 20
40.37082494876655
 10
54.318054035605186
 20
40.59940535237441
 10
55.32386069256087
 20
41.1338145619238
 10
55.748100333635264
 20
41.45793636035273
 10
56.12537539434904
 20
41.8356899067811
 10
56.448959224260335
 20
42.26034001957454
 10
56.736419653968866
 20
42.76869627389419
 10
56.94024881870614
 20
43.21356270129296
 10
57.26765017591688
 20
44.18261411873312
 10
57.66624796783096
 20
44.84366133043319
 10
58.06908347146848
 20
45.260449143911416
 10
59.21294261098305
 20
46.08511966212424
 10
59.57483203738361
 20
46.462751210607664
 10
59.88433210913686
 20
46.88438997653793
 10
60.329703260866815
 20
47.81177328482883
 10
61.27068902891308
 20
50.63634441615076
 10
61.65031566765928
 20
51.30159730835923
 10
62.23026699626251
 20
51.88395475894144
 10
64.63842645926842
 20
53.443550574374086
 10
65.10515196492669
 20
53.80272085429594
 10
65.4827344501909
 20
54.18650738896724
 10
68.40259026527298
 20
57.99961508522378
 10
71.03875904771897
 20
61.301923617482295
 10
73.72594777201681
 20
64.47685656581457
 10
76.80105051369533
 20
67.85842609865263
 10
77.38337939320225
 20
68.60698144462712
 10
78.09416186837268
 20
69.81941801084689
 10
78.46290799263087
 20
70.69318475646014
 10
78.7054533236757
 20
71.47403568697202
 10
78.83566946795514
 20
72.04827259000793
 10
78.96570339797809
 20
72.98770497551325
 10
78.97504079493062
 20
74.39309707992246
 10
78.85750093327877
 20
75.33417434073374
 10
78.67712588627683
 20
76.1316837486489
 10
78.50277792368786
 20
76.6940955666079
 10
78.14567441768875
 20
77.57268484260537
 10
77.45106478845048
 20
78.79445880577762
 10
77.10518809561387
 20
79.27098118551596
 10
76.48462275933727
 20
79.98815668238298
 10
75.89157390134736
 20
80.55105051369543
 10
75.14301855537286
 20
81.13337939320235
 10
73.9305819891531
 20
81.84416186837278
 10
73.0568152435403
 20
82.21290799263082
 10
72.49676970235348
 20
82.39471353939993
 10
71.70172740999246
 20
82.58566946795517
 10
70.76229502448656
 20
82.7157033979782
 10
69.94527559324776
 20
82.7478851050778
 10
68.99852577632811
 20
82.69214630299663
 10
68.19092680476469
 20
82.56431706368431
 10
67.27324262095236
 20
82.32494754040425
 10
66.50609968463476
 20
82.04201976065941
 10
65.65274722247055
 20
81.62821835272024
 10
64.47901881448402
 20
80.85518809561397
 10
63.76184331761735
 20
80.23462275933768
 10
59.88843780989409
 20
76.35379004518417
 10
56.87391019737912
 20
73.55776645802253
 10
52.96505761144519
 20
70.1404180657584
 10
47.93010562047728
 20
65.9346310758298
 10
47.43341444462732
 20
65.37637366711563
 10
47.16389517250582
 20
64.95694627039974
 10
46.67383262123743
 20
63.9829731989643
 10
46.1668437519457
 20
63.39225591782788
 10
45.52493731822392
 20
62.95186887196311
 10
44.35196745323415
 20
62.54140012453336
 10
43.86821730722602
 20
62.31031319571794
 10
43.41973119656833
 20
62.016586143883714
 10
43.014572291105104
 20
61.665499781636605
 10
42.66002479650285
 20
61.26336616391316
 10
42.21740145043418
 20
60.6026501622489
 10
41.73482311816543
 20
59.48243609671846
 10
41.53596760449869
 20
59.12800832223744
 10
41.004516022856215
 20
58.51549015649845
 10
40.328428666804705
 20
58.06768978358903
 10
37.73369813848703
 20
57.176543811095996
 10
37.27333368460235
 20
56.95569729202637
 10
36.84486686993688
 20
56.67798376315865
 10
36.277088118749354
 20
56.16492984551291
 10
35.92871770571428
 20
55.72836976075992
 10
35.53620919856028
 20
55.11132023694206
 10
35.08578441656679
 20
54.118920669078314
 10
34.599396186321236
 20
53.49136690296491
 10
33.96541542463779
 20
53.013386114962096
 10
32.830838536959504
 20
52.5642805022803
 10
32.369016501112604
 20
52.32465301449009
 10
31.942219546557606
 20
52.02708741620787
 10
31.557674314254857
 20
51.67662216827082
 10
31.074098713296436
 20
51.064938932487095
 10
30.71843657907595
 20
50.37103246251955
 10
30.49387513054195
 20
49.57353737778845
 10
29.855553565536447
 20
45.97328882609134
 10
29.529976352531882
 20
45.2584017368345
 10
29.02998213866712
 20
44.65253883310486
 10
28.5607598851572
 20
44.29504262275847
 10
28.016207043422718
 20
44.03090774713231
 10
22.764257998962627
 20
42.34701213938942
 10
22.279215270410532
 20
42.11808196432478
 10
21.619844740701417
 20
41.65842366171625
 10
21.237261624832907
 20
41.282517246462504
 10
20.908433255935755
 20
40.85878693437135
 10
20.266638464452285
 20
39.604284438752245
 10
19.925006973650937
 20
39.14844736528822
 10
19.347599328185588
 20
38.65637351979651
 10
18.489885181666804
 20
38.192173099282535
 10
17.844743798122103
 20
37.73060778447156
 10
17.47637524258281
 20
37.38810239225268
 10
17.153921765468443
 20
37.002059529987406
 10
16.882486060858994
 20
36.57858816770616
 10
16.580149161351923
 20
35.88799771764005
 10
16.30564866964303
 20
34.54386916198316
 10
16.178121032815177
 20
34.16872578637976
 10
15.897143771749917
 20
33.645610196317435
 10
15.51863685842452
 20
33.188083521284305
 10
15.057429274427623
 20
32.81407054521832
 10
14.531590012770593
 20
32.53822418816067
 10
14.155217029506545
 20
32.414372551583135
 10
13.111214513317904
 20
32.247495916529935
 10
12.605694362242618
 20
32.099812243085665
 10
12.123969522271407
 20
31.886968946033303
 10
11.464131838236367
 20
31.453901134106907
 10
11.041988424666965
 20
31.0618919659946
 10
2.1048454148901157
 20
21.654079933440077
 10
1.6521591176742731
 20
21.28767339496438
 10
1.1372082246127733
 20
21.01563624150938
 10
0.5793994402683776
 20
20.848220605343098
 10
-0.0002453662328546213
 20
20.791735798351457
 10
-0.3880278992795073
 20
20.81693425636257
 10
-0.9554881674878387
 20
20.947958983531382
 10
-1.4869398929787154
 20
21.186155747987794
 10
-1.9623545123202866
 20
21.52254774379186
 10
-7.226712848386359
 20
27.042226626698934
 10
-7.87812677524864
 20
27.60652685073104
 10
-8.633362933869765
 20
28.02172944184064
 10
-9.308601829290842
 20
28.27761161236501
 10
-9.782508045555527
 20
28.38491029465192
 10
-10.584530328706172
 20
28.46359570459618
 10
-11.164735524964664
 20
28.60724741655386
 10
-11.704945512328754
 20
28.863073634259973
 10
-12.1837155218626
 20
29.220918799219188
 10
-12.582039773465834
 20
29.666577496765253
 10
-12.961211352819227
 20
30.36639420859161
 10
-13.117012735691532
 20
30.943455568594864
 10
-13.244647069503
 20
32.25904512845931
 10
-13.375489463236498
 20
32.75853476288068
 10
-13.569608480431148
 20
33.23699838120055
 10
-13.972073792244602
 20
33.897944884790405
 10
-14.308050502770973
 20
34.290028137271506
 10
-14.691752300933096
 20
34.63554594720233
 10
-15.116780514679146
 20
34.92873640477583
 10
-15.619869959667016
 20
35.18546564565763
 10
-19.478089970940722
 20
36.86245048520034
 10
-20.620085426455187
 20
37.26179308385964
 10
-21.121853215698142
 20
37.53975781579473
 10
-21.42292363579378
 20
37.77606928895836
 10
-21.812133803981745
 20
38.197437004262476
 10
-22.193251840466004
 20
38.85948747650065
 10
-23.57536044960651
 20
43.32146732836891
 10
-23.932931744420266
 20
44.03022271077624
 10
-24.42347895879542
 20
44.65436600637017
 10
-25.067583235135192
 20
45.19898484094954
 10
-25.724647766939515
 20
45.605887954180716
 10
-30.03205988795964
 20
47.38870849427705
 10
-30.67407087114082
 20
47.70211430656489
 10
-31.163718033661226
 20
48.04123071858571
 10
-31.576720174863937
 20
48.47039678903878
 10
-31.980544108312067
 20
49.15302738462781
 10
-32.11133474968233
 20
49.528329204072854
 10
-32.6094048029207
 20
51.736297752085875
 10
-32.77349424806219
 20
52.21677754811089
 10
-33.122032532853645
 20
52.95609141198237
 10
-33.41391546445685
 20
53.3782902550599
 10
-33.75747840726016
 20
53.75961952641148
 10
-34.357128573843006
 20
54.24144743835176
 10
-34.803493158693406
 20
54.49483679536719
 10
-37.68340720329462
 20
55.65850823629322
 10
-39.15588651414348
 20
56.201819169746344
 10
-39.52048162088445
 20
56.377077454405786
 10
-40.015008157893085
 20
56.72771509596036
 10
-40.42894603527405
 20
57.170613148733295
 10
-40.74539264015527
 20
57.687686448894745
 10
-41.50286607617496
 20
59.90943112746121
 10
-41.73806192549338
 20
60.46270386620927
 10
-42.18724134163138
 20
61.153005926359775
 10
-42.561393184649006
 20
61.55557633654844
 10
-50.5602420548355
 20
68.11708638690457
 10
-55.32720505687432
 20
72.18225013709433
 10
-59.14545558265874
 20
75.64842439215367
 10
-61.351241896793354
 20
77.77899750770113
 10
-63.76184331761742
 20
80.23462275933763
 10
-64.47901881448412
 20
80.85518809561391
 10
-65.14679489134241
 20
81.3270265472792
 10
-65.97125635342125
 20
81.79575389600164
 10
-67.27324262095243
 20
82.3249475404042
 10
-67.83990921993743
 20
82.48492638473633
 10
-68.7712840873339
 20
82.66376398222631
 10
-70.17427783434707
 20
82.74636361878117
 10
-71.1202034489329
 20
82.67804991909617
 10
-71.92603260999047
 20
82.53950109563264
 10
-72.49676970235363
 20
82.39471353939987
 10
-73.39278279671049
 20
82.08390400827965
 10
-74.649110841252
 20
81.45394051837289
 10
-75.43414960373066
 20
80.92181631172663
 10
-76.0627437165852
 20
80.39891493041392
 10
-76.72888589654364
 20
79.72386187622132
 10
-77.10518809561404
 20
79.27098118551575
 10
-77.57702654727923
 20
78.60320510865759
 10
-78.04575389600167
 20
77.77874364657875
 10
-78.57494754040422
 20
76.47675737904757
 10
-78.81431706368429
 20
75.55907319523529
 10
-78.94214630299663
 20
74.75147422367147
 10
-78.99788510507777
 20
73.80472440675216
 10
-78.96570339797819
 20
72.98770497551354
 10
-78.89665065878522
 20
72.40295204969861
 10
-78.7054533236758
 20
71.47403568697206
 10
-78.24486297458807
 20
70.14622896743681
 10
-77.81975928470722
 20
69.29845017391582
 10
-77.38337939320232
 20
68.60698144462707
 10
-76.8010505136957
 20
67.8584260986529
 10
-75.10865404197445
 20
66.02642552923653
 10
-73.05997780076588
 20
63.70960461412561
 10
-70.36139759560584
 20
60.46988304017077
 10
-67.0957010200085
 20
56.30434414706948
 10
-61.843053901074605
 20
49.23630045274273
 10
-61.45788683411057
 20
48.776175905761804
 10
-61.05043017406107
 20
48.40889443501307
 10
-60.176437426592315
 20
47.838905788840286
 10
-57.292260081572095
 20
46.72964641558009
 10
-56.79438312038781
 20
46.44824167083536
 10
-56.23049985825193
 20
45.93626479164256
 10
-55.81371683395953
 20
45.29878807143493
 10
-55.27683815871158
 20
43.98824911897825
 10
-54.06543448128081
 20
39.79673544747539
 10
-53.8825959123332
 20
39.29162297633999
 10
-53.52741208183017
 20
38.64692702929574
 10
-52.90418259457492
 20
37.918684418766304
 10
-52.27339114465002
 20
37.39004066178897
 10
-49.00946415734297
 20
35.48463126043122
 10
-47.581958276597156
 20
34.80003494574575
 10
-47.254514189514964
 20
34.58030451487289
 10
-46.82431066664609
 20
34.175123014798864
 10
-46.481882994611375
 20
33.69346918836756
 10
-46.18426284391214
 20
32.96495022267706
 10
-45.81652213416236
 20
30.508948529120065
 10
-45.62293570415187
 20
29.722985086909667
 10
-45.30116773763742
 20
29.03246137890803
 10
-44.679786985597346
 20
28.191918300943986
 10
-44.08700268711969
 20
27.646370523568407
 10
-43.39688850743007
 20
27.230728825813703
 10
-42.896446733010826
 20
27.034376621345192
 10
-40.5859411008077
 20
26.428711342257994
 10
-40.05853932047973
 20
26.159406000069765
 10
-39.45681980320186
 20
25.649717684038905
 10
-39.008701425109024
 20
25.00084290706962
 10
-38.79250352884764
 20
24.449538567456386
 10
-38.68881023060192
 20
23.866507088783788
 10
-38.63083793033725
 20
22.738801740854555
 10
-38.51844393656585
 20
22.251752951677997
 10
-38.346162142965426
 20
21.78253241028199
 10
-38.000446867359244
 20
21.141490159427022
 10
-37.69063923658305
 20
20.68827934938744
 10
-37.356733032162126
 20
20.31359730704721
 10
-36.97852131571672
 20
19.983694467189295
 10
-36.56196249178875
 20
19.703768169012715
 10
-36.11361909104757
 20
19.478228413726
 10
-32.322494725993685
 20
18.118147150001626
 10
-31.800947410762657
 20
17.828854458238293
 10
-31.213795937382304
 20
17.29407658466767
 10
-30.87717376998034
 20
16.801748056197123
 10
-30.591904704070174
 20
16.060562663202784
 10
-30.511583002977844
 20
15.469588646966871
 10
-30.578311205410085
 20
14.403711522289683
 10
-30.509040326460525
 20
13.644512558069428
 10
-30.296938397481238
 20
12.912259668920507
 10
-30.079787604149445
 20
12.452275948838677
 10
-29.805995865205347
 20
12.023583082708443
 10
-29.448229860101854
 20
11.59744515545827
 10
-20.341172026851144
 20
1.9953838261216348
 10
-19.991652209672107
 20
1.5144177123392035
 10
-19.81445927729868
 20
1.159456497711688
 10
-19.60748982858097
 20
0.39526393376691704
 10
-19.587935989390925
 20
-0.1989667895895673
 10
-19.68595363231157
 20
-0.7853839166280963
 10
-19.897692923770613
 20
-1.3409547740893768
 10
-20.214837391258193
 20
-1.8438582359484696
 10
-26.134144037877263
 20
-8.120830700018097
 10
-26.576632112492934
 20
-8.775509756929315
 10
-27.027802279489517
 20
-9.749041296488395
 10
-27.376754355373098
 20
-10.22974301573423
 10
-27.8135782864683
 20
-10.632268229071107
 10
-28.98934248718459
 20
-11.379026553251355
 10
-29.38034688316085
 20
-11.741272139028936
 10
-29.86807157155386
 20
-12.373869342740063
 10
-30.239347267742378
 20
-13.137094385871489
 10
-32.4030675285828
 20
-18.923930449457036
 10
-32.6642112930996
 20
-19.44865082861379
 10
-32.89299159203578
 20
-19.76584085302307
 10
-33.46394948362235
 20
-20.29801332034062
 10
-34.152862951124376
 20
-20.664890252335756
 10
-34.719117981554994
 20
-20.816160813121485
 10
-36.48364219022656
 20
-20.996009746795423
 10
-37.284361907268824
 20
-21.150267402185413
 10
-37.995250011936534
 20
-21.439432350712003
 10
-38.63779867822009
 20
-21.859086346608446
 10
-39.01637793843741
 20
-22.203896839319995
 10
-39.49406649909642
 20
-22.804556396665074
 10
-39.84819995730582
 20
-23.48541450125895
 10
-40.22196302370976
 20
-24.50190009855236
 10
-40.52991401394372
 20
-24.980046382079998
 10
-40.78308602111589
 20
-25.262717791631893
 10
-41.38581589218215
 20
-25.721421936356094
 10
-42.38564052725519
 20
-26.222597808717413
 10
-43.00486850397064
 20
-26.702171722289897
 10
-43.360458096386914
 20
-27.08516009741887
 10
-43.66305853433109
 20
-27.51125519088343
 10
-44.27390853326862
 20
-28.704455663159354
 10
-44.814284101585734
 20
-29.310672256095707
 10
-45.315865233689514
 20
-29.657640620745262
 10
-46.59879762905396
 20
-30.22938606743372
 10
-47.0375359805379
 20
-30.528778621659463
 10
-47.4327182721208
 20
-30.883684523283907
 10
-47.92880923291778
 20
-31.506189085353366
 10
-48.29175469406349
 20
-32.214630165059624
 10
-48.507169682858546
 20
-32.980929423694235
 10
-48.70119504729456
 20
-34.686534528143596
 10
-48.792861026970726
 20
-35.071599058515005
 10
-49.02318049083249
 20
-35.61825896513905
 10
-49.35656039494423
 20
-36.10891357734425
 10
-49.77996617369506
 20
-36.52437916612892
 10
-50.276843408731914
 20
-36.848411760547926
 10
-52.68540669599
 20
-37.918220740637146
 10
-53.368417532922855
 20
-38.301214508125916
 10
-53.932444286599484
 20
-38.77556565929608
 10
-54.58151143450992
 20
-39.55461959759004
 10
-54.93893793980878
 20
-40.20915895497156
 10
-56.335659910188454
 20
-44.16184208551807
  0
LWPOLYLINE
  5
3E
330
17
100
AcDbEntity
  8
GUIDE
100
AcDbPolyline
 90
7
 70
1
 10
-90.49353826950536
 20
94.24353826950538
 10
0.0
 20
94.24353826950538
 10
0.0
 20
88.24353826950538
 10
6.0
 20
94.24353826950538
 10
90.49353826950534
 20
94.24353826950538
 10
90.49353826950534
 20
-94.24353826950534
 10
-90.49353826950536
 20
-94.24353826950534
  0
LWPOLYLINE
  5
3F
330
17
100
AcDbEntity
  8
ORIENT
100
AcDbPolyline
 90
7
 70
1
 10
0.0
 20
77.31201628363033
 10
2.5
 20
72.31201628363033
 10
0.7
 20
72.31201628363033
 10
0.7
 20
41.312016283630335
 10
-0.7
 20
41.312016283630335
 10
-0.7
 20
72.31201628363033
 10
-2.5
 20
72.31201628363033
  0
LWPOLYLINE
  5
40
330
17
100
AcDbEntity
  8
CHECK
100
AcDbPolyline
 90
4
 70
1
 10
-99.0
 20
110.75
 10
-49.0
 20
110.75
 10
-49.0
 20
160.75
 10
-99.0
 20
160.75
  0
LINE
  5
41
330
17
100
AcDbEntity
  8
CENTRE
100
AcDbLine
 10
0.0
 20
-102.75
 30
0.0
 11
0.0
 21
102.75
 31
0.0
  0
LINE
  5
42
330
17
100
AcDbEntity
  8
CENTRE
100
AcDbLine
 10
-99.0
 20
0.0
 30
0.0
 11
99.0
 21
0.0
 31
0.0
  0
LINE
  5
43
330
17
100
AcDbEntity
  8
CHECK
100
AcDbLine
 10
-99.0
 20
110.75
 30
0.0
 11
-49.0
 21
160.75
 31
0.0
  0
TEXT
  5
44
330
17
100
AcDbEntity
  8
CHECK
100
AcDbText
 10
-96.0
 20
139.75
 30
0.0
 40
3.0
  1
CHECK 50 X 50 MM
100
AcDbText
  0
TEXT
  5
45
330
17
100
AcDbEntity
  8
CHECK
100
AcDbText
 10
-96.0
 20
133.75
 30
0.0
 40
3.0
  1
MEASURE AFTER IMPORT
100
AcDbText
  0
TEXT
  5
46
330
17
100
AcDbEntity
  8
ORIENT
100
AcDbText
 10
4.0
 20
72.71201628363033
 30
0.0
 40
2.23
  1
FACE UP / NECK
100
AcDbText
  0
TEXT
  5
47
330
17
100
AcDbEntity
  8
NOTES
100
AcDbText
 10
-99.0
 20
-110.75
 30
0.0
 40
3.0
  1
CS-XTEE-01 X TEMPLATE 150 MM, PROPOSAL, NOT FINAL. v0.1 2026-09-29
100
AcDbText
  0
TEXT
  5
48
330
17
100
AcDbEntity
  8
NOTES
100
AcDbText
 10
-99.0
 20
-115.75
 30
0.0
 40
3.0
  1
FACE VIEW (OUTSIDE). DO NOT MIRROR OR ROTATE. CUT GUIDE, STITCH STENCIL AND EMBROIDERY PROGRAM MUST USE THE SAME ORIENTATION.
100
AcDbText
  0
TEXT
  5
49
330
17
100
AcDbEntity
  8
NOTES
100
AcDbText
 10
-99.0
 20
-120.75
 30
0.0
 40
3.0
  1
UNITS MM. CHECK SQUARE = 50 X 50 MM (LAYER CHECK). ORIGIN = X CENTRE ON CF. +Y = TOWARDS NECK.
100
AcDbText
  0
TEXT
  5
4A
330
17
100
AcDbEntity
  8
NOTES
100
AcDbText
 10
-99.0
 20
-125.75
 30
0.0
 40
3.0
  1
GUIDE = MIN. SHEET FOR CUT GUIDE, STITCH STENCIL AND PLACEMENT TEMPLATE, WITH ASYMMETRIC REGISTRATION NOTCH AT CF TOP (STRAIGHT SIDE ON CF, SLOPE TO +X).
100
AcDbText
  0
TEXT
  5
4B
330
17
100
AcDbEntity
  8
NOTES
100
AcDbText
 10
-99.0
 20
-130.75
 30
0.0
 40
3.0
  1
ORIENT = ENGRAVE ARROW + FACE UP / NECK ON ALL TOOLING. CUT GUIDE ALSO CARRIES THE STITCH_FOLLOW LINE: EACH TOOTH MUST SIT WHERE THE STITCH STEPS IN.
100
AcDbText
  0
TEXT
  5
4C
330
17
100
AcDbEntity
  8
NOTES
100
AcDbText
 10
-99.0
 20
-135.75
 30
0.0
 40
3.0
  1
CUT_JAG TEETH 3-8 MM DEEP (LESS WHERE THE ARM NARROWS), 5-15 MM APART, STAGGERED; BOTH SIDES TOGETHER <= 40% OF ARM WIDTH; VISIBLE BROWN >= 10 MM; NO TEETH IN THE LAST 16 MM BEFORE EACH TIP.
100
AcDbText
  0
TEXT
  5
4D
330
17
100
AcDbEntity
  8
NOTES
100
AcDbText
 10
-99.0
 20
-140.75
 30
0.0
 40
3.0
  1
STITCH = MACHINE PATH. CUT_JAG = CUT CREAM ONLY (EDGE B, BOTH PROTOS). PATCH = UNDER-PATCH CUT (STITCH + 10).
100
AcDbText
  0
TEXT
  5
4E
330
17
100
AcDbEntity
  8
NOTES
100
AcDbText
 10
-99.0
 20
-145.75
 30
0.0
 40
3.0
  1
BASE = STITCH OFFSET 4 MM INWARD, R >= 7. EDGE A: CUT FREEHAND 0-3 MM INSIDE BASE. B VALLEYS SIT ON BASE.
100
AcDbText
  0
TEXT
  5
4F
330
17
100
AcDbEntity
  8
NOTES
100
AcDbText
 10
-99.0
 20
-150.75
 30
0.0
 40
3.0
  1
STITCH_FOLLOW = PROTO B STITCH, FOLLOWS THE JAG (>= 4 MM FROM CUT).
100
AcDbText
  0
TEXT
  5
50
330
17
100
AcDbEntity
  8
NOTES
100
AcDbText
 10
-99.0
 20
-155.75
 30
0.0
 40
3.0
  1
150 MM FILE: OUTLINE BASED ON THE 200 MM X, TIPS KEPT AT 10 MM. USE THIS FILE; DO NOT SCALE THE 200 MM FILE.
100
AcDbText
  0
ENDSEC
  0
SECTION
  2
OBJECTS
  0
DICTIONARY
  5
A
330
0
100
AcDbDictionary
281
1
  3
ACAD_COLOR
350
B
  3
ACAD_GROUP
350
C
  3
ACAD_LAYOUT
350
D
  3
ACAD_MATERIAL
350
E
  3
ACAD_MLEADERSTYLE
350
F
  3
ACAD_MLINESTYLE
350
10
  3
ACAD_PLOTSETTINGS
350
11
  3
ACAD_PLOTSTYLENAME
350
12
  3
ACAD_SCALELIST
350
14
  3
ACAD_TABLESTYLE
350
15
  3
ACAD_VISUALSTYLE
350
16
  3
EZDXF_META
350
2D
  0
DICTIONARY
  5
B
330
A
100
AcDbDictionary
281
1
  0
DICTIONARY
  5
C
330
A
100
AcDbDictionary
281
1
  0
DICTIONARY
  5
D
330
A
100
AcDbDictionary
281
1
  3
Model
350
1A
  3
Layout1
350
1E
  0
DICTIONARY
  5
E
330
A
100
AcDbDictionary
281
1
  3
ByBlock
350
1F
  3
ByLayer
350
20
  3
Global
350
21
  0
DICTIONARY
  5
F
330
A
100
AcDbDictionary
281
1
  3
Standard
350
2C
  0
DICTIONARY
  5
10
330
A
100
AcDbDictionary
281
1
  3
Standard
350
22
  0
DICTIONARY
  5
11
330
A
100
AcDbDictionary
281
1
  0
ACDBDICTIONARYWDFLT
  5
12
330
A
100
AcDbDictionary
281
1
  3
Normal
350
13
100
AcDbDictionaryWithDefault
340
13
  0
ACDBPLACEHOLDER
  5
13
330
12
  0
DICTIONARY
  5
14
330
A
100
AcDbDictionary
281
1
  0
DICTIONARY
  5
15
330
A
100
AcDbDictionary
281
1
  0
DICTIONARY
  5
16
330
A
100
AcDbDictionary
281
1
  0
LAYOUT
  5
1A
330
D
100
AcDbPlotSettings
  1

  4
A3
  6

 40
7.5
 41
20.0
 42
7.5
 43
20.0
 44
420.0
 45
297.0
 46
0.0
 47
0.0
 48
0.0
 49
0.0
140
0.0
141
0.0
142
1.0
143
1.0
 70
1024
 72
1
 73
0
 74
5
  7

 75
16
 76
0
 77
2
 78
300
147
1.0
148
0.0
149
0.0
100
AcDbLayout
  1
Model
 70
1
 71
0
 10
0.0
 20
0.0
 11
420.0
 21
297.0
 12
0.0
 22
0.0
 32
0.0
 14
1e+20
 24
1e+20
 34
1e+20
 15
-1e+20
 25
-1e+20
 35
-1e+20
146
0.0
 13
0.0
 23
0.0
 33
0.0
 16
1.0
 26
0.0
 36
0.0
 17
0.0
 27
1.0
 37
0.0
 76
1
330
17
  0
LAYOUT
  5
1E
330
D
100
AcDbPlotSettings
  1

  4
A3
  6

 40
7.5
 41
20.0
 42
7.5
 43
20.0
 44
420.0
 45
297.0
 46
0.0
 47
0.0
 48
0.0
 49
0.0
140
0.0
141
0.0
142
1.0
143
1.0
 70
0
 72
1
 73
0
 74
5
  7

 75
16
 76
0
 77
2
 78
300
147
1.0
148
0.0
149
0.0
100
AcDbLayout
  1
Layout1
 70
1
 71
1
 10
0.0
 20
0.0
 11
420.0
 21
297.0
 12
0.0
 22
0.0
 32
0.0
 14
1e+20
 24
1e+20
 34
1e+20
 15
-1e+20
 25
-1e+20
 35
-1e+20
146
0.0
 13
0.0
 23
0.0
 33
0.0
 16
1.0
 26
0.0
 36
0.0
 17
0.0
 27
1.0
 37
0.0
 76
1
330
1B
  0
MATERIAL
  5
1F
102
{ACAD_REACTORS
330
E
102
}
330
E
100
AcDbMaterial
  1
ByBlock
  2

 70
0
 40
1.0
 71
1
 41
1.0
 91
-1023410177
 42
1.0
 72
1
  3

 73
1
 74
1
 75
1
 44
0.5
 73
0
 45
1.0
 46
1.0
 77
1
  4

 78
1
 79
1
170
1
 48
1.0
171
1
  6

172
1
173
1
174
1
140
1.0
141
1.0
175
1
  7

176
1
177
1
178
1
143
1.0
179
1
  8

270
1
271
1
272
1
145
1.0
146
1.0
273
1
  9

274
1
275
1
276
1
 42
1.0
 72
1
  3

 73
1
 74
1
 75
1
 94
63
  0
MATERIAL
  5
20
102
{ACAD_REACTORS
330
E
102
}
330
E
100
AcDbMaterial
  1
ByLayer
  2

 70
0
 40
1.0
 71
1
 41
1.0
 91
-1023410177
 42
1.0
 72
1
  3

 73
1
 74
1
 75
1
 44
0.5
 73
0
 45
1.0
 46
1.0
 77
1
  4

 78
1
 79
1
170
1
 48
1.0
171
1
  6

172
1
173
1
174
1
140
1.0
141
1.0
175
1
  7

176
1
177
1
178
1
143
1.0
179
1
  8

270
1
271
1
272
1
145
1.0
146
1.0
273
1
  9

274
1
275
1
276
1
 42
1.0
 72
1
  3

 73
1
 74
1
 75
1
 94
63
  0
MATERIAL
  5
21
102
{ACAD_REACTORS
330
E
102
}
330
E
100
AcDbMaterial
  1
Global
  2

 70
0
 40
1.0
 71
1
 41
1.0
 91
-1023410177
 42
1.0
 72
1
  3

 73
1
 74
1
 75
1
 44
0.5
 73
0
 45
1.0
 46
1.0
 77
1
  4

 78
1
 79
1
170
1
 48
1.0
171
1
  6

172
1
173
1
174
1
140
1.0
141
1.0
175
1
  7

176
1
177
1
178
1
143
1.0
179
1
  8

270
1
271
1
272
1
145
1.0
146
1.0
273
1
  9

274
1
275
1
276
1
 42
1.0
 72
1
  3

 73
1
 74
1
 75
1
 94
63
  0
MLINESTYLE
  5
22
102
{ACAD_REACTORS
330
10
102
}
330
10
100
AcDbMlineStyle
  2
Standard
 70
0
  3

 62
256
 51
90.0
 52
90.0
 71
2
 49
0.5
 62
256
  6
BYLAYER
 49
-0.5
 62
256
  6
BYLAYER
  0
MLEADERSTYLE
  5
2C
102
{ACAD_REACTORS
330
F
102
}
330
F
100
AcDbMLeaderStyle
179
2
170
2
171
1
172
0
 90
2
 40
0.0
 41
0.0
173
1
 91
-1056964608
 92
-2
290
1
 42
2.0
291
1
 43
8.0
  3
Standard
 44
4.0
300

342
29
174
1
175
1
176
0
178
1
 93
-1056964608
 45
4.0
292
0
297
0
 46
4.0
 94
-1056964608
 47
1.0
 49
1.0
140
1.0
294
1
141
0.0
177
0
142
1.0
295
0
296
0
143
3.75
271
0
272
9
273
9
  0
DICTIONARY
  5
2D
330
A
100
AcDbDictionary
280
1
281
1
  3
CREATED_BY_EZDXF
350
2E
  3
WRITTEN_BY_EZDXF
350
53
  0
DICTIONARYVAR
  5
2E
330
2D
100
DictionaryVariables
280
0
  1
1.4.4 @ 2026-09-29T02:42:59.370788+00:00
  0
DICTIONARYVAR
  5
53
330
2D
100
DictionaryVariables
280
0
  1
1.4.4 @ 2026-09-29T02:42:59.380562+00:00
  0
ENDSEC
  0
EOF
