  0
SECTION
  2
HEADER
  9
$ACADVER
  1
AC1015
  9
$ACADMAINTVER
 70
6
  9
$DWGCODEPAGE
  3
ANSI_1252
  9
$INSBASE
 10
0.0
 20
0.0
 30
0.0
  9
$EXTMIN
 10
1e+20
 20
1e+20
 30
1e+20
  9
$EXTMAX
 10
-1e+20
 20
-1e+20
 30
-1e+20
  9
$LIMMIN
 10
0.0
 20
0.0
  9
$LIMMAX
 10
420.0
 20
297.0
  9
$ORTHOMODE
 70
0
  9
$REGENMODE
 70
1
  9
$FILLMODE
 70
1
  9
$QTEXTMODE
 70
0
  9
$MIRRTEXT
 70
1
  9
$LTSCALE
 40
1.0
  9
$ATTMODE
 70
1
  9
$TEXTSIZE
 40
2.5
  9
$TRACEWID
 40
1.0
  9
$TEXTSTYLE
  7
Standard
  9
$CLAYER
  8
0
  9
$CELTYPE
  6
ByLayer
  9
$CECOLOR
 62
256
  9
$CELTSCALE
 40
1.0
  9
$DISPSILH
 70
0
  9
$DIMSCALE
 40
1.0
  9
$DIMASZ
 40
2.5
  9
$DIMEXO
 40
0.625
  9
$DIMDLI
 40
3.75
  9
$DIMRND
 40
0.0
  9
$DIMDLE
 40
0.0
  9
$DIMEXE
 40
1.25
  9
$DIMTP
 40
0.0
  9
$DIMTM
 40
0.0
  9
$DIMTXT
 40
2.5
  9
$DIMCEN
 40
2.5
  9
$DIMTSZ
 40
0.0
  9
$DIMTOL
 70
0
  9
$DIMLIM
 70
0
  9
$DIMTIH
 70
0
  9
$DIMTOH
 70
0
  9
$DIMSE1
 70
0
  9
$DIMSE2
 70
0
  9
$DIMTAD
 70
1
  9
$DIMZIN
 70
8
  9
$DIMBLK
  1

  9
$DIMASO
 70
1
  9
$DIMSHO
 70
1
  9
$DIMPOST
  1

  9
$DIMAPOST
  1

  9
$DIMALT
 70
0
  9
$DIMALTD
 70
3
  9
$DIMALTF
 40
0.03937007874
  9
$DIMLFAC
 40
1.0
  9
$DIMTOFL
 70
1
  9
$DIMTVP
 40
0.0
  9
$DIMTIX
 70
0
  9
$DIMSOXD
 70
0
  9
$DIMSAH
 70
0
  9
$DIMBLK1
  1

  9
$DIMBLK2
  1

  9
$DIMSTYLE
  2
ISO-25
  9
$DIMCLRD
 70
0
  9
$DIMCLRE
 70
0
  9
$DIMCLRT
 70
0
  9
$DIMTFAC
 40
1.0
  9
$DIMGAP
 40
0.625
  9
$DIMJUST
 70
0
  9
$DIMSD1
 70
0
  9
$DIMSD2
 70
0
  9
$DIMTOLJ
 70
0
  9
$DIMTZIN
 70
8
  9
$DIMALTZ
 70
0
  9
$DIMALTTZ
 70
0
  9
$DIMUPT
 70
0
  9
$DIMDEC
 70
2
  9
$DIMTDEC
 70
2
  9
$DIMALTU
 70
2
  9
$DIMALTTD
 70
3
  9
$DIMTXSTY
  7
Standard
  9
$DIMAUNIT
 70
0
  9
$DIMADEC
 70
0
  9
$DIMALTRND
 40
0.0
  9
$DIMAZIN
 70
0
  9
$DIMDSEP
 70
44
  9
$DIMATFIT
 70
3
  9
$DIMFRAC
 70
0
  9
$DIMLDRBLK
  1

  9
$DIMLUNIT
 70
2
  9
$DIMLWD
 70
-2
  9
$DIMLWE
 70
-2
  9
$DIMTMOVE
 70
0
  9
$LUNITS
 70
2
  9
$LUPREC
 70
4
  9
$SKETCHINC
 40
1.0
  9
$FILLETRAD
 40
10.0
  9
$AUNITS
 70
0
  9
$AUPREC
 70
2
  9
$MENU
  1
.
  9
$ELEVATION
 40
0.0
  9
$PELEVATION
 40
0.0
  9
$THICKNESS
 40
0.0
  9
$LIMCHECK
 70
0
  9
$CHAMFERA
 40
0.0
  9
$CHAMFERB
 40
0.0
  9
$CHAMFERC
 40
0.0
  9
$CHAMFERD
 40
0.0
  9
$SKPOLY
 70
0
  9
$TDCREATE
 40
2461313.11318287
  9
$TDUCREATE
 40
2458532.153996898
  9
$TDUPDATE
 40
2461313.11318287
  9
$TDUUPDATE
 40
2458532.1544311
  9
$TDINDWG
 40
0.0
  9
$TDUSRTIMER
 40
0.0
  9
$USRTIMER
 70
1
  9
$ANGBASE
 50
0.0
  9
$ANGDIR
 70
0
  9
$PDMODE
 70
0
  9
$PDSIZE
 40
0.0
  9
$PLINEWID
 40
0.0
  9
$SPLFRAME
 70
0
  9
$SPLINETYPE
 70
6
  9
$SPLINESEGS
 70
8
  9
$HANDSEED
  5
50
  9
$SURFTAB1
 70
6
  9
$SURFTAB2
 70
6
  9
$SURFTYPE
 70
6
  9
$SURFU
 70
6
  9
$SURFV
 70
6
  9
$UCSBASE
  2

  9
$UCSNAME
  2

  9
$UCSORG
 10
0.0
 20
0.0
 30
0.0
  9
$UCSXDIR
 10
1.0
 20
0.0
 30
0.0
  9
$UCSYDIR
 10
0.0
 20
1.0
 30
0.0
  9
$UCSORTHOREF
  2

  9
$UCSORTHOVIEW
 70
0
  9
$UCSORGTOP
 10
0.0
 20
0.0
 30
0.0
  9
$UCSORGBOTTOM
 10
0.0
 20
0.0
 30
0.0
  9
$UCSORGLEFT
 10
0.0
 20
0.0
 30
0.0
  9
$UCSORGRIGHT
 10
0.0
 20
0.0
 30
0.0
  9
$UCSORGFRONT
 10
0.0
 20
0.0
 30
0.0
  9
$UCSORGBACK
 10
0.0
 20
0.0
 30
0.0
  9
$PUCSBASE
  2

  9
$PUCSNAME
  2

  9
$PUCSORG
 10
0.0
 20
0.0
 30
0.0
  9
$PUCSXDIR
 10
1.0
 20
0.0
 30
0.0
  9
$PUCSYDIR
 10
0.0
 20
1.0
 30
0.0
  9
$PUCSORTHOREF
  2

  9
$PUCSORTHOVIEW
 70
0
  9
$PUCSORGTOP
 10
0.0
 20
0.0
 30
0.0
  9
$PUCSORGBOTTOM
 10
0.0
 20
0.0
 30
0.0
  9
$PUCSORGLEFT
 10
0.0
 20
0.0
 30
0.0
  9
$PUCSORGRIGHT
 10
0.0
 20
0.0
 30
0.0
  9
$PUCSORGFRONT
 10
0.0
 20
0.0
 30
0.0
  9
$PUCSORGBACK
 10
0.0
 20
0.0
 30
0.0
  9
$USERI1
 70
0
  9
$USERI2
 70
0
  9
$USERI3
 70
0
  9
$USERI4
 70
0
  9
$USERI5
 70
0
  9
$USERR1
 40
0.0
  9
$USERR2
 40
0.0
  9
$USERR3
 40
0.0
  9
$USERR4
 40
0.0
  9
$USERR5
 40
0.0
  9
$WORLDVIEW
 70
1
  9
$SHADEDGE
 70
3
  9
$SHADEDIF
 70
70
  9
$TILEMODE
 70
1
  9
$MAXACTVP
 70
64
  9
$PINSBASE
 10
0.0
 20
0.0
 30
0.0
  9
$PLIMCHECK
 70
0
  9
$PEXTMIN
 10
1e+20
 20
1e+20
 30
1e+20
  9
$PEXTMAX
 10
-1e+20
 20
-1e+20
 30
-1e+20
  9
$PLIMMIN
 10
0.0
 20
0.0
  9
$PLIMMAX
 10
420.0
 20
297.0
  9
$UNITMODE
 70
0
  9
$VISRETAIN
 70
1
  9
$PLINEGEN
 70
0
  9
$PSLTSCALE
 70
1
  9
$TREEDEPTH
 70
3020
  9
$CMLSTYLE
  2
Standard
  9
$CMLJUST
 70
0
  9
$CMLSCALE
 40
20.0
  9
$PROXYGRAPHICS
 70
1
  9
$MEASUREMENT
 70
1
  9
$CELWEIGHT
370
-1
  9
$ENDCAPS
280
0
  9
$JOINSTYLE
280
0
  9
$LWDISPLAY
290
0
  9
$INSUNITS
 70
4
  9
$HYPERLINKBASE
  1

  9
$STYLESHEET
  1

  9
$XEDIT
290
1
  9
$CEPSNTYPE
380
0
  9
$PSTYLEMODE
290
1
  9
$FINGERPRINTGUID
  2
{A7EDB85D-BE14-4C33-80D4-EFB1CA0801D4}
  9
$VERSIONGUID
  2
{D2910D2C-3C10-4E29-A95A-896B9F43E5D9}
  9
$EXTNAMES
290
1
  9
$PSVPSCALE
 40
0.0
  9
$OLESTARTUP
290
0
  0
ENDSEC
  0
SECTION
  2
CLASSES
  0
CLASS
  1
ACDBDICTIONARYWDFLT
  2
AcDbDictionaryWithDefault
  3
ObjectDBX Classes
 90
0
280
0
281
0
  0
CLASS
  1
SUN
  2
AcDbSun
  3
SCENEOE
 90
1153
280
0
281
0
  0
CLASS
  1
VISUALSTYLE
  2
AcDbVisualStyle
  3
ObjectDBX Classes
 90
4095
280
0
281
0
  0
CLASS
  1
MATERIAL
  2
AcDbMaterial
  3
ObjectDBX Classes
 90
1153
280
0
281
0
  0
CLASS
  1
SCALE
  2
AcDbScale
  3
ObjectDBX Classes
 90
1153
280
0
281
0
  0
CLASS
  1
TABLESTYLE
  2
AcDbTableStyle
  3
ObjectDBX Classes
 90
4095
280
0
281
0
  0
CLASS
  1
MLEADERSTYLE
  2
AcDbMLeaderStyle
  3
ACDB_MLEADERSTYLE_CLASS
 90
4095
280
0
281
0
  0
CLASS
  1
DICTIONARYVAR
  2
AcDbDictionaryVar
  3
ObjectDBX Classes
 90
0
280
0
281
0
  0
CLASS
  1
CELLSTYLEMAP
  2
AcDbCellStyleMap
  3
ObjectDBX Classes
 90
1152
280
0
281
0
  0
CLASS
  1
MENTALRAYRENDERSETTINGS
  2
AcDbMentalRayRenderSettings
  3
SCENEOE
 90
1024
280
0
281
0
  0
CLASS
  1
ACDBDETAILVIEWSTYLE
  2
AcDbDetailViewStyle
  3
ObjectDBX Classes
 90
1025
280
0
281
0
  0
CLASS
  1
ACDBSECTIONVIEWSTYLE
  2
AcDbSectionViewStyle
  3
ObjectDBX Classes
 90
1025
280
0
281
0
  0
CLASS
  1
RASTERVARIABLES
  2
AcDbRasterVariables
  3
ISM
 90
0
280
0
281
0
  0
CLASS
  1
ACDBPLACEHOLDER
  2
AcDbPlaceHolder
  3
ObjectDBX Classes
 90
0
280
0
281
0
  0
CLASS
  1
LAYOUT
  2
AcDbLayout
  3
ObjectDBX Classes
 90
0
280
0
281
0
  0
ENDSEC
  0
SECTION
  2
TABLES
  0
TABLE
  2
VPORT
  5
8
330
0
100
AcDbSymbolTable
 70
1
  0
VPORT
  5
23
330
8
100
AcDbSymbolTableRecord
100
AcDbViewportTableRecord
  2
*Active
 70
0
 10
0.0
 20
0.0
 11
1.0
 21
1.0
 12
0.0
 22
0.0
 13
0.0
 23
0.0
 14
0.5
 24
0.5
 15
0.5
 25
0.5
 16
0.0
 26
0.0
 36
1.0
 17
0.0
 27
0.0
 37
0.0
 40
1000.0
 41
1.34
 42
50.0
 43
0.0
 44
0.0
 50
0.0
 51
0.0
 71
0
 72
1000
 73
1
 74
3
 75
0
 76
0
 77
0
 78
0
281
0
 65
0
146
0.0
  0
ENDTAB
  0
TABLE
  2
LTYPE
  5
2
330
0
100
AcDbSymbolTable
 70
3
  0
LTYPE
  5
24
330
2
100
AcDbSymbolTableRecord
100
AcDbLinetypeTableRecord
  2
ByBlock
 70
0
  3

 72
65
 73
0
 40
0.0
  0
LTYPE
  5
25
330
2
100
AcDbSymbolTableRecord
100
AcDbLinetypeTableRecord
  2
ByLayer
 70
0
  3

 72
65
 73
0
 40
0.0
  0
LTYPE
  5
26
330
2
100
AcDbSymbolTableRecord
100
AcDbLinetypeTableRecord
  2
Continuous
 70
0
  3

 72
65
 73
0
 40
0.0
  0
ENDTAB
  0
TABLE
  2
LAYER
  5
1
330
0
100
AcDbSymbolTable
 70
11
  0
LAYER
  5
27
330
1
100
AcDbSymbolTableRecord
100
AcDbLayerTableRecord
  2
0
 70
0
 62
7
  6
Continuous
370
-3
390
13
  0
LAYER
  5
28
330
1
100
AcDbSymbolTableRecord
100
AcDbLayerTableRecord
  2
Defpoints
 70
0
 62
7
  6
Continuous
290
0
370
-3
390
13
  0
LAYER
  5
2F
330
1
100
AcDbSymbolTableRecord
100
AcDbLayerTableRecord
  2
STITCH
 70
0
 62
7
  6
Continuous
370
-3
390
13
  0
LAYER
  5
30
330
1
100
AcDbSymbolTableRecord
100
AcDbLayerTableRecord
  2
BASE
 70
0
 62
4
  6
Continuous
370
-3
390
13
  0
LAYER
  5
31
330
1
100
AcDbSymbolTableRecord
100
AcDbLayerTableRecord
  2
CUT_JAG
 70
0
 62
1
  6
Continuous
370
-3
390
13
  0
LAYER
  5
32
330
1
100
AcDbSymbolTableRecord
100
AcDbLayerTableRecord
  2
PATCH
 70
0
 62
5
  6
Continuous
370
-3
390
13
  0
LAYER
  5
33
330
1
100
AcDbSymbolTableRecord
100
AcDbLayerTableRecord
  2
GUIDE
 70
0
 62
150
  6
Continuous
370
-3
390
13
  0
LAYER
  5
34
330
1
100
AcDbSymbolTableRecord
100
AcDbLayerTableRecord
  2
ORIENT
 70
0
 62
150
  6
Continuous
370
-3
390
13
  0
LAYER
  5
35
330
1
100
AcDbSymbolTableRecord
100
AcDbLayerTableRecord
  2
CENTRE
 70
0
 62
8
  6
Continuous
370
-3
390
13
  0
LAYER
  5
36
330
1
100
AcDbSymbolTableRecord
100
AcDbLayerTableRecord
  2
CHECK
 70
0
 62
30
  6
Continuous
370
-3
390
13
  0
LAYER
  5
37
330
1
100
AcDbSymbolTableRecord
100
AcDbLayerTableRecord
  2
NOTES
 70
0
 62
3
  6
Continuous
370
-3
390
13
  0
ENDTAB
  0
TABLE
  2
STYLE
  5
5
330
0
100
AcDbSymbolTable
 70
1
  0
STYLE
  5
29
330
5
100
AcDbSymbolTableRecord
100
AcDbTextStyleTableRecord
  2
Standard
 70
0
 40
0.0
 41
1.0
 50
0.0
 71
0
 42
2.5
  3
txt
  4

  0
ENDTAB
  0
TABLE
  2
VIEW
  5
7
330
0
100
AcDbSymbolTable
 70
0
  0
ENDTAB
  0
TABLE
  2
UCS
  5
6
330
0
100
AcDbSymbolTable
 70
0
  0
ENDTAB
  0
TABLE
  2
APPID
  5
3
330
0
100
AcDbSymbolTable
 70
3
  0
APPID
  5
2A
330
3
100
AcDbSymbolTableRecord
100
AcDbRegAppTableRecord
  2
ACAD
 70
0
  0
APPID
  5
4D
330
3
100
AcDbSymbolTableRecord
100
AcDbRegAppTableRecord
  2
HATCHBACKGROUNDCOLOR
 70
0
  0
APPID
  5
4E
330
3
100
AcDbSymbolTableRecord
100
AcDbRegAppTableRecord
  2
EZDXF
 70
0
  0
ENDTAB
  0
TABLE
  2
DIMSTYLE
  5
4
330
0
100
AcDbSymbolTable
 70
1
100
AcDbDimStyleTable
  0
DIMSTYLE
105
2B
330
4
100
AcDbSymbolTableRecord
100
AcDbDimStyleTableRecord
  2
Standard
 70
0
  3

  4

 40
1.0
 41
2.5
 42
0.625
 43
3.75
 44
1.25
 45
0.0
 46
0.0
 47
0.0
 48
0.0
140
2.5
141
2.5
142
0.0
143
0.03937007874
144
1.0
145
0.0
146
1.0
147
0.625
148
0.0
 71
0
 72
0
 73
0
 74
0
 75
0
 76
0
 77
1
 78
8
 79
3
170
0
171
3
172
1
173
0
174
0
175
0
176
0
177
0
178
0
179
2
271
2
272
2
273
2
274
3
275
0
276
0
277
2
278
44
279
0
280
0
281
0
282
0
283
0
284
8
285
0
286
0
288
0
289
3
371
-2
372
-2
  0
ENDTAB
  0
TABLE
  2
BLOCK_RECORD
  5
9
330
0
100
AcDbSymbolTable
 70
2
  0
BLOCK_RECORD
  5
17
330
9
100
AcDbSymbolTableRecord
100
AcDbBlockTableRecord
  2
*Model_Space
340
1A
  0
BLOCK_RECORD
  5
1B
330
9
100
AcDbSymbolTableRecord
100
AcDbBlockTableRecord
  2
*Paper_Space
340
1E
  0
ENDTAB
  0
ENDSEC
  0
SECTION
  2
BLOCKS
  0
BLOCK
  5
18
330
17
100
AcDbEntity
  8
0
100
AcDbBlockBegin
  2
*Model_Space
 70
0
 10
0.0
 20
0.0
 30
0.0
  3
*Model_Space
  1

  0
ENDBLK
  5
19
330
17
100
AcDbEntity
  8
0
100
AcDbBlockEnd
  0
BLOCK
  5
1C
330
1B
100
AcDbEntity
  8
0
100
AcDbBlockBegin
  2
*Paper_Space
 70
0
 10
0.0
 20
0.0
 30
0.0
  3
*Paper_Space
  1

  0
ENDBLK
  5
1D
330
1B
100
AcDbEntity
  8
0
100
AcDbBlockEnd
  0
ENDSEC
  0
SECTION
  2
ENTITIES
  0
LWPOLYLINE
  5
38
330
17
100
AcDbEntity
  8
STITCH
100
AcDbPolyline
 90
334
 70
1
 10
25.739753051673027
 20
-3.1418517491729077
 10
59.45959324032114
 20
-38.64663426448314
 10
61.469055112483396
 20
-40.83088724692966
 10
64.38832059971492
 20
-44.19742382447508
 10
66.27839964010415
 20
-46.495060501419616
 10
68.12934986327556
 20
-48.82985972335996
 10
69.94609944950996
 20
-51.197140957265646
 10
72.61787802896885
 20
-54.79872791455492
 10
76.10654358825511
 20
-59.67084592453458
 10
85.57096680978354
 20
-73.19207465082371
 10
88.19685200178425
 20
-76.83724879519639
 10
90.87330242544209
 20
-80.43439867432683
 10
93.61695068920476
 20
-83.96772748923712
 10
96.44442940151991
 20
-87.4214384409493
 10
99.37237117083524
 20
-90.77973473048546
 10
101.80149130199706
 20
-93.42231748387091
 10
102.18335770366899
 20
-93.91287064786663
 10
102.53232278808328
 20
-94.42734875749987
 10
102.84689223317436
 20
-94.9635487385211
 10
103.12571900428478
 20
-95.51917450029264
 10
103.36760912237438
 20
-96.09184676800137
 10
103.57152677682186
 20
-96.67911327107872
 10
103.73659876092485
 20
-97.27845924419974
 10
103.86211821110513
 20
-97.88731819589422
 10
103.9475476338069
 20
-98.5030828986573
 10
103.99252120712683
 20
-99.12311655349784
 10
103.99684634731948
 20
-99.74476408111649
 10
103.96050453347051
 20
-100.36536349136293
 10
103.88365138680615
 20
-100.98225728228634
 10
103.76661600429912
 20
-101.59280381996672
 10
103.60989954942491
 20
-102.19438865039692
 10
103.41417310610285
 20
-102.78443569497604
 10
103.18027480501169
 20
-103.36041828167353
 10
102.90920623458544
 20
-103.9198699646267
 10
102.60212815205787
 20
-104.46039508584056
 10
102.26035551292185
 20
-104.97967903376315
 10
101.88535184008805
 20
-105.47549815480752
 10
101.47872295685514
 20
-105.94572927537786
 10
101.04221011052793
 20
-106.38835879362465
 10
100.57768251612909
 20
-106.80149130199706
 10
100.08712935213337
 20
-107.18335770366899
 10
99.57265124250013
 20
-107.53232278808328
 10
99.0364512614789
 20
-107.84689223317436
 10
98.48082549970736
 20
-108.12571900428478
 10
97.90815323199864
 20
-108.36760912237438
 10
97.32088672892128
 20
-108.57152677682186
 10
96.72154075580026
 20
-108.73659876092485
 10
96.11268180410578
 20
-108.86211821110513
 10
95.4969171013427
 20
-108.9475476338069
 10
94.87688344650218
 20
-108.99252120712683
 10
94.25523591888351
 20
-108.99684634731948
 10
93.63463650863707
 20
-108.96050453347051
 10
93.01774271771367
 20
-108.88365138680615
 10
92.4071961800333
 20
-108.76661600429912
 10
91.80561134960308
 20
-108.60989954942491
 10
91.21556430502397
 20
-108.41417310610285
 10
90.63958171832647
 20
-108.18027480501169
 10
90.0801300353733
 20
-107.90920623458544
 10
89.53960491415944
 20
-107.60212815205787
 10
89.02032096623685
 20
-107.26035551292185
 10
88.52450184519248
 20
-106.88535184008805
 10
88.05427072462214
 20
-106.47872295685514
 10
85.57587502109722
 20
-103.95229805541688
 10
82.42923705728093
 20
-100.90574586036301
 10
79.1850582291064
 20
-97.95183297869461
 10
75.85913979013438
 20
-95.07555218969316
 10
72.46728299392568
 20
-92.2618962726401
 10
69.02528909404106
 20
-89.49585800681696
 10
56.231050079200415
 20
-79.5185890615366
 10
50.473566493157286
 20
-74.9283057841521
 10
45.96394323906058
 20
-71.16455794020709
 10
43.7541279124188
 20
-69.23994883845147
 10
41.580552589923926
 20
-67.28092083828497
 10
38.39838116719086
 20
-64.26811650119724
 10
35.32408517638965
 20
-61.15285760815417
 10
2.1752711979867345
 20
-26.25015791052176
 10
1.7146024607939165
 20
-25.854384162328355
 10
1.1836631145293415
 20
-25.559501209660638
 10
0.604212973549566
 20
-25.377594422254546
 10
3.736410698672604e-15
 20
-25.3161189980569
 10
-0.6042129735495593
 20
-25.377594422254546
 10
-1.183663114529334
 20
-25.559501209660638
 10
-1.7146024607939094
 20
-25.854384162328355
 10
-2.1752711979867274
 20
-26.25015791052176
 10
-35.32408517638965
 20
-61.15285760815418
 10
-38.39838116719086
 20
-64.26811650119726
 10
-41.580552589923904
 20
-67.28092083828497
 10
-43.754127912418795
 20
-69.23994883845148
 10
-45.96394323906059
 20
-71.16455794020712
 10
-50.473566493157286
 20
-74.92830578415212
 10
-56.231050079200415
 20
-79.5185890615366
 10
-69.02528909404104
 20
-89.49585800681696
 10
-72.46728299392566
 20
-92.26189627264012
 10
-75.85913979013438
 20
-95.07555218969317
 10
-79.18505822910637
 20
-97.95183297869461
 10
-82.42923705728093
 20
-100.90574586036303
 10
-85.57587502109722
 20
-103.95229805541689
 10
-88.05427072462214
 20
-106.47872295685515
 10
-88.52450184519248
 20
-106.88535184008806
 10
-89.02032096623685
 20
-107.26035551292186
 10
-89.53960491415944
 20
-107.60212815205789
 10
-90.0801300353733
 20
-107.90920623458547
 10
-90.63958171832647
 20
-108.1802748050117
 10
-91.21556430502396
 20
-108.41417310610287
 10
-91.80561134960308
 20
-108.60989954942494
 10
-92.40719618003328
 20
-108.76661600429914
 10
-93.01774271771367
 20
-108.88365138680618
 10
-93.63463650863707
 20
-108.96050453347053
 10
-94.25523591888351
 20
-108.99684634731949
 10
-94.87688344650216
 20
-108.99252120712684
 10
-95.4969171013427
 20
-108.94754763380692
 10
-96.11268180410578
 20
-108.86211821110513
 10
-96.72154075580026
 20
-108.73659876092486
 10
-97.32088672892128
 20
-108.57152677682187
 10
-97.90815323199863
 20
-108.36760912237439
 10
-98.48082549970736
 20
-108.12571900428479
 10
-99.03645126147892
 20
-107.84689223317437
 10
-99.57265124250013
 20
-107.53232278808329
 10
-100.08712935213337
 20
-107.183357703669
 10
-100.57768251612909
 20
-106.80149130199709
 10
-101.04221011052793
 20
-106.38835879362466
 10
-101.47872295685514
 20
-105.94572927537786
 10
-101.88535184008805
 20
-105.47549815480754
 10
-102.26035551292185
 20
-104.97967903376316
 10
-102.60212815205787
 20
-104.46039508584059
 10
-102.90920623458544
 20
-103.91986996462671
 10
-103.18027480501169
 20
-103.36041828167355
 10
-103.41417310610285
 20
-102.78443569497605
 10
-103.60989954942491
 20
-102.19438865039693
 10
-103.76661600429912
 20
-101.59280381996673
 10
-103.88365138680615
 20
-100.98225728228634
 10
-103.96050453347051
 20
-100.36536349136294
 10
-103.99684634731948
 20
-99.7447640811165
 10
-103.99252120712683
 20
-99.12311655349785
 10
-103.9475476338069
 20
-98.50308289865731
 10
-103.86211821110513
 20
-97.88731819589424
 10
-103.73659876092485
 20
-97.27845924419975
 10
-103.57152677682186
 20
-96.67911327107875
 10
-103.36760912237438
 20
-96.09184676800139
 10
-103.12571900428478
 20
-95.51917450029265
 10
-102.84689223317436
 20
-94.96354873852111
 10
-102.53232278808328
 20
-94.42734875749989
 10
-102.183357703669
 20
-93.91287064786664
 10
-101.80149130199706
 20
-93.42231748387093
 10
-99.37237117083525
 20
-90.7797347304855
 10
-96.44442940151991
 20
-87.42143844094932
 10
-93.61695068920477
 20
-83.96772748923713
 10
-90.87330242544208
 20
-80.43439867432683
 10
-88.19685200178425
 20
-76.83724879519639
 10
-85.57096680978354
 20
-73.19207465082371
 10
-76.10654358825511
 20
-59.67084592453458
 10
-72.61787802896885
 20
-54.79872791455493
 10
-69.94609944950996
 20
-51.197140957265646
 10
-68.12934986327558
 20
-48.829859723359974
 10
-66.27839964010415
 20
-46.495060501419616
 10
-64.38832059971492
 20
-44.19742382447508
 10
-61.4690551124834
 20
-40.83088724692967
 10
-59.45959324032114
 20
-38.64663426448315
 10
-24.717927247403995
 20
-2.065961087535142
 10
-24.367047188960434
 20
-1.618196474361399
 10
-24.10699909915218
 20
-1.112246916390381
 10
-23.947133439428057
 20
-0.5663046712169931
 10
-23.893198445390727
 20
-3.553599235970977e-15
 10
-23.947133439428057
 20
0.566304671216985
 10
-24.106999099152183
 20
1.112246916390373
 10
-24.367047188960434
 20
1.6181964743613915
 10
-24.717927247403995
 20
2.0659610875351344
 10
-59.459593240321155
 20
38.646634264483126
 10
-61.46905511248341
 20
40.83088724692965
 10
-64.38832059971493
 20
44.19742382447507
 10
-66.27839964010418
 20
46.4950605014196
 10
-68.12934986327559
 20
48.82985972335996
 10
-69.94609944950997
 20
51.19714095726563
 10
-72.61787802896885
 20
54.79872791455491
 10
-76.10654358825514
 20
59.67084592453456
 10
-85.57096680978356
 20
73.19207465082368
 10
-88.19685200178426
 20
76.83724879519636
 10
-90.87330242544212
 20
80.43439867432681
 10
-93.61695068920477
 20
83.9677274892371
 10
-96.44442940151994
 20
87.42143844094929
 10
-99.37237117083528
 20
90.77973473048547
 10
-101.80149130199709
 20
93.4223174838709
 10
-102.18335770366902
 20
93.91287064786661
 10
-102.5323227880833
 20
94.42734875749986
 10
-102.84689223317439
 20
94.96354873852108
 10
-103.1257190042848
 20
95.51917450029262
 10
-103.3676091223744
 20
96.09184676800135
 10
-103.57152677682188
 20
96.6791132710787
 10
-103.73659876092488
 20
97.27845924419972
 10
-103.86211821110516
 20
97.8873181958942
 10
-103.94754763380693
 20
98.50308289865728
 10
-103.99252120712686
 20
99.12311655349781
 10
-103.9968463473195
 20
99.74476408111647
 10
-103.96050453347054
 20
100.36536349136291
 10
-103.88365138680618
 20
100.98225728228631
 10
-103.76661600429915
 20
101.59280381996669
 10
-103.60989954942495
 20
102.19438865039689
 10
-103.41417310610288
 20
102.78443569497603
 10
-103.18027480501172
 20
103.36041828167352
 10
-102.90920623458547
 20
103.91986996462668
 10
-102.6021281520579
 20
104.46039508584055
 10
-102.26035551292188
 20
104.97967903376313
 10
-101.88535184008808
 20
105.47549815480751
 10
-101.47872295685517
 20
105.94572927537783
 10
-101.04221011052796
 20
106.38835879362463
 10
-100.57768251612912
 20
106.80149130199706
 10
-100.0871293521334
 20
107.18335770366897
 10
-99.57265124250016
 20
107.53232278808326
 10
-99.03645126147894
 20
107.84689223317434
 10
-98.4808254997074
 20
108.12571900428476
 10
-97.90815323199867
 20
108.36760912237436
 10
-97.32088672892131
 20
108.57152677682184
 10
-96.72154075580029
 20
108.73659876092484
 10
-96.1126818041058
 20
108.8621182111051
 10
-95.49691710134273
 20
108.94754763380689
 10
-94.8768834465022
 20
108.99252120712681
 10
-94.25523591888356
 20
108.99684634731946
 10
-93.6346365086371
 20
108.9605045334705
 10
-93.0177427177137
 20
108.88365138680615
 10
-92.40719618003332
 20
108.76661600429911
 10
-91.80561134960313
 20
108.60989954942491
 10
-91.215564305024
 20
108.41417310610284
 10
-90.6395817183265
 20
108.18027480501168
 10
-90.08013003537333
 20
107.90920623458544
 10
-89.53960491415947
 20
107.60212815205787
 10
-89.02032096623688
 20
107.26035551292185
 10
-88.5245018451925
 20
106.88535184008803
 10
-88.05427072462217
 20
106.47872295685512
 10
-85.57587502109725
 20
103.95229805541686
 10
-82.42923705728096
 20
100.905745860363
 10
-79.18505822910642
 20
97.9518329786946
 10
-75.8591397901344
 20
95.07555218969314
 10
-72.46728299392569
 20
92.26189627264009
 10
-69.02528909404107
 20
89.49585800681695
 10
-56.231050079200436
 20
79.5185890615366
 10
-50.47356649315731
 20
74.9283057841521
 10
-45.9639432390606
 20
71.16455794020709
 10
-43.75412791241882
 20
69.23994883845147
 10
-41.58055258992394
 20
67.28092083828497
 10
-38.398381167190884
 20
64.26811650119724
 10
-35.32408517638967
 20
61.15285760815417
 10
-2.1752711979867336
 20
26.25015791052176
 10
-1.7146024607939154
 20
25.854384162328355
 10
-1.18366311452934
 20
25.559501209660638
 10
-0.6042129735495646
 20
25.377594422254546
 10
-2.259679191473717e-15
 20
25.3161189980569
 10
0.6042129735495607
 20
25.37759442225455
 10
1.1836631145293355
 20
25.559501209660638
 10
1.7146024607939105
 20
25.85438416232835
 10
2.1752711979867283
 20
26.25015791052176
 10
35.32408517638966
 20
61.15285760815419
 10
38.39838116719086
 20
64.26811650119726
 10
41.58055258992392
 20
67.28092083828498
 10
43.754127912418795
 20
69.23994883845148
 10
45.96394323906059
 20
71.16455794020712
 10
50.4735664931573
 20
74.92830578415213
 10
56.231050079200415
 20
79.51858906153663
 10
69.02528909404106
 20
89.49585800681697
 10
72.46728299392566
 20
92.26189627264012
 10
75.85913979013438
 20
95.07555218969317
 10
79.18505822910637
 20
97.95183297869461
 10
82.42923705728093
 20
100.90574586036303
 10
85.57587502109722
 20
103.95229805541689
 10
88.05427072462214
 20
106.47872295685515
 10
88.52450184519248
 20
106.88535184008805
 10
89.02032096623685
 20
107.26035551292186
 10
89.53960491415943
 20
107.60212815205789
 10
90.0801300353733
 20
107.90920623458545
 10
90.63958171832647
 20
108.1802748050117
 10
91.21556430502396
 20
108.41417310610287
 10
91.8056113496031
 20
108.60989954942494
 10
92.40719618003328
 20
108.76661600429914
 10
93.01774271771367
 20
108.88365138680618
 10
93.63463650863707
 20
108.96050453347053
 10
94.25523591888351
 20
108.99684634731949
 10
94.87688344650218
 20
108.99252120712684
 10
95.4969171013427
 20
108.94754763380692
 10
96.11268180410578
 20
108.86211821110513
 10
96.72154075580026
 20
108.73659876092486
 10
97.32088672892128
 20
108.57152677682187
 10
97.90815323199864
 20
108.36760912237439
 10
98.48082549970736
 20
108.12571900428479
 10
99.0364512614789
 20
107.84689223317437
 10
99.57265124250013
 20
107.53232278808329
 10
100.08712935213337
 20
107.183357703669
 10
100.57768251612909
 20
106.80149130199709
 10
101.04221011052793
 20
106.38835879362466
 10
101.47872295685514
 20
105.94572927537787
 10
101.88535184008805
 20
105.47549815480754
 10
102.26035551292185
 20
104.97967903376316
 10
102.60212815205787
 20
104.46039508584059
 10
102.90920623458544
 20
103.91986996462671
 10
103.18027480501169
 20
103.36041828167355
 10
103.41417310610285
 20
102.78443569497605
 10
103.60989954942492
 20
102.19438865039692
 10
103.76661600429912
 20
101.59280381996672
 10
103.88365138680615
 20
100.98225728228635
 10
103.96050453347051
 20
100.36536349136294
 10
103.99684634731948
 20
99.7447640811165
 10
103.99252120712683
 20
99.12311655349784
 10
103.9475476338069
 20
98.50308289865733
 10
103.86211821110513
 20
97.88731819589424
 10
103.73659876092485
 20
97.27845924419975
 10
103.57152677682186
 20
96.67911327107873
 10
103.36760912237438
 20
96.09184676800137
 10
103.12571900428478
 20
95.51917450029265
 10
102.84689223317436
 20
94.96354873852111
 10
102.53232278808328
 20
94.42734875749989
 10
102.18335770366899
 20
93.91287064786664
 10
101.80149130199706
 20
93.42231748387093
 10
99.37237117083525
 20
90.7797347304855
 10
96.44442940151991
 20
87.42143844094932
 10
93.61695068920477
 20
83.96772748923713
 10
90.87330242544208
 20
80.43439867432683
 10
88.19685200178425
 20
76.83724879519639
 10
85.57096680978354
 20
73.19207465082371
 10
76.10654358825511
 20
59.67084592453458
 10
72.61787802896885
 20
54.79872791455493
 10
69.94609944950996
 20
51.197140957265646
 10
68.12934986327558
 20
48.829859723359974
 10
66.27839964010415
 20
46.495060501419616
 10
64.38832059971492
 20
44.19742382447508
 10
61.4690551124834
 20
40.83088724692967
 10
59.45959324032114
 20
38.64663426448315
 10
24.59159088972893
 20
1.9242148164174782
 10
24.36704718896043
 20
1.618196474361395
 10
24.1829407419396
 20
1.2862749243003369
 10
24.042218624418858
 20
0.9337633856664264
 10
23.947133439428054
 20
0.5663046712169876
 10
23.899207258831783
 20
0.1897808599606184
 10
23.899207258831783
 20
-0.18978085996061966
 10
23.988858820264504
 20
-0.7515393149541026
 10
24.1829407419396
 20
-1.2862749243003377
 10
24.474474485664874
 20
-1.7747603800649012
  0
LWPOLYLINE
  5
39
330
17
100
AcDbEntity
  8
BASE
100
AcDbPolyline
 90
286
 70
1
 10
21.5227808155132
 20
-4.489834571640777
 10
57.57070174884415
 20
-42.486975021075665
 10
59.553822964511404
 20
-44.69624500893705
 10
61.48795900239927
 20
-46.95203860785526
 10
63.37803804278852
 20
-49.24967528479979
 10
66.14133012742671
 20
-52.764347405511735
 10
68.83321498177246
 20
-56.34683845348632
 10
71.47032521427346
 20
-59.981351629745646
 10
82.6706052124679
 20
-75.94668943420389
 10
85.2964904044686
 20
-79.59186357857656
 10
87.97294082812645
 20
-83.18901345770702
 10
90.7165890918891
 20
-86.7223422726173
 10
93.54406780420427
 20
-90.1760532243295
 10
96.4720095735196
 20
-93.53434951386564
 10
98.7271791748404
 20
-95.98134170118843
 10
99.15029214046926
 20
-96.56320191223676
 10
99.49383731827014
 20
-97.195311552801
 10
99.63387896558517
 20
-97.52685865515869
 10
99.8475045457986
 20
-98.21384482558932
 10
99.96963284062505
 20
-98.9228374676437
 10
99.99567017254711
 20
-99.28180432044611
 10
99.9771342035882
 20
-100.00099991605222
 10
99.93264027657199
 20
-100.35814895290261
 10
99.86488294985739
 20
-100.71162326419126
 10
99.66083706142797
 20
-101.40151540235455
 10
99.36848782002315
 20
-102.05887208478389
 10
98.99283740221792
 20
-102.6724457563892
 10
98.77573001268256
 20
-102.95949893173068
 10
98.28759532714776
 20
-103.48799719630901
 10
98.01865829881157
 20
-103.7271791748404
 10
97.43679808776324
 20
-104.15029214046926
 10
96.804688447199
 20
-104.49383731827014
 10
96.47314134484131
 20
-104.63387896558517
 10
95.78615517441068
 20
-104.8475045457986
 10
95.0771625323563
 20
-104.96963284062505
 10
94.71819567955389
 20
-104.99567017254711
 10
93.99900008394778
 20
-104.9771342035882
 10
93.64185104709739
 20
-104.93264027657199
 10
92.94009078134916
 20
-104.77415237071969
 10
92.26502099482059
 20
-104.52542225553309
 10
91.94112791521611
 20
-104.36848782002315
 10
91.3275542436108
 20
-103.99283740221792
 10
90.76826199846545
 20
-103.54031329081087
 10
87.43917055698063
 20
-100.17094624499329
 10
84.25826327687149
 20
-97.15694129003663
 10
80.98508221692437
 20
-94.23057324155926
 10
77.63542863070005
 20
-91.37683487884266
 10
74.22510377175928
 20
-88.5807189811683
 10
70.76990889366286
 20
-85.82721832781768
 10
56.81645426093604
 20
-74.93922374328183
 10
53.37392809047293
 20
-72.17369100077192
 10
49.98133942221881
 20
-69.36073017827458
 10
46.65448950973445
 20
-66.48533405507129
 10
44.48091418723956
 20
-64.5263060549048
 10
41.29874276450651
 20
-61.513501717817064
 10
39.236250558846564
 20
-59.44897266698824
 10
4.7384319522391625
 20
-23.16371541972581
 10
4.000739075185799
 20
-22.57207104802362
 10
3.6036165518103553
 20
-22.31495679832271
 10
2.7618806005684564
 20
-21.884010825132282
 10
2.321111913936077
 20
-21.712147504857974
 10
1.8697412390302433
 20
-21.57044870526392
 10
0.9434797163821749
 20
-21.37999284401562
 10
-1.1256858547736453e-15
 20
-21.316118998056897
 10
-0.9434797163821772
 20
-21.37999284401562
 10
-1.8697412390302441
 20
-21.57044870526392
 10
-2.3211119139360763
 20
-21.712147504857974
 10
-2.761880600568456
 20
-21.884010825132282
 10
-3.6036165518103562
 20
-22.31495679832271
 10
-4.379587689188069
 20
-22.855422002918612
 10
-4.738431952239164
 20
-23.163715419725815
 10
-39.23625055884658
 20
-59.448972666988254
 10
-42.34826072179847
 20
-62.52841257241081
 10
-45.56287923216196
 20
-65.5104003287842
 10
-47.755159788343654
 20
-67.45166305675568
 10
-49.98133942221881
 20
-69.3607301782746
 10
-54.51666851142189
 20
-73.10006393762107
 10
-59.13141167651606
 20
-76.76397427815644
 10
-71.92565069135671
 20
-86.74124322343678
 10
-75.36764459124132
 20
-89.50728148925992
 10
-78.75950138745003
 20
-92.32093740631298
 10
-82.08541982642203
 20
-95.19721819531443
 10
-85.32959865459657
 20
-98.15113107698285
 10
-87.43917055698061
 20
-100.17094624499329
 10
-90.51200280369099
 20
-103.28759532714777
 10
-91.04050106826932
 20
-103.77573001268257
 10
-91.3275542436108
 20
-103.99283740221793
 10
-91.94112791521611
 20
-104.36848782002316
 10
-92.59848459764545
 20
-104.66083706142798
 10
-93.28837673580874
 20
-104.8648829498574
 10
-93.64185104709739
 20
-104.932640276572
 10
-93.99900008394778
 20
-104.97713420358821
 10
-94.71819567955389
 20
-104.99567017254712
 10
-95.0771625323563
 20
-104.96963284062507
 10
-95.78615517441068
 20
-104.84750454579861
 10
-96.47314134484131
 20
-104.63387896558518
 10
-96.804688447199
 20
-104.49383731827015
 10
-97.12636651980358
 20
-104.33241129289043
 10
-97.73465383544564
 20
-103.9482597231768
 10
-98.28759532714776
 20
-103.48799719630902
 10
-98.77573001268254
 20
-102.95949893173069
 10
-98.99283740221792
 20
-102.67244575638921
 10
-99.36848782002315
 20
-102.0588720847839
 10
-99.66083706142797
 20
-101.40151540235456
 10
-99.86488294985739
 20
-100.71162326419127
 10
-99.93264027657199
 20
-100.35814895290262
 10
-99.9771342035882
 20
-100.00099991605224
 10
-99.99567017254711
 20
-99.28180432044613
 10
-99.96963284062505
 20
-98.92283746764372
 10
-99.8475045457986
 20
-98.21384482558933
 10
-99.63387896558517
 20
-97.5268586551587
 10
-99.49383731827014
 20
-97.19531155280102
 10
-99.15029214046926
 20
-96.56320191223678
 10
-98.7271791748404
 20
-95.98134170118844
 10
-95.48383971763377
 20
-92.42649415753232
 10
-92.59123370159045
 20
-89.0346377807177
 10
-89.79354653973141
 20
-85.55263234138637
 10
-87.07414562360898
 20
-81.99627463851624
 10
-84.41639834477547
 20
-78.3813614710853
 10
-81.80367209478322
 20
-74.7236896380714
 10
-74.06929343337738
 20
-63.652090135311774
 10
-71.47032521427347
 20
-59.98135162974566
 10
-68.83321498177247
 20
-56.346838453486335
 10
-67.04573785219434
 20
-53.95175574064585
 10
-64.30809624525891
 20
-50.41272211095992
 10
-62.438197636013676
 20
-48.09591909488866
 10
-59.55382296451142
 20
-44.69624500893706
 10
-57.57070174884415
 20
-42.48697502107568
 10
-21.522780815513215
 20
-4.489834571640788
 10
-21.249509206030417
 20
-4.141107553484776
 10
-20.771793866157786
 20
-3.3953506412955354
 10
-20.39206663750079
 20
-2.595242804910884
 10
-20.11640598676288
 20
-1.7535917348929084
 10
-20.019046764811172
 20
-1.3213775661729783
 10
-19.907219010086536
 20
-0.44282200657478277
 10
-19.89319844539073
 20
-4.331936096102554e-15
 10
-19.907219010086536
 20
0.4428220065747741
 10
-20.019046764811172
 20
1.321377566172969
 10
-20.11640598676288
 20
1.7535917348928989
 10
-20.39206663750079
 20
2.595242804910875
 10
-20.77179386615779
 20
3.3953506412955266
 10
-20.998845513720045
 20
3.775791773509916
 10
-21.522780815513215
 20
4.4898345716407775
 10
-57.570701748844165
 20
42.48697502107566
 10
-59.553822964511426
 20
44.69624500893704
 10
-61.48795900239929
 20
46.95203860785526
 10
-63.37803804278853
 20
49.249675284799785
 10
-66.14133012742673
 20
52.76434740551171
 10
-68.83321498177249
 20
56.34683845348632
 10
-71.47032521427347
 20
59.98135162974563
 10
-82.67060521246792
 20
75.94668943420386
 10
-85.29649040446863
 20
79.59186357857655
 10
-87.97294082812647
 20
83.18901345770699
 10
-90.71658909188915
 20
86.72234227261728
 10
-93.5440678042043
 20
90.17605322432948
 10
-96.47200957351964
 20
93.53434951386565
 10
-98.72717917484043
 20
95.98134170118841
 10
-99.15029214046929
 20
96.56320191223675
 10
-99.49383731827017
 20
97.19531155280099
 10
-99.6338789655852
 20
97.52685865515868
 10
-99.84750454579863
 20
98.2138448255893
 10
-99.96963284062508
 20
98.92283746764369
 10
-99.99817420107972
 20
99.64170552064637
 10
-99.97713420358822
 20
100.00099991605221
 10
-99.93264027657202
 20
100.3581489529026
 10
-99.77415237071972
 20
101.05990921865083
 10
-99.52542225553312
 20
101.7349790051794
 10
-99.36848782002318
 20
102.05887208478387
 10
-98.99283740221794
 20
102.67244575638918
 10
-98.5403132908109
 20
103.23173800153452
 10
-98.28759532714778
 20
103.487997196309
 10
-97.73465383544567
 20
103.94825972317678
 10
-97.12636651980361
 20
104.3324112928904
 10
-96.80468844719903
 20
104.49383731827012
 10
-96.47314134484135
 20
104.63387896558515
 10
-95.78615517441071
 20
104.84750454579859
 10
-95.07716253235633
 20
104.96963284062504
 10
-94.35829447935365
 20
104.99817420107968
 10
-93.9990000839478
 20
104.97713420358818
 10
-93.64185104709742
 20
104.93264027657197
 10
-92.94009078134918
 20
104.77415237071968
 10
-92.59848459764548
 20
104.66083706142796
 10
-91.94112791521614
 20
104.36848782002313
 10
-91.32755424361083
 20
103.9928374022179
 10
-91.04050106826935
 20
103.77573001268254
 10
-90.51200280369102
 20
103.28759532714774
 10
-87.43917055698066
 20
100.17094624499327
 10
-85.32959865459661
 20
98.15113107698282
 10
-82.08541982642205
 20
95.19721819531442
 10
-78.75950138745006
 20
92.32093740631295
 10
-75.36764459124133
 20
89.5072814892599
 10
-71.92565069135672
 20
86.74124322343675
 10
-59.13141167651607
 20
76.76397427815641
 10
-54.51666851142191
 20
73.10006393762104
 10
-49.98133942221883
 20
69.36073017827458
 10
-47.75515978834366
 20
67.45166305675566
 10
-45.562879232161976
 20
65.51040032878417
 10
-42.348260721798496
 20
62.52841257241079
 10
-39.23625055884658
 20
59.44897266698823
 10
-4.738431952239166
 20
23.16371541972581
 10
-4.0007390751858
 20
22.572071048023616
 10
-3.6036165518103567
 20
22.314956798322708
 10
-3.1900340291583045
 20
22.085253657447126
 10
-2.3211119139360785
 20
21.71214750485797
 10
-1.4098302716156483
 20
21.45956165451807
 10
-0.4728196916960414
 20
21.33210571491199
 10
2.0451547471209973e-16
 20
21.316118998056893
 10
0.9434797163821746
 20
21.379992844015618
 10
1.4098302716156454
 20
21.459561654518073
 10
2.321111913936075
 20
21.71214750485797
 10
3.190034029158301
 20
22.08525365744713
 10
3.6036165518103536
 20
22.31495679832271
 10
4.000739075185798
 20
22.57207104802362
 10
4.738431952239162
 20
23.16371541972581
 10
39.23625055884658
 20
59.448972666988254
 10
42.34826072179847
 20
62.52841257241081
 10
45.56287923216196
 20
65.5104003287842
 10
47.755159788343654
 20
67.45166305675568
 10
49.98133942221881
 20
69.3607301782746
 10
54.51666851142189
 20
73.10006393762107
 10
59.13141167651606
 20
76.76397427815644
 10
71.92565069135671
 20
86.74124322343678
 10
75.36764459124132
 20
89.50728148925992
 10
78.75950138745003
 20
92.32093740631298
 10
82.08541982642203
 20
95.19721819531443
 10
85.32959865459657
 20
98.15113107698285
 10
87.43917055698061
 20
100.17094624499329
 10
90.51200280369099
 20
103.28759532714777
 10
91.04050106826932
 20
103.77573001268256
 10
91.62819231872388
 20
104.19070577224404
 10
92.26502099482059
 20
104.5254222555331
 10
92.59848459764545
 20
104.66083706142798
 10
93.28837673580874
 20
104.8648829498574
 10
93.64185104709739
 20
104.932640276572
 10
93.99900008394778
 20
104.97713420358821
 10
94.71819567955389
 20
104.99567017254712
 10
95.0771625323563
 20
104.96963284062507
 10
95.78615517441068
 20
104.84750454579861
 10
96.47314134484131
 20
104.63387896558518
 10
96.804688447199
 20
104.49383731827015
 10
97.12636651980358
 20
104.33241129289043
 10
97.73465383544564
 20
103.9482597231768
 10
98.28759532714776
 20
103.48799719630902
 10
98.54031329081087
 20
103.23173800153457
 10
98.99283740221792
 20
102.67244575638921
 10
99.36848782002315
 20
102.0588720847839
 10
99.66083706142797
 20
101.40151540235456
 10
99.77415237071969
 20
101.05990921865086
 10
99.93264027657199
 20
100.35814895290262
 10
99.9771342035882
 20
100.00099991605224
 10
99.99567017254711
 20
99.28180432044613
 10
99.96963284062505
 20
98.92283746764372
 10
99.8475045457986
 20
98.21384482558933
 10
99.63387896558517
 20
97.5268586551587
 10
99.49383731827014
 20
97.19531155280102
 10
99.15029214046926
 20
96.56320191223678
 10
98.7271791748404
 20
95.98134170118844
 10
96.47200957351961
 20
93.53434951386568
 10
93.54406780420427
 20
90.17605322432951
 10
90.7165890918891
 20
86.72234227261731
 10
87.97294082812644
 20
83.18901345770702
 10
85.2964904044686
 20
79.59186357857658
 10
82.67060521246789
 20
75.94668943420389
 10
74.06929343337737
 20
63.65209013531176
 10
70.59634783497516
 20
58.76504211223116
 10
67.94282746279787
 20
55.14611444551364
 10
65.22898826595993
 20
51.58447450674015
 10
63.37803804278851
 20
49.24967528479979
 10
61.48795900239926
 20
46.95203860785526
 10
59.553822964511404
 20
44.696245008937055
 10
57.57070174884415
 20
42.48697502107568
 10
21.817565650088344
 20
4.820575870915317
 10
21.24950920603041
 20
4.141107553484766
 10
20.77179386615778
 20
3.3953506412955274
 10
20.569263804004766
 20
3.001308156700784
 10
20.392066637500783
 20
2.5952428049108764
 10
20.116405986762874
 20
1.7535917348929018
 10
20.019046764811165
 20
1.3213775661729725
 10
19.90721901008653
 20
0.44282200657477755
 10
19.90721901008653
 20
-0.4428220065747779
 10
19.949224539535557
 20
-0.883870123266153
 10
20.019046764811165
 20
-1.3213775661729725
 10
20.240912196456367
 20
-2.17878123322166
 10
20.392066637500783
 20
-2.595242804910877
 10
20.77179386615778
 20
-3.3953506412955274
 10
20.998845513720035
 20
-3.775791773509918
  0
LWPOLYLINE
  5
3A
330
17
100
AcDbEntity
  8
CUT_JAG
100
AcDbPolyline
 90
489
 70
1
 10
22.839391454357383
 20
-5.896466532553086
 10
30.809632727655877
 20
-14.288413693327694
 10
30.774919316170465
 20
-14.730656399384458
 10
30.91141434935657
 20
-17.05666253574197
 10
31.319375464097384
 20
-19.124844102180685
 10
31.49006507493481
 20
-19.37200554583033
 10
33.45317111417149
 20
-18.73536911260382
 10
34.486742923236086
 20
-18.572282959618377
 10
34.8291099440391
 20
-18.65639399882835
 10
34.99014454046933
 20
-22.18691477714825
 10
34.513394038483725
 20
-26.732444838559374
 10
39.32059350424701
 20
-27.078097430445673
 10
43.40906942397481
 20
-28.10635680726012
 10
42.70389979153525
 20
-32.45955396375286
 10
42.5793816190307
 20
-36.26127812563404
 10
42.718411464535635
 20
-36.538508391634565
 10
48.3120038903468
 20
-37.365106318971186
 10
53.655181138506876
 20
-38.429535746689936
 10
52.854413927846664
 20
-42.46425289589191
 10
52.479707607840965
 20
-45.23712941365358
 10
52.524809664242156
 20
-45.5653492630066
 10
55.83303121487818
 20
-45.268727634524424
 10
59.02996866703415
 20
-44.76396391218529
 10
59.481497316240485
 20
-44.759660647168936
 10
58.10721868262941
 20
-48.65004856178094
 10
56.43113681288939
 20
-52.699422802146714
 10
56.59853057367221
 20
-52.899738788462194
 10
62.455846292586074
 20
-54.10588766834849
 10
67.6336004715262
 20
-55.37689402226188
 10
67.89618550239366
 20
-55.55289821231998
 10
67.99533509680549
 20
-59.172241772531706
 10
67.7703020360454
 20
-62.986419745231856
 10
67.91267819454933
 20
-63.25298799837548
 10
72.21456449107073
 20
-64.9544225342632
 10
76.11602974169371
 20
-67.10317846818523
 10
75.43269023588549
 20
-69.10218287102091
 10
75.23429290246665
 20
-70.4595076781334
 10
75.44025833280998
 20
-70.62097198601376
 10
77.80526770153226
 20
-71.4145277860097
 10
80.03052906401183
 20
-72.60839838205106
 10
80.1866810851906
 20
-72.80429048919532
 10
80.40669405429145
 20
-74.60719058416608
 10
80.4956719310072
 20
-77.1209017183093
 10
80.93693837995251
 20
-77.18009087198159
 10
83.54130862162027
 20
-77.16610840075145
 10
87.97294082812645
 20
-83.18901345770702
 10
91.64894613833043
 20
-87.88320577460402
 10
94.508064468707
 20
-91.30686703881064
 10
98.7271791748404
 20
-95.98134170118843
 10
99.15029214046926
 20
-96.56320191223676
 10
99.49383731827014
 20
-97.195311552801
 10
99.8475045457986
 20
-98.21384482558932
 10
99.99567017254711
 20
-99.28180432044611
 10
99.93264027657199
 20
-100.35814895290261
 10
99.66083706142797
 20
-101.40151540235455
 10
99.36848782002315
 20
-102.05887208478389
 10
98.77573001268256
 20
-102.95949893173068
 10
98.01865829881157
 20
-103.7271791748404
 10
97.43679808776324
 20
-104.15029214046926
 10
96.47314134484131
 20
-104.63387896558517
 10
95.78615517441068
 20
-104.8475045457986
 10
94.71819567955389
 20
-104.99567017254711
 10
93.99900008394778
 20
-104.9771342035882
 10
92.94009078134916
 20
-104.77415237071969
 10
92.26502099482059
 20
-104.52542225553309
 10
91.3275542436108
 20
-103.99283740221792
 10
90.76826199846545
 20
-103.54031329081087
 10
86.39009615850408
 20
-99.15561412097185
 10
82.08541982642204
 20
-95.19721819531442
 10
76.50461462142603
 20
-90.43913484748818
 10
70.30632022944778
 20
-85.46283539284138
 10
70.09797934161024
 20
-85.25080512156545
 10
69.16856950793249
 20
-83.08631535843017
 10
68.14127056590334
 20
-81.03784351137648
 10
67.89997916093218
 20
-80.86746078975402
 10
66.56960240850754
 20
-81.13553123172093
 10
65.10427187612522
 20
-81.09874558513951
 10
64.41206265523381
 20
-79.10181976584545
 10
64.09094834067703
 20
-76.63062931554471
 10
63.96024443850409
 20
-76.3178697362956
 10
59.66470019122715
 20
-75.13102525553134
 10
55.787433942287684
 20
-73.86783993525633
 10
55.6277677856312
 20
-73.59713560397692
 10
56.35000664687186
 20
-70.82783112828372
 10
56.64349442722118
 20
-68.60767456936267
 10
56.36316152960078
 20
-68.50566504821035
 10
52.74061499661468
 20
-68.79244315030513
 10
49.8201242483283
 20
-68.64487904642583
 10
49.58931017901201
 20
-68.46342395395274
 10
50.24086819676013
 20
-66.36825499917762
 10
50.54227073109047
 20
-65.12258525873814
 10
50.587958843677285
 20
-64.6212960831125
 10
48.56910056309108
 20
-64.7485527743078
 10
45.62460263068829
 20
-65.4419171545539
 10
44.40004126470661
 20
-60.78550211326506
 10
44.012309859764656
 20
-55.96403016425605
 10
43.79504299545501
 20
-55.76850114118243
 10
36.757714157708634
 20
-56.572567538520914
 10
36.55300341987908
 20
-56.36465346139185
 10
36.130984347105844
 20
-53.546762799916536
 10
35.40435654160754
 20
-51.01817389967251
 10
35.12244778574968
 20
-50.88357854318338
 10
32.20228114063049
 20
-50.035962556958964
 10
29.46131267684985
 20
-49.0181533231315
 10
29.705686355380564
 20
-44.360343453656945
 10
30.390932095073204
 20
-39.283815897953154
 10
19.691132376525847
 20
-38.58281547205799
 10
19.50222063665035
 20
-38.35989631647006
 10
21.375783954910787
 20
-30.9477521037577
 10
15.731580337145793
 20
-30.273259750896305
 10
10.768074923057851
 20
-28.95227513424114
 10
10.299080714152973
 20
-28.995363951751468
 10
5.075632795302375
 20
-23.495543127141577
 10
4.000739075185799
 20
-22.57207104802362
 10
2.7618806005684564
 20
-21.884010825132282
 10
1.8697412390302433
 20
-21.57044870526392
 10
0.9434797163821749
 20
-21.37999284401562
 10
-1.1256858547736453e-15
 20
-21.316118998056897
 10
-0.9434797163821772
 20
-21.37999284401562
 10
-2.3211119139360763
 20
-21.712147504857974
 10
-3.6036165518103562
 20
-22.31495679832271
 10
-4.379587689188069
 20
-22.855422002918612
 10
-5.075632795302376
 20
-23.495543127141577
 10
-12.709902830545568
 20
-31.533742793879124
 10
-13.05242960507858
 20
-31.61076626328479
 10
-17.376633989739478
 20
-31.929574856662832
 10
-21.60225944014392
 20
-32.74434651221636
 10
-21.627966765347022
 20
-33.12226885560873
 10
-21.467513852261295
 20
-36.09102371069654
 10
-20.89835481233953
 20
-39.8502845395053
 10
-31.98864310810717
 20
-40.582756772957524
 10
-30.14459918187197
 20
-45.15050007771989
 10
-29.262440992409378
 20
-48.00001792596493
 10
-29.217103267937265
 20
-48.445415216033766
 10
-34.18227042355166
 20
-49.764821595761816
 10
-38.84257177258153
 20
-51.373773892296214
 10
-39.03625376103648
 20
-51.59216251028852
 10
-38.763886953134
 20
-54.66720744638329
 10
-38.36108292112445
 20
-57.86612897610892
 10
-38.54087755962113
 20
-58.09562795268481
 10
-41.90041965805128
 20
-57.638901494828744
 10
-44.84627469240249
 20
-57.09705250616818
 10
-45.08998450272794
 20
-57.26571159555131
 10
-43.05733594843118
 20
-62.62922217475416
 10
-43.06156294088872
 20
-63.04976690774367
 10
-47.60780956268319
 20
-63.24151489056462
 10
-52.13107636477103
 20
-62.8352408817928
 10
-52.475939476243674
 20
-62.88449316743565
 10
-52.41384650117706
 20
-66.91970160299958
 10
-52.67900595690164
 20
-71.1661471016231
 10
-52.95784123967952
 20
-71.2897389813316
 10
-55.58791642219384
 20
-71.31140764149539
 10
-58.68880681620726
 20
-70.69684714974824
 10
-58.98722286807439
 20
-70.79496190790539
 10
-60.28803567106339
 20
-74.8149777317578
 10
-61.61327644086858
 20
-78.37766263263212
 10
-61.8321272368136
 20
-78.57665970468804
 10
-63.65809207936884
 20
-78.14886850820808
 10
-65.21263768867261
 20
-77.58783336656539
 10
-65.60927527571125
 20
-77.5579296508343
 10
-66.36141334124842
 20
-80.44084596650934
 10
-67.35105811627737
 20
-83.01723600066407
 10
-67.51838038824864
 20
-83.2826236360828
 10
-75.36764459124132
 20
-89.50728148925992
 10
-80.98508221692438
 20
-94.23057324155928
 10
-85.32959865459657
 20
-98.15113107698285
 10
-88.47623661841286
 20
-101.1976832720367
 10
-90.76826199846545
 20
-103.54031329081089
 10
-91.3275542436108
 20
-103.99283740221793
 10
-92.26502099482059
 20
-104.5254222555331
 10
-92.94009078134916
 20
-104.7741523707197
 10
-93.99900008394778
 20
-104.97713420358821
 10
-95.0771625323563
 20
-104.96963284062507
 10
-95.78615517441068
 20
-104.84750454579861
 10
-96.804688447199
 20
-104.49383731827015
 10
-97.73465383544564
 20
-103.9482597231768
 10
-98.28759532714776
 20
-103.48799719630902
 10
-98.99283740221792
 20
-102.67244575638921
 10
-99.52542225553309
 20
-101.73497900517943
 10
-99.77415237071969
 20
-101.05990921865086
 10
-99.9771342035882
 20
-100.00099991605224
 10
-99.96963284062505
 20
-98.92283746764372
 10
-99.8475045457986
 20
-98.21384482558933
 10
-99.49383731827014
 20
-97.19531155280102
 10
-98.94825972317679
 20
-96.26534616455437
 10
-94.508064468707
 20
-91.30686703881065
 10
-90.71658909188912
 20
-86.72234227261731
 10
-86.18220082323472
 20
-80.7970296565965
 10
-81.63091632503281
 20
-74.4784905262537
 10
-81.25829058926554
 20
-74.3741103985394
 10
-77.63295744615263
 20
-73.9807893117875
 10
-77.43612009945733
 20
-70.75708595136531
 10
-76.82923699716991
 20
-68.13059686477305
 10
-76.68327465435065
 20
-67.92737860226566
 10
-72.18879770041629
 20
-66.79764669312932
 10
-72.0811955408931
 20
-66.5710120945459
 10
-71.81006039528167
 20
-63.77462510111175
 10
-71.80689788832392
 20
-60.845596023947785
 10
-71.37081319530361
 20
-60.78835551392867
 10
-68.7988943993499
 20
-60.794321443113034
 10
-66.43007386948108
 20
-60.677328529752494
 10
-66.26928508995839
 20
-60.42412564061346
 10
-66.33801781514384
 20
-57.45273887258582
 10
-66.60616552111658
 20
-53.91130986861413
 10
-66.34664059301582
 20
-53.733728137536644
 10
-63.45324852000448
 20
-52.60094813121902
 10
-60.72011153928284
 20
-51.39489567596163
 10
-60.64415065294562
 20
-51.09280920507573
 10
-60.460254747770854
 20
-48.965722668774156
 10
-60.470012297986294
 20
-46.25643249445465
 10
-60.416498325628545
 20
-45.91311196172981
 10
-53.25494953439493
 20
-44.88514572181711
 10
-53.146544065972556
 20
-44.61011879798083
 10
-53.35079872887153
 20
-42.40129067246439
 10
-54.118020652495865
 20
-39.62704924816882
 10
-53.94300158696883
 20
-39.38399969867162
 10
-50.062940284502496
 20
-38.15779880094046
 10
-45.27457885791668
 20
-37.38498111790299
 10
-44.07865266757942
 20
-28.698242024156556
 10
-41.633612756809704
 20
-29.3833208593187
 10
-39.423910349686
 20
-29.844888196043193
 10
-39.23443796485447
 20
-27.159923545748157
 10
-39.64950089348585
 20
-23.900802240958193
 10
-36.23329452426396
 20
-24.280424138652
 10
-33.113267828676044
 20
-24.788023450505243
 10
-32.966561693674585
 20
-24.518083730810382
 10
-32.35528684832182
 20
-19.778083314842995
 10
-31.143915347018336
 20
-15.198750256866177
 10
-30.8531084331309
 20
-15.06567007088714
 10
-29.964798001676158
 20
-15.090794412976793
 10
-29.439436594432518
 20
-15.180482062396354
 10
-28.187701745840506
 20
-15.550768288098809
 10
-27.746003705349082
 20
-15.560996760050202
 10
-27.408757926916568
 20
-13.425653391791048
 10
-27.33542499314116
 20
-10.63038544375929
 10
-21.817565650088355
 20
-4.8205758709153255
 10
-21.249509206030417
 20
-4.141107553484776
 10
-20.771793866157786
 20
-3.3953506412955354
 10
-20.240912196456378
 20
-2.178781233221667
 10
-19.949224539535564
 20
-0.8838701232661579
 10
-19.89319844539073
 20
-4.331936096102554e-15
 10
-19.949224539535564
 20
0.8838701232661492
 10
-20.240912196456378
 20
2.1787812332216583
 10
-20.77179386615779
 20
3.3953506412955266
 10
-21.249509206030417
 20
4.1411075534847654
 10
-21.817565650088355
 20
4.820575870915316
 10
-29.992172084240664
 20
13.427701164017478
 10
-29.784315257094615
 20
14.034386611581077
 10
-29.930064698356002
 20
20.035066569469986
 10
-33.583924084621984
 20
20.248281391614217
 10
-36.464466348748736
 20
20.78667949189798
 10
-36.783839551306116
 20
20.892628881100027
 10
-35.90157322208724
 20
24.18620234155069
 10
-34.91983548006099
 20
27.16497496424278
 10
-35.076273851714326
 20
27.42567150440398
 10
-38.99531078032278
 20
27.796307975954313
 10
-43.21769595791076
 20
27.878839829127234
 10
-43.55038717076105
 20
27.972140454784768
 10
-42.623227258667505
 20
31.717625226279985
 10
-42.356803414148025
 20
34.42630306055889
 10
-42.500599004152775
 20
34.699007066707885
 10
-47.35157280618837
 20
36.23090609903737
 10
-52.33294830484399
 20
37.63895628382321
 10
-52.5088126551266
 20
37.88120302518572
 10
-52.422521386047464
 20
40.00952648512904
 10
-52.188368137063456
 20
41.86900798762245
 10
-52.227475246948984
 20
42.2411397462465
 10
-55.61233701307741
 20
42.68898663435339
 10
-57.43800336599084
 20
43.008565951302174
 10
-57.684814649685215
 20
43.185379266348484
 10
-57.606996681092944
 20
46.776905908048626
 10
-56.87754779773628
 20
50.82186740254813
 10
-60.20275891092614
 20
50.684626311551554
 10
-63.853738865693494
 20
50.39470183200334
 10
-64.08913600731421
 20
50.58630641640291
 10
-63.05619041756462
 20
56.23994985468919
 10
-63.32254436138232
 20
56.4123301614678
 10
-66.11235469265951
 20
56.51221683329193
 10
-68.85778035660964
 20
56.69976312374805
 10
-69.08206398071242
 20
56.906305269285276
 10
-68.9961957922558
 20
59.92021107279783
 10
-68.55976041927067
 20
63.15984936742552
 10
-68.58651323118207
 20
63.50882303733607
 10
-73.90727825079601
 20
63.765852106985804
 10
-74.18010854402102
 20
63.87976667892178
 10
-75.44653990351193
 20
68.48301728390977
 10
-77.05482056561888
 20
73.16112681770058
 10
-82.28799411360082
 20
75.48289346159329
 10
-82.49721858893099
 20
75.70208947497737
 10
-87.07414562360901
 20
81.99627463851621
 10
-90.71658909188915
 20
86.72234227261728
 10
-94.50806446870703
 20
91.30686703881061
 10
-98.72717917484043
 20
95.98134170118841
 10
-99.15029214046929
 20
96.56320191223675
 10
-99.49383731827017
 20
97.19531155280099
 10
-99.84750454579863
 20
98.2138448255893
 10
-99.96963284062508
 20
98.92283746764369
 10
-99.97713420358822
 20
100.00099991605221
 10
-99.77415237071972
 20
101.05990921865083
 10
-99.52542225553312
 20
101.7349790051794
 10
-98.99283740221794
 20
102.67244575638918
 10
-98.5403132908109
 20
103.23173800153452
 10
-97.73465383544567
 20
103.94825972317678
 10
-96.80468844719903
 20
104.49383731827012
 10
-95.78615517441071
 20
104.84750454579859
 10
-95.07716253235633
 20
104.96963284062504
 10
-93.9990000839478
 20
104.97713420358818
 10
-92.94009078134918
 20
104.77415237071968
 10
-91.94112791521614
 20
104.36848782002313
 10
-91.04050106826935
 20
103.77573001268254
 10
-86.39009615850411
 20
99.15561412097183
 10
-82.08541982642205
 20
95.19721819531442
 10
-76.50461462142606
 20
90.43913484748816
 10
-70.09295184409278
 20
85.257201389433
 10
-67.68581628229583
 20
81.62416390883678
 10
-65.60001263209894
 20
78.05083529163146
 10
-65.3488003270634
 20
77.89383046874006
 10
-62.3265525409311
 20
76.9820742528443
 10
-58.634198540136325
 20
75.96520217216323
 10
-58.52135966283501
 20
75.63162967983206
 10
-58.10436166727133
 20
73.31618359156565
 10
-58.07250728429812
 20
70.55280261749138
 10
-57.88580602197265
 20
70.31512456801558
 10
-53.77516097733654
 20
69.82814651425214
 10
-49.652466234528895
 20
68.8418524966129
 10
-46.82349161817344
 20
64.5383591968566
 10
-44.76980463294018
 20
59.99719342921201
 10
-44.49240842135237
 20
59.89110911000018
 10
-43.40480969384595
 20
59.75566391715176
 10
-39.714356479675104
 20
59.386997491772895
 10
-39.49725750377044
 20
59.19448788466194
 10
-40.27977911465247
 20
54.836791356527
 10
-41.30346322662305
 20
50.645896698226025
 10
-41.11947318861109
 20
50.41830316247624
 10
-36.937541116616515
 20
50.76904730529421
 10
-32.1369009389763
 20
51.30507085096923
 10
-31.983441667697676
 20
51.04848075786969
 10
-31.290032551152255
 20
47.28132891989961
 10
-31.314908388916276
 20
42.42964900573375
 10
-31.020191964528966
 20
42.30721771634046
 10
-26.931841325378013
 20
42.16674516767143
 10
-23.019874373379697
 20
41.85875243371673
 10
-22.843606152921385
 20
41.62382511144616
 10
-22.542950471789258
 20
37.081318348392735
 10
-21.789889754517848
 20
32.96848270006458
 10
-21.587317054335625
 20
32.75853802436595
 10
-18.550978968267945
 20
33.22826924786342
 10
-15.40794711536605
 20
33.799332742374226
 10
-15.073951931561757
 20
33.71420640539204
 10
-14.626005472618866
 20
31.32327808956762
 10
-14.677089443325512
 20
28.458396250106198
 10
-12.268998663052765
 20
28.331450384180318
 10
-9.985982386389733
 20
28.085715165579874
 10
-9.495473342022114
 20
28.14923767104225
 10
-5.075632795302377
 20
23.495543127141573
 10
-4.0007390751858
 20
22.572071048023616
 10
-3.1900340291583045
 20
22.085253657447126
 10
-2.3211119139360785
 20
21.71214750485797
 10
-1.4098302716156483
 20
21.45956165451807
 10
2.0451547471209973e-16
 20
21.316118998056893
 10
0.9434797163821746
 20
21.379992844015618
 10
2.321111913936075
 20
21.71214750485797
 10
3.190034029158301
 20
22.08525365744713
 10
4.3795876891880665
 20
22.85542200291861
 10
5.075632795302374
 20
23.495543127141577
 10
13.312608359643715
 20
32.168337504411035
 10
18.827494558085256
 20
31.356297540982286
 10
18.57293695050914
 20
34.01209036823198
 10
17.91616554479962
 20
36.64754740175677
 10
18.267917810787537
 20
36.71580897224295
 10
21.080192200955782
 20
35.654206276022194
 10
24.408177620071896
 20
34.50514552114474
 10
24.432745938980567
 20
34.88414963433433
 10
23.922712775727245
 20
43.012972011348126
 10
24.144262000629666
 20
43.2048937565336
 10
33.10295947631106
 20
44.35249032065128
 10
33.3309073120539
 20
44.538334993229554
 10
33.26451292094202
 20
49.02710925807012
 10
33.59563432905855
 20
53.13834339198524
 10
33.70180010125702
 20
53.439850426422204
 10
37.15997294268263
 20
54.581171390008606
 10
40.42527757798271
 20
55.503284613288564
 10
40.622145976120706
 20
55.71864701437316
 10
41.48865781475912
 20
58.86543512376996
 10
42.240079764168016
 20
62.22023916190462
 10
42.48468759465417
 20
62.38580672882886
 10
45.42701396417003
 20
61.78636002030989
 10
48.62360797789449
 20
61.275808598288094
 10
48.569214786699405
 20
61.77034405503831
 10
47.72712677913036
 20
64.40545383325987
 10
47.553759861660474
 20
66.34905186972256
 10
47.5710189533761
 20
66.77339677745074
 10
52.38833767655859
 20
66.08023446995551
 10
52.51261486614376
 20
66.36620706789638
 10
52.236016392869324
 20
68.50145280511599
 10
52.099588782760804
 20
70.9470985495951
 10
52.36993583516822
 20
71.08040466698374
 10
54.75420433658507
 20
70.93823504623883
 10
57.90705227608617
 20
70.28866748648495
 10
58.11067034194709
 20
70.50527974017493
 10
60.29536115481841
 20
74.32849300891034
 10
62.339660303841434
 20
78.88530738342496
 10
62.51873846155249
 20
79.135788016711
 10
64.92975039777072
 20
79.87856069906996
 10
66.97755811897298
 20
80.60946582983435
 10
67.22149369468369
 20
80.77768461426686
 10
69.54227416827791
 20
83.56778689888999
 10
71.70640843065814
 20
86.54338353831639
 10
77.63542863070005
 20
91.37683487884267
 10
82.08541982642203
 20
95.19721819531443
 10
86.39009615850408
 20
99.15561412097186
 10
90.76826199846545
 20
103.54031329081089
 10
91.3275542436108
 20
103.99283740221793
 10
92.26502099482059
 20
104.5254222555331
 10
92.94009078134916
 20
104.7741523707197
 10
93.99900008394778
 20
104.97713420358821
 10
95.0771625323563
 20
104.96963284062507
 10
95.78615517441068
 20
104.84750454579861
 10
96.804688447199
 20
104.49383731827015
 10
97.73465383544564
 20
103.9482597231768
 10
98.28759532714776
 20
103.48799719630902
 10
98.99283740221792
 20
102.67244575638921
 10
99.36848782002315
 20
102.0588720847839
 10
99.66083706142797
 20
101.40151540235456
 10
99.93264027657199
 20
100.35814895290262
 10
99.99567017254711
 20
99.28180432044613
 10
99.8475045457986
 20
98.21384482558933
 10
99.49383731827014
 20
97.19531155280102
 10
99.15029214046926
 20
96.56320191223678
 10
98.7271791748404
 20
95.98134170118844
 10
94.508064468707
 20
91.30686703881065
 10
90.7165890918891
 20
86.72234227261731
 10
86.18220082323472
 20
80.7970296565965
 10
80.93684719009185
 20
73.4998354064015
 10
78.54163487290391
 20
73.03781870147681
 10
76.69237807269181
 20
72.49479913365306
 10
76.58481940537422
 20
72.26485903073038
 10
77.35388726673293
 20
68.6798974439623
 10
77.2298229449815
 20
68.46143709421406
 10
75.18103529360131
 20
68.36350063257488
 10
72.05126448005088
 20
68.71756363847254
 10
71.80952304507676
 20
68.58420044144069
 10
72.6313064760129
 20
65.88042269894635
 10
73.54233855713277
 20
63.28929787514351
 10
73.29572053359561
 20
63.096038705321185
 10
70.34881738857636
 20
62.97832926024716
 10
68.29797985263563
 20
62.610340763987146
 10
68.00689473774642
 20
62.45985960279853
 10
67.58962283787542
 20
58.00018278570907
 10
66.81828584866248
 20
53.74974517588261
 10
63.39335299227329
 20
53.38095652667997
 10
60.02045038747065
 20
53.460082615833926
 10
58.59974613342165
 20
48.23233619565201
 10
57.45473645600978
 20
42.59366038962845
 10
57.24735657988807
 20
42.38260194415562
 10
53.457563692375565
 20
43.935674350138825
 10
50.68381963947863
 20
44.93328115774413
 10
51.79851591244299
 20
40.60217489975841
 10
52.173621360089534
 20
37.38100316233597
 10
52.0177204319917
 20
37.11979618583314
 10
49.290962107678176
 20
36.02606829479938
 10
45.94105031787983
 20
35.52417962475367
 10
45.72993659153651
 20
35.315410934021685
 10
45.38028097807496
 20
32.782580103882836
 10
45.347814006264976
 20
29.948499759813572
 10
38.163646144129146
 20
32.67891729045748
 10
38.03334828560032
 20
32.39339383079611
 10
39.99278363856591
 20
24.393317259294715
 10
39.85660414386607
 20
24.11337987619781
 10
35.853802936450386
 20
24.23157211032133
 10
35.617265662462884
 20
24.04694940202532
 10
34.92121431960287
 20
21.433833793603796
 10
34.39996698588655
 20
18.654698297101096
 10
34.095254862034494
 20
18.534824566817107
 10
31.865993005728807
 20
18.605694778721695
 10
29.03849505232658
 20
19.24473897229082
 10
28.739765715456905
 20
19.11918309758639
 10
28.040328596559704
 20
15.690735751486073
 10
27.744155314848758
 20
11.06074170841438
 10
21.522780815513205
 20
4.489834571640778
 10
20.77179386615778
 20
3.3953506412955274
 10
20.392066637500783
 20
2.5952428049108764
 10
20.116405986762874
 20
1.7535917348929018
 10
19.90721901008653
 20
0.44282200657477755
 10
19.90721901008653
 20
-0.4428220065747779
 10
20.019046764811165
 20
-1.3213775661729725
 10
20.240912196456367
 20
-2.17878123322166
 10
20.77179386615778
 20
-3.3953506412955274
 10
21.24950920603041
 20
-4.141107553484766
  0
LWPOLYLINE
  5
3B
330
17
100
AcDbEntity
  8
PATCH
100
AcDbPolyline
 90
338
 70
1
 10
39.44938087201136
 20
-3.055770037192275
 10
66.7109922473486
 20
-31.760621834832918
 10
69.4702461824846
 20
-34.787941078382985
 10
72.13509065714334
 20
-37.90492558841645
 10
73.86559959531576
 20
-40.02665503309075
 10
75.56374225627367
 20
-42.179124308888376
 10
77.23335603321613
 20
-44.35868885643938
 10
79.69267933872374
 20
-47.67086683868172
 10
83.70327016481224
 20
-53.27500857677822
 10
93.20463168558008
 20
-66.84277121699695
 10
95.62455779225898
 20
-70.19236663933289
 10
98.0882205936262
 20
-73.50042319083417
 10
100.60857129172852
 20
-76.75464048362727
 10
103.1985610886127
 20
-79.94271812983858
 10
105.87114118632553
 20
-83.05235574159455
 10
109.48727161988872
 20
-87.02475694057713
 10
110.27110265489952
 20
-88.03168185614729
 10
110.9873994071183
 20
-89.08771587065763
 10
111.6330945838842
 20
-90.18833688433277
 10
112.20542321932139
 20
-91.32883186902171
 10
112.70193451434741
 20
-92.50431705010807
 10
113.12050233137117
 20
-93.70975881958265
 10
113.45933429874047
 20
-94.93999529072578
 10
113.7169794859526
 20
-96.18975840209866
 10
113.89233461676154
 20
-97.45369647619131
 10
113.98464879357613
 20
-98.72639713612713
 10
113.99352671291891
 20
-100.00241048229172
 10
113.91893035817633
 20
-101.27627242963969
 10
113.76117916239158
 20
-102.54252810574563
 10
113.52094864040347
 20
-103.79575520940536
 10
113.19926749618799
 20
-105.03058722976208
 10
112.79751321779005
 20
-106.24173642652976
 10
112.31740617870821
 20
-107.42401647290883
 10
111.76100227099118
 20
-108.57236466423376
 10
111.13068410159248
 20
-109.68186359725169
 10
110.4291507896817
 20
-110.74776222719804
 10
109.65940640860177
 20
-111.76549621249966
 10
108.82474712196581
 20
-112.73070745998612
 10
107.9287470689784
 20
-113.63926278691376
 10
106.97524305942287
 20
-114.48727161988872
 10
105.96831814385271
 20
-115.27110265489952
 10
104.91228412934237
 20
-115.9873994071183
 10
103.81166311566723
 20
-116.6330945838842
 10
102.67116813097829
 20
-117.20542321932139
 10
101.49568294989193
 20
-117.70193451434741
 10
100.29024118041735
 20
-118.12050233137117
 10
99.06000470927424
 20
-118.45933429874047
 10
97.81024159790134
 20
-118.71697948595262
 10
96.5463035238087
 20
-118.89233461676154
 10
95.27360286387288
 20
-118.98464879357613
 10
93.99758951770828
 20
-118.99352671291892
 10
92.72372757036031
 20
-118.91893035817633
 10
91.45747189425437
 20
-118.76117916239158
 10
90.20424479059464
 20
-118.52094864040347
 10
88.96941277023792
 20
-118.19926749618799
 10
87.75826357347026
 20
-117.79751321779005
 10
86.57598352709118
 20
-117.31740617870821
 10
85.42763533576624
 20
-116.76100227099118
 10
84.31813640274832
 20
-116.1306841015925
 10
83.25223777280196
 20
-115.4291507896817
 10
82.23450378750034
 20
-114.65940640860178
 10
81.26929254001388
 20
-113.82474712196581
 10
77.56983641155958
 20
-110.08887470090856
 10
75.65815037145927
 20
-108.2441448504362
 10
72.72280665431171
 20
-105.54145696001636
 10
68.70093623513633
 20
-102.04052080714317
 10
65.61889812636747
 20
-99.47715573087619
 10
61.44462183300108
 20
-96.12096686555127
 10
48.74475171086932
 20
-86.22054496678318
 10
44.54645967349903
 20
-82.8871650241554
 10
41.438529590726006
 20
-80.3483908176713
 10
39.3926097106948
 20
-78.63114938803784
 10
35.3791148539223
 20
-75.12225855529455
 10
33.41859075848235
 20
-73.32391258652666
 10
31.493582805874173
 20
-71.4918352057226
 10
28.680375546194767
 20
-68.67314836826014
 10
2.1752711979867327
 20
-40.77124457619197
 10
1.7146024607939148
 20
-40.375470827998555
 10
1.183663114529339
 20
-40.08058787533084
 10
0.6042129735495638
 20
-39.89868108792475
 10
1.8369701987210297e-16
 20
-39.837205663727104
 10
-0.6042129735495628
 20
-39.89868108792475
 10
-1.1836631145293386
 20
-40.08058787533084
 10
-1.7146024607939143
 20
-40.375470827998555
 10
-2.1752711979867323
 20
-40.77124457619197
 10
-28.680375546194767
 20
-68.67314836826014
 10
-31.493582805874187
 20
-71.49183520572262
 10
-33.41859075848237
 20
-73.32391258652669
 10
-35.3791148539223
 20
-75.12225855529456
 10
-39.39260971069479
 20
-78.63114938803785
 10
-41.438529590726006
 20
-80.34839081767132
 10
-44.54645967349906
 20
-82.88716502415541
 10
-48.74475171086932
 20
-86.22054496678318
 10
-61.44462183300107
 20
-96.12096686555128
 10
-65.61889812636747
 20
-99.4771557308762
 10
-68.70093623513634
 20
-102.0405208071432
 10
-72.72280665431171
 20
-105.54145696001639
 10
-75.65815037145927
 20
-108.24414485043621
 10
-77.56983641155958
 20
-110.08887470090858
 10
-81.26929254001388
 20
-113.82474712196583
 10
-82.23450378750034
 20
-114.65940640860178
 10
-83.25223777280196
 20
-115.42915078968171
 10
-84.31813640274831
 20
-116.1306841015925
 10
-85.42763533576624
 20
-116.7610022709912
 10
-86.57598352709118
 20
-117.31740617870823
 10
-87.75826357347024
 20
-117.79751321779007
 10
-88.96941277023792
 20
-118.199267496188
 10
-90.20424479059464
 20
-118.52094864040349
 10
-91.45747189425437
 20
-118.7611791623916
 10
-92.72372757036031
 20
-118.91893035817634
 10
-93.99758951770828
 20
-118.99352671291894
 10
-95.27360286387287
 20
-118.98464879357614
 10
-96.54630352380869
 20
-118.89233461676156
 10
-97.81024159790134
 20
-118.71697948595263
 10
-99.06000470927422
 20
-118.45933429874049
 10
-100.29024118041735
 20
-118.12050233137118
 10
-101.49568294989193
 20
-117.70193451434741
 10
-102.67116813097829
 20
-117.2054232193214
 10
-103.81166311566724
 20
-116.63309458388422
 10
-104.91228412934237
 20
-115.98739940711832
 10
-105.96831814385271
 20
-115.27110265489952
 10
-106.97524305942285
 20
-114.48727161988873
 10
-107.9287470689784
 20
-113.63926278691378
 10
-108.82474712196581
 20
-112.73070745998612
 10
-109.65940640860177
 20
-111.76549621249967
 10
-110.4291507896817
 20
-110.74776222719805
 10
-111.13068410159248
 20
-109.6818635972517
 10
-111.76100227099118
 20
-108.57236466423377
 10
-112.31740617870821
 20
-107.42401647290885
 10
-112.79751321779005
 20
-106.24173642652977
 10
-113.19926749618799
 20
-105.03058722976209
 10
-113.52094864040347
 20
-103.79575520940537
 10
-113.76117916239158
 20
-102.54252810574565
 10
-113.91893035817633
 20
-101.2762724296397
 10
-113.99352671291891
 20
-100.00241048229174
 10
-113.98464879357613
 20
-98.72639713612715
 10
-113.89233461676154
 20
-97.45369647619133
 10
-113.71697948595262
 20
-96.18975840209868
 10
-113.45933429874047
 20
-94.93999529072578
 10
-113.12050233137117
 20
-93.70975881958267
 10
-112.70193451434741
 20
-92.50431705010809
 10
-112.20542321932139
 20
-91.32883186902174
 10
-111.63309458388422
 20
-90.18833688433278
 10
-110.9873994071183
 20
-89.08771587065765
 10
-110.27110265489952
 20
-88.0316818561473
 10
-109.48727161988872
 20
-87.02475694057715
 10
-105.87114118632552
 20
-83.05235574159455
 10
-103.1985610886127
 20
-79.9427181298386
 10
-100.60857129172852
 20
-76.75464048362728
 10
-98.08822059362622
 20
-73.5004231908342
 10
-95.62455779225898
 20
-70.1923666393329
 10
-93.20463168558008
 20
-66.84277121699697
 10
-83.70327016481227
 20
-53.275008576778255
 10
-79.69267933872375
 20
-47.67086683868173
 10
-77.23335603321615
 20
-44.3586888564394
 10
-75.56374225627368
 20
-42.17912430888839
 10
-73.86559959531576
 20
-40.02665503309076
 10
-72.13509065714334
 20
-37.90492558841646
 10
-69.4702461824846
 20
-34.787941078382985
 10
-66.71099224734863
 20
-31.760621834832946
 10
-38.509311065553085
 20
-2.065961087535142
 10
-38.15843100710952
 20
-1.618196474361399
 10
-37.89838291730127
 20
-1.112246916390381
 10
-37.73851725757715
 20
-0.5663046712169931
 10
-37.684582263539816
 20
-3.553599235970977e-15
 10
-37.73851725757715
 20
0.566304671216985
 10
-37.89838291730127
 20
1.112246916390373
 10
-38.15843100710952
 20
1.6181964743613915
 10
-38.509311065553085
 20
2.0659610875351344
 10
-66.71099224734863
 20
31.76062183483292
 10
-69.47024618248462
 20
34.78794107838297
 10
-72.13509065714334
 20
37.90492558841643
 10
-73.86559959531577
 20
40.02665503309074
 10
-75.56374225627368
 20
42.179124308888376
 10
-77.23335603321615
 20
44.35868885643937
 10
-79.69267933872376
 20
47.670866838681704
 10
-83.70327016481227
 20
53.27500857677822
 10
-93.20463168558011
 20
66.84277121699694
 10
-95.62455779225901
 20
70.19236663933287
 10
-98.08822059362623
 20
73.50042319083417
 10
-100.60857129172855
 20
76.75464048362726
 10
-103.19856108861273
 20
79.94271812983857
 10
-105.87114118632554
 20
83.05235574159452
 10
-109.48727161988874
 20
87.02475694057712
 10
-110.27110265489954
 20
88.03168185614726
 10
-110.98739940711833
 20
89.08771587065762
 10
-111.63309458388423
 20
90.18833688433276
 10
-112.20542321932142
 20
91.3288318690217
 10
-112.70193451434744
 20
92.50431705010806
 10
-113.1205023313712
 20
93.70975881958263
 10
-113.4593342987405
 20
94.93999529072575
 10
-113.71697948595263
 20
96.18975840209863
 10
-113.89233461676157
 20
97.45369647619128
 10
-113.98464879357616
 20
98.7263971361271
 10
-113.99352671291895
 20
100.00241048229171
 10
-113.91893035817635
 20
101.27627242963968
 10
-113.76117916239161
 20
102.54252810574562
 10
-113.5209486404035
 20
103.79575520940534
 10
-113.19926749618801
 20
105.03058722976205
 10
-112.79751321779008
 20
106.24173642652974
 10
-112.31740617870824
 20
107.4240164729088
 10
-111.76100227099121
 20
108.57236466423375
 10
-111.13068410159251
 20
109.68186359725166
 10
-110.42915078968173
 20
110.74776222719802
 10
-109.6594064086018
 20
111.76549621249964
 10
-108.82474712196584
 20
112.73070745998609
 10
-107.92874706897842
 20
113.63926278691375
 10
-106.9752430594229
 20
114.4872716198887
 10
-105.96831814385276
 20
115.2711026548995
 10
-104.9122841293424
 20
115.98739940711829
 10
-103.81166311566727
 20
116.63309458388419
 10
-102.67116813097832
 20
117.20542321932137
 10
-101.49568294989197
 20
117.70193451434739
 10
-100.29024118041738
 20
118.12050233137116
 10
-99.06000470927425
 20
118.45933429874046
 10
-97.81024159790135
 20
118.7169794859526
 10
-96.54630352380873
 20
118.89233461676153
 10
-95.27360286387291
 20
118.98464879357611
 10
-93.9975895177083
 20
118.99352671291891
 10
-92.72372757036034
 20
118.91893035817631
 10
-91.4574718942544
 20
118.76117916239157
 10
-90.20424479059469
 20
118.52094864040346
 10
-88.96941277023797
 20
118.19926749618799
 10
-87.75826357347027
 20
117.79751321779004
 10
-86.5759835270912
 20
117.3174061787082
 10
-85.42763533576627
 20
116.76100227099117
 10
-84.31813640274837
 20
116.13068410159248
 10
-83.252237772802
 20
115.42915078968169
 10
-82.23450378750037
 20
114.65940640860177
 10
-81.26929254001391
 20
113.82474712196579
 10
-77.56983641155962
 20
110.08887470090855
 10
-74.6883037399284
 20
107.33507983761136
 10
-71.72803756038866
 20
104.6560620245389
 10
-67.67910671249568
 20
101.18082647984468
 10
-64.58140042304267
 20
98.6323422384989
 10
-61.444621833001094
 20
96.12096686555125
 10
-48.74475171086936
 20
86.22054496678317
 10
-44.54645967349906
 20
82.88716502415538
 10
-41.43852959072603
 20
80.3483908176713
 10
-39.39260971069481
 20
78.63114938803784
 10
-35.37911485392232
 20
75.12225855529455
 10
-33.41859075848238
 20
73.32391258652666
 10
-31.49358280587419
 20
71.4918352057226
 10
-28.680375546194785
 20
68.67314836826014
 10
-2.175271197986733
 20
40.77124457619196
 10
-1.7146024607939152
 20
40.375470827998555
 10
-1.1836631145293393
 20
40.08058787533084
 10
-0.6042129735495638
 20
39.89868108792475
 10
-1.3715007717735922e-15
 20
39.837205663727104
 10
0.6042129735495616
 20
39.89868108792475
 10
1.1836631145293361
 20
40.08058787533084
 10
1.7146024607939108
 20
40.375470827998555
 10
2.1752711979867283
 20
40.77124457619197
 10
28.680375546194767
 20
68.67314836826014
 10
31.493582805874173
 20
71.49183520572261
 10
33.41859075848237
 20
73.32391258652669
 10
35.3791148539223
 20
75.12225855529456
 10
39.39260971069479
 20
78.63114938803785
 10
41.438529590726006
 20
80.34839081767132
 10
44.54645967349904
 20
82.88716502415542
 10
48.74475171086932
 20
86.22054496678318
 10
61.44462183300107
 20
96.12096686555128
 10
65.61889812636747
 20
99.4771557308762
 10
68.70093623513631
 20
102.04052080714318
 10
72.72280665431171
 20
105.54145696001638
 10
75.65815037145927
 20
108.24414485043621
 10
77.56983641155958
 20
110.08887470090858
 10
81.26929254001388
 20
113.82474712196581
 10
82.23450378750033
 20
114.65940640860178
 10
83.25223777280196
 20
115.42915078968171
 10
84.31813640274831
 20
116.1306841015925
 10
85.42763533576624
 20
116.76100227099118
 10
86.57598352709117
 20
117.31740617870823
 10
87.75826357347024
 20
117.79751321779007
 10
88.96941277023792
 20
118.199267496188
 10
90.20424479059463
 20
118.52094864040349
 10
91.45747189425437
 20
118.7611791623916
 10
92.7237275703603
 20
118.91893035817634
 10
93.99758951770828
 20
118.99352671291894
 10
95.27360286387288
 20
118.98464879357614
 10
96.54630352380869
 20
118.89233461676156
 10
97.81024159790134
 20
118.71697948595263
 10
99.06000470927422
 20
118.45933429874049
 10
100.29024118041735
 20
118.12050233137118
 10
101.49568294989193
 20
117.70193451434741
 10
102.67116813097827
 20
117.2054232193214
 10
103.81166311566723
 20
116.63309458388423
 10
104.91228412934237
 20
115.98739940711832
 10
105.96831814385271
 20
115.27110265489954
 10
106.97524305942285
 20
114.48727161988873
 10
107.9287470689784
 20
113.63926278691378
 10
108.82474712196581
 20
112.73070745998614
 10
109.65940640860177
 20
111.76549621249968
 10
110.4291507896817
 20
110.74776222719805
 10
111.13068410159248
 20
109.6818635972517
 10
111.76100227099118
 20
108.57236466423377
 10
112.31740617870821
 20
107.42401647290885
 10
112.79751321779005
 20
106.24173642652977
 10
113.19926749618799
 20
105.03058722976209
 10
113.52094864040347
 20
103.79575520940537
 10
113.76117916239158
 20
102.54252810574565
 10
113.91893035817631
 20
101.27627242963972
 10
113.99352671291891
 20
100.00241048229174
 10
113.98464879357613
 20
98.72639713612713
 10
113.89233461676154
 20
97.45369647619133
 10
113.71697948595262
 20
96.18975840209869
 10
113.45933429874047
 20
94.93999529072579
 10
113.12050233137117
 20
93.70975881958266
 10
112.70193451434741
 20
92.50431705010809
 10
112.20542321932139
 20
91.32883186902174
 10
111.63309458388422
 20
90.1883368843328
 10
110.98739940711832
 20
89.08771587065765
 10
110.27110265489952
 20
88.0316818561473
 10
109.48727161988872
 20
87.02475694057715
 10
105.87114118632552
 20
83.05235574159455
 10
104.0796048555584
 20
80.9885869863695
 10
101.46352398084764
 20
77.82528930854625
 10
98.08822059362622
 20
73.5004231908342
 10
95.62455779225898
 20
70.1923666393329
 10
93.20463168558008
 20
66.84277121699697
 10
83.70327016481225
 20
53.275008576778234
 10
79.69267933872374
 20
47.67086683868172
 10
77.23335603321615
 20
44.3586888564394
 10
75.56374225627368
 20
42.17912430888839
 10
73.86559959531576
 20
40.02665503309076
 10
72.13509065714334
 20
37.90492558841646
 10
69.4702461824846
 20
34.787941078382985
 10
66.71099224734861
 20
31.76062183483294
 10
38.50931106555308
 20
2.0659610875351375
 10
38.265858303813964
 20
1.7747603800649019
 10
37.97432456008868
 20
1.2862749243003369
 10
37.833602442567944
 20
0.9337633856664264
 10
37.73851725757714
 20
0.5663046712169876
 10
37.68458226353981
 20
-6.313639038331972e-16
 10
37.708593446744736
 20
-0.3788014813997804
 10
37.78024263841359
 20
-0.7515393149541026
 10
37.97432456008869
 20
-1.2862749243003377
 10
38.265858303813964
 20
-1.7747603800649012
  0
LWPOLYLINE
  5
3C
330
17
100
AcDbEntity
  8
GUIDE
100
AcDbPolyline
 90
7
 70
1
 10
-115.49352671291895
 20
120.49352671291894
 10
0.0
 20
120.49352671291894
 10
0.0
 20
114.49352671291894
 10
6.0
 20
120.49352671291894
 10
115.49352671291891
 20
120.49352671291894
 10
115.49352671291891
 20
-120.49352671291894
 10
-115.49352671291895
 20
-120.49352671291894
  0
LWPOLYLINE
  5
3D
330
17
100
AcDbEntity
  8
ORIENT
100
AcDbPolyline
 90
7
 70
1
 10
0.0
 20
91.9902668882169
 10
3.0612244897959178
 20
85.86781790862506
 10
0.857142857142857
 20
85.86781790862506
 10
0.857142857142857
 20
47.18414443923731
 10
-0.857142857142857
 20
47.18414443923731
 10
-0.857142857142857
 20
85.86781790862506
 10
-3.0612244897959178
 20
85.86781790862506
  0
LWPOLYLINE
  5
3E
330
17
100
AcDbEntity
  8
CHECK
100
AcDbPolyline
 90
4
 70
1
 10
-124.0
 20
137.0
 10
-74.0
 20
137.0
 10
-74.0
 20
187.0
 10
-124.0
 20
187.0
  0
LINE
  5
3F
330
17
100
AcDbEntity
  8
CENTRE
100
AcDbLine
 10
0.0
 20
-129.0
 30
0.0
 11
0.0
 21
129.0
 31
0.0
  0
LINE
  5
40
330
17
100
AcDbEntity
  8
CENTRE
100
AcDbLine
 10
-124.0
 20
0.0
 30
0.0
 11
124.0
 21
0.0
 31
0.0
  0
LINE
  5
41
330
17
100
AcDbEntity
  8
CHECK
100
AcDbLine
 10
-124.0
 20
137.0
 30
0.0
 11
-74.0
 21
187.0
 31
0.0
  0
TEXT
  5
42
330
17
100
AcDbEntity
  8
CHECK
100
AcDbText
 10
-121.0
 20
166.0
 30
0.0
 40
3.0
  1
CHECK 50 X 50 MM
100
AcDbText
  0
TEXT
  5
43
330
17
100
AcDbEntity
  8
CHECK
100
AcDbText
 10
-121.0
 20
160.0
 30
0.0
 40
3.0
  1
MEASURE AFTER IMPORT
100
AcDbText
  0
TEXT
  5
44
330
17
100
AcDbEntity
  8
ORIENT
100
AcDbText
 10
4.897959183673469
 20
86.3576138269924
 30
0.0
 40
2.73
  1
FACE UP / NECK
100
AcDbText
  0
TEXT
  5
45
330
17
100
AcDbEntity
  8
NOTES
100
AcDbText
 10
-124.0
 20
-137.0
 30
0.0
 40
3.0
  1
CS-XTEE-01 X TEMPLATE 200 MM, PROPOSAL, NOT FINAL. v0.1 2026-09-29
100
AcDbText
  0
TEXT
  5
46
330
17
100
AcDbEntity
  8
NOTES
100
AcDbText
 10
-124.0
 20
-142.0
 30
0.0
 40
3.0
  1
FACE VIEW (OUTSIDE). DO NOT MIRROR OR ROTATE. CUT GUIDE, STITCH STENCIL AND EMBROIDERY PROGRAM MUST USE THE SAME ORIENTATION.
100
AcDbText
  0
TEXT
  5
47
330
17
100
AcDbEntity
  8
NOTES
100
AcDbText
 10
-124.0
 20
-147.0
 30
0.0
 40
3.0
  1
UNITS MM. CHECK SQUARE = 50 X 50 MM (LAYER CHECK). ORIGIN = X CENTRE ON CF. +Y = TOWARDS NECK.
100
AcDbText
  0
TEXT
  5
48
330
17
100
AcDbEntity
  8
NOTES
100
AcDbText
 10
-124.0
 20
-152.0
 30
0.0
 40
3.0
  1
GUIDE = MIN. SHEET FOR CUT GUIDE, STITCH STENCIL AND PLACEMENT TEMPLATE, WITH ASYMMETRIC REGISTRATION NOTCH AT CF TOP (STRAIGHT SIDE ON CF, SLOPE TO +X).
100
AcDbText
  0
TEXT
  5
49
330
17
100
AcDbEntity
  8
NOTES
100
AcDbText
 10
-124.0
 20
-157.0
 30
0.0
 40
3.0
  1
ORIENT = ENGRAVE ARROW + FACE UP / NECK ON ALL TOOLING. CUT GUIDE ALSO CARRIES THE STITCH LINE, TO LAY IT ON THE SEWN STITCH.
100
AcDbText
  0
TEXT
  5
4A
330
17
100
AcDbEntity
  8
NOTES
100
AcDbText
 10
-124.0
 20
-162.0
 30
0.0
 40
3.0
  1
CUT_JAG TEETH 3-8 MM DEEP (LESS WHERE THE ARM NARROWS), 5-15 MM APART, STAGGERED; BOTH SIDES TOGETHER <= 40% OF ARM WIDTH; VISIBLE BROWN >= 12 MM; NO TEETH IN THE LAST 18 MM BEFORE EACH TIP.
100
AcDbText
  0
TEXT
  5
4B
330
17
100
AcDbEntity
  8
NOTES
100
AcDbText
 10
-124.0
 20
-167.0
 30
0.0
 40
3.0
  1
STITCH = MACHINE PATH. CUT_JAG = CUT CREAM ONLY (EDGE B, BOTH PROTOS). PATCH = UNDER-PATCH CUT (STITCH + 10).
100
AcDbText
  0
TEXT
  5
4C
330
17
100
AcDbEntity
  8
NOTES
100
AcDbText
 10
-124.0
 20
-172.0
 30
0.0
 40
3.0
  1
BASE = STITCH OFFSET 4 MM INWARD, R >= 7. EDGE A: CUT FREEHAND 0-3 MM INSIDE BASE. B VALLEYS SIT ON BASE.
100
AcDbText
  0
ENDSEC
  0
SECTION
  2
OBJECTS
  0
DICTIONARY
  5
A
330
0
100
AcDbDictionary
281
1
  3
ACAD_COLOR
350
B
  3
ACAD_GROUP
350
C
  3
ACAD_LAYOUT
350
D
  3
ACAD_MATERIAL
350
E
  3
ACAD_MLEADERSTYLE
350
F
  3
ACAD_MLINESTYLE
350
10
  3
ACAD_PLOTSETTINGS
350
11
  3
ACAD_PLOTSTYLENAME
350
12
  3
ACAD_SCALELIST
350
14
  3
ACAD_TABLESTYLE
350
15
  3
ACAD_VISUALSTYLE
350
16
  3
EZDXF_META
350
2D
  0
DICTIONARY
  5
B
330
A
100
AcDbDictionary
281
1
  0
DICTIONARY
  5
C
330
A
100
AcDbDictionary
281
1
  0
DICTIONARY
  5
D
330
A
100
AcDbDictionary
281
1
  3
Model
350
1A
  3
Layout1
350
1E
  0
DICTIONARY
  5
E
330
A
100
AcDbDictionary
281
1
  3
ByBlock
350
1F
  3
ByLayer
350
20
  3
Global
350
21
  0
DICTIONARY
  5
F
330
A
100
AcDbDictionary
281
1
  3
Standard
350
2C
  0
DICTIONARY
  5
10
330
A
100
AcDbDictionary
281
1
  3
Standard
350
22
  0
DICTIONARY
  5
11
330
A
100
AcDbDictionary
281
1
  0
ACDBDICTIONARYWDFLT
  5
12
330
A
100
AcDbDictionary
281
1
  3
Normal
350
13
100
AcDbDictionaryWithDefault
340
13
  0
ACDBPLACEHOLDER
  5
13
330
12
  0
DICTIONARY
  5
14
330
A
100
AcDbDictionary
281
1
  0
DICTIONARY
  5
15
330
A
100
AcDbDictionary
281
1
  0
DICTIONARY
  5
16
330
A
100
AcDbDictionary
281
1
  0
LAYOUT
  5
1A
330
D
100
AcDbPlotSettings
  1

  4
A3
  6

 40
7.5
 41
20.0
 42
7.5
 43
20.0
 44
420.0
 45
297.0
 46
0.0
 47
0.0
 48
0.0
 49
0.0
140
0.0
141
0.0
142
1.0
143
1.0
 70
1024
 72
1
 73
0
 74
5
  7

 75
16
 76
0
 77
2
 78
300
147
1.0
148
0.0
149
0.0
100
AcDbLayout
  1
Model
 70
1
 71
0
 10
0.0
 20
0.0
 11
420.0
 21
297.0
 12
0.0
 22
0.0
 32
0.0
 14
1e+20
 24
1e+20
 34
1e+20
 15
-1e+20
 25
-1e+20
 35
-1e+20
146
0.0
 13
0.0
 23
0.0
 33
0.0
 16
1.0
 26
0.0
 36
0.0
 17
0.0
 27
1.0
 37
0.0
 76
1
330
17
  0
LAYOUT
  5
1E
330
D
100
AcDbPlotSettings
  1

  4
A3
  6

 40
7.5
 41
20.0
 42
7.5
 43
20.0
 44
420.0
 45
297.0
 46
0.0
 47
0.0
 48
0.0
 49
0.0
140
0.0
141
0.0
142
1.0
143
1.0
 70
0
 72
1
 73
0
 74
5
  7

 75
16
 76
0
 77
2
 78
300
147
1.0
148
0.0
149
0.0
100
AcDbLayout
  1
Layout1
 70
1
 71
1
 10
0.0
 20
0.0
 11
420.0
 21
297.0
 12
0.0
 22
0.0
 32
0.0
 14
1e+20
 24
1e+20
 34
1e+20
 15
-1e+20
 25
-1e+20
 35
-1e+20
146
0.0
 13
0.0
 23
0.0
 33
0.0
 16
1.0
 26
0.0
 36
0.0
 17
0.0
 27
1.0
 37
0.0
 76
1
330
1B
  0
MATERIAL
  5
1F
102
{ACAD_REACTORS
330
E
102
}
330
E
100
AcDbMaterial
  1
ByBlock
  2

 70
0
 40
1.0
 71
1
 41
1.0
 91
-1023410177
 42
1.0
 72
1
  3

 73
1
 74
1
 75
1
 44
0.5
 73
0
 45
1.0
 46
1.0
 77
1
  4

 78
1
 79
1
170
1
 48
1.0
171
1
  6

172
1
173
1
174
1
140
1.0
141
1.0
175
1
  7

176
1
177
1
178
1
143
1.0
179
1
  8

270
1
271
1
272
1
145
1.0
146
1.0
273
1
  9

274
1
275
1
276
1
 42
1.0
 72
1
  3

 73
1
 74
1
 75
1
 94
63
  0
MATERIAL
  5
20
102
{ACAD_REACTORS
330
E
102
}
330
E
100
AcDbMaterial
  1
ByLayer
  2

 70
0
 40
1.0
 71
1
 41
1.0
 91
-1023410177
 42
1.0
 72
1
  3

 73
1
 74
1
 75
1
 44
0.5
 73
0
 45
1.0
 46
1.0
 77
1
  4

 78
1
 79
1
170
1
 48
1.0
171
1
  6

172
1
173
1
174
1
140
1.0
141
1.0
175
1
  7

176
1
177
1
178
1
143
1.0
179
1
  8

270
1
271
1
272
1
145
1.0
146
1.0
273
1
  9

274
1
275
1
276
1
 42
1.0
 72
1
  3

 73
1
 74
1
 75
1
 94
63
  0
MATERIAL
  5
21
102
{ACAD_REACTORS
330
E
102
}
330
E
100
AcDbMaterial
  1
Global
  2

 70
0
 40
1.0
 71
1
 41
1.0
 91
-1023410177
 42
1.0
 72
1
  3

 73
1
 74
1
 75
1
 44
0.5
 73
0
 45
1.0
 46
1.0
 77
1
  4

 78
1
 79
1
170
1
 48
1.0
171
1
  6

172
1
173
1
174
1
140
1.0
141
1.0
175
1
  7

176
1
177
1
178
1
143
1.0
179
1
  8

270
1
271
1
272
1
145
1.0
146
1.0
273
1
  9

274
1
275
1
276
1
 42
1.0
 72
1
  3

 73
1
 74
1
 75
1
 94
63
  0
MLINESTYLE
  5
22
102
{ACAD_REACTORS
330
10
102
}
330
10
100
AcDbMlineStyle
  2
Standard
 70
0
  3

 62
256
 51
90.0
 52
90.0
 71
2
 49
0.5
 62
256
  6
BYLAYER
 49
-0.5
 62
256
  6
BYLAYER
  0
MLEADERSTYLE
  5
2C
102
{ACAD_REACTORS
330
F
102
}
330
F
100
AcDbMLeaderStyle
179
2
170
2
171
1
172
0
 90
2
 40
0.0
 41
0.0
173
1
 91
-1056964608
 92
-2
290
1
 42
2.0
291
1
 43
8.0
  3
Standard
 44
4.0
300

342
29
174
1
175
1
176
0
178
1
 93
-1056964608
 45
4.0
292
0
297
0
 46
4.0
 94
-1056964608
 47
1.0
 49
1.0
140
1.0
294
1
141
0.0
177
0
142
1.0
295
0
296
0
143
3.75
271
0
272
9
273
9
  0
DICTIONARY
  5
2D
330
A
100
AcDbDictionary
280
1
281
1
  3
CREATED_BY_EZDXF
350
2E
  3
WRITTEN_BY_EZDXF
350
4F
  0
DICTIONARYVAR
  5
2E
330
2D
100
DictionaryVariables
280
0
  1
1.4.4 @ 2026-09-29T02:42:59.293182+00:00
  0
DICTIONARYVAR
  5
4F
330
2D
100
DictionaryVariables
280
0
  1
1.4.4 @ 2026-09-29T02:42:59.300330+00:00
  0
ENDSEC
  0
EOF
