  0
SECTION
  2
HEADER
  9
$ACADVER
  1
AC1009
  9
$INSBASE
 10
0.0000
 20
0.0000
 30
0.0000
  9
$EXTMIN
 10
-104.0000
 20
-160.7500
 30
0.0000
  9
$EXTMAX
 10
248.0000
 20
165.7500
 30
0.0000
  9
$INSUNITS
 70
4
  9
$MEASUREMENT
 70
1
  0
ENDSEC
  0
SECTION
  2
TABLES
  0
TABLE
  2
LTYPE
 70
1
  0
LTYPE
  2
CONTINUOUS
 70
0
  3
Solid line
 72
65
 73
0
 40
0.0000
  0
ENDTAB
  0
TABLE
  2
LAYER
 70
11
  0
LAYER
  2
0
 70
0
 62
7
  6
CONTINUOUS
  0
LAYER
  2
STITCH
 70
0
 62
7
  6
CONTINUOUS
  0
LAYER
  2
BASE
 70
0
 62
4
  6
CONTINUOUS
  0
LAYER
  2
CUT_JAG
 70
0
 62
1
  6
CONTINUOUS
  0
LAYER
  2
PATCH
 70
0
 62
5
  6
CONTINUOUS
  0
LAYER
  2
STITCH_FOLLOW
 70
0
 62
6
  6
CONTINUOUS
  0
LAYER
  2
GUIDE
 70
0
 62
150
  6
CONTINUOUS
  0
LAYER
  2
ORIENT
 70
0
 62
150
  6
CONTINUOUS
  0
LAYER
  2
CENTRE
 70
0
 62
8
  6
CONTINUOUS
  0
LAYER
  2
CHECK
 70
0
 62
30
  6
CONTINUOUS
  0
LAYER
  2
NOTES
 70
0
 62
3
  6
CONTINUOUS
  0
ENDTAB
  0
TABLE
  2
STYLE
 70
1
  0
STYLE
  2
STANDARD
 70
0
 40
0.0000
 41
1.0000
 50
0.0000
 71
0
 42
2.5000
  3
txt
  4

  0
ENDTAB
  0
ENDSEC
  0
SECTION
  2
BLOCKS
  0
ENDSEC
  0
SECTION
  2
ENTITIES
  0
POLYLINE
  8
STITCH
 66
1
 10
0.0000
 20
0.0000
 30
0.0000
 70
1
  0
VERTEX
  8
STITCH
 10
20.2745
 20
-1.9236
 30
0.0000
  0
VERTEX
  8
STITCH
 10
44.8619
 20
-27.8372
 30
0.0000
  0
VERTEX
  8
STITCH
 10
46.3243
 20
-29.4183
 30
0.0000
  0
VERTEX
  8
STITCH
 10
48.4607
 20
-31.8441
 30
0.0000
  0
VERTEX
  8
STITCH
 10
51.2178
 20
-35.1652
 30
0.0000
  0
VERTEX
  8
STITCH
 10
54.5498
 20
-39.4253
 30
0.0000
  0
VERTEX
  8
STITCH
 10
57.7969
 20
-43.7660
 30
0.0000
  0
VERTEX
  8
STITCH
 10
64.8643
 20
-53.3877
 30
0.0000
  0
VERTEX
  8
STITCH
 10
66.8217
 20
-55.9834
 30
0.0000
  0
VERTEX
  8
STITCH
 10
68.8104
 20
-58.5493
 30
0.0000
  0
VERTEX
  8
STITCH
 10
70.8401
 20
-61.0764
 30
0.0000
  0
VERTEX
  8
STITCH
 10
72.9207
 20
-63.5552
 30
0.0000
  0
VERTEX
  8
STITCH
 10
75.0618
 20
-65.9765
 30
0.0000
  0
VERTEX
  8
STITCH
 10
76.5278
 20
-67.5542
 30
0.0000
  0
VERTEX
  8
STITCH
 10
77.2806
 20
-68.4592
 30
0.0000
  0
VERTEX
  8
STITCH
 10
77.9089
 20
-69.4548
 30
0.0000
  0
VERTEX
  8
STITCH
 10
78.1729
 20
-69.9813
 30
0.0000
  0
VERTEX
  8
STITCH
 10
78.4019
 20
-70.5239
 30
0.0000
  0
VERTEX
  8
STITCH
 10
78.7511
 20
-71.6481
 30
0.0000
  0
VERTEX
  8
STITCH
 10
78.9506
 20
-72.8084
 30
0.0000
  0
VERTEX
  8
STITCH
 10
78.9930
 20
-73.3958
 30
0.0000
  0
VERTEX
  8
STITCH
 10
78.9623
 20
-74.5726
 30
0.0000
  0
VERTEX
  8
STITCH
 10
78.7783
 20
-75.7354
 30
0.0000
  0
VERTEX
  8
STITCH
 10
78.6296
 20
-76.3053
 30
0.0000
  0
VERTEX
  8
STITCH
 10
78.4440
 20
-76.8642
 30
0.0000
  0
VERTEX
  8
STITCH
 10
77.9653
 20
-77.9397
 30
0.0000
  0
VERTEX
  8
STITCH
 10
77.3503
 20
-78.9436
 30
0.0000
  0
VERTEX
  8
STITCH
 10
76.9949
 20
-79.4132
 30
0.0000
  0
VERTEX
  8
STITCH
 10
76.6095
 20
-79.8586
 30
0.0000
  0
VERTEX
  8
STITCH
 10
75.7556
 20
-80.6690
 30
0.0000
  0
VERTEX
  8
STITCH
 10
75.2908
 20
-81.0306
 30
0.0000
  0
VERTEX
  8
STITCH
 10
74.2952
 20
-81.6589
 30
0.0000
  0
VERTEX
  8
STITCH
 10
73.2261
 20
-82.1519
 30
0.0000
  0
VERTEX
  8
STITCH
 10
72.6697
 20
-82.3449
 30
0.0000
  0
VERTEX
  8
STITCH
 10
71.5250
 20
-82.6199
 30
0.0000
  0
VERTEX
  8
STITCH
 10
70.3542
 20
-82.7430
 30
0.0000
  0
VERTEX
  8
STITCH
 10
69.1774
 20
-82.7123
 30
0.0000
  0
VERTEX
  8
STITCH
 10
68.5930
 20
-82.6393
 30
0.0000
  0
VERTEX
  8
STITCH
 10
68.0146
 20
-82.5283
 30
0.0000
  0
VERTEX
  8
STITCH
 10
66.8858
 20
-82.1940
 30
0.0000
  0
VERTEX
  8
STITCH
 10
65.8103
 20
-81.7153
 30
0.0000
  0
VERTEX
  8
STITCH
 10
64.8064
 20
-81.1003
 30
0.0000
  0
VERTEX
  8
STITCH
 10
64.3368
 20
-80.7449
 30
0.0000
  0
VERTEX
  8
STITCH
 10
63.4722
 20
-79.9458
 30
0.0000
  0
VERTEX
  8
STITCH
 10
62.0032
 20
-78.4301
 30
0.0000
  0
VERTEX
  8
STITCH
 10
59.7441
 20
-76.2091
 30
0.0000
  0
VERTEX
  8
STITCH
 10
57.4265
 20
-74.0437
 30
0.0000
  0
VERTEX
  8
STITCH
 10
55.0595
 20
-71.9252
 30
0.0000
  0
VERTEX
  8
STITCH
 10
52.6525
 20
-69.8447
 30
0.0000
  0
VERTEX
  8
STITCH
 10
50.2145
 20
-67.7935
 30
0.0000
  0
VERTEX
  8
STITCH
 10
40.3373
 20
-59.7078
 30
0.0000
  0
VERTEX
  8
STITCH
 10
37.0694
 20
-56.9893
 30
0.0000
  0
VERTEX
  8
STITCH
 10
33.0553
 20
-53.5240
 30
0.0000
  0
VERTEX
  8
STITCH
 10
29.9274
 20
-50.6726
 30
0.0000
  0
VERTEX
  8
STITCH
 10
27.6443
 20
-48.4745
 30
0.0000
  0
VERTEX
  8
STITCH
 10
25.4253
 20
-46.2155
 30
0.0000
  0
VERTEX
  8
STITCH
 10
2.1759
 20
-21.7209
 30
0.0000
  0
VERTEX
  8
STITCH
 10
1.7152
 20
-21.3248
 30
0.0000
  0
VERTEX
  8
STITCH
 10
1.1841
 20
-21.0297
 30
0.0000
  0
VERTEX
  8
STITCH
 10
0.6044
 20
-20.8477
 30
0.0000
  0
VERTEX
  8
STITCH
 10
-0.0000
 20
-20.7861
 30
0.0000
  0
VERTEX
  8
STITCH
 10
-0.6044
 20
-20.8477
 30
0.0000
  0
VERTEX
  8
STITCH
 10
-1.1841
 20
-21.0297
 30
0.0000
  0
VERTEX
  8
STITCH
 10
-1.7152
 20
-21.3248
 30
0.0000
  0
VERTEX
  8
STITCH
 10
-2.1759
 20
-21.7209
 30
0.0000
  0
VERTEX
  8
STITCH
 10
-25.4253
 20
-46.2155
 30
0.0000
  0
VERTEX
  8
STITCH
 10
-27.6443
 20
-48.4745
 30
0.0000
  0
VERTEX
  8
STITCH
 10
-29.9274
 20
-50.6726
 30
0.0000
  0
VERTEX
  8
STITCH
 10
-33.0553
 20
-53.5240
 30
0.0000
  0
VERTEX
  8
STITCH
 10
-37.0694
 20
-56.9893
 30
0.0000
  0
VERTEX
  8
STITCH
 10
-40.3373
 20
-59.7078
 30
0.0000
  0
VERTEX
  8
STITCH
 10
-50.2145
 20
-67.7935
 30
0.0000
  0
VERTEX
  8
STITCH
 10
-52.6525
 20
-69.8447
 30
0.0000
  0
VERTEX
  8
STITCH
 10
-55.0595
 20
-71.9252
 30
0.0000
  0
VERTEX
  8
STITCH
 10
-57.4265
 20
-74.0437
 30
0.0000
  0
VERTEX
  8
STITCH
 10
-59.7441
 20
-76.2091
 30
0.0000
  0
VERTEX
  8
STITCH
 10
-62.0032
 20
-78.4301
 30
0.0000
  0
VERTEX
  8
STITCH
 10
-63.4722
 20
-79.9458
 30
0.0000
  0
VERTEX
  8
STITCH
 10
-64.3368
 20
-80.7449
 30
0.0000
  0
VERTEX
  8
STITCH
 10
-64.8064
 20
-81.1003
 30
0.0000
  0
VERTEX
  8
STITCH
 10
-65.8103
 20
-81.7153
 30
0.0000
  0
VERTEX
  8
STITCH
 10
-66.8858
 20
-82.1940
 30
0.0000
  0
VERTEX
  8
STITCH
 10
-67.4447
 20
-82.3796
 30
0.0000
  0
VERTEX
  8
STITCH
 10
-68.0146
 20
-82.5283
 30
0.0000
  0
VERTEX
  8
STITCH
 10
-69.1774
 20
-82.7123
 30
0.0000
  0
VERTEX
  8
STITCH
 10
-70.3542
 20
-82.7430
 30
0.0000
  0
VERTEX
  8
STITCH
 10
-70.9416
 20
-82.7006
 30
0.0000
  0
VERTEX
  8
STITCH
 10
-72.1019
 20
-82.5011
 30
0.0000
  0
VERTEX
  8
STITCH
 10
-73.2261
 20
-82.1519
 30
0.0000
  0
VERTEX
  8
STITCH
 10
-74.2952
 20
-81.6589
 30
0.0000
  0
VERTEX
  8
STITCH
 10
-75.2908
 20
-81.0306
 30
0.0000
  0
VERTEX
  8
STITCH
 10
-75.7556
 20
-80.6690
 30
0.0000
  0
VERTEX
  8
STITCH
 10
-76.6095
 20
-79.8586
 30
0.0000
  0
VERTEX
  8
STITCH
 10
-76.9949
 20
-79.4132
 30
0.0000
  0
VERTEX
  8
STITCH
 10
-77.3503
 20
-78.9436
 30
0.0000
  0
VERTEX
  8
STITCH
 10
-77.9653
 20
-77.9397
 30
0.0000
  0
VERTEX
  8
STITCH
 10
-78.4440
 20
-76.8642
 30
0.0000
  0
VERTEX
  8
STITCH
 10
-78.6296
 20
-76.3053
 30
0.0000
  0
VERTEX
  8
STITCH
 10
-78.7783
 20
-75.7354
 30
0.0000
  0
VERTEX
  8
STITCH
 10
-78.9623
 20
-74.5726
 30
0.0000
  0
VERTEX
  8
STITCH
 10
-78.9930
 20
-73.3958
 30
0.0000
  0
VERTEX
  8
STITCH
 10
-78.9506
 20
-72.8084
 30
0.0000
  0
VERTEX
  8
STITCH
 10
-78.7511
 20
-71.6481
 30
0.0000
  0
VERTEX
  8
STITCH
 10
-78.4019
 20
-70.5239
 30
0.0000
  0
VERTEX
  8
STITCH
 10
-78.1729
 20
-69.9813
 30
0.0000
  0
VERTEX
  8
STITCH
 10
-77.9089
 20
-69.4548
 30
0.0000
  0
VERTEX
  8
STITCH
 10
-77.2806
 20
-68.4592
 30
0.0000
  0
VERTEX
  8
STITCH
 10
-76.5278
 20
-67.5542
 30
0.0000
  0
VERTEX
  8
STITCH
 10
-75.0618
 20
-65.9765
 30
0.0000
  0
VERTEX
  8
STITCH
 10
-72.9207
 20
-63.5552
 30
0.0000
  0
VERTEX
  8
STITCH
 10
-70.8401
 20
-61.0764
 30
0.0000
  0
VERTEX
  8
STITCH
 10
-68.8104
 20
-58.5493
 30
0.0000
  0
VERTEX
  8
STITCH
 10
-66.8217
 20
-55.9834
 30
0.0000
  0
VERTEX
  8
STITCH
 10
-64.8643
 20
-53.3877
 30
0.0000
  0
VERTEX
  8
STITCH
 10
-57.7969
 20
-43.7660
 30
0.0000
  0
VERTEX
  8
STITCH
 10
-54.5498
 20
-39.4253
 30
0.0000
  0
VERTEX
  8
STITCH
 10
-51.8932
 20
-36.0087
 30
0.0000
  0
VERTEX
  8
STITCH
 10
-49.1590
 20
-32.6657
 30
0.0000
  0
VERTEX
  8
STITCH
 10
-47.0437
 20
-30.2200
 30
0.0000
  0
VERTEX
  8
STITCH
 10
-44.8619
 20
-27.8372
 30
0.0000
  0
VERTEX
  8
STITCH
 10
-20.4008
 20
-2.0653
 30
0.0000
  0
VERTEX
  8
STITCH
 10
-20.0501
 20
-1.6176
 30
0.0000
  0
VERTEX
  8
STITCH
 10
-19.7903
 20
-1.1118
 30
0.0000
  0
VERTEX
  8
STITCH
 10
-19.6306
 20
-0.5661
 30
0.0000
  0
VERTEX
  8
STITCH
 10
-19.5767
 20
-0.0000
 30
0.0000
  0
VERTEX
  8
STITCH
 10
-19.6306
 20
0.5661
 30
0.0000
  0
VERTEX
  8
STITCH
 10
-19.7903
 20
1.1118
 30
0.0000
  0
VERTEX
  8
STITCH
 10
-20.0501
 20
1.6176
 30
0.0000
  0
VERTEX
  8
STITCH
 10
-20.4008
 20
2.0653
 30
0.0000
  0
VERTEX
  8
STITCH
 10
-44.8619
 20
27.8372
 30
0.0000
  0
VERTEX
  8
STITCH
 10
-47.0437
 20
30.2200
 30
0.0000
  0
VERTEX
  8
STITCH
 10
-49.1590
 20
32.6657
 30
0.0000
  0
VERTEX
  8
STITCH
 10
-51.8932
 20
36.0087
 30
0.0000
  0
VERTEX
  8
STITCH
 10
-54.5498
 20
39.4253
 30
0.0000
  0
VERTEX
  8
STITCH
 10
-57.7969
 20
43.7660
 30
0.0000
  0
VERTEX
  8
STITCH
 10
-64.8643
 20
53.3877
 30
0.0000
  0
VERTEX
  8
STITCH
 10
-66.8217
 20
55.9834
 30
0.0000
  0
VERTEX
  8
STITCH
 10
-68.8104
 20
58.5493
 30
0.0000
  0
VERTEX
  8
STITCH
 10
-70.8401
 20
61.0764
 30
0.0000
  0
VERTEX
  8
STITCH
 10
-72.9207
 20
63.5552
 30
0.0000
  0
VERTEX
  8
STITCH
 10
-75.0618
 20
65.9765
 30
0.0000
  0
VERTEX
  8
STITCH
 10
-76.5278
 20
67.5542
 30
0.0000
  0
VERTEX
  8
STITCH
 10
-77.2806
 20
68.4592
 30
0.0000
  0
VERTEX
  8
STITCH
 10
-77.6111
 20
68.9467
 30
0.0000
  0
VERTEX
  8
STITCH
 10
-78.1729
 20
69.9813
 30
0.0000
  0
VERTEX
  8
STITCH
 10
-78.5949
 20
71.0803
 30
0.0000
  0
VERTEX
  8
STITCH
 10
-78.8699
 20
72.2250
 30
0.0000
  0
VERTEX
  8
STITCH
 10
-78.9930
 20
73.3958
 30
0.0000
  0
VERTEX
  8
STITCH
 10
-78.9969
 20
73.9847
 30
0.0000
  0
VERTEX
  8
STITCH
 10
-78.8893
 20
75.1570
 30
0.0000
  0
VERTEX
  8
STITCH
 10
-78.7783
 20
75.7354
 30
0.0000
  0
VERTEX
  8
STITCH
 10
-78.4440
 20
76.8642
 30
0.0000
  0
VERTEX
  8
STITCH
 10
-77.9653
 20
77.9397
 30
0.0000
  0
VERTEX
  8
STITCH
 10
-77.3503
 20
78.9436
 30
0.0000
  0
VERTEX
  8
STITCH
 10
-76.9949
 20
79.4132
 30
0.0000
  0
VERTEX
  8
STITCH
 10
-76.6095
 20
79.8586
 30
0.0000
  0
VERTEX
  8
STITCH
 10
-75.7556
 20
80.6690
 30
0.0000
  0
VERTEX
  8
STITCH
 10
-75.2908
 20
81.0306
 30
0.0000
  0
VERTEX
  8
STITCH
 10
-74.2952
 20
81.6589
 30
0.0000
  0
VERTEX
  8
STITCH
 10
-73.7687
 20
81.9229
 30
0.0000
  0
VERTEX
  8
STITCH
 10
-72.6697
 20
82.3449
 30
0.0000
  0
VERTEX
  8
STITCH
 10
-71.5250
 20
82.6199
 30
0.0000
  0
VERTEX
  8
STITCH
 10
-70.9416
 20
82.7006
 30
0.0000
  0
VERTEX
  8
STITCH
 10
-70.3542
 20
82.7430
 30
0.0000
  0
VERTEX
  8
STITCH
 10
-69.1774
 20
82.7123
 30
0.0000
  0
VERTEX
  8
STITCH
 10
-68.0146
 20
82.5283
 30
0.0000
  0
VERTEX
  8
STITCH
 10
-67.4447
 20
82.3796
 30
0.0000
  0
VERTEX
  8
STITCH
 10
-66.8858
 20
82.1940
 30
0.0000
  0
VERTEX
  8
STITCH
 10
-65.8103
 20
81.7153
 30
0.0000
  0
VERTEX
  8
STITCH
 10
-64.8064
 20
81.1003
 30
0.0000
  0
VERTEX
  8
STITCH
 10
-64.3368
 20
80.7449
 30
0.0000
  0
VERTEX
  8
STITCH
 10
-63.4722
 20
79.9458
 30
0.0000
  0
VERTEX
  8
STITCH
 10
-62.0032
 20
78.4301
 30
0.0000
  0
VERTEX
  8
STITCH
 10
-59.7441
 20
76.2091
 30
0.0000
  0
VERTEX
  8
STITCH
 10
-57.4265
 20
74.0437
 30
0.0000
  0
VERTEX
  8
STITCH
 10
-55.0595
 20
71.9252
 30
0.0000
  0
VERTEX
  8
STITCH
 10
-52.6525
 20
69.8447
 30
0.0000
  0
VERTEX
  8
STITCH
 10
-50.2145
 20
67.7935
 30
0.0000
  0
VERTEX
  8
STITCH
 10
-40.3373
 20
59.7078
 30
0.0000
  0
VERTEX
  8
STITCH
 10
-37.0694
 20
56.9893
 30
0.0000
  0
VERTEX
  8
STITCH
 10
-33.0553
 20
53.5240
 30
0.0000
  0
VERTEX
  8
STITCH
 10
-29.9274
 20
50.6726
 30
0.0000
  0
VERTEX
  8
STITCH
 10
-27.6443
 20
48.4745
 30
0.0000
  0
VERTEX
  8
STITCH
 10
-25.4253
 20
46.2155
 30
0.0000
  0
VERTEX
  8
STITCH
 10
-2.1759
 20
21.7209
 30
0.0000
  0
VERTEX
  8
STITCH
 10
-1.7152
 20
21.3248
 30
0.0000
  0
VERTEX
  8
STITCH
 10
-1.1841
 20
21.0297
 30
0.0000
  0
VERTEX
  8
STITCH
 10
-0.6044
 20
20.8477
 30
0.0000
  0
VERTEX
  8
STITCH
 10
-0.0000
 20
20.7861
 30
0.0000
  0
VERTEX
  8
STITCH
 10
0.6044
 20
20.8477
 30
0.0000
  0
VERTEX
  8
STITCH
 10
1.1841
 20
21.0297
 30
0.0000
  0
VERTEX
  8
STITCH
 10
1.7152
 20
21.3248
 30
0.0000
  0
VERTEX
  8
STITCH
 10
2.1759
 20
21.7209
 30
0.0000
  0
VERTEX
  8
STITCH
 10
25.4253
 20
46.2155
 30
0.0000
  0
VERTEX
  8
STITCH
 10
27.6443
 20
48.4745
 30
0.0000
  0
VERTEX
  8
STITCH
 10
29.9274
 20
50.6726
 30
0.0000
  0
VERTEX
  8
STITCH
 10
33.0553
 20
53.5240
 30
0.0000
  0
VERTEX
  8
STITCH
 10
37.0694
 20
56.9893
 30
0.0000
  0
VERTEX
  8
STITCH
 10
40.3373
 20
59.7078
 30
0.0000
  0
VERTEX
  8
STITCH
 10
50.2145
 20
67.7935
 30
0.0000
  0
VERTEX
  8
STITCH
 10
52.6525
 20
69.8447
 30
0.0000
  0
VERTEX
  8
STITCH
 10
55.0595
 20
71.9252
 30
0.0000
  0
VERTEX
  8
STITCH
 10
57.4265
 20
74.0437
 30
0.0000
  0
VERTEX
  8
STITCH
 10
59.7441
 20
76.2091
 30
0.0000
  0
VERTEX
  8
STITCH
 10
62.0032
 20
78.4301
 30
0.0000
  0
VERTEX
  8
STITCH
 10
63.4722
 20
79.9458
 30
0.0000
  0
VERTEX
  8
STITCH
 10
64.3368
 20
80.7449
 30
0.0000
  0
VERTEX
  8
STITCH
 10
65.2983
 20
81.4242
 30
0.0000
  0
VERTEX
  8
STITCH
 10
66.3402
 20
81.9723
 30
0.0000
  0
VERTEX
  8
STITCH
 10
66.8858
 20
82.1940
 30
0.0000
  0
VERTEX
  8
STITCH
 10
67.4447
 20
82.3796
 30
0.0000
  0
VERTEX
  8
STITCH
 10
68.5930
 20
82.6393
 30
0.0000
  0
VERTEX
  8
STITCH
 10
69.1774
 20
82.7123
 30
0.0000
  0
VERTEX
  8
STITCH
 10
70.3542
 20
82.7430
 30
0.0000
  0
VERTEX
  8
STITCH
 10
71.5250
 20
82.6199
 30
0.0000
  0
VERTEX
  8
STITCH
 10
72.1019
 20
82.5011
 30
0.0000
  0
VERTEX
  8
STITCH
 10
73.2261
 20
82.1519
 30
0.0000
  0
VERTEX
  8
STITCH
 10
73.7687
 20
81.9229
 30
0.0000
  0
VERTEX
  8
STITCH
 10
74.8033
 20
81.3611
 30
0.0000
  0
VERTEX
  8
STITCH
 10
75.7556
 20
80.6690
 30
0.0000
  0
VERTEX
  8
STITCH
 10
76.1958
 20
80.2778
 30
0.0000
  0
VERTEX
  8
STITCH
 10
76.9949
 20
79.4132
 30
0.0000
  0
VERTEX
  8
STITCH
 10
77.6742
 20
78.4517
 30
0.0000
  0
VERTEX
  8
STITCH
 10
77.9653
 20
77.9397
 30
0.0000
  0
VERTEX
  8
STITCH
 10
78.4440
 20
76.8642
 30
0.0000
  0
VERTEX
  8
STITCH
 10
78.7783
 20
75.7354
 30
0.0000
  0
VERTEX
  8
STITCH
 10
78.8893
 20
75.1570
 30
0.0000
  0
VERTEX
  8
STITCH
 10
78.9623
 20
74.5726
 30
0.0000
  0
VERTEX
  8
STITCH
 10
78.9930
 20
73.3958
 30
0.0000
  0
VERTEX
  8
STITCH
 10
78.9506
 20
72.8084
 30
0.0000
  0
VERTEX
  8
STITCH
 10
78.7511
 20
71.6481
 30
0.0000
  0
VERTEX
  8
STITCH
 10
78.4019
 20
70.5239
 30
0.0000
  0
VERTEX
  8
STITCH
 10
78.1729
 20
69.9813
 30
0.0000
  0
VERTEX
  8
STITCH
 10
77.6111
 20
68.9467
 30
0.0000
  0
VERTEX
  8
STITCH
 10
76.9190
 20
67.9944
 30
0.0000
  0
VERTEX
  8
STITCH
 10
74.3408
 20
65.1763
 30
0.0000
  0
VERTEX
  8
STITCH
 10
72.2209
 20
62.7348
 30
0.0000
  0
VERTEX
  8
STITCH
 10
70.8401
 20
61.0764
 30
0.0000
  0
VERTEX
  8
STITCH
 10
68.8104
 20
58.5493
 30
0.0000
  0
VERTEX
  8
STITCH
 10
66.8217
 20
55.9834
 30
0.0000
  0
VERTEX
  8
STITCH
 10
64.8643
 20
53.3877
 30
0.0000
  0
VERTEX
  8
STITCH
 10
57.7969
 20
43.7660
 30
0.0000
  0
VERTEX
  8
STITCH
 10
54.5498
 20
39.4253
 30
0.0000
  0
VERTEX
  8
STITCH
 10
51.2178
 20
35.1652
 30
0.0000
  0
VERTEX
  8
STITCH
 10
48.4607
 20
31.8441
 30
0.0000
  0
VERTEX
  8
STITCH
 10
46.3243
 20
29.4183
 30
0.0000
  0
VERTEX
  8
STITCH
 10
44.8619
 20
27.8372
 30
0.0000
  0
VERTEX
  8
STITCH
 10
20.2745
 20
1.9236
 30
0.0000
  0
VERTEX
  8
STITCH
 10
20.0501
 20
1.6176
 30
0.0000
  0
VERTEX
  8
STITCH
 10
19.8662
 20
1.2858
 30
0.0000
  0
VERTEX
  8
STITCH
 10
19.6723
 20
0.7512
 30
0.0000
  0
VERTEX
  8
STITCH
 10
19.5827
 20
0.1897
 30
0.0000
  0
VERTEX
  8
STITCH
 10
19.5827
 20
-0.1897
 30
0.0000
  0
VERTEX
  8
STITCH
 10
19.6306
 20
-0.5661
 30
0.0000
  0
VERTEX
  8
STITCH
 10
19.7903
 20
-1.1118
 30
0.0000
  0
VERTEX
  8
STITCH
 10
20.0501
 20
-1.6176
 30
0.0000
  0
SEQEND
  8
STITCH
  0
POLYLINE
  8
BASE
 66
1
 10
0.0000
 20
0.0000
 30
0.0000
 70
1
  0
VERTEX
  8
BASE
 10
17.2050
 20
-4.4883
 30
0.0000
  0
VERTEX
  8
BASE
 10
41.9607
 20
-30.5909
 30
0.0000
  0
VERTEX
  8
BASE
 10
43.4230
 20
-32.1720
 30
0.0000
  0
VERTEX
  8
BASE
 10
45.5595
 20
-34.5978
 30
0.0000
  0
VERTEX
  8
BASE
 10
48.3166
 20
-37.9189
 30
0.0000
  0
VERTEX
  8
BASE
 10
51.6486
 20
-42.1790
 30
0.0000
  0
VERTEX
  8
BASE
 10
54.8956
 20
-46.5197
 30
0.0000
  0
VERTEX
  8
BASE
 10
61.9630
 20
-56.1414
 30
0.0000
  0
VERTEX
  8
BASE
 10
63.9205
 20
-58.7371
 30
0.0000
  0
VERTEX
  8
BASE
 10
65.9092
 20
-61.3031
 30
0.0000
  0
VERTEX
  8
BASE
 10
67.9389
 20
-63.8301
 30
0.0000
  0
VERTEX
  8
BASE
 10
70.0195
 20
-66.3089
 30
0.0000
  0
VERTEX
  8
BASE
 10
72.1606
 20
-68.7302
 30
0.0000
  0
VERTEX
  8
BASE
 10
73.6265
 20
-70.3079
 30
0.0000
  0
VERTEX
  8
BASE
 10
74.0448
 20
-70.8107
 30
0.0000
  0
VERTEX
  8
BASE
 10
74.3938
 20
-71.3638
 30
0.0000
  0
VERTEX
  8
BASE
 10
74.5405
 20
-71.6563
 30
0.0000
  0
VERTEX
  8
BASE
 10
74.7750
 20
-72.2668
 30
0.0000
  0
VERTEX
  8
BASE
 10
74.8617
 20
-72.5823
 30
0.0000
  0
VERTEX
  8
BASE
 10
74.9726
 20
-73.2269
 30
0.0000
  0
VERTEX
  8
BASE
 10
74.9961
 20
-73.5532
 30
0.0000
  0
VERTEX
  8
BASE
 10
74.9791
 20
-74.2070
 30
0.0000
  0
VERTEX
  8
BASE
 10
74.8768
 20
-74.8530
 30
0.0000
  0
VERTEX
  8
BASE
 10
74.7942
 20
-75.1696
 30
0.0000
  0
VERTEX
  8
BASE
 10
74.6911
 20
-75.4801
 30
0.0000
  0
VERTEX
  8
BASE
 10
74.4252
 20
-76.0776
 30
0.0000
  0
VERTEX
  8
BASE
 10
74.2635
 20
-76.3621
 30
0.0000
  0
VERTEX
  8
BASE
 10
73.8860
 20
-76.8962
 30
0.0000
  0
VERTEX
  8
BASE
 10
73.4421
 20
-77.3765
 30
0.0000
  0
VERTEX
  8
BASE
 10
73.1976
 20
-77.5939
 30
0.0000
  0
VERTEX
  8
BASE
 10
72.9393
 20
-77.7948
 30
0.0000
  0
VERTEX
  8
BASE
 10
72.3862
 20
-78.1438
 30
0.0000
  0
VERTEX
  8
BASE
 10
72.0937
 20
-78.2905
 30
0.0000
  0
VERTEX
  8
BASE
 10
71.4832
 20
-78.5250
 30
0.0000
  0
VERTEX
  8
BASE
 10
70.8472
 20
-78.6777
 30
0.0000
  0
VERTEX
  8
BASE
 10
70.1968
 20
-78.7461
 30
0.0000
  0
VERTEX
  8
BASE
 10
69.8696
 20
-78.7483
 30
0.0000
  0
VERTEX
  8
BASE
 10
69.2183
 20
-78.6885
 30
0.0000
  0
VERTEX
  8
BASE
 10
68.5804
 20
-78.5442
 30
0.0000
  0
VERTEX
  8
BASE
 10
68.2699
 20
-78.4411
 30
0.0000
  0
VERTEX
  8
BASE
 10
67.6724
 20
-78.1752
 30
0.0000
  0
VERTEX
  8
BASE
 10
67.1147
 20
-77.8335
 30
0.0000
  0
VERTEX
  8
BASE
 10
66.8538
 20
-77.6360
 30
0.0000
  0
VERTEX
  8
BASE
 10
66.3735
 20
-77.1921
 30
0.0000
  0
VERTEX
  8
BASE
 10
64.9044
 20
-75.6764
 30
0.0000
  0
VERTEX
  8
BASE
 10
62.6453
 20
-73.4554
 30
0.0000
  0
VERTEX
  8
BASE
 10
60.3277
 20
-71.2900
 30
0.0000
  0
VERTEX
  8
BASE
 10
57.9607
 20
-69.1715
 30
0.0000
  0
VERTEX
  8
BASE
 10
55.5537
 20
-67.0910
 30
0.0000
  0
VERTEX
  8
BASE
 10
53.1157
 20
-65.0398
 30
0.0000
  0
VERTEX
  8
BASE
 10
43.2385
 20
-56.9541
 30
0.0000
  0
VERTEX
  8
BASE
 10
39.1604
 20
-53.5496
 30
0.0000
  0
VERTEX
  8
BASE
 10
35.1666
 20
-50.0650
 30
0.0000
  0
VERTEX
  8
BASE
 10
32.0610
 20
-47.1924
 30
0.0000
  0
VERTEX
  8
BASE
 10
29.7983
 20
-44.9750
 30
0.0000
  0
VERTEX
  8
BASE
 10
28.3265
 20
-43.4618
 30
0.0000
  0
VERTEX
  8
BASE
 10
4.7399
 20
-18.6351
 30
0.0000
  0
VERTEX
  8
BASE
 10
4.0021
 20
-18.0430
 30
0.0000
  0
VERTEX
  8
BASE
 10
3.6049
 20
-17.7857
 30
0.0000
  0
VERTEX
  8
BASE
 10
3.1912
 20
-17.5559
 30
0.0000
  0
VERTEX
  8
BASE
 10
2.3220
 20
-17.1825
 30
0.0000
  0
VERTEX
  8
BASE
 10
1.4104
 20
-16.9297
 30
0.0000
  0
VERTEX
  8
BASE
 10
0.4730
 20
-16.8021
 30
0.0000
  0
VERTEX
  8
BASE
 10
0.0000
 20
-16.7861
 30
0.0000
  0
VERTEX
  8
BASE
 10
-0.9438
 20
-16.8501
 30
0.0000
  0
VERTEX
  8
BASE
 10
-1.8704
 20
-17.0407
 30
0.0000
  0
VERTEX
  8
BASE
 10
-2.3220
 20
-17.1825
 30
0.0000
  0
VERTEX
  8
BASE
 10
-2.7629
 20
-17.3545
 30
0.0000
  0
VERTEX
  8
BASE
 10
-3.6049
 20
-17.7857
 30
0.0000
  0
VERTEX
  8
BASE
 10
-4.0021
 20
-18.0430
 30
0.0000
  0
VERTEX
  8
BASE
 10
-4.7399
 20
-18.6351
 30
0.0000
  0
VERTEX
  8
BASE
 10
-28.3265
 20
-43.4618
 30
0.0000
  0
VERTEX
  8
BASE
 10
-29.7983
 20
-44.9750
 30
0.0000
  0
VERTEX
  8
BASE
 10
-32.0610
 20
-47.1924
 30
0.0000
  0
VERTEX
  8
BASE
 10
-35.1666
 20
-50.0650
 30
0.0000
  0
VERTEX
  8
BASE
 10
-39.1604
 20
-53.5496
 30
0.0000
  0
VERTEX
  8
BASE
 10
-43.2385
 20
-56.9541
 30
0.0000
  0
VERTEX
  8
BASE
 10
-53.1157
 20
-65.0398
 30
0.0000
  0
VERTEX
  8
BASE
 10
-55.5537
 20
-67.0910
 30
0.0000
  0
VERTEX
  8
BASE
 10
-57.9607
 20
-69.1715
 30
0.0000
  0
VERTEX
  8
BASE
 10
-60.3277
 20
-71.2900
 30
0.0000
  0
VERTEX
  8
BASE
 10
-62.6453
 20
-73.4554
 30
0.0000
  0
VERTEX
  8
BASE
 10
-64.9044
 20
-75.6764
 30
0.0000
  0
VERTEX
  8
BASE
 10
-66.3735
 20
-77.1921
 30
0.0000
  0
VERTEX
  8
BASE
 10
-66.8538
 20
-77.6360
 30
0.0000
  0
VERTEX
  8
BASE
 10
-67.3879
 20
-78.0135
 30
0.0000
  0
VERTEX
  8
BASE
 10
-67.9668
 20
-78.3179
 30
0.0000
  0
VERTEX
  8
BASE
 10
-68.2699
 20
-78.4411
 30
0.0000
  0
VERTEX
  8
BASE
 10
-68.8970
 20
-78.6268
 30
0.0000
  0
VERTEX
  8
BASE
 10
-69.2183
 20
-78.6885
 30
0.0000
  0
VERTEX
  8
BASE
 10
-69.5430
 20
-78.7291
 30
0.0000
  0
VERTEX
  8
BASE
 10
-70.1968
 20
-78.7461
 30
0.0000
  0
VERTEX
  8
BASE
 10
-70.5231
 20
-78.7226
 30
0.0000
  0
VERTEX
  8
BASE
 10
-71.1677
 20
-78.6117
 30
0.0000
  0
VERTEX
  8
BASE
 10
-71.4832
 20
-78.5250
 30
0.0000
  0
VERTEX
  8
BASE
 10
-72.0937
 20
-78.2905
 30
0.0000
  0
VERTEX
  8
BASE
 10
-72.3862
 20
-78.1438
 30
0.0000
  0
VERTEX
  8
BASE
 10
-72.9393
 20
-77.7948
 30
0.0000
  0
VERTEX
  8
BASE
 10
-73.4421
 20
-77.3765
 30
0.0000
  0
VERTEX
  8
BASE
 10
-73.8860
 20
-76.8962
 30
0.0000
  0
VERTEX
  8
BASE
 10
-74.0835
 20
-76.6353
 30
0.0000
  0
VERTEX
  8
BASE
 10
-74.2635
 20
-76.3621
 30
0.0000
  0
VERTEX
  8
BASE
 10
-74.5679
 20
-75.7832
 30
0.0000
  0
VERTEX
  8
BASE
 10
-74.7942
 20
-75.1696
 30
0.0000
  0
VERTEX
  8
BASE
 10
-74.8768
 20
-74.8530
 30
0.0000
  0
VERTEX
  8
BASE
 10
-74.9791
 20
-74.2070
 30
0.0000
  0
VERTEX
  8
BASE
 10
-74.9961
 20
-73.5532
 30
0.0000
  0
VERTEX
  8
BASE
 10
-74.9277
 20
-72.9028
 30
0.0000
  0
VERTEX
  8
BASE
 10
-74.8617
 20
-72.5823
 30
0.0000
  0
VERTEX
  8
BASE
 10
-74.7750
 20
-72.2668
 30
0.0000
  0
VERTEX
  8
BASE
 10
-74.5405
 20
-71.6563
 30
0.0000
  0
VERTEX
  8
BASE
 10
-74.3938
 20
-71.3638
 30
0.0000
  0
VERTEX
  8
BASE
 10
-74.0448
 20
-70.8107
 30
0.0000
  0
VERTEX
  8
BASE
 10
-73.6265
 20
-70.3079
 30
0.0000
  0
VERTEX
  8
BASE
 10
-72.1606
 20
-68.7302
 30
0.0000
  0
VERTEX
  8
BASE
 10
-70.0195
 20
-66.3089
 30
0.0000
  0
VERTEX
  8
BASE
 10
-67.9389
 20
-63.8301
 30
0.0000
  0
VERTEX
  8
BASE
 10
-65.9092
 20
-61.3031
 30
0.0000
  0
VERTEX
  8
BASE
 10
-63.9205
 20
-58.7371
 30
0.0000
  0
VERTEX
  8
BASE
 10
-61.9630
 20
-56.1414
 30
0.0000
  0
VERTEX
  8
BASE
 10
-54.8956
 20
-46.5197
 30
0.0000
  0
VERTEX
  8
BASE
 10
-51.6486
 20
-42.1790
 30
0.0000
  0
VERTEX
  8
BASE
 10
-48.3166
 20
-37.9189
 30
0.0000
  0
VERTEX
  8
BASE
 10
-45.5595
 20
-34.5978
 30
0.0000
  0
VERTEX
  8
BASE
 10
-43.4230
 20
-32.1720
 30
0.0000
  0
VERTEX
  8
BASE
 10
-41.9607
 20
-30.5909
 30
0.0000
  0
VERTEX
  8
BASE
 10
-17.2050
 20
-4.4883
 30
0.0000
  0
VERTEX
  8
BASE
 10
-16.6814
 20
-3.7744
 30
0.0000
  0
VERTEX
  8
BASE
 10
-16.4546
 20
-3.3941
 30
0.0000
  0
VERTEX
  8
BASE
 10
-16.2522
 20
-3.0002
 30
0.0000
  0
VERTEX
  8
BASE
 10
-15.9241
 20
-2.1779
 30
0.0000
  0
VERTEX
  8
BASE
 10
-15.7024
 20
-1.3208
 30
0.0000
  0
VERTEX
  8
BASE
 10
-15.6326
 20
-0.8835
 30
0.0000
  0
VERTEX
  8
BASE
 10
-15.5767
 20
-0.0000
 30
0.0000
  0
VERTEX
  8
BASE
 10
-15.6326
 20
0.8835
 30
0.0000
  0
VERTEX
  8
BASE
 10
-15.7997
 20
1.7529
 30
0.0000
  0
VERTEX
  8
BASE
 10
-15.9241
 20
2.1779
 30
0.0000
  0
VERTEX
  8
BASE
 10
-16.2522
 20
3.0002
 30
0.0000
  0
VERTEX
  8
BASE
 10
-16.4546
 20
3.3941
 30
0.0000
  0
VERTEX
  8
BASE
 10
-16.9319
 20
4.1396
 30
0.0000
  0
VERTEX
  8
BASE
 10
-17.2050
 20
4.4883
 30
0.0000
  0
VERTEX
  8
BASE
 10
-41.9607
 20
30.5909
 30
0.0000
  0
VERTEX
  8
BASE
 10
-43.4230
 20
32.1720
 30
0.0000
  0
VERTEX
  8
BASE
 10
-45.5595
 20
34.5978
 30
0.0000
  0
VERTEX
  8
BASE
 10
-48.3166
 20
37.9189
 30
0.0000
  0
VERTEX
  8
BASE
 10
-51.6486
 20
42.1790
 30
0.0000
  0
VERTEX
  8
BASE
 10
-54.8956
 20
46.5197
 30
0.0000
  0
VERTEX
  8
BASE
 10
-61.9630
 20
56.1414
 30
0.0000
  0
VERTEX
  8
BASE
 10
-63.9205
 20
58.7371
 30
0.0000
  0
VERTEX
  8
BASE
 10
-65.9092
 20
61.3031
 30
0.0000
  0
VERTEX
  8
BASE
 10
-67.9389
 20
63.8301
 30
0.0000
  0
VERTEX
  8
BASE
 10
-70.0195
 20
66.3089
 30
0.0000
  0
VERTEX
  8
BASE
 10
-72.1606
 20
68.7302
 30
0.0000
  0
VERTEX
  8
BASE
 10
-73.6265
 20
70.3079
 30
0.0000
  0
VERTEX
  8
BASE
 10
-74.0448
 20
70.8107
 30
0.0000
  0
VERTEX
  8
BASE
 10
-74.3938
 20
71.3638
 30
0.0000
  0
VERTEX
  8
BASE
 10
-74.5405
 20
71.6563
 30
0.0000
  0
VERTEX
  8
BASE
 10
-74.7750
 20
72.2668
 30
0.0000
  0
VERTEX
  8
BASE
 10
-74.8617
 20
72.5823
 30
0.0000
  0
VERTEX
  8
BASE
 10
-74.9726
 20
73.2269
 30
0.0000
  0
VERTEX
  8
BASE
 10
-74.9961
 20
73.5532
 30
0.0000
  0
VERTEX
  8
BASE
 10
-74.9791
 20
74.2070
 30
0.0000
  0
VERTEX
  8
BASE
 10
-74.9385
 20
74.5317
 30
0.0000
  0
VERTEX
  8
BASE
 10
-74.7942
 20
75.1696
 30
0.0000
  0
VERTEX
  8
BASE
 10
-74.5679
 20
75.7832
 30
0.0000
  0
VERTEX
  8
BASE
 10
-74.4252
 20
76.0776
 30
0.0000
  0
VERTEX
  8
BASE
 10
-74.0835
 20
76.6353
 30
0.0000
  0
VERTEX
  8
BASE
 10
-73.6719
 20
77.1436
 30
0.0000
  0
VERTEX
  8
BASE
 10
-73.1976
 20
77.5939
 30
0.0000
  0
VERTEX
  8
BASE
 10
-72.9393
 20
77.7948
 30
0.0000
  0
VERTEX
  8
BASE
 10
-72.3862
 20
78.1438
 30
0.0000
  0
VERTEX
  8
BASE
 10
-72.0937
 20
78.2905
 30
0.0000
  0
VERTEX
  8
BASE
 10
-71.4832
 20
78.5250
 30
0.0000
  0
VERTEX
  8
BASE
 10
-71.1677
 20
78.6117
 30
0.0000
  0
VERTEX
  8
BASE
 10
-70.8472
 20
78.6777
 30
0.0000
  0
VERTEX
  8
BASE
 10
-70.1968
 20
78.7461
 30
0.0000
  0
VERTEX
  8
BASE
 10
-69.5430
 20
78.7291
 30
0.0000
  0
VERTEX
  8
BASE
 10
-69.2183
 20
78.6885
 30
0.0000
  0
VERTEX
  8
BASE
 10
-68.8970
 20
78.6268
 30
0.0000
  0
VERTEX
  8
BASE
 10
-68.2699
 20
78.4411
 30
0.0000
  0
VERTEX
  8
BASE
 10
-67.6724
 20
78.1752
 30
0.0000
  0
VERTEX
  8
BASE
 10
-67.1147
 20
77.8335
 30
0.0000
  0
VERTEX
  8
BASE
 10
-66.8538
 20
77.6360
 30
0.0000
  0
VERTEX
  8
BASE
 10
-66.3735
 20
77.1921
 30
0.0000
  0
VERTEX
  8
BASE
 10
-64.9044
 20
75.6764
 30
0.0000
  0
VERTEX
  8
BASE
 10
-62.6453
 20
73.4554
 30
0.0000
  0
VERTEX
  8
BASE
 10
-60.3277
 20
71.2900
 30
0.0000
  0
VERTEX
  8
BASE
 10
-57.9607
 20
69.1715
 30
0.0000
  0
VERTEX
  8
BASE
 10
-55.5537
 20
67.0910
 30
0.0000
  0
VERTEX
  8
BASE
 10
-53.1157
 20
65.0398
 30
0.0000
  0
VERTEX
  8
BASE
 10
-43.2385
 20
56.9541
 30
0.0000
  0
VERTEX
  8
BASE
 10
-39.1604
 20
53.5496
 30
0.0000
  0
VERTEX
  8
BASE
 10
-35.1666
 20
50.0650
 30
0.0000
  0
VERTEX
  8
BASE
 10
-32.0610
 20
47.1924
 30
0.0000
  0
VERTEX
  8
BASE
 10
-29.7983
 20
44.9750
 30
0.0000
  0
VERTEX
  8
BASE
 10
-28.3265
 20
43.4618
 30
0.0000
  0
VERTEX
  8
BASE
 10
-4.7399
 20
18.6351
 30
0.0000
  0
VERTEX
  8
BASE
 10
-4.0021
 20
18.0430
 30
0.0000
  0
VERTEX
  8
BASE
 10
-3.6049
 20
17.7857
 30
0.0000
  0
VERTEX
  8
BASE
 10
-3.1912
 20
17.5559
 30
0.0000
  0
VERTEX
  8
BASE
 10
-2.3220
 20
17.1825
 30
0.0000
  0
VERTEX
  8
BASE
 10
-1.8704
 20
17.0407
 30
0.0000
  0
VERTEX
  8
BASE
 10
-0.9438
 20
16.8501
 30
0.0000
  0
VERTEX
  8
BASE
 10
-0.0000
 20
16.7861
 30
0.0000
  0
VERTEX
  8
BASE
 10
0.9438
 20
16.8501
 30
0.0000
  0
VERTEX
  8
BASE
 10
1.8704
 20
17.0407
 30
0.0000
  0
VERTEX
  8
BASE
 10
2.3220
 20
17.1825
 30
0.0000
  0
VERTEX
  8
BASE
 10
2.7629
 20
17.3545
 30
0.0000
  0
VERTEX
  8
BASE
 10
3.6049
 20
17.7857
 30
0.0000
  0
VERTEX
  8
BASE
 10
4.0021
 20
18.0430
 30
0.0000
  0
VERTEX
  8
BASE
 10
4.7399
 20
18.6351
 30
0.0000
  0
VERTEX
  8
BASE
 10
28.3265
 20
43.4618
 30
0.0000
  0
VERTEX
  8
BASE
 10
29.7983
 20
44.9750
 30
0.0000
  0
VERTEX
  8
BASE
 10
32.0610
 20
47.1924
 30
0.0000
  0
VERTEX
  8
BASE
 10
35.1666
 20
50.0650
 30
0.0000
  0
VERTEX
  8
BASE
 10
39.1604
 20
53.5496
 30
0.0000
  0
VERTEX
  8
BASE
 10
43.2385
 20
56.9541
 30
0.0000
  0
VERTEX
  8
BASE
 10
53.1157
 20
65.0398
 30
0.0000
  0
VERTEX
  8
BASE
 10
55.5537
 20
67.0910
 30
0.0000
  0
VERTEX
  8
BASE
 10
57.9607
 20
69.1715
 30
0.0000
  0
VERTEX
  8
BASE
 10
60.3277
 20
71.2900
 30
0.0000
  0
VERTEX
  8
BASE
 10
62.6453
 20
73.4554
 30
0.0000
  0
VERTEX
  8
BASE
 10
64.9044
 20
75.6764
 30
0.0000
  0
VERTEX
  8
BASE
 10
66.3735
 20
77.1921
 30
0.0000
  0
VERTEX
  8
BASE
 10
66.8538
 20
77.6360
 30
0.0000
  0
VERTEX
  8
BASE
 10
67.3879
 20
78.0135
 30
0.0000
  0
VERTEX
  8
BASE
 10
67.9668
 20
78.3179
 30
0.0000
  0
VERTEX
  8
BASE
 10
68.2699
 20
78.4411
 30
0.0000
  0
VERTEX
  8
BASE
 10
68.8970
 20
78.6268
 30
0.0000
  0
VERTEX
  8
BASE
 10
69.2183
 20
78.6885
 30
0.0000
  0
VERTEX
  8
BASE
 10
69.5430
 20
78.7291
 30
0.0000
  0
VERTEX
  8
BASE
 10
70.1968
 20
78.7461
 30
0.0000
  0
VERTEX
  8
BASE
 10
70.8472
 20
78.6777
 30
0.0000
  0
VERTEX
  8
BASE
 10
71.1677
 20
78.6117
 30
0.0000
  0
VERTEX
  8
BASE
 10
71.4832
 20
78.5250
 30
0.0000
  0
VERTEX
  8
BASE
 10
72.0937
 20
78.2905
 30
0.0000
  0
VERTEX
  8
BASE
 10
72.3862
 20
78.1438
 30
0.0000
  0
VERTEX
  8
BASE
 10
72.9393
 20
77.7948
 30
0.0000
  0
VERTEX
  8
BASE
 10
73.4421
 20
77.3765
 30
0.0000
  0
VERTEX
  8
BASE
 10
73.6719
 20
77.1436
 30
0.0000
  0
VERTEX
  8
BASE
 10
74.0835
 20
76.6353
 30
0.0000
  0
VERTEX
  8
BASE
 10
74.2635
 20
76.3621
 30
0.0000
  0
VERTEX
  8
BASE
 10
74.5679
 20
75.7832
 30
0.0000
  0
VERTEX
  8
BASE
 10
74.7942
 20
75.1696
 30
0.0000
  0
VERTEX
  8
BASE
 10
74.8768
 20
74.8530
 30
0.0000
  0
VERTEX
  8
BASE
 10
74.9791
 20
74.2070
 30
0.0000
  0
VERTEX
  8
BASE
 10
74.9961
 20
73.5532
 30
0.0000
  0
VERTEX
  8
BASE
 10
74.9277
 20
72.9028
 30
0.0000
  0
VERTEX
  8
BASE
 10
74.8617
 20
72.5823
 30
0.0000
  0
VERTEX
  8
BASE
 10
74.6677
 20
71.9577
 30
0.0000
  0
VERTEX
  8
BASE
 10
74.5405
 20
71.6563
 30
0.0000
  0
VERTEX
  8
BASE
 10
74.3938
 20
71.3638
 30
0.0000
  0
VERTEX
  8
BASE
 10
74.0448
 20
70.8107
 30
0.0000
  0
VERTEX
  8
BASE
 10
73.6265
 20
70.3079
 30
0.0000
  0
VERTEX
  8
BASE
 10
72.1606
 20
68.7302
 30
0.0000
  0
VERTEX
  8
BASE
 10
70.0195
 20
66.3089
 30
0.0000
  0
VERTEX
  8
BASE
 10
67.9389
 20
63.8301
 30
0.0000
  0
VERTEX
  8
BASE
 10
65.9092
 20
61.3031
 30
0.0000
  0
VERTEX
  8
BASE
 10
63.9205
 20
58.7371
 30
0.0000
  0
VERTEX
  8
BASE
 10
61.9630
 20
56.1414
 30
0.0000
  0
VERTEX
  8
BASE
 10
54.8956
 20
46.5197
 30
0.0000
  0
VERTEX
  8
BASE
 10
51.6486
 20
42.1790
 30
0.0000
  0
VERTEX
  8
BASE
 10
48.3166
 20
37.9189
 30
0.0000
  0
VERTEX
  8
BASE
 10
45.5595
 20
34.5978
 30
0.0000
  0
VERTEX
  8
BASE
 10
43.4230
 20
32.1720
 30
0.0000
  0
VERTEX
  8
BASE
 10
41.9607
 20
30.5909
 30
0.0000
  0
VERTEX
  8
BASE
 10
17.4995
 20
4.8190
 30
0.0000
  0
VERTEX
  8
BASE
 10
16.9319
 20
4.1396
 30
0.0000
  0
VERTEX
  8
BASE
 10
16.6814
 20
3.7744
 30
0.0000
  0
VERTEX
  8
BASE
 10
16.2522
 20
3.0002
 30
0.0000
  0
VERTEX
  8
BASE
 10
16.0751
 20
2.5942
 30
0.0000
  0
VERTEX
  8
BASE
 10
15.9241
 20
2.1779
 30
0.0000
  0
VERTEX
  8
BASE
 10
15.7024
 20
1.3208
 30
0.0000
  0
VERTEX
  8
BASE
 10
15.6326
 20
0.8835
 30
0.0000
  0
VERTEX
  8
BASE
 10
15.5767
 20
0.0000
 30
0.0000
  0
VERTEX
  8
BASE
 10
15.6326
 20
-0.8835
 30
0.0000
  0
VERTEX
  8
BASE
 10
15.7024
 20
-1.3208
 30
0.0000
  0
VERTEX
  8
BASE
 10
15.7997
 20
-1.7529
 30
0.0000
  0
VERTEX
  8
BASE
 10
16.0751
 20
-2.5942
 30
0.0000
  0
VERTEX
  8
BASE
 10
16.4546
 20
-3.3941
 30
0.0000
  0
VERTEX
  8
BASE
 10
16.9319
 20
-4.1396
 30
0.0000
  0
SEQEND
  8
BASE
  0
POLYLINE
  8
CUT_JAG
 66
1
 10
0.0000
 20
0.0000
 30
0.0000
 70
1
  0
VERTEX
  8
CUT_JAG
 10
17.2050
 20
-4.4883
 30
0.0000
  0
VERTEX
  8
CUT_JAG
 10
26.5799
 20
-14.3858
 30
0.0000
  0
VERTEX
  8
CUT_JAG
 10
27.4399
 20
-18.7653
 30
0.0000
  0
VERTEX
  8
CUT_JAG
 10
28.8090
 20
-22.6617
 30
0.0000
  0
VERTEX
  8
CUT_JAG
 10
29.0053
 20
-22.8465
 30
0.0000
  0
VERTEX
  8
CUT_JAG
 10
32.4947
 20
-23.9881
 30
0.0000
  0
VERTEX
  8
CUT_JAG
 10
36.3915
 20
-25.1141
 30
0.0000
  0
VERTEX
  8
CUT_JAG
 10
36.6512
 20
-25.2388
 30
0.0000
  0
VERTEX
  8
CUT_JAG
 10
38.6131
 20
-30.0570
 30
0.0000
  0
VERTEX
  8
CUT_JAG
 10
39.9885
 20
-34.9509
 30
0.0000
  0
VERTEX
  8
CUT_JAG
 10
40.1728
 20
-35.1177
 30
0.0000
  0
VERTEX
  8
CUT_JAG
 10
43.5814
 20
-35.2394
 30
0.0000
  0
VERTEX
  8
CUT_JAG
 10
46.5602
 20
-35.8698
 30
0.0000
  0
VERTEX
  8
CUT_JAG
 10
46.4348
 20
-36.3262
 30
0.0000
  0
VERTEX
  8
CUT_JAG
 10
45.2619
 20
-38.6857
 30
0.0000
  0
VERTEX
  8
CUT_JAG
 10
44.2924
 20
-40.8372
 30
0.0000
  0
VERTEX
  8
CUT_JAG
 10
47.2572
 20
-40.4785
 30
0.0000
  0
VERTEX
  8
CUT_JAG
 10
49.9866
 20
-40.3868
 30
0.0000
  0
VERTEX
  8
CUT_JAG
 10
50.1382
 20
-40.6108
 30
0.0000
  0
VERTEX
  8
CUT_JAG
 10
50.8220
 20
-46.1789
 30
0.0000
  0
VERTEX
  8
CUT_JAG
 10
54.7453
 20
-46.9672
 30
0.0000
  0
VERTEX
  8
CUT_JAG
 10
54.8621
 20
-47.2180
 30
0.0000
  0
VERTEX
  8
CUT_JAG
 10
54.7770
 20
-49.6325
 30
0.0000
  0
VERTEX
  8
CUT_JAG
 10
54.9620
 20
-51.5128
 30
0.0000
  0
VERTEX
  8
CUT_JAG
 10
55.2062
 20
-51.6701
 30
0.0000
  0
VERTEX
  8
CUT_JAG
 10
57.0144
 20
-51.3572
 30
0.0000
  0
VERTEX
  8
CUT_JAG
 10
58.4095
 20
-51.3463
 30
0.0000
  0
VERTEX
  8
CUT_JAG
 10
63.2650
 20
-57.8747
 30
0.0000
  0
VERTEX
  8
CUT_JAG
 10
67.2572
 20
-62.9926
 30
0.0000
  0
VERTEX
  8
CUT_JAG
 10
70.7260
 20
-67.1228
 30
0.0000
  0
VERTEX
  8
CUT_JAG
 10
74.0448
 20
-70.8107
 30
0.0000
  0
VERTEX
  8
CUT_JAG
 10
74.5405
 20
-71.6563
 30
0.0000
  0
VERTEX
  8
CUT_JAG
 10
74.8617
 20
-72.5823
 30
0.0000
  0
VERTEX
  8
CUT_JAG
 10
74.9961
 20
-73.5532
 30
0.0000
  0
VERTEX
  8
CUT_JAG
 10
74.9791
 20
-74.2070
 30
0.0000
  0
VERTEX
  8
CUT_JAG
 10
74.7942
 20
-75.1696
 30
0.0000
  0
VERTEX
  8
CUT_JAG
 10
74.4252
 20
-76.0776
 30
0.0000
  0
VERTEX
  8
CUT_JAG
 10
73.8860
 20
-76.8962
 30
0.0000
  0
VERTEX
  8
CUT_JAG
 10
73.1976
 20
-77.5939
 30
0.0000
  0
VERTEX
  8
CUT_JAG
 10
72.3862
 20
-78.1438
 30
0.0000
  0
VERTEX
  8
CUT_JAG
 10
71.4832
 20
-78.5250
 30
0.0000
  0
VERTEX
  8
CUT_JAG
 10
70.8472
 20
-78.6777
 30
0.0000
  0
VERTEX
  8
CUT_JAG
 10
69.8696
 20
-78.7483
 30
0.0000
  0
VERTEX
  8
CUT_JAG
 10
69.2183
 20
-78.6885
 30
0.0000
  0
VERTEX
  8
CUT_JAG
 10
68.2699
 20
-78.4411
 30
0.0000
  0
VERTEX
  8
CUT_JAG
 10
67.6724
 20
-78.1752
 30
0.0000
  0
VERTEX
  8
CUT_JAG
 10
66.8538
 20
-77.6360
 30
0.0000
  0
VERTEX
  8
CUT_JAG
 10
62.6453
 20
-73.4554
 30
0.0000
  0
VERTEX
  8
CUT_JAG
 10
58.7546
 20
-69.8730
 30
0.0000
  0
VERTEX
  8
CUT_JAG
 10
53.9312
 20
-65.7208
 30
0.0000
  0
VERTEX
  8
CUT_JAG
 10
46.7480
 20
-59.8046
 30
0.0000
  0
VERTEX
  8
CUT_JAG
 10
44.4540
 20
-56.3116
 30
0.0000
  0
VERTEX
  8
CUT_JAG
 10
42.4841
 20
-52.4818
 30
0.0000
  0
VERTEX
  8
CUT_JAG
 10
42.2404
 20
-52.3590
 30
0.0000
  0
VERTEX
  8
CUT_JAG
 10
39.8038
 20
-51.9794
 30
0.0000
  0
VERTEX
  8
CUT_JAG
 10
37.2816
 20
-51.6692
 30
0.0000
  0
VERTEX
  8
CUT_JAG
 10
37.0105
 20
-51.5770
 30
0.0000
  0
VERTEX
  8
CUT_JAG
 10
36.3472
 20
-48.7514
 30
0.0000
  0
VERTEX
  8
CUT_JAG
 10
35.4589
 20
-46.2588
 30
0.0000
  0
VERTEX
  8
CUT_JAG
 10
35.2439
 20
-46.1017
 30
0.0000
  0
VERTEX
  8
CUT_JAG
 10
32.2945
 20
-45.4356
 30
0.0000
  0
VERTEX
  8
CUT_JAG
 10
29.5246
 20
-44.5040
 30
0.0000
  0
VERTEX
  8
CUT_JAG
 10
29.4057
 20
-44.2508
 30
0.0000
  0
VERTEX
  8
CUT_JAG
 10
29.1927
 20
-40.4570
 30
0.0000
  0
VERTEX
  8
CUT_JAG
 10
29.3809
 20
-35.9133
 30
0.0000
  0
VERTEX
  8
CUT_JAG
 10
29.2144
 20
-35.7075
 30
0.0000
  0
VERTEX
  8
CUT_JAG
 10
19.4702
 20
-34.0433
 30
0.0000
  0
VERTEX
  8
CUT_JAG
 10
19.4740
 20
-31.1296
 30
0.0000
  0
VERTEX
  8
CUT_JAG
 10
19.5595
 20
-28.1383
 30
0.0000
  0
VERTEX
  8
CUT_JAG
 10
14.7724
 20
-26.4980
 30
0.0000
  0
VERTEX
  8
CUT_JAG
 10
10.8049
 20
-24.4435
 30
0.0000
  0
VERTEX
  8
CUT_JAG
 10
10.3446
 20
-24.5167
 30
0.0000
  0
VERTEX
  8
CUT_JAG
 10
5.0771
 20
-18.9671
 30
0.0000
  0
VERTEX
  8
CUT_JAG
 10
4.0021
 20
-18.0430
 30
0.0000
  0
VERTEX
  8
CUT_JAG
 10
3.1912
 20
-17.5559
 30
0.0000
  0
VERTEX
  8
CUT_JAG
 10
1.8704
 20
-17.0407
 30
0.0000
  0
VERTEX
  8
CUT_JAG
 10
0.9438
 20
-16.8501
 30
0.0000
  0
VERTEX
  8
CUT_JAG
 10
0.0000
 20
-16.7861
 30
0.0000
  0
VERTEX
  8
CUT_JAG
 10
-0.9438
 20
-16.8501
 30
0.0000
  0
VERTEX
  8
CUT_JAG
 10
-2.3220
 20
-17.1825
 30
0.0000
  0
VERTEX
  8
CUT_JAG
 10
-3.6049
 20
-17.7857
 30
0.0000
  0
VERTEX
  8
CUT_JAG
 10
-4.3810
 20
-18.3266
 30
0.0000
  0
VERTEX
  8
CUT_JAG
 10
-5.0771
 20
-18.9671
 30
0.0000
  0
VERTEX
  8
CUT_JAG
 10
-13.2507
 20
-27.5786
 30
0.0000
  0
VERTEX
  8
CUT_JAG
 10
-13.7457
 20
-27.4725
 30
0.0000
  0
VERTEX
  8
CUT_JAG
 10
-16.7143
 20
-27.2012
 30
0.0000
  0
VERTEX
  8
CUT_JAG
 10
-19.7850
 20
-26.8330
 30
0.0000
  0
VERTEX
  8
CUT_JAG
 10
-19.7833
 20
-27.1984
 30
0.0000
  0
VERTEX
  8
CUT_JAG
 10
-18.8085
 20
-30.3062
 30
0.0000
  0
VERTEX
  8
CUT_JAG
 10
-18.6217
 20
-32.6661
 30
0.0000
  0
VERTEX
  8
CUT_JAG
 10
-18.8816
 20
-32.7831
 30
0.0000
  0
VERTEX
  8
CUT_JAG
 10
-21.5565
 20
-33.1544
 30
0.0000
  0
VERTEX
  8
CUT_JAG
 10
-24.6645
 20
-33.1145
 30
0.0000
  0
VERTEX
  8
CUT_JAG
 10
-26.4988
 20
-37.9213
 30
0.0000
  0
VERTEX
  8
CUT_JAG
 10
-28.1868
 20
-43.2306
 30
0.0000
  0
VERTEX
  8
CUT_JAG
 10
-32.1843
 20
-44.8025
 30
0.0000
  0
VERTEX
  8
CUT_JAG
 10
-36.2598
 20
-46.1347
 30
0.0000
  0
VERTEX
  8
CUT_JAG
 10
-36.3813
 20
-46.3935
 30
0.0000
  0
VERTEX
  8
CUT_JAG
 10
-37.3634
 20
-49.9758
 30
0.0000
  0
VERTEX
  8
CUT_JAG
 10
-38.8052
 20
-52.7400
 30
0.0000
  0
VERTEX
  8
CUT_JAG
 10
-38.9690
 20
-52.9567
 30
0.0000
  0
VERTEX
  8
CUT_JAG
 10
-42.2165
 20
-53.6159
 30
0.0000
  0
VERTEX
  8
CUT_JAG
 10
-44.9339
 20
-54.4802
 30
0.0000
  0
VERTEX
  8
CUT_JAG
 10
-47.2448
 20
-57.9311
 30
0.0000
  0
VERTEX
  8
CUT_JAG
 10
-49.2147
 20
-61.8309
 30
0.0000
  0
VERTEX
  8
CUT_JAG
 10
-54.7440
 20
-66.4044
 30
0.0000
  0
VERTEX
  8
CUT_JAG
 10
-58.7546
 20
-69.8730
 30
0.0000
  0
VERTEX
  8
CUT_JAG
 10
-62.6453
 20
-73.4554
 30
0.0000
  0
VERTEX
  8
CUT_JAG
 10
-66.6064
 20
-77.4219
 30
0.0000
  0
VERTEX
  8
CUT_JAG
 10
-67.1147
 20
-77.8335
 30
0.0000
  0
VERTEX
  8
CUT_JAG
 10
-67.9668
 20
-78.3179
 30
0.0000
  0
VERTEX
  8
CUT_JAG
 10
-68.5804
 20
-78.5442
 30
0.0000
  0
VERTEX
  8
CUT_JAG
 10
-69.5430
 20
-78.7291
 30
0.0000
  0
VERTEX
  8
CUT_JAG
 10
-70.1968
 20
-78.7461
 30
0.0000
  0
VERTEX
  8
CUT_JAG
 10
-71.1677
 20
-78.6117
 30
0.0000
  0
VERTEX
  8
CUT_JAG
 10
-72.0937
 20
-78.2905
 30
0.0000
  0
VERTEX
  8
CUT_JAG
 10
-72.9393
 20
-77.7948
 30
0.0000
  0
VERTEX
  8
CUT_JAG
 10
-73.4421
 20
-77.3765
 30
0.0000
  0
VERTEX
  8
CUT_JAG
 10
-74.0835
 20
-76.6353
 30
0.0000
  0
VERTEX
  8
CUT_JAG
 10
-74.5679
 20
-75.7832
 30
0.0000
  0
VERTEX
  8
CUT_JAG
 10
-74.7942
 20
-75.1696
 30
0.0000
  0
VERTEX
  8
CUT_JAG
 10
-74.9791
 20
-74.2070
 30
0.0000
  0
VERTEX
  8
CUT_JAG
 10
-74.9961
 20
-73.5532
 30
0.0000
  0
VERTEX
  8
CUT_JAG
 10
-74.8617
 20
-72.5823
 30
0.0000
  0
VERTEX
  8
CUT_JAG
 10
-74.5405
 20
-71.6563
 30
0.0000
  0
VERTEX
  8
CUT_JAG
 10
-74.0448
 20
-70.8107
 30
0.0000
  0
VERTEX
  8
CUT_JAG
 10
-70.0195
 20
-66.3089
 30
0.0000
  0
VERTEX
  8
CUT_JAG
 10
-66.5807
 20
-62.1502
 30
0.0000
  0
VERTEX
  8
CUT_JAG
 10
-63.2650
 20
-57.8747
 30
0.0000
  0
VERTEX
  8
CUT_JAG
 10
-58.4233
 20
-51.3362
 30
0.0000
  0
VERTEX
  8
CUT_JAG
 10
-58.1768
 20
-51.1802
 30
0.0000
  0
VERTEX
  8
CUT_JAG
 10
-54.6178
 20
-49.7491
 30
0.0000
  0
VERTEX
  8
CUT_JAG
 10
-54.3805
 20
-49.5879
 30
0.0000
  0
VERTEX
  8
CUT_JAG
 10
-52.6735
 20
-45.8055
 30
0.0000
  0
VERTEX
  8
CUT_JAG
 10
-51.2661
 20
-41.7899
 30
0.0000
  0
VERTEX
  8
CUT_JAG
 10
-51.0877
 20
-41.5856
 30
0.0000
  0
VERTEX
  8
CUT_JAG
 10
-47.9909
 20
-40.2429
 30
0.0000
  0
VERTEX
  8
CUT_JAG
 10
-44.5298
 20
-39.2885
 30
0.0000
  0
VERTEX
  8
CUT_JAG
 10
-44.8157
 20
-36.2913
 30
0.0000
  0
VERTEX
  8
CUT_JAG
 10
-44.5694
 20
-33.6744
 30
0.0000
  0
VERTEX
  8
CUT_JAG
 10
-44.1907
 20
-33.6490
 30
0.0000
  0
VERTEX
  8
CUT_JAG
 10
-40.2517
 20
-34.7100
 30
0.0000
  0
VERTEX
  8
CUT_JAG
 10
-38.3222
 20
-35.0969
 30
0.0000
  0
VERTEX
  8
CUT_JAG
 10
-38.0155
 20
-35.0150
 30
0.0000
  0
VERTEX
  8
CUT_JAG
 10
-39.1268
 20
-32.5373
 30
0.0000
  0
VERTEX
  8
CUT_JAG
 10
-40.2588
 20
-29.6084
 30
0.0000
  0
VERTEX
  8
CUT_JAG
 10
-39.9272
 20
-29.5520
 30
0.0000
  0
VERTEX
  8
CUT_JAG
 10
-37.4682
 20
-30.4014
 30
0.0000
  0
VERTEX
  8
CUT_JAG
 10
-35.3342
 20
-30.9424
 30
0.0000
  0
VERTEX
  8
CUT_JAG
 10
-35.2026
 20
-30.6962
 30
0.0000
  0
VERTEX
  8
CUT_JAG
 10
-35.9611
 20
-27.7494
 30
0.0000
  0
VERTEX
  8
CUT_JAG
 10
-36.1402
 20
-24.9815
 30
0.0000
  0
VERTEX
  8
CUT_JAG
 10
-32.9563
 20
-24.6633
 30
0.0000
  0
VERTEX
  8
CUT_JAG
 10
-30.2039
 20
-24.3067
 30
0.0000
  0
VERTEX
  8
CUT_JAG
 10
-26.4736
 20
-14.4867
 30
0.0000
  0
VERTEX
  8
CUT_JAG
 10
-23.7166
 20
-14.5056
 30
0.0000
  0
VERTEX
  8
CUT_JAG
 10
-21.8609
 20
-14.4113
 30
0.0000
  0
VERTEX
  8
CUT_JAG
 10
-21.5373
 20
-14.3473
 30
0.0000
  0
VERTEX
  8
CUT_JAG
 10
-22.3308
 20
-12.4807
 30
0.0000
  0
VERTEX
  8
CUT_JAG
 10
-22.6493
 20
-11.4361
 30
0.0000
  0
VERTEX
  8
CUT_JAG
 10
-23.0589
 20
-10.6762
 30
0.0000
  0
VERTEX
  8
CUT_JAG
 10
-17.4995
 20
-4.8190
 30
0.0000
  0
VERTEX
  8
CUT_JAG
 10
-16.9319
 20
-4.1396
 30
0.0000
  0
VERTEX
  8
CUT_JAG
 10
-16.2522
 20
-3.0002
 30
0.0000
  0
VERTEX
  8
CUT_JAG
 10
-15.9241
 20
-2.1779
 30
0.0000
  0
VERTEX
  8
CUT_JAG
 10
-15.7024
 20
-1.3208
 30
0.0000
  0
VERTEX
  8
CUT_JAG
 10
-15.5767
 20
-0.0000
 30
0.0000
  0
VERTEX
  8
CUT_JAG
 10
-15.6326
 20
0.8835
 30
0.0000
  0
VERTEX
  8
CUT_JAG
 10
-15.9241
 20
2.1779
 30
0.0000
  0
VERTEX
  8
CUT_JAG
 10
-16.2522
 20
3.0002
 30
0.0000
  0
VERTEX
  8
CUT_JAG
 10
-16.9319
 20
4.1396
 30
0.0000
  0
VERTEX
  8
CUT_JAG
 10
-17.4995
 20
4.8190
 30
0.0000
  0
VERTEX
  8
CUT_JAG
 10
-26.5799
 20
14.3858
 30
0.0000
  0
VERTEX
  8
CUT_JAG
 10
-26.4484
 20
14.8817
 30
0.0000
  0
VERTEX
  8
CUT_JAG
 10
-26.4400
 20
17.8588
 30
0.0000
  0
VERTEX
  8
CUT_JAG
 10
-26.5343
 20
21.1094
 30
0.0000
  0
VERTEX
  8
CUT_JAG
 10
-26.6183
 20
21.4008
 30
0.0000
  0
VERTEX
  8
CUT_JAG
 10
-31.1276
 20
21.9455
 30
0.0000
  0
VERTEX
  8
CUT_JAG
 10
-34.5444
 20
23.1560
 30
0.0000
  0
VERTEX
  8
CUT_JAG
 10
-34.6861
 20
23.3926
 30
0.0000
  0
VERTEX
  8
CUT_JAG
 10
-34.4424
 20
26.2219
 30
0.0000
  0
VERTEX
  8
CUT_JAG
 10
-34.5581
 20
29.0811
 30
0.0000
  0
VERTEX
  8
CUT_JAG
 10
-41.6896
 20
30.8462
 30
0.0000
  0
VERTEX
  8
CUT_JAG
 10
-41.8542
 20
31.0589
 30
0.0000
  0
VERTEX
  8
CUT_JAG
 10
-42.2910
 20
34.2733
 30
0.0000
  0
VERTEX
  8
CUT_JAG
 10
-42.9645
 20
37.1570
 30
0.0000
  0
VERTEX
  8
CUT_JAG
 10
-43.1164
 20
37.3818
 30
0.0000
  0
VERTEX
  8
CUT_JAG
 10
-46.7734
 20
38.8236
 30
0.0000
  0
VERTEX
  8
CUT_JAG
 10
-50.0266
 20
40.6975
 30
0.0000
  0
VERTEX
  8
CUT_JAG
 10
-50.2176
 20
40.8906
 30
0.0000
  0
VERTEX
  8
CUT_JAG
 10
-51.4994
 20
45.3342
 30
0.0000
  0
VERTEX
  8
CUT_JAG
 10
-53.1789
 20
49.4613
 30
0.0000
  0
VERTEX
  8
CUT_JAG
 10
-58.3450
 20
51.3935
 30
0.0000
  0
VERTEX
  8
CUT_JAG
 10
-58.5835
 20
51.5553
 30
0.0000
  0
VERTEX
  8
CUT_JAG
 10
-63.2650
 20
57.8747
 30
0.0000
  0
VERTEX
  8
CUT_JAG
 10
-66.5807
 20
62.1502
 30
0.0000
  0
VERTEX
  8
CUT_JAG
 10
-70.0195
 20
66.3089
 30
0.0000
  0
VERTEX
  8
CUT_JAG
 10
-74.0448
 20
70.8107
 30
0.0000
  0
VERTEX
  8
CUT_JAG
 10
-74.5405
 20
71.6563
 30
0.0000
  0
VERTEX
  8
CUT_JAG
 10
-74.8617
 20
72.5823
 30
0.0000
  0
VERTEX
  8
CUT_JAG
 10
-74.9961
 20
73.5532
 30
0.0000
  0
VERTEX
  8
CUT_JAG
 10
-74.9791
 20
74.2070
 30
0.0000
  0
VERTEX
  8
CUT_JAG
 10
-74.7942
 20
75.1696
 30
0.0000
  0
VERTEX
  8
CUT_JAG
 10
-74.5679
 20
75.7832
 30
0.0000
  0
VERTEX
  8
CUT_JAG
 10
-74.0835
 20
76.6353
 30
0.0000
  0
VERTEX
  8
CUT_JAG
 10
-73.6719
 20
77.1436
 30
0.0000
  0
VERTEX
  8
CUT_JAG
 10
-73.1976
 20
77.5939
 30
0.0000
  0
VERTEX
  8
CUT_JAG
 10
-72.3862
 20
78.1438
 30
0.0000
  0
VERTEX
  8
CUT_JAG
 10
-71.4832
 20
78.5250
 30
0.0000
  0
VERTEX
  8
CUT_JAG
 10
-70.5231
 20
78.7226
 30
0.0000
  0
VERTEX
  8
CUT_JAG
 10
-69.5430
 20
78.7291
 30
0.0000
  0
VERTEX
  8
CUT_JAG
 10
-68.5804
 20
78.5442
 30
0.0000
  0
VERTEX
  8
CUT_JAG
 10
-67.6724
 20
78.1752
 30
0.0000
  0
VERTEX
  8
CUT_JAG
 10
-67.1147
 20
77.8335
 30
0.0000
  0
VERTEX
  8
CUT_JAG
 10
-66.6064
 20
77.4219
 30
0.0000
  0
VERTEX
  8
CUT_JAG
 10
-64.1585
 20
74.9293
 30
0.0000
  0
VERTEX
  8
CUT_JAG
 10
-61.8788
 20
72.7279
 30
0.0000
  0
VERTEX
  8
CUT_JAG
 10
-57.9607
 20
69.1715
 30
0.0000
  0
VERTEX
  8
CUT_JAG
 10
-53.1157
 20
65.0398
 30
0.0000
  0
VERTEX
  8
CUT_JAG
 10
-45.2960
 20
58.6388
 30
0.0000
  0
VERTEX
  8
CUT_JAG
 10
-43.6616
 20
53.5285
 30
0.0000
  0
VERTEX
  8
CUT_JAG
 10
-43.4836
 20
53.3338
 30
0.0000
  0
VERTEX
  8
CUT_JAG
 10
-39.9295
 20
52.2407
 30
0.0000
  0
VERTEX
  8
CUT_JAG
 10
-36.5502
 20
50.8981
 30
0.0000
  0
VERTEX
  8
CUT_JAG
 10
-36.1659
 20
49.3432
 30
0.0000
  0
VERTEX
  8
CUT_JAG
 10
-35.4050
 20
45.5410
 30
0.0000
  0
VERTEX
  8
CUT_JAG
 10
-35.2207
 20
45.3713
 30
0.0000
  0
VERTEX
  8
CUT_JAG
 10
-31.4928
 20
43.6508
 30
0.0000
  0
VERTEX
  8
CUT_JAG
 10
-27.5277
 20
42.0373
 30
0.0000
  0
VERTEX
  8
CUT_JAG
 10
-27.3063
 20
41.8838
 30
0.0000
  0
VERTEX
  8
CUT_JAG
 10
-26.2581
 20
38.5135
 30
0.0000
  0
VERTEX
  8
CUT_JAG
 10
-25.6936
 20
34.6841
 30
0.0000
  0
VERTEX
  8
CUT_JAG
 10
-25.5493
 20
34.4573
 30
0.0000
  0
VERTEX
  8
CUT_JAG
 10
-21.1130
 20
33.2116
 30
0.0000
  0
VERTEX
  8
CUT_JAG
 10
-17.1699
 20
31.4977
 30
0.0000
  0
VERTEX
  8
CUT_JAG
 10
-17.1459
 20
27.5191
 30
0.0000
  0
VERTEX
  8
CUT_JAG
 10
-16.6148
 20
24.3855
 30
0.0000
  0
VERTEX
  8
CUT_JAG
 10
-16.4672
 20
24.1619
 30
0.0000
  0
VERTEX
  8
CUT_JAG
 10
-13.1690
 20
24.3823
 30
0.0000
  0
VERTEX
  8
CUT_JAG
 10
-10.4269
 20
24.4386
 30
0.0000
  0
VERTEX
  8
CUT_JAG
 10
-10.1629
 20
24.3254
 30
0.0000
  0
VERTEX
  8
CUT_JAG
 10
-5.0771
 20
18.9671
 30
0.0000
  0
VERTEX
  8
CUT_JAG
 10
-4.0021
 20
18.0430
 30
0.0000
  0
VERTEX
  8
CUT_JAG
 10
-3.1912
 20
17.5559
 30
0.0000
  0
VERTEX
  8
CUT_JAG
 10
-2.3220
 20
17.1825
 30
0.0000
  0
VERTEX
  8
CUT_JAG
 10
-0.9438
 20
16.8501
 30
0.0000
  0
VERTEX
  8
CUT_JAG
 10
-0.0000
 20
16.7861
 30
0.0000
  0
VERTEX
  8
CUT_JAG
 10
0.9438
 20
16.8501
 30
0.0000
  0
VERTEX
  8
CUT_JAG
 10
2.3220
 20
17.1825
 30
0.0000
  0
VERTEX
  8
CUT_JAG
 10
3.6049
 20
17.7857
 30
0.0000
  0
VERTEX
  8
CUT_JAG
 10
4.3810
 20
18.3266
 30
0.0000
  0
VERTEX
  8
CUT_JAG
 10
5.0771
 20
18.9671
 30
0.0000
  0
VERTEX
  8
CUT_JAG
 10
13.9772
 20
28.3440
 30
0.0000
  0
VERTEX
  8
CUT_JAG
 10
17.0758
 20
27.9494
 30
0.0000
  0
VERTEX
  8
CUT_JAG
 10
19.7640
 20
27.9443
 30
0.0000
  0
VERTEX
  8
CUT_JAG
 10
19.8788
 20
28.1990
 30
0.0000
  0
VERTEX
  8
CUT_JAG
 10
19.9986
 20
31.7230
 30
0.0000
  0
VERTEX
  8
CUT_JAG
 10
20.3779
 20
34.6368
 30
0.0000
  0
VERTEX
  8
CUT_JAG
 10
20.5960
 20
34.7936
 30
0.0000
  0
VERTEX
  8
CUT_JAG
 10
22.4966
 20
34.8084
 30
0.0000
  0
VERTEX
  8
CUT_JAG
 10
24.5428
 20
34.6851
 30
0.0000
  0
VERTEX
  8
CUT_JAG
 10
24.7364
 20
34.8651
 30
0.0000
  0
VERTEX
  8
CUT_JAG
 10
24.4069
 20
36.6329
 30
0.0000
  0
VERTEX
  8
CUT_JAG
 10
24.2052
 20
38.2795
 30
0.0000
  0
VERTEX
  8
CUT_JAG
 10
24.2245
 20
38.6249
 30
0.0000
  0
VERTEX
  8
CUT_JAG
 10
29.1096
 20
40.1722
 30
0.0000
  0
VERTEX
  8
CUT_JAG
 10
33.7281
 20
41.7849
 30
0.0000
  0
VERTEX
  8
CUT_JAG
 10
33.8619
 20
42.0244
 30
0.0000
  0
VERTEX
  8
CUT_JAG
 10
33.8832
 20
45.6516
 30
0.0000
  0
VERTEX
  8
CUT_JAG
 10
34.4376
 20
48.9029
 30
0.0000
  0
VERTEX
  8
CUT_JAG
 10
37.1406
 20
48.6490
 30
0.0000
  0
VERTEX
  8
CUT_JAG
 10
39.0824
 20
48.8123
 30
0.0000
  0
VERTEX
  8
CUT_JAG
 10
39.1312
 20
49.9509
 30
0.0000
  0
VERTEX
  8
CUT_JAG
 10
39.0721
 20
53.2444
 30
0.0000
  0
VERTEX
  8
CUT_JAG
 10
39.2294
 20
53.4684
 30
0.0000
  0
VERTEX
  8
CUT_JAG
 10
44.6286
 20
55.2645
 30
0.0000
  0
VERTEX
  8
CUT_JAG
 10
44.8240
 20
55.4419
 30
0.0000
  0
VERTEX
  8
CUT_JAG
 10
45.6753
 20
58.5948
 30
0.0000
  0
VERTEX
  8
CUT_JAG
 10
45.8297
 20
58.8262
 30
0.0000
  0
VERTEX
  8
CUT_JAG
 10
49.5694
 20
59.7112
 30
0.0000
  0
VERTEX
  8
CUT_JAG
 10
50.1070
 20
61.5790
 30
0.0000
  0
VERTEX
  8
CUT_JAG
 10
50.6560
 20
63.0093
 30
0.0000
  0
VERTEX
  8
CUT_JAG
 10
55.5537
 20
67.0910
 30
0.0000
  0
VERTEX
  8
CUT_JAG
 10
59.5437
 20
70.5791
 30
0.0000
  0
VERTEX
  8
CUT_JAG
 10
62.6453
 20
73.4554
 30
0.0000
  0
VERTEX
  8
CUT_JAG
 10
66.8538
 20
77.6360
 30
0.0000
  0
VERTEX
  8
CUT_JAG
 10
67.3879
 20
78.0135
 30
0.0000
  0
VERTEX
  8
CUT_JAG
 10
68.2699
 20
78.4411
 30
0.0000
  0
VERTEX
  8
CUT_JAG
 10
69.2183
 20
78.6885
 30
0.0000
  0
VERTEX
  8
CUT_JAG
 10
70.1968
 20
78.7461
 30
0.0000
  0
VERTEX
  8
CUT_JAG
 10
71.1677
 20
78.6117
 30
0.0000
  0
VERTEX
  8
CUT_JAG
 10
72.0937
 20
78.2905
 30
0.0000
  0
VERTEX
  8
CUT_JAG
 10
72.9393
 20
77.7948
 30
0.0000
  0
VERTEX
  8
CUT_JAG
 10
73.4421
 20
77.3765
 30
0.0000
  0
VERTEX
  8
CUT_JAG
 10
74.0835
 20
76.6353
 30
0.0000
  0
VERTEX
  8
CUT_JAG
 10
74.5679
 20
75.7832
 30
0.0000
  0
VERTEX
  8
CUT_JAG
 10
74.7942
 20
75.1696
 30
0.0000
  0
VERTEX
  8
CUT_JAG
 10
74.9791
 20
74.2070
 30
0.0000
  0
VERTEX
  8
CUT_JAG
 10
74.9961
 20
73.5532
 30
0.0000
  0
VERTEX
  8
CUT_JAG
 10
74.8617
 20
72.5823
 30
0.0000
  0
VERTEX
  8
CUT_JAG
 10
74.5405
 20
71.6563
 30
0.0000
  0
VERTEX
  8
CUT_JAG
 10
74.2284
 20
71.0815
 30
0.0000
  0
VERTEX
  8
CUT_JAG
 10
73.8439
 20
70.5524
 30
0.0000
  0
VERTEX
  8
CUT_JAG
 10
70.7260
 20
67.1228
 30
0.0000
  0
VERTEX
  8
CUT_JAG
 10
67.9389
 20
63.8301
 30
0.0000
  0
VERTEX
  8
CUT_JAG
 10
65.2422
 20
60.4516
 30
0.0000
  0
VERTEX
  8
CUT_JAG
 10
62.4502
 20
56.7923
 30
0.0000
  0
VERTEX
  8
CUT_JAG
 10
60.0090
 20
55.2258
 30
0.0000
  0
VERTEX
  8
CUT_JAG
 10
58.0168
 20
53.6532
 30
0.0000
  0
VERTEX
  8
CUT_JAG
 10
57.8354
 20
53.4484
 30
0.0000
  0
VERTEX
  8
CUT_JAG
 10
57.2507
 20
51.1846
 30
0.0000
  0
VERTEX
  8
CUT_JAG
 10
56.5132
 20
49.0345
 30
0.0000
  0
VERTEX
  8
CUT_JAG
 10
54.4683
 20
48.1802
 30
0.0000
  0
VERTEX
  8
CUT_JAG
 10
52.2153
 20
47.8259
 30
0.0000
  0
VERTEX
  8
CUT_JAG
 10
52.2708
 20
47.4476
 30
0.0000
  0
VERTEX
  8
CUT_JAG
 10
52.8722
 20
45.9956
 30
0.0000
  0
VERTEX
  8
CUT_JAG
 10
53.2343
 20
44.7145
 30
0.0000
  0
VERTEX
  8
CUT_JAG
 10
53.1140
 20
44.4660
 30
0.0000
  0
VERTEX
  8
CUT_JAG
 10
51.1611
 20
44.2408
 30
0.0000
  0
VERTEX
  8
CUT_JAG
 10
48.4816
 20
44.2622
 30
0.0000
  0
VERTEX
  8
CUT_JAG
 10
48.9326
 20
38.8096
 30
0.0000
  0
VERTEX
  8
CUT_JAG
 10
48.6980
 20
38.6517
 30
0.0000
  0
VERTEX
  8
CUT_JAG
 10
43.7742
 20
37.1765
 30
0.0000
  0
VERTEX
  8
CUT_JAG
 10
43.5527
 20
37.0109
 30
0.0000
  0
VERTEX
  8
CUT_JAG
 10
42.6134
 20
33.6221
 30
0.0000
  0
VERTEX
  8
CUT_JAG
 10
41.5020
 20
30.2840
 30
0.0000
  0
VERTEX
  8
CUT_JAG
 10
41.2644
 20
30.1383
 30
0.0000
  0
VERTEX
  8
CUT_JAG
 10
37.2664
 20
29.8507
 30
0.0000
  0
VERTEX
  8
CUT_JAG
 10
33.9367
 20
29.2997
 30
0.0000
  0
VERTEX
  8
CUT_JAG
 10
33.6825
 20
29.1699
 30
0.0000
  0
VERTEX
  8
CUT_JAG
 10
33.0612
 20
25.3060
 30
0.0000
  0
VERTEX
  8
CUT_JAG
 10
32.5671
 20
20.9503
 30
0.0000
  0
VERTEX
  8
CUT_JAG
 10
28.6515
 20
19.4710
 30
0.0000
  0
VERTEX
  8
CUT_JAG
 10
24.4986
 20
18.5880
 30
0.0000
  0
VERTEX
  8
CUT_JAG
 10
24.3633
 20
18.3453
 30
0.0000
  0
VERTEX
  8
CUT_JAG
 10
23.3836
 20
14.8216
 30
0.0000
  0
VERTEX
  8
CUT_JAG
 10
22.6094
 20
10.7317
 30
0.0000
  0
VERTEX
  8
CUT_JAG
 10
22.6883
 20
10.2857
 30
0.0000
  0
VERTEX
  8
CUT_JAG
 10
17.2050
 20
4.4883
 30
0.0000
  0
VERTEX
  8
CUT_JAG
 10
16.6814
 20
3.7744
 30
0.0000
  0
VERTEX
  8
CUT_JAG
 10
16.2522
 20
3.0002
 30
0.0000
  0
VERTEX
  8
CUT_JAG
 10
15.7997
 20
1.7529
 30
0.0000
  0
VERTEX
  8
CUT_JAG
 10
15.6326
 20
0.8835
 30
0.0000
  0
VERTEX
  8
CUT_JAG
 10
15.5767
 20
0.0000
 30
0.0000
  0
VERTEX
  8
CUT_JAG
 10
15.6326
 20
-0.8835
 30
0.0000
  0
VERTEX
  8
CUT_JAG
 10
15.9241
 20
-2.1779
 30
0.0000
  0
VERTEX
  8
CUT_JAG
 10
16.2522
 20
-3.0002
 30
0.0000
  0
VERTEX
  8
CUT_JAG
 10
16.6814
 20
-3.7744
 30
0.0000
  0
SEQEND
  8
CUT_JAG
  0
POLYLINE
  8
PATCH
 66
1
 10
0.0000
 20
0.0000
 30
0.0000
 70
1
  0
VERTEX
  8
PATCH
 10
34.0618
 20
-1.9236
 30
0.0000
  0
VERTEX
  8
PATCH
 10
52.6524
 20
-21.5263
 30
0.0000
  0
VERTEX
  8
PATCH
 10
54.5819
 20
-23.6578
 30
0.0000
  0
VERTEX
  8
PATCH
 10
56.4598
 20
-25.8381
 30
0.0000
  0
VERTEX
  8
PATCH
 10
59.4940
 20
-29.5630
 30
0.0000
  0
VERTEX
  8
PATCH
 10
62.4359
 20
-33.3754
 30
0.0000
  0
VERTEX
  8
PATCH
 10
65.3176
 20
-37.2450
 30
0.0000
  0
VERTEX
  8
PATCH
 10
71.6018
 20
-45.8107
 30
0.0000
  0
VERTEX
  8
PATCH
 10
75.0928
 20
-50.4229
 30
0.0000
  0
VERTEX
  8
PATCH
 10
77.4807
 20
-53.4402
 30
0.0000
  0
VERTEX
  8
PATCH
 10
79.9359
 20
-56.3936
 30
0.0000
  0
VERTEX
  8
PATCH
 10
81.8314
 20
-58.5574
 30
0.0000
  0
VERTEX
  8
PATCH
 10
84.6068
 20
-61.5992
 30
0.0000
  0
VERTEX
  8
PATCH
 10
85.3702
 20
-62.5806
 30
0.0000
  0
VERTEX
  8
PATCH
 10
86.0678
 20
-63.6097
 30
0.0000
  0
VERTEX
  8
PATCH
 10
86.6966
 20
-64.6823
 30
0.0000
  0
VERTEX
  8
PATCH
 10
87.2539
 20
-65.7938
 30
0.0000
  0
VERTEX
  8
PATCH
 10
87.7374
 20
-66.9393
 30
0.0000
  0
VERTEX
  8
PATCH
 10
88.1448
 20
-68.1139
 30
0.0000
  0
VERTEX
  8
PATCH
 10
88.4746
 20
-69.3127
 30
0.0000
  0
VERTEX
  8
PATCH
 10
88.7252
 20
-70.5305
 30
0.0000
  0
VERTEX
  8
PATCH
 10
88.8957
 20
-71.7621
 30
0.0000
  0
VERTEX
  8
PATCH
 10
88.9853
 20
-73.0022
 30
0.0000
  0
VERTEX
  8
PATCH
 10
88.9935
 20
-74.2455
 30
0.0000
  0
VERTEX
  8
PATCH
 10
88.9205
 20
-75.4867
 30
0.0000
  0
VERTEX
  8
PATCH
 10
88.7664
 20
-76.7204
 30
0.0000
  0
VERTEX
  8
PATCH
 10
88.5319
 20
-77.9414
 30
0.0000
  0
VERTEX
  8
PATCH
 10
88.2181
 20
-79.1445
 30
0.0000
  0
VERTEX
  8
PATCH
 10
87.8263
 20
-80.3245
 30
0.0000
  0
VERTEX
  8
PATCH
 10
87.3581
 20
-81.4763
 30
0.0000
  0
VERTEX
  8
PATCH
 10
86.8156
 20
-82.5950
 30
0.0000
  0
VERTEX
  8
PATCH
 10
86.2011
 20
-83.6759
 30
0.0000
  0
VERTEX
  8
PATCH
 10
85.5173
 20
-84.7142
 30
0.0000
  0
VERTEX
  8
PATCH
 10
84.7670
 20
-85.7056
 30
0.0000
  0
VERTEX
  8
PATCH
 10
83.9534
 20
-86.6458
 30
0.0000
  0
VERTEX
  8
PATCH
 10
83.0801
 20
-87.5308
 30
0.0000
  0
VERTEX
  8
PATCH
 10
82.1508
 20
-88.3568
 30
0.0000
  0
VERTEX
  8
PATCH
 10
81.1694
 20
-89.1202
 30
0.0000
  0
VERTEX
  8
PATCH
 10
80.1403
 20
-89.8178
 30
0.0000
  0
VERTEX
  8
PATCH
 10
79.0677
 20
-90.4466
 30
0.0000
  0
VERTEX
  8
PATCH
 10
77.9562
 20
-91.0039
 30
0.0000
  0
VERTEX
  8
PATCH
 10
76.8107
 20
-91.4874
 30
0.0000
  0
VERTEX
  8
PATCH
 10
75.6361
 20
-91.8948
 30
0.0000
  0
VERTEX
  8
PATCH
 10
74.4373
 20
-92.2246
 30
0.0000
  0
VERTEX
  8
PATCH
 10
73.2195
 20
-92.4752
 30
0.0000
  0
VERTEX
  8
PATCH
 10
71.9879
 20
-92.6457
 30
0.0000
  0
VERTEX
  8
PATCH
 10
70.7478
 20
-92.7353
 30
0.0000
  0
VERTEX
  8
PATCH
 10
69.5045
 20
-92.7435
 30
0.0000
  0
VERTEX
  8
PATCH
 10
68.2633
 20
-92.6705
 30
0.0000
  0
VERTEX
  8
PATCH
 10
67.0296
 20
-92.5164
 30
0.0000
  0
VERTEX
  8
PATCH
 10
65.8086
 20
-92.2819
 30
0.0000
  0
VERTEX
  8
PATCH
 10
64.6055
 20
-91.9681
 30
0.0000
  0
VERTEX
  8
PATCH
 10
63.4255
 20
-91.5763
 30
0.0000
  0
VERTEX
  8
PATCH
 10
62.2737
 20
-91.1081
 30
0.0000
  0
VERTEX
  8
PATCH
 10
61.1550
 20
-90.5656
 30
0.0000
  0
VERTEX
  8
PATCH
 10
60.0741
 20
-89.9511
 30
0.0000
  0
VERTEX
  8
PATCH
 10
59.0358
 20
-89.2673
 30
0.0000
  0
VERTEX
  8
PATCH
 10
58.0444
 20
-88.5170
 30
0.0000
  0
VERTEX
  8
PATCH
 10
57.1042
 20
-87.7034
 30
0.0000
  0
VERTEX
  8
PATCH
 10
54.2843
 20
-84.8461
 30
0.0000
  0
VERTEX
  8
PATCH
 10
52.2990
 20
-82.9100
 30
0.0000
  0
VERTEX
  8
PATCH
 10
49.5843
 20
-80.3928
 30
0.0000
  0
VERTEX
  8
PATCH
 10
46.8055
 20
-77.9364
 30
0.0000
  0
VERTEX
  8
PATCH
 10
41.8326
 20
-73.7421
 30
0.0000
  0
VERTEX
  8
PATCH
 10
33.9007
 20
-67.2623
 30
0.0000
  0
VERTEX
  8
PATCH
 10
30.3179
 20
-64.2955
 30
0.0000
  0
VERTEX
  8
PATCH
 10
26.7892
 20
-61.2773
 30
0.0000
  0
VERTEX
  8
PATCH
 10
24.0245
 20
-58.8076
 30
0.0000
  0
VERTEX
  8
PATCH
 10
21.3272
 20
-56.2738
 30
0.0000
  0
VERTEX
  8
PATCH
 10
18.7121
 20
-53.6620
 30
0.0000
  0
VERTEX
  8
PATCH
 10
2.0314
 20
-36.1044
 30
0.0000
  0
VERTEX
  8
PATCH
 10
1.7152
 20
-35.8507
 30
0.0000
  0
VERTEX
  8
PATCH
 10
1.1841
 20
-35.5556
 30
0.0000
  0
VERTEX
  8
PATCH
 10
0.6044
 20
-35.3735
 30
0.0000
  0
VERTEX
  8
PATCH
 10
0.0000
 20
-35.3120
 30
0.0000
  0
VERTEX
  8
PATCH
 10
-0.6044
 20
-35.3735
 30
0.0000
  0
VERTEX
  8
PATCH
 10
-1.1841
 20
-35.5556
 30
0.0000
  0
VERTEX
  8
PATCH
 10
-1.5449
 20
-35.7404
 30
0.0000
  0
VERTEX
  8
PATCH
 10
-2.0314
 20
-36.1044
 30
0.0000
  0
VERTEX
  8
PATCH
 10
-18.7121
 20
-53.6620
 30
0.0000
  0
VERTEX
  8
PATCH
 10
-21.3272
 20
-56.2738
 30
0.0000
  0
VERTEX
  8
PATCH
 10
-24.0245
 20
-58.8076
 30
0.0000
  0
VERTEX
  8
PATCH
 10
-26.7892
 20
-61.2773
 30
0.0000
  0
VERTEX
  8
PATCH
 10
-30.3179
 20
-64.2955
 30
0.0000
  0
VERTEX
  8
PATCH
 10
-33.9007
 20
-67.2623
 30
0.0000
  0
VERTEX
  8
PATCH
 10
-41.8326
 20
-73.7421
 30
0.0000
  0
VERTEX
  8
PATCH
 10
-46.8055
 20
-77.9364
 30
0.0000
  0
VERTEX
  8
PATCH
 10
-49.5843
 20
-80.3928
 30
0.0000
  0
VERTEX
  8
PATCH
 10
-52.2990
 20
-82.9100
 30
0.0000
  0
VERTEX
  8
PATCH
 10
-54.2843
 20
-84.8461
 30
0.0000
  0
VERTEX
  8
PATCH
 10
-57.1042
 20
-87.7034
 30
0.0000
  0
VERTEX
  8
PATCH
 10
-58.0444
 20
-88.5170
 30
0.0000
  0
VERTEX
  8
PATCH
 10
-59.0358
 20
-89.2673
 30
0.0000
  0
VERTEX
  8
PATCH
 10
-60.0741
 20
-89.9511
 30
0.0000
  0
VERTEX
  8
PATCH
 10
-61.1550
 20
-90.5656
 30
0.0000
  0
VERTEX
  8
PATCH
 10
-62.2737
 20
-91.1081
 30
0.0000
  0
VERTEX
  8
PATCH
 10
-63.4255
 20
-91.5763
 30
0.0000
  0
VERTEX
  8
PATCH
 10
-64.6055
 20
-91.9681
 30
0.0000
  0
VERTEX
  8
PATCH
 10
-65.8086
 20
-92.2819
 30
0.0000
  0
VERTEX
  8
PATCH
 10
-67.0296
 20
-92.5164
 30
0.0000
  0
VERTEX
  8
PATCH
 10
-68.2633
 20
-92.6705
 30
0.0000
  0
VERTEX
  8
PATCH
 10
-69.5045
 20
-92.7435
 30
0.0000
  0
VERTEX
  8
PATCH
 10
-70.7478
 20
-92.7353
 30
0.0000
  0
VERTEX
  8
PATCH
 10
-71.9879
 20
-92.6457
 30
0.0000
  0
VERTEX
  8
PATCH
 10
-73.2195
 20
-92.4752
 30
0.0000
  0
VERTEX
  8
PATCH
 10
-74.4373
 20
-92.2246
 30
0.0000
  0
VERTEX
  8
PATCH
 10
-75.6361
 20
-91.8948
 30
0.0000
  0
VERTEX
  8
PATCH
 10
-76.8107
 20
-91.4874
 30
0.0000
  0
VERTEX
  8
PATCH
 10
-77.9562
 20
-91.0039
 30
0.0000
  0
VERTEX
  8
PATCH
 10
-79.0677
 20
-90.4466
 30
0.0000
  0
VERTEX
  8
PATCH
 10
-80.1403
 20
-89.8178
 30
0.0000
  0
VERTEX
  8
PATCH
 10
-81.1694
 20
-89.1202
 30
0.0000
  0
VERTEX
  8
PATCH
 10
-82.1508
 20
-88.3568
 30
0.0000
  0
VERTEX
  8
PATCH
 10
-83.0801
 20
-87.5308
 30
0.0000
  0
VERTEX
  8
PATCH
 10
-83.9534
 20
-86.6458
 30
0.0000
  0
VERTEX
  8
PATCH
 10
-84.7670
 20
-85.7056
 30
0.0000
  0
VERTEX
  8
PATCH
 10
-85.5173
 20
-84.7142
 30
0.0000
  0
VERTEX
  8
PATCH
 10
-86.2011
 20
-83.6759
 30
0.0000
  0
VERTEX
  8
PATCH
 10
-86.8156
 20
-82.5950
 30
0.0000
  0
VERTEX
  8
PATCH
 10
-87.3581
 20
-81.4763
 30
0.0000
  0
VERTEX
  8
PATCH
 10
-87.8263
 20
-80.3245
 30
0.0000
  0
VERTEX
  8
PATCH
 10
-88.2181
 20
-79.1445
 30
0.0000
  0
VERTEX
  8
PATCH
 10
-88.5319
 20
-77.9414
 30
0.0000
  0
VERTEX
  8
PATCH
 10
-88.7664
 20
-76.7204
 30
0.0000
  0
VERTEX
  8
PATCH
 10
-88.9205
 20
-75.4867
 30
0.0000
  0
VERTEX
  8
PATCH
 10
-88.9935
 20
-74.2455
 30
0.0000
  0
VERTEX
  8
PATCH
 10
-88.9853
 20
-73.0022
 30
0.0000
  0
VERTEX
  8
PATCH
 10
-88.8957
 20
-71.7621
 30
0.0000
  0
VERTEX
  8
PATCH
 10
-88.7252
 20
-70.5305
 30
0.0000
  0
VERTEX
  8
PATCH
 10
-88.4746
 20
-69.3127
 30
0.0000
  0
VERTEX
  8
PATCH
 10
-88.1448
 20
-68.1139
 30
0.0000
  0
VERTEX
  8
PATCH
 10
-87.7374
 20
-66.9393
 30
0.0000
  0
VERTEX
  8
PATCH
 10
-87.2539
 20
-65.7938
 30
0.0000
  0
VERTEX
  8
PATCH
 10
-86.6966
 20
-64.6823
 30
0.0000
  0
VERTEX
  8
PATCH
 10
-86.0678
 20
-63.6097
 30
0.0000
  0
VERTEX
  8
PATCH
 10
-85.3702
 20
-62.5806
 30
0.0000
  0
VERTEX
  8
PATCH
 10
-84.6068
 20
-61.5992
 30
0.0000
  0
VERTEX
  8
PATCH
 10
-81.8314
 20
-58.5574
 30
0.0000
  0
VERTEX
  8
PATCH
 10
-79.9359
 20
-56.3936
 30
0.0000
  0
VERTEX
  8
PATCH
 10
-77.4807
 20
-53.4402
 30
0.0000
  0
VERTEX
  8
PATCH
 10
-75.0928
 20
-50.4229
 30
0.0000
  0
VERTEX
  8
PATCH
 10
-71.6018
 20
-45.8107
 30
0.0000
  0
VERTEX
  8
PATCH
 10
-65.3176
 20
-37.2450
 30
0.0000
  0
VERTEX
  8
PATCH
 10
-62.4359
 20
-33.3754
 30
0.0000
  0
VERTEX
  8
PATCH
 10
-60.0887
 20
-30.3195
 30
0.0000
  0
VERTEX
  8
PATCH
 10
-57.6866
 20
-27.3156
 30
0.0000
  0
VERTEX
  8
PATCH
 10
-55.2132
 20
-24.3794
 30
0.0000
  0
VERTEX
  8
PATCH
 10
-52.6524
 20
-21.5263
 30
0.0000
  0
VERTEX
  8
PATCH
 10
-34.0618
 20
-1.9236
 30
0.0000
  0
VERTEX
  8
PATCH
 10
-33.8374
 20
-1.6176
 30
0.0000
  0
VERTEX
  8
PATCH
 10
-33.5776
 20
-1.1118
 30
0.0000
  0
VERTEX
  8
PATCH
 10
-33.4178
 20
-0.5661
 30
0.0000
  0
VERTEX
  8
PATCH
 10
-33.3639
 20
-0.0000
 30
0.0000
  0
VERTEX
  8
PATCH
 10
-33.4178
 20
0.5661
 30
0.0000
  0
VERTEX
  8
PATCH
 10
-33.5776
 20
1.1118
 30
0.0000
  0
VERTEX
  8
PATCH
 10
-33.8374
 20
1.6176
 30
0.0000
  0
VERTEX
  8
PATCH
 10
-34.1880
 20
2.0653
 30
0.0000
  0
VERTEX
  8
PATCH
 10
-52.6524
 20
21.5263
 30
0.0000
  0
VERTEX
  8
PATCH
 10
-54.5819
 20
23.6578
 30
0.0000
  0
VERTEX
  8
PATCH
 10
-57.0756
 20
26.5747
 30
0.0000
  0
VERTEX
  8
PATCH
 10
-59.4940
 20
29.5630
 30
0.0000
  0
VERTEX
  8
PATCH
 10
-62.4359
 20
33.3754
 30
0.0000
  0
VERTEX
  8
PATCH
 10
-65.3176
 20
37.2450
 30
0.0000
  0
VERTEX
  8
PATCH
 10
-71.6018
 20
45.8107
 30
0.0000
  0
VERTEX
  8
PATCH
 10
-73.9191
 20
48.8950
 30
0.0000
  0
VERTEX
  8
PATCH
 10
-75.6844
 20
51.1824
 30
0.0000
  0
VERTEX
  8
PATCH
 10
-78.0875
 20
54.1852
 30
0.0000
  0
VERTEX
  8
PATCH
 10
-79.9359
 20
56.3936
 30
0.0000
  0
VERTEX
  8
PATCH
 10
-81.8314
 20
58.5574
 30
0.0000
  0
VERTEX
  8
PATCH
 10
-84.6068
 20
61.5992
 30
0.0000
  0
VERTEX
  8
PATCH
 10
-85.3702
 20
62.5806
 30
0.0000
  0
VERTEX
  8
PATCH
 10
-86.0678
 20
63.6097
 30
0.0000
  0
VERTEX
  8
PATCH
 10
-86.6966
 20
64.6823
 30
0.0000
  0
VERTEX
  8
PATCH
 10
-87.2539
 20
65.7938
 30
0.0000
  0
VERTEX
  8
PATCH
 10
-87.7374
 20
66.9393
 30
0.0000
  0
VERTEX
  8
PATCH
 10
-88.1448
 20
68.1139
 30
0.0000
  0
VERTEX
  8
PATCH
 10
-88.4746
 20
69.3127
 30
0.0000
  0
VERTEX
  8
PATCH
 10
-88.7252
 20
70.5305
 30
0.0000
  0
VERTEX
  8
PATCH
 10
-88.8957
 20
71.7621
 30
0.0000
  0
VERTEX
  8
PATCH
 10
-88.9853
 20
73.0022
 30
0.0000
  0
VERTEX
  8
PATCH
 10
-88.9935
 20
74.2455
 30
0.0000
  0
VERTEX
  8
PATCH
 10
-88.9205
 20
75.4867
 30
0.0000
  0
VERTEX
  8
PATCH
 10
-88.7664
 20
76.7204
 30
0.0000
  0
VERTEX
  8
PATCH
 10
-88.5319
 20
77.9414
 30
0.0000
  0
VERTEX
  8
PATCH
 10
-88.2181
 20
79.1445
 30
0.0000
  0
VERTEX
  8
PATCH
 10
-87.8263
 20
80.3245
 30
0.0000
  0
VERTEX
  8
PATCH
 10
-87.3581
 20
81.4763
 30
0.0000
  0
VERTEX
  8
PATCH
 10
-86.8156
 20
82.5950
 30
0.0000
  0
VERTEX
  8
PATCH
 10
-86.2011
 20
83.6759
 30
0.0000
  0
VERTEX
  8
PATCH
 10
-85.5173
 20
84.7142
 30
0.0000
  0
VERTEX
  8
PATCH
 10
-84.7670
 20
85.7056
 30
0.0000
  0
VERTEX
  8
PATCH
 10
-83.9534
 20
86.6458
 30
0.0000
  0
VERTEX
  8
PATCH
 10
-83.0801
 20
87.5308
 30
0.0000
  0
VERTEX
  8
PATCH
 10
-82.1508
 20
88.3568
 30
0.0000
  0
VERTEX
  8
PATCH
 10
-81.1694
 20
89.1202
 30
0.0000
  0
VERTEX
  8
PATCH
 10
-80.1403
 20
89.8178
 30
0.0000
  0
VERTEX
  8
PATCH
 10
-79.0677
 20
90.4466
 30
0.0000
  0
VERTEX
  8
PATCH
 10
-77.9562
 20
91.0039
 30
0.0000
  0
VERTEX
  8
PATCH
 10
-76.8107
 20
91.4874
 30
0.0000
  0
VERTEX
  8
PATCH
 10
-75.6361
 20
91.8948
 30
0.0000
  0
VERTEX
  8
PATCH
 10
-74.4373
 20
92.2246
 30
0.0000
  0
VERTEX
  8
PATCH
 10
-73.2195
 20
92.4752
 30
0.0000
  0
VERTEX
  8
PATCH
 10
-71.9879
 20
92.6457
 30
0.0000
  0
VERTEX
  8
PATCH
 10
-70.7478
 20
92.7353
 30
0.0000
  0
VERTEX
  8
PATCH
 10
-69.5045
 20
92.7435
 30
0.0000
  0
VERTEX
  8
PATCH
 10
-68.2633
 20
92.6705
 30
0.0000
  0
VERTEX
  8
PATCH
 10
-67.0296
 20
92.5164
 30
0.0000
  0
VERTEX
  8
PATCH
 10
-65.8086
 20
92.2819
 30
0.0000
  0
VERTEX
  8
PATCH
 10
-64.6055
 20
91.9681
 30
0.0000
  0
VERTEX
  8
PATCH
 10
-63.4255
 20
91.5763
 30
0.0000
  0
VERTEX
  8
PATCH
 10
-62.2737
 20
91.1081
 30
0.0000
  0
VERTEX
  8
PATCH
 10
-61.1550
 20
90.5656
 30
0.0000
  0
VERTEX
  8
PATCH
 10
-60.0741
 20
89.9511
 30
0.0000
  0
VERTEX
  8
PATCH
 10
-59.0358
 20
89.2673
 30
0.0000
  0
VERTEX
  8
PATCH
 10
-58.0444
 20
88.5170
 30
0.0000
  0
VERTEX
  8
PATCH
 10
-57.1042
 20
87.7034
 30
0.0000
  0
VERTEX
  8
PATCH
 10
-54.2843
 20
84.8461
 30
0.0000
  0
VERTEX
  8
PATCH
 10
-52.2990
 20
82.9100
 30
0.0000
  0
VERTEX
  8
PATCH
 10
-49.5843
 20
80.3928
 30
0.0000
  0
VERTEX
  8
PATCH
 10
-46.8055
 20
77.9364
 30
0.0000
  0
VERTEX
  8
PATCH
 10
-41.8326
 20
73.7421
 30
0.0000
  0
VERTEX
  8
PATCH
 10
-33.9007
 20
67.2623
 30
0.0000
  0
VERTEX
  8
PATCH
 10
-30.3179
 20
64.2955
 30
0.0000
  0
VERTEX
  8
PATCH
 10
-26.7892
 20
61.2773
 30
0.0000
  0
VERTEX
  8
PATCH
 10
-24.0245
 20
58.8076
 30
0.0000
  0
VERTEX
  8
PATCH
 10
-21.3272
 20
56.2738
 30
0.0000
  0
VERTEX
  8
PATCH
 10
-18.7121
 20
53.6620
 30
0.0000
  0
VERTEX
  8
PATCH
 10
-2.0314
 20
36.1044
 30
0.0000
  0
VERTEX
  8
PATCH
 10
-1.5449
 20
35.7404
 30
0.0000
  0
VERTEX
  8
PATCH
 10
-1.1841
 20
35.5556
 30
0.0000
  0
VERTEX
  8
PATCH
 10
-0.6044
 20
35.3735
 30
0.0000
  0
VERTEX
  8
PATCH
 10
-0.0000
 20
35.3120
 30
0.0000
  0
VERTEX
  8
PATCH
 10
0.6044
 20
35.3735
 30
0.0000
  0
VERTEX
  8
PATCH
 10
0.9951
 20
35.4819
 30
0.0000
  0
VERTEX
  8
PATCH
 10
1.5449
 20
35.7404
 30
0.0000
  0
VERTEX
  8
PATCH
 10
2.0314
 20
36.1044
 30
0.0000
  0
VERTEX
  8
PATCH
 10
18.7121
 20
53.6620
 30
0.0000
  0
VERTEX
  8
PATCH
 10
21.3272
 20
56.2738
 30
0.0000
  0
VERTEX
  8
PATCH
 10
24.0245
 20
58.8076
 30
0.0000
  0
VERTEX
  8
PATCH
 10
26.7892
 20
61.2773
 30
0.0000
  0
VERTEX
  8
PATCH
 10
30.3179
 20
64.2955
 30
0.0000
  0
VERTEX
  8
PATCH
 10
33.9007
 20
67.2623
 30
0.0000
  0
VERTEX
  8
PATCH
 10
41.8326
 20
73.7421
 30
0.0000
  0
VERTEX
  8
PATCH
 10
46.8055
 20
77.9364
 30
0.0000
  0
VERTEX
  8
PATCH
 10
49.5843
 20
80.3928
 30
0.0000
  0
VERTEX
  8
PATCH
 10
52.2990
 20
82.9100
 30
0.0000
  0
VERTEX
  8
PATCH
 10
54.2843
 20
84.8461
 30
0.0000
  0
VERTEX
  8
PATCH
 10
57.1042
 20
87.7034
 30
0.0000
  0
VERTEX
  8
PATCH
 10
58.0444
 20
88.5170
 30
0.0000
  0
VERTEX
  8
PATCH
 10
59.0358
 20
89.2673
 30
0.0000
  0
VERTEX
  8
PATCH
 10
60.0741
 20
89.9511
 30
0.0000
  0
VERTEX
  8
PATCH
 10
61.1550
 20
90.5656
 30
0.0000
  0
VERTEX
  8
PATCH
 10
62.2737
 20
91.1081
 30
0.0000
  0
VERTEX
  8
PATCH
 10
63.4255
 20
91.5763
 30
0.0000
  0
VERTEX
  8
PATCH
 10
64.6055
 20
91.9681
 30
0.0000
  0
VERTEX
  8
PATCH
 10
65.8086
 20
92.2819
 30
0.0000
  0
VERTEX
  8
PATCH
 10
67.0296
 20
92.5164
 30
0.0000
  0
VERTEX
  8
PATCH
 10
68.2633
 20
92.6705
 30
0.0000
  0
VERTEX
  8
PATCH
 10
69.5045
 20
92.7435
 30
0.0000
  0
VERTEX
  8
PATCH
 10
70.7478
 20
92.7353
 30
0.0000
  0
VERTEX
  8
PATCH
 10
71.9879
 20
92.6457
 30
0.0000
  0
VERTEX
  8
PATCH
 10
73.2195
 20
92.4752
 30
0.0000
  0
VERTEX
  8
PATCH
 10
74.4373
 20
92.2246
 30
0.0000
  0
VERTEX
  8
PATCH
 10
75.6361
 20
91.8948
 30
0.0000
  0
VERTEX
  8
PATCH
 10
76.8107
 20
91.4874
 30
0.0000
  0
VERTEX
  8
PATCH
 10
77.9562
 20
91.0039
 30
0.0000
  0
VERTEX
  8
PATCH
 10
79.0677
 20
90.4466
 30
0.0000
  0
VERTEX
  8
PATCH
 10
80.1403
 20
89.8178
 30
0.0000
  0
VERTEX
  8
PATCH
 10
81.1694
 20
89.1202
 30
0.0000
  0
VERTEX
  8
PATCH
 10
82.1508
 20
88.3568
 30
0.0000
  0
VERTEX
  8
PATCH
 10
83.0801
 20
87.5308
 30
0.0000
  0
VERTEX
  8
PATCH
 10
83.9534
 20
86.6458
 30
0.0000
  0
VERTEX
  8
PATCH
 10
84.7670
 20
85.7056
 30
0.0000
  0
VERTEX
  8
PATCH
 10
85.5173
 20
84.7142
 30
0.0000
  0
VERTEX
  8
PATCH
 10
86.2011
 20
83.6759
 30
0.0000
  0
VERTEX
  8
PATCH
 10
86.8156
 20
82.5950
 30
0.0000
  0
VERTEX
  8
PATCH
 10
87.3581
 20
81.4763
 30
0.0000
  0
VERTEX
  8
PATCH
 10
87.8263
 20
80.3245
 30
0.0000
  0
VERTEX
  8
PATCH
 10
88.2181
 20
79.1445
 30
0.0000
  0
VERTEX
  8
PATCH
 10
88.5319
 20
77.9414
 30
0.0000
  0
VERTEX
  8
PATCH
 10
88.7664
 20
76.7204
 30
0.0000
  0
VERTEX
  8
PATCH
 10
88.9205
 20
75.4867
 30
0.0000
  0
VERTEX
  8
PATCH
 10
88.9935
 20
74.2455
 30
0.0000
  0
VERTEX
  8
PATCH
 10
88.9853
 20
73.0022
 30
0.0000
  0
VERTEX
  8
PATCH
 10
88.8957
 20
71.7621
 30
0.0000
  0
VERTEX
  8
PATCH
 10
88.7252
 20
70.5305
 30
0.0000
  0
VERTEX
  8
PATCH
 10
88.4746
 20
69.3127
 30
0.0000
  0
VERTEX
  8
PATCH
 10
88.1448
 20
68.1139
 30
0.0000
  0
VERTEX
  8
PATCH
 10
87.7374
 20
66.9393
 30
0.0000
  0
VERTEX
  8
PATCH
 10
87.2539
 20
65.7938
 30
0.0000
  0
VERTEX
  8
PATCH
 10
86.6966
 20
64.6823
 30
0.0000
  0
VERTEX
  8
PATCH
 10
86.0678
 20
63.6097
 30
0.0000
  0
VERTEX
  8
PATCH
 10
85.3702
 20
62.5806
 30
0.0000
  0
VERTEX
  8
PATCH
 10
84.6068
 20
61.5992
 30
0.0000
  0
VERTEX
  8
PATCH
 10
81.8314
 20
58.5574
 30
0.0000
  0
VERTEX
  8
PATCH
 10
79.9359
 20
56.3936
 30
0.0000
  0
VERTEX
  8
PATCH
 10
77.4807
 20
53.4402
 30
0.0000
  0
VERTEX
  8
PATCH
 10
75.0928
 20
50.4229
 30
0.0000
  0
VERTEX
  8
PATCH
 10
71.6018
 20
45.8107
 30
0.0000
  0
VERTEX
  8
PATCH
 10
65.3176
 20
37.2450
 30
0.0000
  0
VERTEX
  8
PATCH
 10
62.4359
 20
33.3754
 30
0.0000
  0
VERTEX
  8
PATCH
 10
59.4940
 20
29.5630
 30
0.0000
  0
VERTEX
  8
PATCH
 10
56.4598
 20
25.8381
 30
0.0000
  0
VERTEX
  8
PATCH
 10
54.5819
 20
23.6578
 30
0.0000
  0
VERTEX
  8
PATCH
 10
52.6524
 20
21.5263
 30
0.0000
  0
VERTEX
  8
PATCH
 10
34.1880
 20
2.0653
 30
0.0000
  0
VERTEX
  8
PATCH
 10
33.9448
 20
1.7741
 30
0.0000
  0
VERTEX
  8
PATCH
 10
33.7402
 20
1.4546
 30
0.0000
  0
VERTEX
  8
PATCH
 10
33.5776
 20
1.1118
 30
0.0000
  0
VERTEX
  8
PATCH
 10
33.4178
 20
0.5661
 30
0.0000
  0
VERTEX
  8
PATCH
 10
33.3639
 20
0.0000
 30
0.0000
  0
VERTEX
  8
PATCH
 10
33.4178
 20
-0.5661
 30
0.0000
  0
VERTEX
  8
PATCH
 10
33.5776
 20
-1.1118
 30
0.0000
  0
VERTEX
  8
PATCH
 10
33.8374
 20
-1.6176
 30
0.0000
  0
SEQEND
  8
PATCH
  0
POLYLINE
  8
STITCH_FOLLOW
 66
1
 10
0.0000
 20
0.0000
 30
0.0000
 70
1
  0
VERTEX
  8
STITCH_FOLLOW
 10
-56.9155
 20
-45.4726
 30
0.0000
  0
VERTEX
  8
STITCH_FOLLOW
 10
-57.3184
 20
-46.1245
 30
0.0000
  0
VERTEX
  8
STITCH_FOLLOW
 10
-57.8734
 20
-46.6531
 30
0.0000
  0
VERTEX
  8
STITCH_FOLLOW
 10
-58.3679
 20
-46.9475
 30
0.0000
  0
VERTEX
  8
STITCH_FOLLOW
 10
-60.0996
 20
-47.6744
 30
0.0000
  0
VERTEX
  8
STITCH_FOLLOW
 10
-60.9664
 20
-48.2506
 30
0.0000
  0
VERTEX
  8
STITCH_FOLLOW
 10
-61.4975
 20
-48.7793
 30
0.0000
  0
VERTEX
  8
STITCH_FOLLOW
 10
-65.8140
 20
-54.6112
 30
0.0000
  0
VERTEX
  8
STITCH_FOLLOW
 10
-69.0563
 20
-58.8341
 30
0.0000
  0
VERTEX
  8
STITCH_FOLLOW
 10
-71.0388
 20
-61.3019
 30
0.0000
  0
VERTEX
  8
STITCH_FOLLOW
 10
-73.0432
 20
-63.6901
 30
0.0000
  0
VERTEX
  8
STITCH_FOLLOW
 10
-77.0312
 20
-68.1351
 30
0.0000
  0
VERTEX
  8
STITCH_FOLLOW
 10
-77.5119
 20
-68.7965
 30
0.0000
  0
VERTEX
  8
STITCH_FOLLOW
 10
-78.0942
 20
-69.8194
 30
0.0000
  0
VERTEX
  8
STITCH_FOLLOW
 10
-78.4629
 20
-70.6932
 30
0.0000
  0
VERTEX
  8
STITCH_FOLLOW
 10
-78.7055
 20
-71.4740
 30
0.0000
  0
VERTEX
  8
STITCH_FOLLOW
 10
-78.8967
 20
-72.4030
 30
0.0000
  0
VERTEX
  8
STITCH_FOLLOW
 10
-78.9822
 20
-73.2161
 30
0.0000
  0
VERTEX
  8
STITCH_FOLLOW
 10
-78.9885
 20
-74.1645
 30
0.0000
  0
VERTEX
  8
STITCH_FOLLOW
 10
-78.9138
 20
-74.9787
 30
0.0000
  0
VERTEX
  8
STITCH_FOLLOW
 10
-78.7349
 20
-75.9101
 30
0.0000
  0
VERTEX
  8
STITCH_FOLLOW
 10
-78.5028
 20
-76.6941
 30
0.0000
  0
VERTEX
  8
STITCH_FOLLOW
 10
-78.1457
 20
-77.5727
 30
0.0000
  0
VERTEX
  8
STITCH_FOLLOW
 10
-77.7650
 20
-78.2963
 30
0.0000
  0
VERTEX
  8
STITCH_FOLLOW
 10
-77.2434
 20
-79.0884
 30
0.0000
  0
VERTEX
  8
STITCH_FOLLOW
 10
-76.7289
 20
-79.7239
 30
0.0000
  0
VERTEX
  8
STITCH_FOLLOW
 10
-76.0627
 20
-80.3989
 30
0.0000
  0
VERTEX
  8
STITCH_FOLLOW
 10
-75.4341
 20
-80.9218
 30
0.0000
  0
VERTEX
  8
STITCH_FOLLOW
 10
-74.6491
 20
-81.4539
 30
0.0000
  0
VERTEX
  8
STITCH_FOLLOW
 10
-73.9306
 20
-81.8442
 30
0.0000
  0
VERTEX
  8
STITCH_FOLLOW
 10
-72.8405
 20
-82.2880
 30
0.0000
  0
VERTEX
  8
STITCH_FOLLOW
 10
-71.7017
 20
-82.5857
 30
0.0000
  0
VERTEX
  8
STITCH_FOLLOW
 10
-71.1202
 20
-82.6780
 30
0.0000
  0
VERTEX
  8
STITCH_FOLLOW
 10
-70.1743
 20
-82.7464
 30
0.0000
  0
VERTEX
  8
STITCH_FOLLOW
 10
-68.9985
 20
-82.6921
 30
0.0000
  0
VERTEX
  8
STITCH_FOLLOW
 10
-67.8399
 20
-82.4849
 30
0.0000
  0
VERTEX
  8
STITCH_FOLLOW
 10
-66.5061
 20
-82.0420
 30
0.0000
  0
VERTEX
  8
STITCH_FOLLOW
 10
-65.6527
 20
-81.6282
 30
0.0000
  0
VERTEX
  8
STITCH_FOLLOW
 10
-65.1468
 20
-81.3270
 30
0.0000
  0
VERTEX
  8
STITCH_FOLLOW
 10
-64.1993
 20
-80.6287
 30
0.0000
  0
VERTEX
  8
STITCH_FOLLOW
 10
-59.8884
 20
-76.3538
 30
0.0000
  0
VERTEX
  8
STITCH_FOLLOW
 10
-56.8590
 20
-73.5444
 30
0.0000
  0
VERTEX
  8
STITCH_FOLLOW
 10
-52.9549
 20
-70.1318
 30
0.0000
  0
VERTEX
  8
STITCH_FOLLOW
 10
-46.7250
 20
-64.9620
 30
0.0000
  0
VERTEX
  8
STITCH_FOLLOW
 10
-46.2878
 20
-64.5547
 30
0.0000
  0
VERTEX
  8
STITCH_FOLLOW
 10
-45.9438
 20
-64.1303
 30
0.0000
  0
VERTEX
  8
STITCH_FOLLOW
 10
-45.4608
 20
-63.3180
 30
0.0000
  0
VERTEX
  8
STITCH_FOLLOW
 10
-43.7664
 20
-59.9325
 30
0.0000
  0
VERTEX
  8
STITCH_FOLLOW
 10
-42.8735
 20
-58.5921
 30
0.0000
  0
VERTEX
  8
STITCH_FOLLOW
 10
-42.4599
 20
-58.1515
 30
0.0000
  0
VERTEX
  8
STITCH_FOLLOW
 10
-41.9664
 20
-57.8027
 30
0.0000
  0
VERTEX
  8
STITCH_FOLLOW
 10
-41.4129
 20
-57.5599
 30
0.0000
  0
VERTEX
  8
STITCH_FOLLOW
 10
-40.9097
 20
-57.4206
 30
0.0000
  0
VERTEX
  8
STITCH_FOLLOW
 10
-37.9116
 20
-56.8127
 30
0.0000
  0
VERTEX
  8
STITCH_FOLLOW
 10
-37.4163
 20
-56.6412
 30
0.0000
  0
VERTEX
  8
STITCH_FOLLOW
 10
-36.7260
 20
-56.2666
 30
0.0000
  0
VERTEX
  8
STITCH_FOLLOW
 10
-36.1223
 20
-55.7643
 30
0.0000
  0
VERTEX
  8
STITCH_FOLLOW
 10
-35.4362
 20
-54.8919
 30
0.0000
  0
VERTEX
  8
STITCH_FOLLOW
 10
-33.8241
 20
-51.8398
 30
0.0000
  0
VERTEX
  8
STITCH_FOLLOW
 10
-33.1874
 20
-50.2417
 30
0.0000
  0
VERTEX
  8
STITCH_FOLLOW
 10
-32.8739
 20
-49.7628
 30
0.0000
  0
VERTEX
  8
STITCH_FOLLOW
 10
-32.4752
 20
-49.3521
 30
0.0000
  0
VERTEX
  8
STITCH_FOLLOW
 10
-32.0057
 20
-49.0246
 30
0.0000
  0
VERTEX
  8
STITCH_FOLLOW
 10
-31.6617
 20
-48.8586
 30
0.0000
  0
VERTEX
  8
STITCH_FOLLOW
 10
-28.8722
 20
-47.8233
 30
0.0000
  0
VERTEX
  8
STITCH_FOLLOW
 10
-26.4136
 20
-46.8143
 30
0.0000
  0
VERTEX
  8
STITCH_FOLLOW
 10
-25.7600
 20
-46.4083
 30
0.0000
  0
VERTEX
  8
STITCH_FOLLOW
 10
-25.3728
 20
-46.0711
 30
0.0000
  0
VERTEX
  8
STITCH_FOLLOW
 10
-24.8807
 20
-45.4794
 30
0.0000
  0
VERTEX
  8
STITCH_FOLLOW
 10
-24.4142
 20
-44.5819
 30
0.0000
  0
VERTEX
  8
STITCH_FOLLOW
 10
-22.7164
 20
-39.2287
 30
0.0000
  0
VERTEX
  8
STITCH_FOLLOW
 10
-22.3348
 20
-38.3939
 30
0.0000
  0
VERTEX
  8
STITCH_FOLLOW
 10
-21.8273
 20
-37.7858
 30
0.0000
  0
VERTEX
  8
STITCH_FOLLOW
 10
-21.1782
 20
-37.3317
 30
0.0000
  0
VERTEX
  8
STITCH_FOLLOW
 10
-20.6255
 20
-37.1117
 30
0.0000
  0
VERTEX
  8
STITCH_FOLLOW
 10
-18.0243
 20
-36.6883
 30
0.0000
  0
VERTEX
  8
STITCH_FOLLOW
 10
-17.4951
 20
-36.5332
 30
0.0000
  0
VERTEX
  8
STITCH_FOLLOW
 10
-16.7480
 20
-36.1983
 30
0.0000
  0
VERTEX
  8
STITCH_FOLLOW
 10
-16.1032
 20
-35.7716
 30
0.0000
  0
VERTEX
  8
STITCH_FOLLOW
 10
-15.5526
 20
-35.2288
 30
0.0000
  0
VERTEX
  8
STITCH_FOLLOW
 10
-15.2481
 20
-34.8123
 30
0.0000
  0
VERTEX
  8
STITCH_FOLLOW
 10
-14.8981
 20
-34.1229
 30
0.0000
  0
VERTEX
  8
STITCH_FOLLOW
 10
-14.5275
 20
-33.0788
 30
0.0000
  0
VERTEX
  8
STITCH_FOLLOW
 10
-14.2190
 20
-32.5920
 30
0.0000
  0
VERTEX
  8
STITCH_FOLLOW
 10
-13.8231
 20
-32.1731
 30
0.0000
  0
VERTEX
  8
STITCH_FOLLOW
 10
-13.3544
 20
-31.8376
 30
0.0000
  0
VERTEX
  8
STITCH_FOLLOW
 10
-13.0100
 20
-31.6666
 30
0.0000
  0
VERTEX
  8
STITCH_FOLLOW
 10
-11.5911
 20
-31.2164
 30
0.0000
  0
VERTEX
  8
STITCH_FOLLOW
 10
-11.1409
 20
-30.9751
 30
0.0000
  0
VERTEX
  8
STITCH_FOLLOW
 10
-10.7251
 20
-30.6785
 30
0.0000
  0
VERTEX
  8
STITCH_FOLLOW
 10
-10.3165
 20
-30.2975
 30
0.0000
  0
VERTEX
  8
STITCH_FOLLOW
 10
-1.9620
 20
-21.5222
 30
0.0000
  0
VERTEX
  8
STITCH_FOLLOW
 10
-1.4865
 20
-21.1859
 30
0.0000
  0
VERTEX
  8
STITCH_FOLLOW
 10
-1.1372
 20
-21.0156
 30
0.0000
  0
VERTEX
  8
STITCH_FOLLOW
 10
-0.5794
 20
-20.8482
 30
0.0000
  0
VERTEX
  8
STITCH_FOLLOW
 10
0.0002
 20
-20.7917
 30
0.0000
  0
VERTEX
  8
STITCH_FOLLOW
 10
0.5799
 20
-20.8483
 30
0.0000
  0
VERTEX
  8
STITCH_FOLLOW
 10
1.1377
 20
-21.0158
 30
0.0000
  0
VERTEX
  8
STITCH_FOLLOW
 10
1.6526
 20
-21.2879
 30
0.0000
  0
VERTEX
  8
STITCH_FOLLOW
 10
1.9624
 20
-21.5225
 30
0.0000
  0
VERTEX
  8
STITCH_FOLLOW
 10
7.4100
 20
-27.2353
 30
0.0000
  0
VERTEX
  8
STITCH_FOLLOW
 10
8.0290
 20
-27.7764
 30
0.0000
  0
VERTEX
  8
STITCH_FOLLOW
 10
8.4684
 20
-28.0477
 30
0.0000
  0
VERTEX
  8
STITCH_FOLLOW
 10
8.9390
 20
-28.2600
 30
0.0000
  0
VERTEX
  8
STITCH_FOLLOW
 10
9.9658
 20
-28.5466
 30
0.0000
  0
VERTEX
  8
STITCH_FOLLOW
 10
10.3512
 20
-28.7131
 30
0.0000
  0
VERTEX
  8
STITCH_FOLLOW
 10
12.8758
 20
-30.0203
 30
0.0000
  0
VERTEX
  8
STITCH_FOLLOW
 10
13.8596
 20
-30.4604
 30
0.0000
  0
VERTEX
  8
STITCH_FOLLOW
 10
14.4875
 20
-30.9051
 30
0.0000
  0
VERTEX
  8
STITCH_FOLLOW
 10
14.9816
 20
-31.4950
 30
0.0000
  0
VERTEX
  8
STITCH_FOLLOW
 10
15.2445
 20
-32.0096
 30
0.0000
  0
VERTEX
  8
STITCH_FOLLOW
 10
15.3626
 20
-32.3765
 30
0.0000
  0
VERTEX
  8
STITCH_FOLLOW
 10
15.4494
 20
-32.9478
 30
0.0000
  0
VERTEX
  8
STITCH_FOLLOW
 10
15.5059
 20
-34.5637
 30
0.0000
  0
VERTEX
  8
STITCH_FOLLOW
 10
15.6102
 20
-35.0859
 30
0.0000
  0
VERTEX
  8
STITCH_FOLLOW
 10
15.7830
 20
-35.5897
 30
0.0000
  0
VERTEX
  8
STITCH_FOLLOW
 10
16.0212
 20
-36.0659
 30
0.0000
  0
VERTEX
  8
STITCH_FOLLOW
 10
16.3206
 20
-36.5064
 30
0.0000
  0
VERTEX
  8
STITCH_FOLLOW
 10
16.6759
 20
-36.9031
 30
0.0000
  0
VERTEX
  8
STITCH_FOLLOW
 10
17.0807
 20
-37.2491
 30
0.0000
  0
VERTEX
  8
STITCH_FOLLOW
 10
17.7650
 20
-37.6598
 30
0.0000
  0
VERTEX
  8
STITCH_FOLLOW
 10
18.5172
 20
-37.9264
 30
0.0000
  0
VERTEX
  8
STITCH_FOLLOW
 10
23.1384
 20
-38.7743
 30
0.0000
  0
VERTEX
  8
STITCH_FOLLOW
 10
23.6681
 20
-38.9969
 30
0.0000
  0
VERTEX
  8
STITCH_FOLLOW
 10
24.2901
 20
-39.4425
 30
0.0000
  0
VERTEX
  8
STITCH_FOLLOW
 10
24.5535
 20
-39.7210
 30
0.0000
  0
VERTEX
  8
STITCH_FOLLOW
 10
24.8768
 20
-40.1960
 30
0.0000
  0
VERTEX
  8
STITCH_FOLLOW
 10
25.1036
 20
-40.7238
 30
0.0000
  0
VERTEX
  8
STITCH_FOLLOW
 10
25.1969
 20
-41.0957
 30
0.0000
  0
VERTEX
  8
STITCH_FOLLOW
 10
25.4117
 20
-44.4738
 30
0.0000
  0
VERTEX
  8
STITCH_FOLLOW
 10
25.4800
 20
-45.0108
 30
0.0000
  0
VERTEX
  8
STITCH_FOLLOW
 10
25.6040
 20
-45.4899
 30
0.0000
  0
VERTEX
  8
STITCH_FOLLOW
 10
26.0253
 20
-46.4385
 30
0.0000
  0
VERTEX
  8
STITCH_FOLLOW
 10
26.3109
 20
-46.8829
 30
0.0000
  0
VERTEX
  8
STITCH_FOLLOW
 10
26.6525
 20
-47.2858
 30
0.0000
  0
VERTEX
  8
STITCH_FOLLOW
 10
27.0443
 20
-47.6401
 30
0.0000
  0
VERTEX
  8
STITCH_FOLLOW
 10
27.7108
 20
-48.0673
 30
0.0000
  0
VERTEX
  8
STITCH_FOLLOW
 10
28.2426
 20
-48.2933
 30
0.0000
  0
VERTEX
  8
STITCH_FOLLOW
 10
31.0150
 20
-49.2324
 30
0.0000
  0
VERTEX
  8
STITCH_FOLLOW
 10
31.5283
 20
-49.4934
 30
0.0000
  0
VERTEX
  8
STITCH_FOLLOW
 10
31.9822
 20
-49.8476
 30
0.0000
  0
VERTEX
  8
STITCH_FOLLOW
 10
32.3601
 20
-50.2820
 30
0.0000
  0
VERTEX
  8
STITCH_FOLLOW
 10
32.6481
 20
-50.7805
 30
0.0000
  0
VERTEX
  8
STITCH_FOLLOW
 10
32.7847
 20
-51.1396
 30
0.0000
  0
VERTEX
  8
STITCH_FOLLOW
 10
33.1989
 20
-52.7847
 30
0.0000
  0
VERTEX
  8
STITCH_FOLLOW
 10
33.5159
 20
-53.5199
 30
0.0000
  0
VERTEX
  8
STITCH_FOLLOW
 10
33.8062
 20
-53.9684
 30
0.0000
  0
VERTEX
  8
STITCH_FOLLOW
 10
34.1536
 20
-54.3743
 30
0.0000
  0
VERTEX
  8
STITCH_FOLLOW
 10
34.7682
 20
-54.8874
 30
0.0000
  0
VERTEX
  8
STITCH_FOLLOW
 10
35.4727
 20
-55.2678
 30
0.0000
  0
VERTEX
  8
STITCH_FOLLOW
 10
36.2479
 20
-55.5316
 30
0.0000
  0
VERTEX
  8
STITCH_FOLLOW
 10
38.4148
 20
-55.8489
 30
0.0000
  0
VERTEX
  8
STITCH_FOLLOW
 10
38.7901
 20
-55.9460
 30
0.0000
  0
VERTEX
  8
STITCH_FOLLOW
 10
39.3219
 20
-56.1801
 30
0.0000
  0
VERTEX
  8
STITCH_FOLLOW
 10
39.7986
 20
-56.5123
 30
0.0000
  0
VERTEX
  8
STITCH_FOLLOW
 10
40.3179
 20
-57.0859
 30
0.0000
  0
VERTEX
  8
STITCH_FOLLOW
 10
41.1413
 20
-58.5545
 30
0.0000
  0
VERTEX
  8
STITCH_FOLLOW
 10
43.3826
 20
-61.9672
 30
0.0000
  0
VERTEX
  8
STITCH_FOLLOW
 10
43.8875
 20
-62.5985
 30
0.0000
  0
VERTEX
  8
STITCH_FOLLOW
 10
44.4502
 20
-63.1092
 30
0.0000
  0
VERTEX
  8
STITCH_FOLLOW
 10
51.3660
 20
-68.7900
 30
0.0000
  0
VERTEX
  8
STITCH_FOLLOW
 10
56.0896
 20
-72.8560
 30
0.0000
  0
VERTEX
  8
STITCH_FOLLOW
 10
59.8701
 20
-76.3362
 30
0.0000
  0
VERTEX
  8
STITCH_FOLLOW
 10
63.7618
 20
-80.2346
 30
0.0000
  0
VERTEX
  8
STITCH_FOLLOW
 10
64.4790
 20
-80.8552
 30
0.0000
  0
VERTEX
  8
STITCH_FOLLOW
 10
65.1468
 20
-81.3270
 30
0.0000
  0
VERTEX
  8
STITCH_FOLLOW
 10
65.9713
 20
-81.7958
 30
0.0000
  0
VERTEX
  8
STITCH_FOLLOW
 10
67.2732
 20
-82.3249
 30
0.0000
  0
VERTEX
  8
STITCH_FOLLOW
 10
68.1909
 20
-82.5643
 30
0.0000
  0
VERTEX
  8
STITCH_FOLLOW
 10
68.7713
 20
-82.6638
 30
0.0000
  0
VERTEX
  8
STITCH_FOLLOW
 10
70.1743
 20
-82.7464
 30
0.0000
  0
VERTEX
  8
STITCH_FOLLOW
 10
71.1202
 20
-82.6780
 30
0.0000
  0
VERTEX
  8
STITCH_FOLLOW
 10
71.9260
 20
-82.5395
 30
0.0000
  0
VERTEX
  8
STITCH_FOLLOW
 10
72.4968
 20
-82.3947
 30
0.0000
  0
VERTEX
  8
STITCH_FOLLOW
 10
73.3928
 20
-82.0839
 30
0.0000
  0
VERTEX
  8
STITCH_FOLLOW
 10
74.6491
 20
-81.4539
 30
0.0000
  0
VERTEX
  8
STITCH_FOLLOW
 10
75.4341
 20
-80.9218
 30
0.0000
  0
VERTEX
  8
STITCH_FOLLOW
 10
76.0627
 20
-80.3989
 30
0.0000
  0
VERTEX
  8
STITCH_FOLLOW
 10
76.7289
 20
-79.7239
 30
0.0000
  0
VERTEX
  8
STITCH_FOLLOW
 10
77.2434
 20
-79.0884
 30
0.0000
  0
VERTEX
  8
STITCH_FOLLOW
 10
77.5770
 20
-78.6032
 30
0.0000
  0
VERTEX
  8
STITCH_FOLLOW
 10
78.0458
 20
-77.7787
 30
0.0000
  0
VERTEX
  8
STITCH_FOLLOW
 10
78.5749
 20
-76.4768
 30
0.0000
  0
VERTEX
  8
STITCH_FOLLOW
 10
78.8143
 20
-75.5591
 30
0.0000
  0
VERTEX
  8
STITCH_FOLLOW
 10
78.9421
 20
-74.7515
 30
0.0000
  0
VERTEX
  8
STITCH_FOLLOW
 10
78.9979
 20
-73.8047
 30
0.0000
  0
VERTEX
  8
STITCH_FOLLOW
 10
78.9657
 20
-72.9877
 30
0.0000
  0
VERTEX
  8
STITCH_FOLLOW
 10
78.8967
 20
-72.4030
 30
0.0000
  0
VERTEX
  8
STITCH_FOLLOW
 10
78.7055
 20
-71.4740
 30
0.0000
  0
VERTEX
  8
STITCH_FOLLOW
 10
78.4629
 20
-70.6932
 30
0.0000
  0
VERTEX
  8
STITCH_FOLLOW
 10
78.0942
 20
-69.8194
 30
0.0000
  0
VERTEX
  8
STITCH_FOLLOW
 10
77.3834
 20
-68.6070
 30
0.0000
  0
VERTEX
  8
STITCH_FOLLOW
 10
76.8011
 20
-67.8584
 30
0.0000
  0
VERTEX
  8
STITCH_FOLLOW
 10
75.1087
 20
-66.0264
 30
0.0000
  0
VERTEX
  8
STITCH_FOLLOW
 10
73.0432
 20
-63.6901
 30
0.0000
  0
VERTEX
  8
STITCH_FOLLOW
 10
69.7134
 20
-59.6628
 30
0.0000
  0
VERTEX
  8
STITCH_FOLLOW
 10
66.4508
 20
-55.4558
 30
0.0000
  0
VERTEX
  8
STITCH_FOLLOW
 10
61.5138
 20
-48.8233
 30
0.0000
  0
VERTEX
  8
STITCH_FOLLOW
 10
60.9452
 20
-48.2548
 30
0.0000
  0
VERTEX
  8
STITCH_FOLLOW
 10
59.6895
 20
-47.4544
 30
0.0000
  0
VERTEX
  8
STITCH_FOLLOW
 10
59.1463
 20
-46.9091
 30
0.0000
  0
VERTEX
  8
STITCH_FOLLOW
 10
58.8402
 20
-46.4189
 30
0.0000
  0
VERTEX
  8
STITCH_FOLLOW
 10
58.2495
 20
-45.0418
 30
0.0000
  0
VERTEX
  8
STITCH_FOLLOW
 10
57.7968
 20
-44.3837
 30
0.0000
  0
VERTEX
  8
STITCH_FOLLOW
 10
57.4261
 20
-44.0007
 30
0.0000
  0
VERTEX
  8
STITCH_FOLLOW
 10
57.0077
 20
-43.6705
 30
0.0000
  0
VERTEX
  8
STITCH_FOLLOW
 10
56.5491
 20
-43.3989
 30
0.0000
  0
VERTEX
  8
STITCH_FOLLOW
 10
55.5607
 20
-42.9346
 30
0.0000
  0
VERTEX
  8
STITCH_FOLLOW
 10
55.0903
 20
-42.5633
 30
0.0000
  0
VERTEX
  8
STITCH_FOLLOW
 10
54.8219
 20
-42.2669
 30
0.0000
  0
VERTEX
  8
STITCH_FOLLOW
 10
54.4989
 20
-41.7621
 30
0.0000
  0
VERTEX
  8
STITCH_FOLLOW
 10
54.3423
 20
-41.3942
 30
0.0000
  0
VERTEX
  8
STITCH_FOLLOW
 10
54.2360
 20
-41.0087
 30
0.0000
  0
VERTEX
  8
STITCH_FOLLOW
 10
53.9958
 20
-39.5590
 30
0.0000
  0
VERTEX
  8
STITCH_FOLLOW
 10
53.8245
 20
-39.0622
 30
0.0000
  0
VERTEX
  8
STITCH_FOLLOW
 10
53.5895
 20
-38.5921
 30
0.0000
  0
VERTEX
  8
STITCH_FOLLOW
 10
53.1409
 20
-37.9298
 30
0.0000
  0
VERTEX
  8
STITCH_FOLLOW
 10
52.7858
 20
-37.5318
 30
0.0000
  0
VERTEX
  8
STITCH_FOLLOW
 10
52.3809
 20
-37.1846
 30
0.0000
  0
VERTEX
  8
STITCH_FOLLOW
 10
51.4881
 20
-36.5963
 30
0.0000
  0
VERTEX
  8
STITCH_FOLLOW
 10
50.9326
 20
-36.0093
 30
0.0000
  0
VERTEX
  8
STITCH_FOLLOW
 10
50.6303
 20
-35.4830
 30
0.0000
  0
VERTEX
  8
STITCH_FOLLOW
 10
50.1710
 20
-34.1526
 30
0.0000
  0
VERTEX
  8
STITCH_FOLLOW
 10
49.9192
 20
-33.7008
 30
0.0000
  0
VERTEX
  8
STITCH_FOLLOW
 10
49.4376
 20
-33.0935
 30
0.0000
  0
VERTEX
  8
STITCH_FOLLOW
 10
48.8479
 20
-32.5905
 30
0.0000
  0
VERTEX
  8
STITCH_FOLLOW
 10
48.1722
 20
-32.2108
 30
0.0000
  0
VERTEX
  8
STITCH_FOLLOW
 10
47.3890
 20
-31.9563
 30
0.0000
  0
VERTEX
  8
STITCH_FOLLOW
 10
44.4689
 20
-31.3135
 30
0.0000
  0
VERTEX
  8
STITCH_FOLLOW
 10
43.7860
 20
-30.9765
 30
0.0000
  0
VERTEX
  8
STITCH_FOLLOW
 10
43.2099
 20
-30.4783
 30
0.0000
  0
VERTEX
  8
STITCH_FOLLOW
 10
42.9738
 20
-30.1785
 30
0.0000
  0
VERTEX
  8
STITCH_FOLLOW
 10
42.6958
 20
-29.6787
 30
0.0000
  0
VERTEX
  8
STITCH_FOLLOW
 10
42.2038
 20
-28.2451
 30
0.0000
  0
VERTEX
  8
STITCH_FOLLOW
 10
40.2422
 20
-23.4807
 30
0.0000
  0
VERTEX
  8
STITCH_FOLLOW
 10
39.9761
 20
-23.0181
 30
0.0000
  0
VERTEX
  8
STITCH_FOLLOW
 10
39.6508
 20
-22.5952
 30
0.0000
  0
VERTEX
  8
STITCH_FOLLOW
 10
39.0647
 20
-22.0511
 30
0.0000
  0
VERTEX
  8
STITCH_FOLLOW
 10
38.6188
 20
-21.7581
 30
0.0000
  0
VERTEX
  8
STITCH_FOLLOW
 10
37.7084
 20
-21.3384
 30
0.0000
  0
VERTEX
  8
STITCH_FOLLOW
 10
33.1772
 20
-19.9961
 30
0.0000
  0
VERTEX
  8
STITCH_FOLLOW
 10
32.4982
 20
-19.6150
 30
0.0000
  0
VERTEX
  8
STITCH_FOLLOW
 10
31.9401
 20
-19.0720
 30
0.0000
  0
VERTEX
  8
STITCH_FOLLOW
 10
31.6239
 20
-18.5801
 30
0.0000
  0
VERTEX
  8
STITCH_FOLLOW
 10
31.3459
 20
-17.8534
 30
0.0000
  0
VERTEX
  8
STITCH_FOLLOW
 10
30.4415
 20
-13.3483
 30
0.0000
  0
VERTEX
  8
STITCH_FOLLOW
 10
30.1825
 20
-12.6509
 30
0.0000
  0
VERTEX
  8
STITCH_FOLLOW
 10
29.9398
 20
-12.2179
 30
0.0000
  0
VERTEX
  8
STITCH_FOLLOW
 10
29.4490
 20
-11.5983
 30
0.0000
  0
VERTEX
  8
STITCH_FOLLOW
 10
20.3412
 20
-1.9954
 30
0.0000
  0
VERTEX
  8
STITCH_FOLLOW
 10
19.9917
 20
-1.5144
 30
0.0000
  0
VERTEX
  8
STITCH_FOLLOW
 10
19.7438
 20
-0.9740
 30
0.0000
  0
VERTEX
  8
STITCH_FOLLOW
 10
19.6401
 20
-0.5910
 30
0.0000
  0
VERTEX
  8
STITCH_FOLLOW
 10
19.5813
 20
0.0006
 30
0.0000
  0
VERTEX
  8
STITCH_FOLLOW
 10
19.6404
 20
0.5922
 30
0.0000
  0
VERTEX
  8
STITCH_FOLLOW
 10
19.7442
 20
0.9751
 30
0.0000
  0
VERTEX
  8
STITCH_FOLLOW
 10
19.8977
 20
1.3410
 30
0.0000
  0
VERTEX
  8
STITCH_FOLLOW
 10
20.2148
 20
1.8439
 30
0.0000
  0
VERTEX
  8
STITCH_FOLLOW
 10
25.5551
 20
7.4957
 30
0.0000
  0
VERTEX
  8
STITCH_FOLLOW
 10
25.9288
 20
7.9436
 30
0.0000
  0
VERTEX
  8
STITCH_FOLLOW
 10
26.2117
 20
8.3957
 30
0.0000
  0
VERTEX
  8
STITCH_FOLLOW
 10
26.4319
 20
8.8815
 30
0.0000
  0
VERTEX
  8
STITCH_FOLLOW
 10
26.5855
 20
9.3922
 30
0.0000
  0
VERTEX
  8
STITCH_FOLLOW
 10
26.6698
 20
9.9188
 30
0.0000
  0
VERTEX
  8
STITCH_FOLLOW
 10
26.7049
 20
10.8369
 30
0.0000
  0
VERTEX
  8
STITCH_FOLLOW
 10
27.1785
 20
13.3658
 30
0.0000
  0
VERTEX
  8
STITCH_FOLLOW
 10
27.4772
 20
14.1036
 30
0.0000
  0
VERTEX
  8
STITCH_FOLLOW
 10
27.8233
 20
14.5910
 30
0.0000
  0
VERTEX
  8
STITCH_FOLLOW
 10
28.4214
 20
15.1162
 30
0.0000
  0
VERTEX
  8
STITCH_FOLLOW
 10
28.9495
 20
15.3963
 30
0.0000
  0
VERTEX
  8
STITCH_FOLLOW
 10
30.4062
 20
15.8390
 30
0.0000
  0
VERTEX
  8
STITCH_FOLLOW
 10
33.6874
 20
17.0840
 30
0.0000
  0
VERTEX
  8
STITCH_FOLLOW
 10
34.3792
 20
17.3862
 30
0.0000
  0
VERTEX
  8
STITCH_FOLLOW
 10
35.0442
 20
17.8117
 30
0.0000
  0
VERTEX
  8
STITCH_FOLLOW
 10
35.4353
 20
18.1646
 30
0.0000
  0
VERTEX
  8
STITCH_FOLLOW
 10
35.7766
 20
18.5658
 30
0.0000
  0
VERTEX
  8
STITCH_FOLLOW
 10
36.0622
 20
19.0084
 30
0.0000
  0
VERTEX
  8
STITCH_FOLLOW
 10
36.2872
 20
19.4847
 30
0.0000
  0
VERTEX
  8
STITCH_FOLLOW
 10
36.4476
 20
19.9865
 30
0.0000
  0
VERTEX
  8
STITCH_FOLLOW
 10
36.5477
 20
20.5540
 30
0.0000
  0
VERTEX
  8
STITCH_FOLLOW
 10
36.8620
 20
23.3583
 30
0.0000
  0
VERTEX
  8
STITCH_FOLLOW
 10
36.9866
 20
23.9401
 30
0.0000
  0
VERTEX
  8
STITCH_FOLLOW
 10
37.1325
 20
24.3093
 30
0.0000
  0
VERTEX
  8
STITCH_FOLLOW
 10
37.4395
 20
24.8190
 30
0.0000
  0
VERTEX
  8
STITCH_FOLLOW
 10
37.9932
 20
25.3857
 30
0.0000
  0
VERTEX
  8
STITCH_FOLLOW
 10
38.4956
 20
25.7044
 30
0.0000
  0
VERTEX
  8
STITCH_FOLLOW
 10
39.2443
 20
25.9638
 30
0.0000
  0
VERTEX
  8
STITCH_FOLLOW
 10
41.8124
 20
26.1778
 30
0.0000
  0
VERTEX
  8
STITCH_FOLLOW
 10
42.6118
 20
26.3740
 30
0.0000
  0
VERTEX
  8
STITCH_FOLLOW
 10
43.1150
 20
26.5942
 30
0.0000
  0
VERTEX
  8
STITCH_FOLLOW
 10
43.5489
 20
26.8470
 30
0.0000
  0
VERTEX
  8
STITCH_FOLLOW
 10
44.0367
 20
27.1919
 30
0.0000
  0
VERTEX
  8
STITCH_FOLLOW
 10
44.4345
 20
27.5661
 30
0.0000
  0
VERTEX
  8
STITCH_FOLLOW
 10
44.7775
 20
27.9911
 30
0.0000
  0
VERTEX
  8
STITCH_FOLLOW
 10
45.1758
 20
28.7062
 30
0.0000
  0
VERTEX
  8
STITCH_FOLLOW
 10
46.4952
 20
32.6140
 30
0.0000
  0
VERTEX
  8
STITCH_FOLLOW
 10
46.6616
 20
32.9745
 30
0.0000
  0
VERTEX
  8
STITCH_FOLLOW
 10
46.9966
 20
33.4661
 30
0.0000
  0
VERTEX
  8
STITCH_FOLLOW
 10
47.4220
 20
33.8821
 30
0.0000
  0
VERTEX
  8
STITCH_FOLLOW
 10
48.1006
 20
34.2910
 30
0.0000
  0
VERTEX
  8
STITCH_FOLLOW
 10
50.0540
 20
34.8901
 30
0.0000
  0
VERTEX
  8
STITCH_FOLLOW
 10
50.7223
 20
35.2034
 30
0.0000
  0
VERTEX
  8
STITCH_FOLLOW
 10
51.3769
 20
35.6454
 30
0.0000
  0
VERTEX
  8
STITCH_FOLLOW
 10
51.9459
 20
36.1815
 30
0.0000
  0
VERTEX
  8
STITCH_FOLLOW
 10
52.3997
 20
36.8181
 30
0.0000
  0
VERTEX
  8
STITCH_FOLLOW
 10
52.6295
 20
37.2864
 30
0.0000
  0
VERTEX
  8
STITCH_FOLLOW
 10
52.7963
 20
37.7807
 30
0.0000
  0
VERTEX
  8
STITCH_FOLLOW
 10
53.0168
 20
38.9145
 30
0.0000
  0
VERTEX
  8
STITCH_FOLLOW
 10
53.2442
 20
39.4617
 30
0.0000
  0
VERTEX
  8
STITCH_FOLLOW
 10
53.4538
 20
39.7970
 30
0.0000
  0
VERTEX
  8
STITCH_FOLLOW
 10
53.9954
 20
40.3708
 30
0.0000
  0
VERTEX
  8
STITCH_FOLLOW
 10
54.3181
 20
40.5994
 30
0.0000
  0
VERTEX
  8
STITCH_FOLLOW
 10
55.3239
 20
41.1338
 30
0.0000
  0
VERTEX
  8
STITCH_FOLLOW
 10
55.7481
 20
41.4579
 30
0.0000
  0
VERTEX
  8
STITCH_FOLLOW
 10
56.1254
 20
41.8357
 30
0.0000
  0
VERTEX
  8
STITCH_FOLLOW
 10
56.4490
 20
42.2603
 30
0.0000
  0
VERTEX
  8
STITCH_FOLLOW
 10
56.7364
 20
42.7687
 30
0.0000
  0
VERTEX
  8
STITCH_FOLLOW
 10
56.9402
 20
43.2136
 30
0.0000
  0
VERTEX
  8
STITCH_FOLLOW
 10
57.2677
 20
44.1826
 30
0.0000
  0
VERTEX
  8
STITCH_FOLLOW
 10
57.6662
 20
44.8437
 30
0.0000
  0
VERTEX
  8
STITCH_FOLLOW
 10
58.0691
 20
45.2604
 30
0.0000
  0
VERTEX
  8
STITCH_FOLLOW
 10
59.2129
 20
46.0851
 30
0.0000
  0
VERTEX
  8
STITCH_FOLLOW
 10
59.5748
 20
46.4628
 30
0.0000
  0
VERTEX
  8
STITCH_FOLLOW
 10
59.8843
 20
46.8844
 30
0.0000
  0
VERTEX
  8
STITCH_FOLLOW
 10
60.3297
 20
47.8118
 30
0.0000
  0
VERTEX
  8
STITCH_FOLLOW
 10
61.2707
 20
50.6363
 30
0.0000
  0
VERTEX
  8
STITCH_FOLLOW
 10
61.6503
 20
51.3016
 30
0.0000
  0
VERTEX
  8
STITCH_FOLLOW
 10
62.2303
 20
51.8840
 30
0.0000
  0
VERTEX
  8
STITCH_FOLLOW
 10
64.6384
 20
53.4436
 30
0.0000
  0
VERTEX
  8
STITCH_FOLLOW
 10
65.1052
 20
53.8027
 30
0.0000
  0
VERTEX
  8
STITCH_FOLLOW
 10
65.4827
 20
54.1865
 30
0.0000
  0
VERTEX
  8
STITCH_FOLLOW
 10
68.4026
 20
57.9996
 30
0.0000
  0
VERTEX
  8
STITCH_FOLLOW
 10
71.0388
 20
61.3019
 30
0.0000
  0
VERTEX
  8
STITCH_FOLLOW
 10
73.7259
 20
64.4769
 30
0.0000
  0
VERTEX
  8
STITCH_FOLLOW
 10
76.8011
 20
67.8584
 30
0.0000
  0
VERTEX
  8
STITCH_FOLLOW
 10
77.3834
 20
68.6070
 30
0.0000
  0
VERTEX
  8
STITCH_FOLLOW
 10
78.0942
 20
69.8194
 30
0.0000
  0
VERTEX
  8
STITCH_FOLLOW
 10
78.4629
 20
70.6932
 30
0.0000
  0
VERTEX
  8
STITCH_FOLLOW
 10
78.7055
 20
71.4740
 30
0.0000
  0
VERTEX
  8
STITCH_FOLLOW
 10
78.8357
 20
72.0483
 30
0.0000
  0
VERTEX
  8
STITCH_FOLLOW
 10
78.9657
 20
72.9877
 30
0.0000
  0
VERTEX
  8
STITCH_FOLLOW
 10
78.9750
 20
74.3931
 30
0.0000
  0
VERTEX
  8
STITCH_FOLLOW
 10
78.8575
 20
75.3342
 30
0.0000
  0
VERTEX
  8
STITCH_FOLLOW
 10
78.6771
 20
76.1317
 30
0.0000
  0
VERTEX
  8
STITCH_FOLLOW
 10
78.5028
 20
76.6941
 30
0.0000
  0
VERTEX
  8
STITCH_FOLLOW
 10
78.1457
 20
77.5727
 30
0.0000
  0
VERTEX
  8
STITCH_FOLLOW
 10
77.4511
 20
78.7945
 30
0.0000
  0
VERTEX
  8
STITCH_FOLLOW
 10
77.1052
 20
79.2710
 30
0.0000
  0
VERTEX
  8
STITCH_FOLLOW
 10
76.4846
 20
79.9882
 30
0.0000
  0
VERTEX
  8
STITCH_FOLLOW
 10
75.8916
 20
80.5511
 30
0.0000
  0
VERTEX
  8
STITCH_FOLLOW
 10
75.1430
 20
81.1334
 30
0.0000
  0
VERTEX
  8
STITCH_FOLLOW
 10
73.9306
 20
81.8442
 30
0.0000
  0
VERTEX
  8
STITCH_FOLLOW
 10
73.0568
 20
82.2129
 30
0.0000
  0
VERTEX
  8
STITCH_FOLLOW
 10
72.4968
 20
82.3947
 30
0.0000
  0
VERTEX
  8
STITCH_FOLLOW
 10
71.7017
 20
82.5857
 30
0.0000
  0
VERTEX
  8
STITCH_FOLLOW
 10
70.7623
 20
82.7157
 30
0.0000
  0
VERTEX
  8
STITCH_FOLLOW
 10
69.9453
 20
82.7479
 30
0.0000
  0
VERTEX
  8
STITCH_FOLLOW
 10
68.9985
 20
82.6921
 30
0.0000
  0
VERTEX
  8
STITCH_FOLLOW
 10
68.1909
 20
82.5643
 30
0.0000
  0
VERTEX
  8
STITCH_FOLLOW
 10
67.2732
 20
82.3249
 30
0.0000
  0
VERTEX
  8
STITCH_FOLLOW
 10
66.5061
 20
82.0420
 30
0.0000
  0
VERTEX
  8
STITCH_FOLLOW
 10
65.6527
 20
81.6282
 30
0.0000
  0
VERTEX
  8
STITCH_FOLLOW
 10
64.4790
 20
80.8552
 30
0.0000
  0
VERTEX
  8
STITCH_FOLLOW
 10
63.7618
 20
80.2346
 30
0.0000
  0
VERTEX
  8
STITCH_FOLLOW
 10
59.8884
 20
76.3538
 30
0.0000
  0
VERTEX
  8
STITCH_FOLLOW
 10
56.8739
 20
73.5578
 30
0.0000
  0
VERTEX
  8
STITCH_FOLLOW
 10
52.9651
 20
70.1404
 30
0.0000
  0
VERTEX
  8
STITCH_FOLLOW
 10
47.9301
 20
65.9346
 30
0.0000
  0
VERTEX
  8
STITCH_FOLLOW
 10
47.4334
 20
65.3764
 30
0.0000
  0
VERTEX
  8
STITCH_FOLLOW
 10
47.1639
 20
64.9569
 30
0.0000
  0
VERTEX
  8
STITCH_FOLLOW
 10
46.6738
 20
63.9830
 30
0.0000
  0
VERTEX
  8
STITCH_FOLLOW
 10
46.1668
 20
63.3923
 30
0.0000
  0
VERTEX
  8
STITCH_FOLLOW
 10
45.5249
 20
62.9519
 30
0.0000
  0
VERTEX
  8
STITCH_FOLLOW
 10
44.3520
 20
62.5414
 30
0.0000
  0
VERTEX
  8
STITCH_FOLLOW
 10
43.8682
 20
62.3103
 30
0.0000
  0
VERTEX
  8
STITCH_FOLLOW
 10
43.4197
 20
62.0166
 30
0.0000
  0
VERTEX
  8
STITCH_FOLLOW
 10
43.0146
 20
61.6655
 30
0.0000
  0
VERTEX
  8
STITCH_FOLLOW
 10
42.6600
 20
61.2634
 30
0.0000
  0
VERTEX
  8
STITCH_FOLLOW
 10
42.2174
 20
60.6027
 30
0.0000
  0
VERTEX
  8
STITCH_FOLLOW
 10
41.7348
 20
59.4824
 30
0.0000
  0
VERTEX
  8
STITCH_FOLLOW
 10
41.5360
 20
59.1280
 30
0.0000
  0
VERTEX
  8
STITCH_FOLLOW
 10
41.0045
 20
58.5155
 30
0.0000
  0
VERTEX
  8
STITCH_FOLLOW
 10
40.3284
 20
58.0677
 30
0.0000
  0
VERTEX
  8
STITCH_FOLLOW
 10
37.7337
 20
57.1765
 30
0.0000
  0
VERTEX
  8
STITCH_FOLLOW
 10
37.2733
 20
56.9557
 30
0.0000
  0
VERTEX
  8
STITCH_FOLLOW
 10
36.8449
 20
56.6780
 30
0.0000
  0
VERTEX
  8
STITCH_FOLLOW
 10
36.2771
 20
56.1649
 30
0.0000
  0
VERTEX
  8
STITCH_FOLLOW
 10
35.9287
 20
55.7284
 30
0.0000
  0
VERTEX
  8
STITCH_FOLLOW
 10
35.5362
 20
55.1113
 30
0.0000
  0
VERTEX
  8
STITCH_FOLLOW
 10
35.0858
 20
54.1189
 30
0.0000
  0
VERTEX
  8
STITCH_FOLLOW
 10
34.5994
 20
53.4914
 30
0.0000
  0
VERTEX
  8
STITCH_FOLLOW
 10
33.9654
 20
53.0134
 30
0.0000
  0
VERTEX
  8
STITCH_FOLLOW
 10
32.8308
 20
52.5643
 30
0.0000
  0
VERTEX
  8
STITCH_FOLLOW
 10
32.3690
 20
52.3247
 30
0.0000
  0
VERTEX
  8
STITCH_FOLLOW
 10
31.9422
 20
52.0271
 30
0.0000
  0
VERTEX
  8
STITCH_FOLLOW
 10
31.5577
 20
51.6766
 30
0.0000
  0
VERTEX
  8
STITCH_FOLLOW
 10
31.0741
 20
51.0649
 30
0.0000
  0
VERTEX
  8
STITCH_FOLLOW
 10
30.7184
 20
50.3710
 30
0.0000
  0
VERTEX
  8
STITCH_FOLLOW
 10
30.4939
 20
49.5735
 30
0.0000
  0
VERTEX
  8
STITCH_FOLLOW
 10
29.8556
 20
45.9733
 30
0.0000
  0
VERTEX
  8
STITCH_FOLLOW
 10
29.5300
 20
45.2584
 30
0.0000
  0
VERTEX
  8
STITCH_FOLLOW
 10
29.0300
 20
44.6525
 30
0.0000
  0
VERTEX
  8
STITCH_FOLLOW
 10
28.5608
 20
44.2950
 30
0.0000
  0
VERTEX
  8
STITCH_FOLLOW
 10
28.0162
 20
44.0309
 30
0.0000
  0
VERTEX
  8
STITCH_FOLLOW
 10
22.7643
 20
42.3470
 30
0.0000
  0
VERTEX
  8
STITCH_FOLLOW
 10
22.2792
 20
42.1181
 30
0.0000
  0
VERTEX
  8
STITCH_FOLLOW
 10
21.6198
 20
41.6584
 30
0.0000
  0
VERTEX
  8
STITCH_FOLLOW
 10
21.2373
 20
41.2825
 30
0.0000
  0
VERTEX
  8
STITCH_FOLLOW
 10
20.9084
 20
40.8588
 30
0.0000
  0
VERTEX
  8
STITCH_FOLLOW
 10
20.2666
 20
39.6043
 30
0.0000
  0
VERTEX
  8
STITCH_FOLLOW
 10
19.9250
 20
39.1484
 30
0.0000
  0
VERTEX
  8
STITCH_FOLLOW
 10
19.3476
 20
38.6564
 30
0.0000
  0
VERTEX
  8
STITCH_FOLLOW
 10
18.4899
 20
38.1922
 30
0.0000
  0
VERTEX
  8
STITCH_FOLLOW
 10
17.8447
 20
37.7306
 30
0.0000
  0
VERTEX
  8
STITCH_FOLLOW
 10
17.4764
 20
37.3881
 30
0.0000
  0
VERTEX
  8
STITCH_FOLLOW
 10
17.1539
 20
37.0021
 30
0.0000
  0
VERTEX
  8
STITCH_FOLLOW
 10
16.8825
 20
36.5786
 30
0.0000
  0
VERTEX
  8
STITCH_FOLLOW
 10
16.5801
 20
35.8880
 30
0.0000
  0
VERTEX
  8
STITCH_FOLLOW
 10
16.3056
 20
34.5439
 30
0.0000
  0
VERTEX
  8
STITCH_FOLLOW
 10
16.1781
 20
34.1687
 30
0.0000
  0
VERTEX
  8
STITCH_FOLLOW
 10
15.8971
 20
33.6456
 30
0.0000
  0
VERTEX
  8
STITCH_FOLLOW
 10
15.5186
 20
33.1881
 30
0.0000
  0
VERTEX
  8
STITCH_FOLLOW
 10
15.0574
 20
32.8141
 30
0.0000
  0
VERTEX
  8
STITCH_FOLLOW
 10
14.5316
 20
32.5382
 30
0.0000
  0
VERTEX
  8
STITCH_FOLLOW
 10
14.1552
 20
32.4144
 30
0.0000
  0
VERTEX
  8
STITCH_FOLLOW
 10
13.1112
 20
32.2475
 30
0.0000
  0
VERTEX
  8
STITCH_FOLLOW
 10
12.6057
 20
32.0998
 30
0.0000
  0
VERTEX
  8
STITCH_FOLLOW
 10
12.1240
 20
31.8870
 30
0.0000
  0
VERTEX
  8
STITCH_FOLLOW
 10
11.4641
 20
31.4539
 30
0.0000
  0
VERTEX
  8
STITCH_FOLLOW
 10
11.0420
 20
31.0619
 30
0.0000
  0
VERTEX
  8
STITCH_FOLLOW
 10
2.1048
 20
21.6541
 30
0.0000
  0
VERTEX
  8
STITCH_FOLLOW
 10
1.6522
 20
21.2877
 30
0.0000
  0
VERTEX
  8
STITCH_FOLLOW
 10
1.1372
 20
21.0156
 30
0.0000
  0
VERTEX
  8
STITCH_FOLLOW
 10
0.5794
 20
20.8482
 30
0.0000
  0
VERTEX
  8
STITCH_FOLLOW
 10
-0.0002
 20
20.7917
 30
0.0000
  0
VERTEX
  8
STITCH_FOLLOW
 10
-0.3880
 20
20.8169
 30
0.0000
  0
VERTEX
  8
STITCH_FOLLOW
 10
-0.9555
 20
20.9480
 30
0.0000
  0
VERTEX
  8
STITCH_FOLLOW
 10
-1.4869
 20
21.1862
 30
0.0000
  0
VERTEX
  8
STITCH_FOLLOW
 10
-1.9624
 20
21.5225
 30
0.0000
  0
VERTEX
  8
STITCH_FOLLOW
 10
-7.2267
 20
27.0422
 30
0.0000
  0
VERTEX
  8
STITCH_FOLLOW
 10
-7.8781
 20
27.6065
 30
0.0000
  0
VERTEX
  8
STITCH_FOLLOW
 10
-8.6334
 20
28.0217
 30
0.0000
  0
VERTEX
  8
STITCH_FOLLOW
 10
-9.3086
 20
28.2776
 30
0.0000
  0
VERTEX
  8
STITCH_FOLLOW
 10
-9.7825
 20
28.3849
 30
0.0000
  0
VERTEX
  8
STITCH_FOLLOW
 10
-10.5845
 20
28.4636
 30
0.0000
  0
VERTEX
  8
STITCH_FOLLOW
 10
-11.1647
 20
28.6072
 30
0.0000
  0
VERTEX
  8
STITCH_FOLLOW
 10
-11.7049
 20
28.8631
 30
0.0000
  0
VERTEX
  8
STITCH_FOLLOW
 10
-12.1837
 20
29.2209
 30
0.0000
  0
VERTEX
  8
STITCH_FOLLOW
 10
-12.5820
 20
29.6666
 30
0.0000
  0
VERTEX
  8
STITCH_FOLLOW
 10
-12.9612
 20
30.3664
 30
0.0000
  0
VERTEX
  8
STITCH_FOLLOW
 10
-13.1170
 20
30.9435
 30
0.0000
  0
VERTEX
  8
STITCH_FOLLOW
 10
-13.2446
 20
32.2590
 30
0.0000
  0
VERTEX
  8
STITCH_FOLLOW
 10
-13.3755
 20
32.7585
 30
0.0000
  0
VERTEX
  8
STITCH_FOLLOW
 10
-13.5696
 20
33.2370
 30
0.0000
  0
VERTEX
  8
STITCH_FOLLOW
 10
-13.9721
 20
33.8979
 30
0.0000
  0
VERTEX
  8
STITCH_FOLLOW
 10
-14.3081
 20
34.2900
 30
0.0000
  0
VERTEX
  8
STITCH_FOLLOW
 10
-14.6918
 20
34.6355
 30
0.0000
  0
VERTEX
  8
STITCH_FOLLOW
 10
-15.1168
 20
34.9287
 30
0.0000
  0
VERTEX
  8
STITCH_FOLLOW
 10
-15.6199
 20
35.1855
 30
0.0000
  0
VERTEX
  8
STITCH_FOLLOW
 10
-19.4781
 20
36.8625
 30
0.0000
  0
VERTEX
  8
STITCH_FOLLOW
 10
-20.6201
 20
37.2618
 30
0.0000
  0
VERTEX
  8
STITCH_FOLLOW
 10
-21.1219
 20
37.5398
 30
0.0000
  0
VERTEX
  8
STITCH_FOLLOW
 10
-21.4229
 20
37.7761
 30
0.0000
  0
VERTEX
  8
STITCH_FOLLOW
 10
-21.8121
 20
38.1974
 30
0.0000
  0
VERTEX
  8
STITCH_FOLLOW
 10
-22.1933
 20
38.8595
 30
0.0000
  0
VERTEX
  8
STITCH_FOLLOW
 10
-23.5754
 20
43.3215
 30
0.0000
  0
VERTEX
  8
STITCH_FOLLOW
 10
-23.9329
 20
44.0302
 30
0.0000
  0
VERTEX
  8
STITCH_FOLLOW
 10
-24.4235
 20
44.6544
 30
0.0000
  0
VERTEX
  8
STITCH_FOLLOW
 10
-25.0676
 20
45.1990
 30
0.0000
  0
VERTEX
  8
STITCH_FOLLOW
 10
-25.7246
 20
45.6059
 30
0.0000
  0
VERTEX
  8
STITCH_FOLLOW
 10
-30.0321
 20
47.3887
 30
0.0000
  0
VERTEX
  8
STITCH_FOLLOW
 10
-30.6741
 20
47.7021
 30
0.0000
  0
VERTEX
  8
STITCH_FOLLOW
 10
-31.1637
 20
48.0412
 30
0.0000
  0
VERTEX
  8
STITCH_FOLLOW
 10
-31.5767
 20
48.4704
 30
0.0000
  0
VERTEX
  8
STITCH_FOLLOW
 10
-31.9805
 20
49.1530
 30
0.0000
  0
VERTEX
  8
STITCH_FOLLOW
 10
-32.1113
 20
49.5283
 30
0.0000
  0
VERTEX
  8
STITCH_FOLLOW
 10
-32.6094
 20
51.7363
 30
0.0000
  0
VERTEX
  8
STITCH_FOLLOW
 10
-32.7735
 20
52.2168
 30
0.0000
  0
VERTEX
  8
STITCH_FOLLOW
 10
-33.1220
 20
52.9561
 30
0.0000
  0
VERTEX
  8
STITCH_FOLLOW
 10
-33.4139
 20
53.3783
 30
0.0000
  0
VERTEX
  8
STITCH_FOLLOW
 10
-33.7575
 20
53.7596
 30
0.0000
  0
VERTEX
  8
STITCH_FOLLOW
 10
-34.3571
 20
54.2414
 30
0.0000
  0
VERTEX
  8
STITCH_FOLLOW
 10
-34.8035
 20
54.4948
 30
0.0000
  0
VERTEX
  8
STITCH_FOLLOW
 10
-37.6834
 20
55.6585
 30
0.0000
  0
VERTEX
  8
STITCH_FOLLOW
 10
-39.1559
 20
56.2018
 30
0.0000
  0
VERTEX
  8
STITCH_FOLLOW
 10
-39.5205
 20
56.3771
 30
0.0000
  0
VERTEX
  8
STITCH_FOLLOW
 10
-40.0150
 20
56.7277
 30
0.0000
  0
VERTEX
  8
STITCH_FOLLOW
 10
-40.4289
 20
57.1706
 30
0.0000
  0
VERTEX
  8
STITCH_FOLLOW
 10
-40.7454
 20
57.6877
 30
0.0000
  0
VERTEX
  8
STITCH_FOLLOW
 10
-41.5029
 20
59.9094
 30
0.0000
  0
VERTEX
  8
STITCH_FOLLOW
 10
-41.7381
 20
60.4627
 30
0.0000
  0
VERTEX
  8
STITCH_FOLLOW
 10
-42.1872
 20
61.1530
 30
0.0000
  0
VERTEX
  8
STITCH_FOLLOW
 10
-42.5614
 20
61.5556
 30
0.0000
  0
VERTEX
  8
STITCH_FOLLOW
 10
-50.5602
 20
68.1171
 30
0.0000
  0
VERTEX
  8
STITCH_FOLLOW
 10
-55.3272
 20
72.1823
 30
0.0000
  0
VERTEX
  8
STITCH_FOLLOW
 10
-59.1455
 20
75.6484
 30
0.0000
  0
VERTEX
  8
STITCH_FOLLOW
 10
-61.3512
 20
77.7790
 30
0.0000
  0
VERTEX
  8
STITCH_FOLLOW
 10
-63.7618
 20
80.2346
 30
0.0000
  0
VERTEX
  8
STITCH_FOLLOW
 10
-64.4790
 20
80.8552
 30
0.0000
  0
VERTEX
  8
STITCH_FOLLOW
 10
-65.1468
 20
81.3270
 30
0.0000
  0
VERTEX
  8
STITCH_FOLLOW
 10
-65.9713
 20
81.7958
 30
0.0000
  0
VERTEX
  8
STITCH_FOLLOW
 10
-67.2732
 20
82.3249
 30
0.0000
  0
VERTEX
  8
STITCH_FOLLOW
 10
-67.8399
 20
82.4849
 30
0.0000
  0
VERTEX
  8
STITCH_FOLLOW
 10
-68.7713
 20
82.6638
 30
0.0000
  0
VERTEX
  8
STITCH_FOLLOW
 10
-70.1743
 20
82.7464
 30
0.0000
  0
VERTEX
  8
STITCH_FOLLOW
 10
-71.1202
 20
82.6780
 30
0.0000
  0
VERTEX
  8
STITCH_FOLLOW
 10
-71.9260
 20
82.5395
 30
0.0000
  0
VERTEX
  8
STITCH_FOLLOW
 10
-72.4968
 20
82.3947
 30
0.0000
  0
VERTEX
  8
STITCH_FOLLOW
 10
-73.3928
 20
82.0839
 30
0.0000
  0
VERTEX
  8
STITCH_FOLLOW
 10
-74.6491
 20
81.4539
 30
0.0000
  0
VERTEX
  8
STITCH_FOLLOW
 10
-75.4341
 20
80.9218
 30
0.0000
  0
VERTEX
  8
STITCH_FOLLOW
 10
-76.0627
 20
80.3989
 30
0.0000
  0
VERTEX
  8
STITCH_FOLLOW
 10
-76.7289
 20
79.7239
 30
0.0000
  0
VERTEX
  8
STITCH_FOLLOW
 10
-77.1052
 20
79.2710
 30
0.0000
  0
VERTEX
  8
STITCH_FOLLOW
 10
-77.5770
 20
78.6032
 30
0.0000
  0
VERTEX
  8
STITCH_FOLLOW
 10
-78.0458
 20
77.7787
 30
0.0000
  0
VERTEX
  8
STITCH_FOLLOW
 10
-78.5749
 20
76.4768
 30
0.0000
  0
VERTEX
  8
STITCH_FOLLOW
 10
-78.8143
 20
75.5591
 30
0.0000
  0
VERTEX
  8
STITCH_FOLLOW
 10
-78.9421
 20
74.7515
 30
0.0000
  0
VERTEX
  8
STITCH_FOLLOW
 10
-78.9979
 20
73.8047
 30
0.0000
  0
VERTEX
  8
STITCH_FOLLOW
 10
-78.9657
 20
72.9877
 30
0.0000
  0
VERTEX
  8
STITCH_FOLLOW
 10
-78.8967
 20
72.4030
 30
0.0000
  0
VERTEX
  8
STITCH_FOLLOW
 10
-78.7055
 20
71.4740
 30
0.0000
  0
VERTEX
  8
STITCH_FOLLOW
 10
-78.2449
 20
70.1462
 30
0.0000
  0
VERTEX
  8
STITCH_FOLLOW
 10
-77.8198
 20
69.2985
 30
0.0000
  0
VERTEX
  8
STITCH_FOLLOW
 10
-77.3834
 20
68.6070
 30
0.0000
  0
VERTEX
  8
STITCH_FOLLOW
 10
-76.8011
 20
67.8584
 30
0.0000
  0
VERTEX
  8
STITCH_FOLLOW
 10
-75.1087
 20
66.0264
 30
0.0000
  0
VERTEX
  8
STITCH_FOLLOW
 10
-73.0600
 20
63.7096
 30
0.0000
  0
VERTEX
  8
STITCH_FOLLOW
 10
-70.3614
 20
60.4699
 30
0.0000
  0
VERTEX
  8
STITCH_FOLLOW
 10
-67.0957
 20
56.3043
 30
0.0000
  0
VERTEX
  8
STITCH_FOLLOW
 10
-61.8431
 20
49.2363
 30
0.0000
  0
VERTEX
  8
STITCH_FOLLOW
 10
-61.4579
 20
48.7762
 30
0.0000
  0
VERTEX
  8
STITCH_FOLLOW
 10
-61.0504
 20
48.4089
 30
0.0000
  0
VERTEX
  8
STITCH_FOLLOW
 10
-60.1764
 20
47.8389
 30
0.0000
  0
VERTEX
  8
STITCH_FOLLOW
 10
-57.2923
 20
46.7296
 30
0.0000
  0
VERTEX
  8
STITCH_FOLLOW
 10
-56.7944
 20
46.4482
 30
0.0000
  0
VERTEX
  8
STITCH_FOLLOW
 10
-56.2305
 20
45.9363
 30
0.0000
  0
VERTEX
  8
STITCH_FOLLOW
 10
-55.8137
 20
45.2988
 30
0.0000
  0
VERTEX
  8
STITCH_FOLLOW
 10
-55.2768
 20
43.9882
 30
0.0000
  0
VERTEX
  8
STITCH_FOLLOW
 10
-54.0654
 20
39.7967
 30
0.0000
  0
VERTEX
  8
STITCH_FOLLOW
 10
-53.8826
 20
39.2916
 30
0.0000
  0
VERTEX
  8
STITCH_FOLLOW
 10
-53.5274
 20
38.6469
 30
0.0000
  0
VERTEX
  8
STITCH_FOLLOW
 10
-52.9042
 20
37.9187
 30
0.0000
  0
VERTEX
  8
STITCH_FOLLOW
 10
-52.2734
 20
37.3900
 30
0.0000
  0
VERTEX
  8
STITCH_FOLLOW
 10
-49.0095
 20
35.4846
 30
0.0000
  0
VERTEX
  8
STITCH_FOLLOW
 10
-47.5820
 20
34.8000
 30
0.0000
  0
VERTEX
  8
STITCH_FOLLOW
 10
-47.2545
 20
34.5803
 30
0.0000
  0
VERTEX
  8
STITCH_FOLLOW
 10
-46.8243
 20
34.1751
 30
0.0000
  0
VERTEX
  8
STITCH_FOLLOW
 10
-46.4819
 20
33.6935
 30
0.0000
  0
VERTEX
  8
STITCH_FOLLOW
 10
-46.1843
 20
32.9650
 30
0.0000
  0
VERTEX
  8
STITCH_FOLLOW
 10
-45.8165
 20
30.5089
 30
0.0000
  0
VERTEX
  8
STITCH_FOLLOW
 10
-45.6229
 20
29.7230
 30
0.0000
  0
VERTEX
  8
STITCH_FOLLOW
 10
-45.3012
 20
29.0325
 30
0.0000
  0
VERTEX
  8
STITCH_FOLLOW
 10
-44.6798
 20
28.1919
 30
0.0000
  0
VERTEX
  8
STITCH_FOLLOW
 10
-44.0870
 20
27.6464
 30
0.0000
  0
VERTEX
  8
STITCH_FOLLOW
 10
-43.3969
 20
27.2307
 30
0.0000
  0
VERTEX
  8
STITCH_FOLLOW
 10
-42.8964
 20
27.0344
 30
0.0000
  0
VERTEX
  8
STITCH_FOLLOW
 10
-40.5859
 20
26.4287
 30
0.0000
  0
VERTEX
  8
STITCH_FOLLOW
 10
-40.0585
 20
26.1594
 30
0.0000
  0
VERTEX
  8
STITCH_FOLLOW
 10
-39.4568
 20
25.6497
 30
0.0000
  0
VERTEX
  8
STITCH_FOLLOW
 10
-39.0087
 20
25.0008
 30
0.0000
  0
VERTEX
  8
STITCH_FOLLOW
 10
-38.7925
 20
24.4495
 30
0.0000
  0
VERTEX
  8
STITCH_FOLLOW
 10
-38.6888
 20
23.8665
 30
0.0000
  0
VERTEX
  8
STITCH_FOLLOW
 10
-38.6308
 20
22.7388
 30
0.0000
  0
VERTEX
  8
STITCH_FOLLOW
 10
-38.5184
 20
22.2518
 30
0.0000
  0
VERTEX
  8
STITCH_FOLLOW
 10
-38.3462
 20
21.7825
 30
0.0000
  0
VERTEX
  8
STITCH_FOLLOW
 10
-38.0004
 20
21.1415
 30
0.0000
  0
VERTEX
  8
STITCH_FOLLOW
 10
-37.6906
 20
20.6883
 30
0.0000
  0
VERTEX
  8
STITCH_FOLLOW
 10
-37.3567
 20
20.3136
 30
0.0000
  0
VERTEX
  8
STITCH_FOLLOW
 10
-36.9785
 20
19.9837
 30
0.0000
  0
VERTEX
  8
STITCH_FOLLOW
 10
-36.5620
 20
19.7038
 30
0.0000
  0
VERTEX
  8
STITCH_FOLLOW
 10
-36.1136
 20
19.4782
 30
0.0000
  0
VERTEX
  8
STITCH_FOLLOW
 10
-32.3225
 20
18.1181
 30
0.0000
  0
VERTEX
  8
STITCH_FOLLOW
 10
-31.8009
 20
17.8289
 30
0.0000
  0
VERTEX
  8
STITCH_FOLLOW
 10
-31.2138
 20
17.2941
 30
0.0000
  0
VERTEX
  8
STITCH_FOLLOW
 10
-30.8772
 20
16.8017
 30
0.0000
  0
VERTEX
  8
STITCH_FOLLOW
 10
-30.5919
 20
16.0606
 30
0.0000
  0
VERTEX
  8
STITCH_FOLLOW
 10
-30.5116
 20
15.4696
 30
0.0000
  0
VERTEX
  8
STITCH_FOLLOW
 10
-30.5783
 20
14.4037
 30
0.0000
  0
VERTEX
  8
STITCH_FOLLOW
 10
-30.5090
 20
13.6445
 30
0.0000
  0
VERTEX
  8
STITCH_FOLLOW
 10
-30.2969
 20
12.9123
 30
0.0000
  0
VERTEX
  8
STITCH_FOLLOW
 10
-30.0798
 20
12.4523
 30
0.0000
  0
VERTEX
  8
STITCH_FOLLOW
 10
-29.8060
 20
12.0236
 30
0.0000
  0
VERTEX
  8
STITCH_FOLLOW
 10
-29.4482
 20
11.5974
 30
0.0000
  0
VERTEX
  8
STITCH_FOLLOW
 10
-20.3412
 20
1.9954
 30
0.0000
  0
VERTEX
  8
STITCH_FOLLOW
 10
-19.9917
 20
1.5144
 30
0.0000
  0
VERTEX
  8
STITCH_FOLLOW
 10
-19.8145
 20
1.1595
 30
0.0000
  0
VERTEX
  8
STITCH_FOLLOW
 10
-19.6075
 20
0.3953
 30
0.0000
  0
VERTEX
  8
STITCH_FOLLOW
 10
-19.5879
 20
-0.1990
 30
0.0000
  0
VERTEX
  8
STITCH_FOLLOW
 10
-19.6860
 20
-0.7854
 30
0.0000
  0
VERTEX
  8
STITCH_FOLLOW
 10
-19.8977
 20
-1.3410
 30
0.0000
  0
VERTEX
  8
STITCH_FOLLOW
 10
-20.2148
 20
-1.8439
 30
0.0000
  0
VERTEX
  8
STITCH_FOLLOW
 10
-26.1341
 20
-8.1208
 30
0.0000
  0
VERTEX
  8
STITCH_FOLLOW
 10
-26.5766
 20
-8.7755
 30
0.0000
  0
VERTEX
  8
STITCH_FOLLOW
 10
-27.0278
 20
-9.7490
 30
0.0000
  0
VERTEX
  8
STITCH_FOLLOW
 10
-27.3768
 20
-10.2297
 30
0.0000
  0
VERTEX
  8
STITCH_FOLLOW
 10
-27.8136
 20
-10.6323
 30
0.0000
  0
VERTEX
  8
STITCH_FOLLOW
 10
-28.9893
 20
-11.3790
 30
0.0000
  0
VERTEX
  8
STITCH_FOLLOW
 10
-29.3803
 20
-11.7413
 30
0.0000
  0
VERTEX
  8
STITCH_FOLLOW
 10
-29.8681
 20
-12.3739
 30
0.0000
  0
VERTEX
  8
STITCH_FOLLOW
 10
-30.2393
 20
-13.1371
 30
0.0000
  0
VERTEX
  8
STITCH_FOLLOW
 10
-32.4031
 20
-18.9239
 30
0.0000
  0
VERTEX
  8
STITCH_FOLLOW
 10
-32.6642
 20
-19.4487
 30
0.0000
  0
VERTEX
  8
STITCH_FOLLOW
 10
-32.8930
 20
-19.7658
 30
0.0000
  0
VERTEX
  8
STITCH_FOLLOW
 10
-33.4639
 20
-20.2980
 30
0.0000
  0
VERTEX
  8
STITCH_FOLLOW
 10
-34.1529
 20
-20.6649
 30
0.0000
  0
VERTEX
  8
STITCH_FOLLOW
 10
-34.7191
 20
-20.8162
 30
0.0000
  0
VERTEX
  8
STITCH_FOLLOW
 10
-36.4836
 20
-20.9960
 30
0.0000
  0
VERTEX
  8
STITCH_FOLLOW
 10
-37.2844
 20
-21.1503
 30
0.0000
  0
VERTEX
  8
STITCH_FOLLOW
 10
-37.9953
 20
-21.4394
 30
0.0000
  0
VERTEX
  8
STITCH_FOLLOW
 10
-38.6378
 20
-21.8591
 30
0.0000
  0
VERTEX
  8
STITCH_FOLLOW
 10
-39.0164
 20
-22.2039
 30
0.0000
  0
VERTEX
  8
STITCH_FOLLOW
 10
-39.4941
 20
-22.8046
 30
0.0000
  0
VERTEX
  8
STITCH_FOLLOW
 10
-39.8482
 20
-23.4854
 30
0.0000
  0
VERTEX
  8
STITCH_FOLLOW
 10
-40.2220
 20
-24.5019
 30
0.0000
  0
VERTEX
  8
STITCH_FOLLOW
 10
-40.5299
 20
-24.9800
 30
0.0000
  0
VERTEX
  8
STITCH_FOLLOW
 10
-40.7831
 20
-25.2627
 30
0.0000
  0
VERTEX
  8
STITCH_FOLLOW
 10
-41.3858
 20
-25.7214
 30
0.0000
  0
VERTEX
  8
STITCH_FOLLOW
 10
-42.3856
 20
-26.2226
 30
0.0000
  0
VERTEX
  8
STITCH_FOLLOW
 10
-43.0049
 20
-26.7022
 30
0.0000
  0
VERTEX
  8
STITCH_FOLLOW
 10
-43.3605
 20
-27.0852
 30
0.0000
  0
VERTEX
  8
STITCH_FOLLOW
 10
-43.6631
 20
-27.5113
 30
0.0000
  0
VERTEX
  8
STITCH_FOLLOW
 10
-44.2739
 20
-28.7045
 30
0.0000
  0
VERTEX
  8
STITCH_FOLLOW
 10
-44.8143
 20
-29.3107
 30
0.0000
  0
VERTEX
  8
STITCH_FOLLOW
 10
-45.3159
 20
-29.6576
 30
0.0000
  0
VERTEX
  8
STITCH_FOLLOW
 10
-46.5988
 20
-30.2294
 30
0.0000
  0
VERTEX
  8
STITCH_FOLLOW
 10
-47.0375
 20
-30.5288
 30
0.0000
  0
VERTEX
  8
STITCH_FOLLOW
 10
-47.4327
 20
-30.8837
 30
0.0000
  0
VERTEX
  8
STITCH_FOLLOW
 10
-47.9288
 20
-31.5062
 30
0.0000
  0
VERTEX
  8
STITCH_FOLLOW
 10
-48.2918
 20
-32.2146
 30
0.0000
  0
VERTEX
  8
STITCH_FOLLOW
 10
-48.5072
 20
-32.9809
 30
0.0000
  0
VERTEX
  8
STITCH_FOLLOW
 10
-48.7012
 20
-34.6865
 30
0.0000
  0
VERTEX
  8
STITCH_FOLLOW
 10
-48.7929
 20
-35.0716
 30
0.0000
  0
VERTEX
  8
STITCH_FOLLOW
 10
-49.0232
 20
-35.6183
 30
0.0000
  0
VERTEX
  8
STITCH_FOLLOW
 10
-49.3566
 20
-36.1089
 30
0.0000
  0
VERTEX
  8
STITCH_FOLLOW
 10
-49.7800
 20
-36.5244
 30
0.0000
  0
VERTEX
  8
STITCH_FOLLOW
 10
-50.2768
 20
-36.8484
 30
0.0000
  0
VERTEX
  8
STITCH_FOLLOW
 10
-52.6854
 20
-37.9182
 30
0.0000
  0
VERTEX
  8
STITCH_FOLLOW
 10
-53.3684
 20
-38.3012
 30
0.0000
  0
VERTEX
  8
STITCH_FOLLOW
 10
-53.9324
 20
-38.7756
 30
0.0000
  0
VERTEX
  8
STITCH_FOLLOW
 10
-54.5815
 20
-39.5546
 30
0.0000
  0
VERTEX
  8
STITCH_FOLLOW
 10
-54.9389
 20
-40.2092
 30
0.0000
  0
VERTEX
  8
STITCH_FOLLOW
 10
-56.3357
 20
-44.1618
 30
0.0000
  0
SEQEND
  8
STITCH_FOLLOW
  0
POLYLINE
  8
GUIDE
 66
1
 10
0.0000
 20
0.0000
 30
0.0000
 70
1
  0
VERTEX
  8
GUIDE
 10
-90.4935
 20
94.2435
 30
0.0000
  0
VERTEX
  8
GUIDE
 10
0.0000
 20
94.2435
 30
0.0000
  0
VERTEX
  8
GUIDE
 10
0.0000
 20
88.2435
 30
0.0000
  0
VERTEX
  8
GUIDE
 10
6.0000
 20
94.2435
 30
0.0000
  0
VERTEX
  8
GUIDE
 10
90.4935
 20
94.2435
 30
0.0000
  0
VERTEX
  8
GUIDE
 10
90.4935
 20
-94.2435
 30
0.0000
  0
VERTEX
  8
GUIDE
 10
-90.4935
 20
-94.2435
 30
0.0000
  0
SEQEND
  8
GUIDE
  0
POLYLINE
  8
ORIENT
 66
1
 10
0.0000
 20
0.0000
 30
0.0000
 70
1
  0
VERTEX
  8
ORIENT
 10
0.0000
 20
77.3120
 30
0.0000
  0
VERTEX
  8
ORIENT
 10
2.5000
 20
72.3120
 30
0.0000
  0
VERTEX
  8
ORIENT
 10
0.7000
 20
72.3120
 30
0.0000
  0
VERTEX
  8
ORIENT
 10
0.7000
 20
41.3120
 30
0.0000
  0
VERTEX
  8
ORIENT
 10
-0.7000
 20
41.3120
 30
0.0000
  0
VERTEX
  8
ORIENT
 10
-0.7000
 20
72.3120
 30
0.0000
  0
VERTEX
  8
ORIENT
 10
-2.5000
 20
72.3120
 30
0.0000
  0
SEQEND
  8
ORIENT
  0
POLYLINE
  8
CHECK
 66
1
 10
0.0000
 20
0.0000
 30
0.0000
 70
1
  0
VERTEX
  8
CHECK
 10
-99.0000
 20
110.7500
 30
0.0000
  0
VERTEX
  8
CHECK
 10
-49.0000
 20
110.7500
 30
0.0000
  0
VERTEX
  8
CHECK
 10
-49.0000
 20
160.7500
 30
0.0000
  0
VERTEX
  8
CHECK
 10
-99.0000
 20
160.7500
 30
0.0000
  0
SEQEND
  8
CHECK
  0
LINE
  8
CENTRE
 10
0.0000
 20
-102.7500
 30
0.0000
 11
0.0000
 21
102.7500
 31
0.0000
  0
LINE
  8
CENTRE
 10
-99.0000
 20
0.0000
 30
0.0000
 11
99.0000
 21
0.0000
 31
0.0000
  0
LINE
  8
CHECK
 10
-99.0000
 20
110.7500
 30
0.0000
 11
-49.0000
 21
160.7500
 31
0.0000
  0
TEXT
  8
CHECK
 10
-96.0000
 20
139.7500
 30
0.0000
 40
3.0000
  1
CHECK 50 X 50 MM
  0
TEXT
  8
CHECK
 10
-96.0000
 20
133.7500
 30
0.0000
 40
3.0000
  1
MEASURE AFTER IMPORT
  0
TEXT
  8
ORIENT
 10
4.0000
 20
72.7120
 30
0.0000
 40
2.2300
  1
FACE UP / NECK
  0
TEXT
  8
NOTES
 10
-99.0000
 20
-110.7500
 30
0.0000
 40
3.0000
  1
CS-XTEE-01 X TEMPLATE 150 MM, PROPOSAL, NOT FINAL. v0.1 2026-09-29
  0
TEXT
  8
NOTES
 10
-99.0000
 20
-115.7500
 30
0.0000
 40
3.0000
  1
FACE VIEW (OUTSIDE). DO NOT MIRROR OR ROTATE. CUT GUIDE, STITCH STENCIL AND EMBROIDERY PROGRAM MUST USE THE SAME ORIENTATION.
  0
TEXT
  8
NOTES
 10
-99.0000
 20
-120.7500
 30
0.0000
 40
3.0000
  1
UNITS MM. CHECK SQUARE = 50 X 50 MM (LAYER CHECK). ORIGIN = X CENTRE ON CF. +Y = TOWARDS NECK.
  0
TEXT
  8
NOTES
 10
-99.0000
 20
-125.7500
 30
0.0000
 40
3.0000
  1
GUIDE = MIN. SHEET FOR CUT GUIDE, STITCH STENCIL AND PLACEMENT TEMPLATE, WITH ASYMMETRIC REGISTRATION NOTCH AT CF TOP (STRAIGHT SIDE ON CF, SLOPE TO +X).
  0
TEXT
  8
NOTES
 10
-99.0000
 20
-130.7500
 30
0.0000
 40
3.0000
  1
ORIENT = ENGRAVE ARROW + FACE UP / NECK ON ALL TOOLING. CUT GUIDE ALSO CARRIES THE STITCH_FOLLOW LINE: EACH TOOTH MUST SIT WHERE THE STITCH STEPS IN.
  0
TEXT
  8
NOTES
 10
-99.0000
 20
-135.7500
 30
0.0000
 40
3.0000
  1
CUT_JAG TEETH 3-8 MM DEEP (LESS WHERE THE ARM NARROWS), 5-15 MM APART, STAGGERED; BOTH SIDES TOGETHER <= 40% OF ARM WIDTH; VISIBLE BROWN >= 10 MM; NO TEETH IN THE LAST 16 MM BEFORE EACH TIP.
  0
TEXT
  8
NOTES
 10
-99.0000
 20
-140.7500
 30
0.0000
 40
3.0000
  1
STITCH = MACHINE PATH. CUT_JAG = CUT CREAM ONLY (EDGE B, BOTH PROTOS). PATCH = UNDER-PATCH CUT (STITCH + 10).
  0
TEXT
  8
NOTES
 10
-99.0000
 20
-145.7500
 30
0.0000
 40
3.0000
  1
BASE = STITCH OFFSET 4 MM INWARD, R >= 7. EDGE A: CUT FREEHAND 0-3 MM INSIDE BASE. B VALLEYS SIT ON BASE.
  0
TEXT
  8
NOTES
 10
-99.0000
 20
-150.7500
 30
0.0000
 40
3.0000
  1
STITCH_FOLLOW = PROTO B STITCH, FOLLOWS THE JAG (>= 4 MM FROM CUT).
  0
TEXT
  8
NOTES
 10
-99.0000
 20
-155.7500
 30
0.0000
 40
3.0000
  1
150 MM FILE: OUTLINE BASED ON THE 200 MM X, TIPS KEPT AT 10 MM. USE THIS FILE; DO NOT SCALE THE 200 MM FILE.
  0
ENDSEC
  0
EOF
